<?xml version="1.0"?>
<svg xmlns="http://www.w3.org/2000/svg" version="1.1" height="446mm" width="496mm" >
 <g style="fill-opacity:1.0; stroke:black; stroke-width:1;">
  <line x1="0.000000mm" y1="0.000000mm" x2="0.000000mm" y2="0.000000mm" />
  <line x1="0.000000mm" y1="0.000000mm" x2="0.000000mm" y2="436.000000mm" />
  <line x1="0.000000mm" y1="436.000000mm" x2="485.500000mm" y2="436.000000mm" />
  <line x1="485.500000mm" y1="436.000000mm" x2="485.500000mm" y2="0.000000mm" />
  <line x1="485.500000mm" y1="0.000000mm" x2="0.000000mm" y2="0.000000mm" />
  <circle cx="20.309535mm" cy="156.300027mm" r="0.999985mm" fill="none"/>
  <line x1="22.309505mm" y1="156.300027mm" x2="18.309565mm" y2="156.300027mm" />
  <line x1="20.309535mm" y1="154.300057mm" x2="20.309535mm" y2="158.299997mm" />
  <text x="21mm" y="155mm" font-size="24">
   2.0
  </text>
  <circle cx="32.499767mm" cy="217.999943mm" r="3.999887mm" fill="none"/>
  <line x1="40.499541mm" y1="217.999943mm" x2="24.499993mm" y2="217.999943mm" />
  <line x1="32.499767mm" y1="210.000170mm" x2="32.499767mm" y2="225.999717mm" />
  <text x="36mm" y="214mm" font-size="24">
   8.0
  </text>
  <circle cx="75.700000mm" cy="20.309997mm" r="0.999978mm" fill="none"/>
  <line x1="77.699956mm" y1="20.309997mm" x2="73.700044mm" y2="20.309997mm" />
  <line x1="75.700000mm" y1="18.310041mm" x2="75.700000mm" y2="22.309953mm" />
  <text x="76mm" y="19mm" font-size="24">
   2.0
  </text>
  <circle cx="90.689535mm" cy="156.300027mm" r="0.999985mm" fill="none"/>
  <line x1="92.689505mm" y1="156.300027mm" x2="88.689565mm" y2="156.300027mm" />
  <line x1="90.689535mm" y1="154.300057mm" x2="90.689535mm" y2="158.299997mm" />
  <text x="91mm" y="155mm" font-size="24">
   2.0
  </text>
  <circle cx="138.000066mm" cy="427.500138mm" r="1.000138mm" fill="none"/>
  <line x1="140.000342mm" y1="427.500138mm" x2="135.999790mm" y2="427.500138mm" />
  <line x1="138.000066mm" y1="425.499862mm" x2="138.000066mm" y2="429.500414mm" />
  <text x="139mm" y="426mm" font-size="24">
   2.0
  </text>
  <circle cx="138.000066mm" cy="8.500138mm" r="1.000138mm" fill="none"/>
  <line x1="140.000342mm" y1="8.500138mm" x2="135.999790mm" y2="8.500138mm" />
  <line x1="138.000066mm" y1="6.499862mm" x2="138.000066mm" y2="10.500414mm" />
  <text x="139mm" y="7mm" font-size="24">
   2.0
  </text>
  <circle cx="171.000102mm" cy="427.500162mm" r="1.000162mm" fill="none"/>
  <line x1="173.000426mm" y1="427.500162mm" x2="168.999777mm" y2="427.500162mm" />
  <line x1="171.000102mm" y1="425.499838mm" x2="171.000102mm" y2="429.500487mm" />
  <text x="172mm" y="426mm" font-size="24">
   2.0
  </text>
  <circle cx="171.000102mm" cy="8.500162mm" r="1.000162mm" fill="none"/>
  <line x1="173.000426mm" y1="8.500162mm" x2="168.999777mm" y2="8.500162mm" />
  <line x1="171.000102mm" y1="6.499838mm" x2="171.000102mm" y2="10.500487mm" />
  <text x="172mm" y="7mm" font-size="24">
   2.0
  </text>
  <circle cx="204.490156mm" cy="22.499993mm" r="1.000032mm" fill="none"/>
  <line x1="206.490221mm" y1="22.499993mm" x2="202.490092mm" y2="22.499993mm" />
  <line x1="204.490156mm" y1="20.499929mm" x2="204.490156mm" y2="24.500058mm" />
  <text x="205mm" y="21mm" font-size="24">
   2.0
  </text>
  <circle cx="214.990032mm" cy="121.200004mm" r="0.999998mm" fill="none"/>
  <line x1="216.990028mm" y1="121.200004mm" x2="212.990036mm" y2="121.200004mm" />
  <line x1="214.990032mm" y1="119.200008mm" x2="214.990032mm" y2="123.200000mm" />
  <text x="215mm" y="120mm" font-size="24">
   2.0
  </text>
  <circle cx="222.990000mm" cy="428.499950mm" r="1.000005mm" fill="none"/>
  <line x1="224.990009mm" y1="428.499950mm" x2="220.989991mm" y2="428.499950mm" />
  <line x1="222.990000mm" y1="426.499941mm" x2="222.990000mm" y2="430.499960mm" />
  <text x="223mm" y="427mm" font-size="24">
   2.0
  </text>
  <circle cx="222.990000mm" cy="365.499950mm" r="1.000005mm" fill="none"/>
  <line x1="224.990009mm" y1="365.499950mm" x2="220.989991mm" y2="365.499950mm" />
  <line x1="222.990000mm" y1="363.499941mm" x2="222.990000mm" y2="367.499960mm" />
  <text x="223mm" y="364mm" font-size="24">
   2.0
  </text>
  <circle cx="252.990010mm" cy="428.499944mm" r="1.000000mm" fill="none"/>
  <line x1="254.990011mm" y1="428.499944mm" x2="250.990009mm" y2="428.499944mm" />
  <line x1="252.990010mm" y1="426.499943mm" x2="252.990010mm" y2="430.499944mm" />
  <text x="253mm" y="427mm" font-size="24">
   2.0
  </text>
  <circle cx="252.990010mm" cy="365.499944mm" r="1.000000mm" fill="none"/>
  <line x1="254.990011mm" y1="365.499944mm" x2="250.990009mm" y2="365.499944mm" />
  <line x1="252.990010mm" y1="363.499943mm" x2="252.990010mm" y2="367.499944mm" />
  <text x="253mm" y="364mm" font-size="24">
   2.0
  </text>
  <circle cx="257.010032mm" cy="121.200004mm" r="0.999998mm" fill="none"/>
  <line x1="259.010028mm" y1="121.200004mm" x2="255.010036mm" y2="121.200004mm" />
  <line x1="257.010032mm" y1="119.200008mm" x2="257.010032mm" y2="123.200000mm" />
  <text x="258mm" y="120mm" font-size="24">
   2.0
  </text>
  <circle cx="262.750000mm" cy="70.699950mm" r="1.000005mm" fill="none"/>
  <line x1="264.750009mm" y1="70.699950mm" x2="260.749991mm" y2="70.699950mm" />
  <line x1="262.750000mm" y1="68.699941mm" x2="262.750000mm" y2="72.699960mm" />
  <text x="263mm" y="69mm" font-size="24">
   2.0
  </text>
  <circle cx="301.000000mm" cy="359.499950mm" r="1.000005mm" fill="none"/>
  <line x1="303.000009mm" y1="359.499950mm" x2="298.999991mm" y2="359.499950mm" />
  <line x1="301.000000mm" y1="357.499941mm" x2="301.000000mm" y2="361.499960mm" />
  <text x="302mm" y="358mm" font-size="24">
   2.0
  </text>
  <circle cx="301.000000mm" cy="86.499950mm" r="1.000005mm" fill="none"/>
  <line x1="303.000009mm" y1="86.499950mm" x2="298.999991mm" y2="86.499950mm" />
  <line x1="301.000000mm" y1="84.499941mm" x2="301.000000mm" y2="88.499960mm" />
  <text x="302mm" y="85mm" font-size="24">
   2.0
  </text>
  <circle cx="334.000000mm" cy="359.499950mm" r="1.000005mm" fill="none"/>
  <line x1="336.000009mm" y1="359.499950mm" x2="331.999991mm" y2="359.499950mm" />
  <line x1="334.000000mm" y1="357.499941mm" x2="334.000000mm" y2="361.499960mm" />
  <text x="335mm" y="358mm" font-size="24">
   2.0
  </text>
  <circle cx="334.000000mm" cy="86.499950mm" r="1.000005mm" fill="none"/>
  <line x1="336.000009mm" y1="86.499950mm" x2="331.999991mm" y2="86.499950mm" />
  <line x1="334.000000mm" y1="84.499941mm" x2="334.000000mm" y2="88.499960mm" />
  <text x="335mm" y="85mm" font-size="24">
   2.0
  </text>
  <circle cx="351.699659mm" cy="341.000016mm" r="1.000019mm" fill="none"/>
  <line x1="353.699698mm" y1="341.000016mm" x2="349.699621mm" y2="341.000016mm" />
  <line x1="351.699659mm" y1="338.999978mm" x2="351.699659mm" y2="343.000054mm" />
  <text x="352mm" y="339mm" font-size="24">
   2.0
  </text>
  <circle cx="351.699535mm" cy="153.100027mm" r="0.999985mm" fill="none"/>
  <line x1="353.699505mm" y1="153.100027mm" x2="349.699565mm" y2="153.100027mm" />
  <line x1="351.699535mm" y1="151.100057mm" x2="351.699535mm" y2="155.099997mm" />
  <text x="352mm" y="152mm" font-size="24">
   2.0
  </text>
  <circle cx="373.300066mm" cy="20.310138mm" r="1.000138mm" fill="none"/>
  <line x1="375.300342mm" y1="20.310138mm" x2="371.299790mm" y2="20.310138mm" />
  <line x1="373.300066mm" y1="18.309862mm" x2="373.300066mm" y2="22.310414mm" />
  <text x="374mm" y="19mm" font-size="24">
   2.0
  </text>
  <circle cx="408.499767mm" cy="217.999943mm" r="3.999887mm" fill="none"/>
  <line x1="416.499541mm" y1="217.999943mm" x2="400.499993mm" y2="217.999943mm" />
  <line x1="408.499767mm" y1="210.000170mm" x2="408.499767mm" y2="225.999717mm" />
  <text x="412mm" y="214mm" font-size="24">
   8.0
  </text>
  <circle cx="413.809535mm" cy="156.300027mm" r="0.999985mm" fill="none"/>
  <line x1="415.809505mm" y1="156.300027mm" x2="411.809565mm" y2="156.300027mm" />
  <line x1="413.809535mm" y1="154.300057mm" x2="413.809535mm" y2="158.299997mm" />
  <text x="414mm" y="155mm" font-size="24">
   2.0
  </text>
  <circle cx="465.189535mm" cy="156.300027mm" r="0.999985mm" fill="none"/>
  <line x1="467.189505mm" y1="156.300027mm" x2="463.189565mm" y2="156.300027mm" />
  <line x1="465.189535mm" y1="154.300057mm" x2="465.189535mm" y2="158.299997mm" />
  <text x="466mm" y="155mm" font-size="24">
   2.0
  </text>
  <circle cx="475.400000mm" cy="137.100097mm" r="0.999978mm" fill="none"/>
  <line x1="477.399956mm" y1="137.100097mm" x2="473.400044mm" y2="137.100097mm" />
  <line x1="475.400000mm" y1="135.100141mm" x2="475.400000mm" y2="139.100053mm" />
  <text x="476mm" y="136mm" font-size="24">
   2.0
  </text>
 </g>
</svg>
