  0
SECTION
  2
BLOCKS
  0
ENDSEC
  0
SECTION
  2
ENTITIES
  0
LINE
  8
0
 10
-242.75
 20
-218
 11
242.75
 21
-218
  0
LINE
  8
0
 10
242.75
 20
-218
 11
242.75
 21
218
  0
LINE
  8
0
 10
242.75
 20
218
 11
-242.75
 21
218
  0
LINE
  8
0
 10
-242.75
 20
218
 11
-242.75
 21
-218
  0
LINE
  8
0
 10
-223.411
 20
61.4607
 11
-223.411
 21
61.9393
  0
LINE
  8
0
 10
-223.411
 20
61.9393
 11
-223.189
 21
62.3631
  0
LINE
  8
0
 10
-223.189
 20
62.3631
 11
-222.795
 21
62.635
  0
LINE
  8
0
 10
-222.795
 20
62.635
 11
-222.319
 21
62.6927
  0
LINE
  8
0
 10
-222.319
 20
62.6927
 11
-221.872
 21
62.523
  0
LINE
  8
0
 10
-221.872
 20
62.523
 11
-221.555
 21
62.1647
  0
LINE
  8
0
 10
-221.555
 20
62.1647
 11
-221.44
 21
61.7
  0
LINE
  8
0
 10
-221.44
 20
61.7
 11
-221.555
 21
61.2353
  0
LINE
  8
0
 10
-221.555
 20
61.2353
 11
-221.872
 21
60.877
  0
LINE
  8
0
 10
-221.872
 20
60.877
 11
-222.319
 21
60.7073
  0
LINE
  8
0
 10
-222.319
 20
60.7073
 11
-222.795
 21
60.765
  0
LINE
  8
0
 10
-222.795
 20
60.765
 11
-223.189
 21
61.0369
  0
LINE
  8
0
 10
-223.189
 20
61.0369
 11
-223.411
 21
61.4607
  0
LINE
  8
0
 10
-214.242
 20
-0.246243
 11
-214.242
 21
0.246243
  0
LINE
  8
0
 10
-214.242
 20
0.246243
 11
-214.182
 21
0.734998
  0
LINE
  8
0
 10
-214.182
 20
0.734998
 11
-214.062
 21
1.21261
  0
LINE
  8
0
 10
-214.062
 20
1.21261
 11
-213.884
 21
1.67184
  0
LINE
  8
0
 10
-213.884
 20
1.67184
 11
-213.651
 21
2.10573
  0
LINE
  8
0
 10
-213.651
 20
2.10573
 11
-213.366
 21
2.5077
  0
LINE
  8
0
 10
-213.366
 20
2.5077
 11
-213.035
 21
2.87165
  0
LINE
  8
0
 10
-213.035
 20
2.87165
 11
-212.661
 21
3.19207
  0
LINE
  8
0
 10
-212.661
 20
3.19207
 11
-212.25
 21
3.4641
  0
LINE
  8
0
 10
-212.25
 20
3.4641
 11
-211.809
 21
3.68362
  0
LINE
  8
0
 10
-211.809
 20
3.68362
 11
-211.345
 21
3.8473
  0
LINE
  8
0
 10
-211.345
 20
3.8473
 11
-210.864
 21
3.95266
  0
LINE
  8
0
 10
-210.864
 20
3.95266
 11
-210.373
 21
3.9981
  0
LINE
  8
0
 10
-210.373
 20
3.9981
 11
-209.881
 21
3.98294
  0
LINE
  8
0
 10
-209.881
 20
3.98294
 11
-209.394
 21
3.90739
  0
LINE
  8
0
 10
-209.394
 20
3.90739
 11
-208.921
 21
3.77262
  0
LINE
  8
0
 10
-208.921
 20
3.77262
 11
-208.467
 21
3.58065
  0
LINE
  8
0
 10
-208.467
 20
3.58065
 11
-208.041
 21
3.33441
  0
LINE
  8
0
 10
-208.041
 20
3.33441
 11
-207.648
 21
3.03762
  0
LINE
  8
0
 10
-207.648
 20
3.03762
 11
-207.294
 21
2.69478
  0
LINE
  8
0
 10
-207.294
 20
2.69478
 11
-206.985
 21
2.3111
  0
LINE
  8
0
 10
-206.985
 20
2.3111
 11
-206.726
 21
1.89237
  0
LINE
  8
0
 10
-206.726
 20
1.89237
 11
-206.52
 21
1.44497
  0
LINE
  8
0
 10
-206.52
 20
1.44497
 11
-206.371
 21
0.975655
  0
LINE
  8
0
 10
-206.371
 20
0.975655
 11
-206.28
 21
0.491552
  0
LINE
  8
0
 10
-206.28
 20
0.491552
 11
-206.25
 21
0
  0
LINE
  8
0
 10
-206.25
 20
0
 11
-206.28
 21
-0.491552
  0
LINE
  8
0
 10
-206.28
 20
-0.491552
 11
-206.371
 21
-0.975655
  0
LINE
  8
0
 10
-206.371
 20
-0.975655
 11
-206.52
 21
-1.44497
  0
LINE
  8
0
 10
-206.52
 20
-1.44497
 11
-206.726
 21
-1.89237
  0
LINE
  8
0
 10
-206.726
 20
-1.89237
 11
-206.985
 21
-2.3111
  0
LINE
  8
0
 10
-206.985
 20
-2.3111
 11
-207.294
 21
-2.69478
  0
LINE
  8
0
 10
-207.294
 20
-2.69478
 11
-207.648
 21
-3.03762
  0
LINE
  8
0
 10
-207.648
 20
-3.03762
 11
-208.041
 21
-3.33441
  0
LINE
  8
0
 10
-208.041
 20
-3.33441
 11
-208.467
 21
-3.58065
  0
LINE
  8
0
 10
-208.467
 20
-3.58065
 11
-208.921
 21
-3.77262
  0
LINE
  8
0
 10
-208.921
 20
-3.77262
 11
-209.394
 21
-3.90739
  0
LINE
  8
0
 10
-209.394
 20
-3.90739
 11
-209.881
 21
-3.98294
  0
LINE
  8
0
 10
-209.881
 20
-3.98294
 11
-210.373
 21
-3.9981
  0
LINE
  8
0
 10
-210.373
 20
-3.9981
 11
-210.864
 21
-3.95266
  0
LINE
  8
0
 10
-210.864
 20
-3.95266
 11
-211.345
 21
-3.8473
  0
LINE
  8
0
 10
-211.345
 20
-3.8473
 11
-211.809
 21
-3.68362
  0
LINE
  8
0
 10
-211.809
 20
-3.68362
 11
-212.25
 21
-3.4641
  0
LINE
  8
0
 10
-212.25
 20
-3.4641
 11
-212.661
 21
-3.19207
  0
LINE
  8
0
 10
-212.661
 20
-3.19207
 11
-213.035
 21
-2.87165
  0
LINE
  8
0
 10
-213.035
 20
-2.87165
 11
-213.366
 21
-2.5077
  0
LINE
  8
0
 10
-213.366
 20
-2.5077
 11
-213.651
 21
-2.10573
  0
LINE
  8
0
 10
-213.651
 20
-2.10573
 11
-213.884
 21
-1.67184
  0
LINE
  8
0
 10
-213.884
 20
-1.67184
 11
-214.062
 21
-1.21261
  0
LINE
  8
0
 10
-214.062
 20
-1.21261
 11
-214.182
 21
-0.734998
  0
LINE
  8
0
 10
-214.182
 20
-0.734998
 11
-214.242
 21
-0.246243
  0
LINE
  8
0
 10
-168.043
 20
197.569
 11
-167.985
 21
198.045
  0
LINE
  8
0
 10
-167.985
 20
198.045
 11
-167.713
 21
198.439
  0
LINE
  8
0
 10
-167.713
 20
198.439
 11
-167.289
 21
198.661
  0
LINE
  8
0
 10
-167.289
 20
198.661
 11
-166.811
 21
198.661
  0
LINE
  8
0
 10
-166.811
 20
198.661
 11
-166.387
 21
198.439
  0
LINE
  8
0
 10
-166.387
 20
198.439
 11
-166.115
 21
198.045
  0
LINE
  8
0
 10
-166.115
 20
198.045
 11
-166.057
 21
197.569
  0
LINE
  8
0
 10
-166.057
 20
197.569
 11
-166.227
 21
197.122
  0
LINE
  8
0
 10
-166.227
 20
197.122
 11
-166.585
 21
196.805
  0
LINE
  8
0
 10
-166.585
 20
196.805
 11
-167.05
 21
196.69
  0
LINE
  8
0
 10
-167.05
 20
196.69
 11
-167.515
 21
196.805
  0
LINE
  8
0
 10
-167.515
 20
196.805
 11
-167.873
 21
197.122
  0
LINE
  8
0
 10
-167.873
 20
197.122
 11
-168.043
 21
197.569
  0
LINE
  8
0
 10
-153.031
 20
61.4607
 11
-153.031
 21
61.9393
  0
LINE
  8
0
 10
-153.031
 20
61.9393
 11
-152.809
 21
62.3631
  0
LINE
  8
0
 10
-152.809
 20
62.3631
 11
-152.415
 21
62.635
  0
LINE
  8
0
 10
-152.415
 20
62.635
 11
-151.939
 21
62.6927
  0
LINE
  8
0
 10
-151.939
 20
62.6927
 11
-151.492
 21
62.523
  0
LINE
  8
0
 10
-151.492
 20
62.523
 11
-151.175
 21
62.1647
  0
LINE
  8
0
 10
-151.175
 20
62.1647
 11
-151.06
 21
61.7
  0
LINE
  8
0
 10
-151.06
 20
61.7
 11
-151.175
 21
61.2353
  0
LINE
  8
0
 10
-151.175
 20
61.2353
 11
-151.492
 21
60.877
  0
LINE
  8
0
 10
-151.492
 20
60.877
 11
-151.939
 21
60.7073
  0
LINE
  8
0
 10
-151.939
 20
60.7073
 11
-152.415
 21
60.765
  0
LINE
  8
0
 10
-152.415
 20
60.765
 11
-152.809
 21
61.0369
  0
LINE
  8
0
 10
-152.809
 20
61.0369
 11
-153.031
 21
61.4607
  0
LINE
  8
0
 10
-105.743
 20
-209.379
 11
-105.573
 21
-208.932
  0
LINE
  8
0
 10
-105.573
 20
-208.932
 11
-105.215
 21
-208.615
  0
LINE
  8
0
 10
-105.215
 20
-208.615
 11
-104.75
 21
-208.5
  0
LINE
  8
0
 10
-104.75
 20
-208.5
 11
-104.285
 21
-208.615
  0
LINE
  8
0
 10
-104.285
 20
-208.615
 11
-103.927
 21
-208.932
  0
LINE
  8
0
 10
-103.927
 20
-208.932
 11
-103.757
 21
-209.379
  0
LINE
  8
0
 10
-103.757
 20
-209.379
 11
-103.815
 21
-209.855
  0
LINE
  8
0
 10
-103.815
 20
-209.855
 11
-104.087
 21
-210.249
  0
LINE
  8
0
 10
-104.087
 20
-210.249
 11
-104.511
 21
-210.471
  0
LINE
  8
0
 10
-104.511
 20
-210.471
 11
-104.989
 21
-210.471
  0
LINE
  8
0
 10
-104.989
 20
-210.471
 11
-105.413
 21
-210.249
  0
LINE
  8
0
 10
-105.413
 20
-210.249
 11
-105.685
 21
-209.855
  0
LINE
  8
0
 10
-105.685
 20
-209.855
 11
-105.743
 21
-209.379
  0
LINE
  8
0
 10
-105.743
 20
209.621
 11
-105.573
 21
210.068
  0
LINE
  8
0
 10
-105.573
 20
210.068
 11
-105.215
 21
210.385
  0
LINE
  8
0
 10
-105.215
 20
210.385
 11
-104.75
 21
210.5
  0
LINE
  8
0
 10
-104.75
 20
210.5
 11
-104.285
 21
210.385
  0
LINE
  8
0
 10
-104.285
 20
210.385
 11
-103.927
 21
210.068
  0
LINE
  8
0
 10
-103.927
 20
210.068
 11
-103.757
 21
209.621
  0
LINE
  8
0
 10
-103.757
 20
209.621
 11
-103.815
 21
209.145
  0
LINE
  8
0
 10
-103.815
 20
209.145
 11
-104.087
 21
208.751
  0
LINE
  8
0
 10
-104.087
 20
208.751
 11
-104.511
 21
208.529
  0
LINE
  8
0
 10
-104.511
 20
208.529
 11
-104.989
 21
208.529
  0
LINE
  8
0
 10
-104.989
 20
208.529
 11
-105.413
 21
208.751
  0
LINE
  8
0
 10
-105.413
 20
208.751
 11
-105.685
 21
209.145
  0
LINE
  8
0
 10
-105.685
 20
209.145
 11
-105.743
 21
209.621
  0
LINE
  8
0
 10
-72.7427
 20
-209.379
 11
-72.573
 21
-208.932
  0
LINE
  8
0
 10
-72.573
 20
-208.932
 11
-72.2147
 21
-208.615
  0
LINE
  8
0
 10
-72.2147
 20
-208.615
 11
-71.75
 21
-208.5
  0
LINE
  8
0
 10
-71.75
 20
-208.5
 11
-71.2853
 21
-208.615
  0
LINE
  8
0
 10
-71.2853
 20
-208.615
 11
-70.927
 21
-208.932
  0
LINE
  8
0
 10
-70.927
 20
-208.932
 11
-70.7573
 21
-209.379
  0
LINE
  8
0
 10
-70.7573
 20
-209.379
 11
-70.815
 21
-209.855
  0
LINE
  8
0
 10
-70.815
 20
-209.855
 11
-71.0869
 21
-210.249
  0
LINE
  8
0
 10
-71.0869
 20
-210.249
 11
-71.5107
 21
-210.471
  0
LINE
  8
0
 10
-71.5107
 20
-210.471
 11
-71.9893
 21
-210.471
  0
LINE
  8
0
 10
-71.9893
 20
-210.471
 11
-72.4131
 21
-210.249
  0
LINE
  8
0
 10
-72.4131
 20
-210.249
 11
-72.685
 21
-209.855
  0
LINE
  8
0
 10
-72.685
 20
-209.855
 11
-72.7427
 21
-209.379
  0
LINE
  8
0
 10
-72.7427
 20
209.621
 11
-72.573
 21
210.068
  0
LINE
  8
0
 10
-72.573
 20
210.068
 11
-72.2147
 21
210.385
  0
LINE
  8
0
 10
-72.2147
 20
210.385
 11
-71.75
 21
210.5
  0
LINE
  8
0
 10
-71.75
 20
210.5
 11
-71.2853
 21
210.385
  0
LINE
  8
0
 10
-71.2853
 20
210.385
 11
-70.927
 21
210.068
  0
LINE
  8
0
 10
-70.927
 20
210.068
 11
-70.7573
 21
209.621
  0
LINE
  8
0
 10
-70.7573
 20
209.621
 11
-70.815
 21
209.145
  0
LINE
  8
0
 10
-70.815
 20
209.145
 11
-71.0869
 21
208.751
  0
LINE
  8
0
 10
-71.0869
 20
208.751
 11
-71.5107
 21
208.529
  0
LINE
  8
0
 10
-71.5107
 20
208.529
 11
-71.9893
 21
208.529
  0
LINE
  8
0
 10
-71.9893
 20
208.529
 11
-72.4131
 21
208.751
  0
LINE
  8
0
 10
-72.4131
 20
208.751
 11
-72.685
 21
209.145
  0
LINE
  8
0
 10
-72.685
 20
209.145
 11
-72.7427
 21
209.621
  0
LINE
  8
0
 10
-39.2309
 20
195.261
 11
-39.2309
 21
195.739
  0
LINE
  8
0
 10
-39.2309
 20
195.739
 11
-39.0085
 21
196.163
  0
LINE
  8
0
 10
-39.0085
 20
196.163
 11
-38.6146
 21
196.435
  0
LINE
  8
0
 10
-38.6146
 20
196.435
 11
-38.1395
 21
196.493
  0
LINE
  8
0
 10
-38.1395
 20
196.493
 11
-37.6919
 21
196.323
  0
LINE
  8
0
 10
-37.6919
 20
196.323
 11
-37.3745
 21
195.965
  0
LINE
  8
0
 10
-37.3745
 20
195.965
 11
-37.26
 21
195.5
  0
LINE
  8
0
 10
-37.26
 20
195.5
 11
-37.3745
 21
195.035
  0
LINE
  8
0
 10
-37.3745
 20
195.035
 11
-37.6919
 21
194.677
  0
LINE
  8
0
 10
-37.6919
 20
194.677
 11
-38.1395
 21
194.507
  0
LINE
  8
0
 10
-38.1395
 20
194.507
 11
-38.6146
 21
194.565
  0
LINE
  8
0
 10
-38.6146
 20
194.565
 11
-39.0085
 21
194.837
  0
LINE
  8
0
 10
-39.0085
 20
194.837
 11
-39.2309
 21
195.261
  0
LINE
  8
0
 10
-28.7309
 20
96.5607
 11
-28.7309
 21
97.0393
  0
LINE
  8
0
 10
-28.7309
 20
97.0393
 11
-28.5085
 21
97.4631
  0
LINE
  8
0
 10
-28.5085
 20
97.4631
 11
-28.1146
 21
97.735
  0
LINE
  8
0
 10
-28.1146
 20
97.735
 11
-27.6395
 21
97.7927
  0
LINE
  8
0
 10
-27.6395
 20
97.7927
 11
-27.1919
 21
97.623
  0
LINE
  8
0
 10
-27.1919
 20
97.623
 11
-26.8745
 21
97.2647
  0
LINE
  8
0
 10
-26.8745
 20
97.2647
 11
-26.76
 21
96.8
  0
LINE
  8
0
 10
-26.76
 20
96.8
 11
-26.8745
 21
96.3353
  0
LINE
  8
0
 10
-26.8745
 20
96.3353
 11
-27.1919
 21
95.977
  0
LINE
  8
0
 10
-27.1919
 20
95.977
 11
-27.6395
 21
95.8073
  0
LINE
  8
0
 10
-27.6395
 20
95.8073
 11
-28.1146
 21
95.865
  0
LINE
  8
0
 10
-28.1146
 20
95.865
 11
-28.5085
 21
96.1369
  0
LINE
  8
0
 10
-28.5085
 20
96.1369
 11
-28.7309
 21
96.5607
  0
LINE
  8
0
 10
-20.7527
 20
-210.621
 11
-20.695
 21
-210.145
  0
LINE
  8
0
 10
-20.695
 20
-210.145
 11
-20.4231
 21
-209.751
  0
LINE
  8
0
 10
-20.4231
 20
-209.751
 11
-19.9993
 21
-209.529
  0
LINE
  8
0
 10
-19.9993
 20
-209.529
 11
-19.5207
 21
-209.529
  0
LINE
  8
0
 10
-19.5207
 20
-209.529
 11
-19.0969
 21
-209.751
  0
LINE
  8
0
 10
-19.0969
 20
-209.751
 11
-18.825
 21
-210.145
  0
LINE
  8
0
 10
-18.825
 20
-210.145
 11
-18.7673
 21
-210.621
  0
LINE
  8
0
 10
-18.7673
 20
-210.621
 11
-18.937
 21
-211.068
  0
LINE
  8
0
 10
-18.937
 20
-211.068
 11
-19.2953
 21
-211.385
  0
LINE
  8
0
 10
-19.2953
 20
-211.385
 11
-19.76
 21
-211.5
  0
LINE
  8
0
 10
-19.76
 20
-211.5
 11
-20.2247
 21
-211.385
  0
LINE
  8
0
 10
-20.2247
 20
-211.385
 11
-20.583
 21
-211.068
  0
LINE
  8
0
 10
-20.583
 20
-211.068
 11
-20.7527
 21
-210.621
  0
LINE
  8
0
 10
-20.7527
 20
-147.621
 11
-20.695
 21
-147.145
  0
LINE
  8
0
 10
-20.695
 20
-147.145
 11
-20.4231
 21
-146.751
  0
LINE
  8
0
 10
-20.4231
 20
-146.751
 11
-19.9993
 21
-146.529
  0
LINE
  8
0
 10
-19.9993
 20
-146.529
 11
-19.5207
 21
-146.529
  0
LINE
  8
0
 10
-19.5207
 20
-146.529
 11
-19.0969
 21
-146.751
  0
LINE
  8
0
 10
-19.0969
 20
-146.751
 11
-18.825
 21
-147.145
  0
LINE
  8
0
 10
-18.825
 20
-147.145
 11
-18.7673
 21
-147.621
  0
LINE
  8
0
 10
-18.7673
 20
-147.621
 11
-18.937
 21
-148.068
  0
LINE
  8
0
 10
-18.937
 20
-148.068
 11
-19.2953
 21
-148.385
  0
LINE
  8
0
 10
-19.2953
 20
-148.385
 11
-19.76
 21
-148.5
  0
LINE
  8
0
 10
-19.76
 20
-148.5
 11
-20.2247
 21
-148.385
  0
LINE
  8
0
 10
-20.2247
 20
-148.385
 11
-20.583
 21
-148.068
  0
LINE
  8
0
 10
-20.583
 20
-148.068
 11
-20.7527
 21
-147.621
  0
LINE
  8
0
 10
9.24729
 20
-210.621
 11
9.30498
 21
-210.145
  0
LINE
  8
0
 10
9.30498
 20
-210.145
 11
9.57688
 21
-209.751
  0
LINE
  8
0
 10
9.57688
 20
-209.751
 11
10.0007
 21
-209.529
  0
LINE
  8
0
 10
10.0007
 20
-209.529
 11
10.4793
 21
-209.529
  0
LINE
  8
0
 10
10.4793
 20
-209.529
 11
10.9031
 21
-209.751
  0
LINE
  8
0
 10
10.9031
 20
-209.751
 11
11.175
 21
-210.145
  0
LINE
  8
0
 10
11.175
 20
-210.145
 11
11.2327
 21
-210.621
  0
LINE
  8
0
 10
11.2327
 20
-210.621
 11
11.063
 21
-211.068
  0
LINE
  8
0
 10
11.063
 20
-211.068
 11
10.7047
 21
-211.385
  0
LINE
  8
0
 10
10.7047
 20
-211.385
 11
10.24
 21
-211.5
  0
LINE
  8
0
 10
10.24
 20
-211.5
 11
9.77528
 21
-211.385
  0
LINE
  8
0
 10
9.77528
 20
-211.385
 11
9.41702
 21
-211.068
  0
LINE
  8
0
 10
9.41702
 20
-211.068
 11
9.24729
 21
-210.621
  0
LINE
  8
0
 10
9.24729
 20
-147.621
 11
9.30498
 21
-147.145
  0
LINE
  8
0
 10
9.30498
 20
-147.145
 11
9.57688
 21
-146.751
  0
LINE
  8
0
 10
9.57688
 20
-146.751
 11
10.0007
 21
-146.529
  0
LINE
  8
0
 10
10.0007
 20
-146.529
 11
10.4793
 21
-146.529
  0
LINE
  8
0
 10
10.4793
 20
-146.529
 11
10.9031
 21
-146.751
  0
LINE
  8
0
 10
10.9031
 20
-146.751
 11
11.175
 21
-147.145
  0
LINE
  8
0
 10
11.175
 20
-147.145
 11
11.2327
 21
-147.621
  0
LINE
  8
0
 10
11.2327
 20
-147.621
 11
11.063
 21
-148.068
  0
LINE
  8
0
 10
11.063
 20
-148.068
 11
10.7047
 21
-148.385
  0
LINE
  8
0
 10
10.7047
 20
-148.385
 11
10.24
 21
-148.5
  0
LINE
  8
0
 10
10.24
 20
-148.5
 11
9.77528
 21
-148.385
  0
LINE
  8
0
 10
9.77528
 20
-148.385
 11
9.41702
 21
-148.068
  0
LINE
  8
0
 10
9.41702
 20
-148.068
 11
9.24729
 21
-147.621
  0
LINE
  8
0
 10
13.2891
 20
96.5607
 11
13.2891
 21
97.0393
  0
LINE
  8
0
 10
13.2891
 20
97.0393
 11
13.5115
 21
97.4631
  0
LINE
  8
0
 10
13.5115
 20
97.4631
 11
13.9054
 21
97.735
  0
LINE
  8
0
 10
13.9054
 20
97.735
 11
14.3805
 21
97.7927
  0
LINE
  8
0
 10
14.3805
 20
97.7927
 11
14.8281
 21
97.623
  0
LINE
  8
0
 10
14.8281
 20
97.623
 11
15.1455
 21
97.2647
  0
LINE
  8
0
 10
15.1455
 20
97.2647
 11
15.26
 21
96.8
  0
LINE
  8
0
 10
15.26
 20
96.8
 11
15.1455
 21
96.3353
  0
LINE
  8
0
 10
15.1455
 20
96.3353
 11
14.8281
 21
95.977
  0
LINE
  8
0
 10
14.8281
 20
95.977
 11
14.3805
 21
95.8073
  0
LINE
  8
0
 10
14.3805
 20
95.8073
 11
13.9054
 21
95.865
  0
LINE
  8
0
 10
13.9054
 20
95.865
 11
13.5115
 21
96.1369
  0
LINE
  8
0
 10
13.5115
 20
96.1369
 11
13.2891
 21
96.5607
  0
LINE
  8
0
 10
19.0073
 20
147.179
 11
19.065
 21
147.655
  0
LINE
  8
0
 10
19.065
 20
147.655
 11
19.3369
 21
148.049
  0
LINE
  8
0
 10
19.3369
 20
148.049
 11
19.7607
 21
148.271
  0
LINE
  8
0
 10
19.7607
 20
148.271
 11
20.2393
 21
148.271
  0
LINE
  8
0
 10
20.2393
 20
148.271
 11
20.6631
 21
148.049
  0
LINE
  8
0
 10
20.6631
 20
148.049
 11
20.935
 21
147.655
  0
LINE
  8
0
 10
20.935
 20
147.655
 11
20.9927
 21
147.179
  0
LINE
  8
0
 10
20.9927
 20
147.179
 11
20.823
 21
146.732
  0
LINE
  8
0
 10
20.823
 20
146.732
 11
20.4647
 21
146.415
  0
LINE
  8
0
 10
20.4647
 20
146.415
 11
20
 21
146.3
  0
LINE
  8
0
 10
20
 20
146.3
 11
19.5353
 21
146.415
  0
LINE
  8
0
 10
19.5353
 20
146.415
 11
19.177
 21
146.732
  0
LINE
  8
0
 10
19.177
 20
146.732
 11
19.0073
 21
147.179
  0
LINE
  8
0
 10
57.2573
 20
-141.621
 11
57.315
 21
-141.145
  0
LINE
  8
0
 10
57.315
 20
-141.145
 11
57.5869
 21
-140.751
  0
LINE
  8
0
 10
57.5869
 20
-140.751
 11
58.0107
 21
-140.529
  0
LINE
  8
0
 10
58.0107
 20
-140.529
 11
58.4893
 21
-140.529
  0
LINE
  8
0
 10
58.4893
 20
-140.529
 11
58.9131
 21
-140.751
  0
LINE
  8
0
 10
58.9131
 20
-140.751
 11
59.185
 21
-141.145
  0
LINE
  8
0
 10
59.185
 20
-141.145
 11
59.2427
 21
-141.621
  0
LINE
  8
0
 10
59.2427
 20
-141.621
 11
59.073
 21
-142.068
  0
LINE
  8
0
 10
59.073
 20
-142.068
 11
58.7147
 21
-142.385
  0
LINE
  8
0
 10
58.7147
 20
-142.385
 11
58.25
 21
-142.5
  0
LINE
  8
0
 10
58.25
 20
-142.5
 11
57.7853
 21
-142.385
  0
LINE
  8
0
 10
57.7853
 20
-142.385
 11
57.427
 21
-142.068
  0
LINE
  8
0
 10
57.427
 20
-142.068
 11
57.2573
 21
-141.621
  0
LINE
  8
0
 10
57.2573
 20
131.379
 11
57.315
 21
131.855
  0
LINE
  8
0
 10
57.315
 20
131.855
 11
57.5869
 21
132.249
  0
LINE
  8
0
 10
57.5869
 20
132.249
 11
58.0107
 21
132.471
  0
LINE
  8
0
 10
58.0107
 20
132.471
 11
58.4893
 21
132.471
  0
LINE
  8
0
 10
58.4893
 20
132.471
 11
58.9131
 21
132.249
  0
LINE
  8
0
 10
58.9131
 20
132.249
 11
59.185
 21
131.855
  0
LINE
  8
0
 10
59.185
 20
131.855
 11
59.2427
 21
131.379
  0
LINE
  8
0
 10
59.2427
 20
131.379
 11
59.073
 21
130.932
  0
LINE
  8
0
 10
59.073
 20
130.932
 11
58.7147
 21
130.615
  0
LINE
  8
0
 10
58.7147
 20
130.615
 11
58.25
 21
130.5
  0
LINE
  8
0
 10
58.25
 20
130.5
 11
57.7853
 21
130.615
  0
LINE
  8
0
 10
57.7853
 20
130.615
 11
57.427
 21
130.932
  0
LINE
  8
0
 10
57.427
 20
130.932
 11
57.2573
 21
131.379
  0
LINE
  8
0
 10
90.2573
 20
-141.621
 11
90.315
 21
-141.145
  0
LINE
  8
0
 10
90.315
 20
-141.145
 11
90.5869
 21
-140.751
  0
LINE
  8
0
 10
90.5869
 20
-140.751
 11
91.0107
 21
-140.529
  0
LINE
  8
0
 10
91.0107
 20
-140.529
 11
91.4893
 21
-140.529
  0
LINE
  8
0
 10
91.4893
 20
-140.529
 11
91.9131
 21
-140.751
  0
LINE
  8
0
 10
91.9131
 20
-140.751
 11
92.185
 21
-141.145
  0
LINE
  8
0
 10
92.185
 20
-141.145
 11
92.2427
 21
-141.621
  0
LINE
  8
0
 10
92.2427
 20
-141.621
 11
92.073
 21
-142.068
  0
LINE
  8
0
 10
92.073
 20
-142.068
 11
91.7147
 21
-142.385
  0
LINE
  8
0
 10
91.7147
 20
-142.385
 11
91.25
 21
-142.5
  0
LINE
  8
0
 10
91.25
 20
-142.5
 11
90.7853
 21
-142.385
  0
LINE
  8
0
 10
90.7853
 20
-142.385
 11
90.427
 21
-142.068
  0
LINE
  8
0
 10
90.427
 20
-142.068
 11
90.2573
 21
-141.621
  0
LINE
  8
0
 10
90.2573
 20
131.379
 11
90.315
 21
131.855
  0
LINE
  8
0
 10
90.315
 20
131.855
 11
90.5869
 21
132.249
  0
LINE
  8
0
 10
90.5869
 20
132.249
 11
91.0107
 21
132.471
  0
LINE
  8
0
 10
91.0107
 20
132.471
 11
91.4893
 21
132.471
  0
LINE
  8
0
 10
91.4893
 20
132.471
 11
91.9131
 21
132.249
  0
LINE
  8
0
 10
91.9131
 20
132.249
 11
92.185
 21
131.855
  0
LINE
  8
0
 10
92.185
 20
131.855
 11
92.2427
 21
131.379
  0
LINE
  8
0
 10
92.2427
 20
131.379
 11
92.073
 21
130.932
  0
LINE
  8
0
 10
92.073
 20
130.932
 11
91.7147
 21
130.615
  0
LINE
  8
0
 10
91.7147
 20
130.615
 11
91.25
 21
130.5
  0
LINE
  8
0
 10
91.25
 20
130.5
 11
90.7853
 21
130.615
  0
LINE
  8
0
 10
90.7853
 20
130.615
 11
90.427
 21
130.932
  0
LINE
  8
0
 10
90.427
 20
130.932
 11
90.2573
 21
131.379
  0
LINE
  8
0
 10
107.979
 20
-123.239
 11
107.979
 21
-122.761
  0
LINE
  8
0
 10
107.979
 20
-122.761
 11
108.201
 21
-122.337
  0
LINE
  8
0
 10
108.201
 20
-122.337
 11
108.595
 21
-122.065
  0
LINE
  8
0
 10
108.595
 20
-122.065
 11
109.071
 21
-122.007
  0
LINE
  8
0
 10
109.071
 20
-122.007
 11
109.518
 21
-122.177
  0
LINE
  8
0
 10
109.518
 20
-122.177
 11
109.835
 21
-122.535
  0
LINE
  8
0
 10
109.835
 20
-122.535
 11
109.95
 21
-123
  0
LINE
  8
0
 10
109.95
 20
-123
 11
109.835
 21
-123.465
  0
LINE
  8
0
 10
109.835
 20
-123.465
 11
109.518
 21
-123.823
  0
LINE
  8
0
 10
109.518
 20
-123.823
 11
109.071
 21
-123.993
  0
LINE
  8
0
 10
109.071
 20
-123.993
 11
108.595
 21
-123.935
  0
LINE
  8
0
 10
108.595
 20
-123.935
 11
108.201
 21
-123.663
  0
LINE
  8
0
 10
108.201
 20
-123.663
 11
107.979
 21
-123.239
  0
LINE
  8
0
 10
107.979
 20
64.6607
 11
107.979
 21
65.1393
  0
LINE
  8
0
 10
107.979
 20
65.1393
 11
108.201
 21
65.5631
  0
LINE
  8
0
 10
108.201
 20
65.5631
 11
108.595
 21
65.835
  0
LINE
  8
0
 10
108.595
 20
65.835
 11
109.071
 21
65.8927
  0
LINE
  8
0
 10
109.071
 20
65.8927
 11
109.518
 21
65.723
  0
LINE
  8
0
 10
109.518
 20
65.723
 11
109.835
 21
65.3647
  0
LINE
  8
0
 10
109.835
 20
65.3647
 11
109.95
 21
64.9
  0
LINE
  8
0
 10
109.95
 20
64.9
 11
109.835
 21
64.4353
  0
LINE
  8
0
 10
109.835
 20
64.4353
 11
109.518
 21
64.077
  0
LINE
  8
0
 10
109.518
 20
64.077
 11
109.071
 21
63.9073
  0
LINE
  8
0
 10
109.071
 20
63.9073
 11
108.595
 21
63.965
  0
LINE
  8
0
 10
108.595
 20
63.965
 11
108.201
 21
64.2369
  0
LINE
  8
0
 10
108.201
 20
64.2369
 11
107.979
 21
64.6607
  0
LINE
  8
0
 10
129.557
 20
197.811
 11
129.727
 21
198.258
  0
LINE
  8
0
 10
129.727
 20
198.258
 11
130.085
 21
198.575
  0
LINE
  8
0
 10
130.085
 20
198.575
 11
130.55
 21
198.69
  0
LINE
  8
0
 10
130.55
 20
198.69
 11
131.015
 21
198.575
  0
LINE
  8
0
 10
131.015
 20
198.575
 11
131.373
 21
198.258
  0
LINE
  8
0
 10
131.373
 20
198.258
 11
131.543
 21
197.811
  0
LINE
  8
0
 10
131.543
 20
197.811
 11
131.485
 21
197.335
  0
LINE
  8
0
 10
131.485
 20
197.335
 11
131.213
 21
196.941
  0
LINE
  8
0
 10
131.213
 20
196.941
 11
130.789
 21
196.719
  0
LINE
  8
0
 10
130.789
 20
196.719
 11
130.311
 21
196.719
  0
LINE
  8
0
 10
130.311
 20
196.719
 11
129.887
 21
196.941
  0
LINE
  8
0
 10
129.887
 20
196.941
 11
129.615
 21
197.335
  0
LINE
  8
0
 10
129.615
 20
197.335
 11
129.557
 21
197.811
  0
LINE
  8
0
 10
161.758
 20
-0.246243
 11
161.758
 21
0.246243
  0
LINE
  8
0
 10
161.758
 20
0.246243
 11
161.818
 21
0.734998
  0
LINE
  8
0
 10
161.818
 20
0.734998
 11
161.938
 21
1.21261
  0
LINE
  8
0
 10
161.938
 20
1.21261
 11
162.116
 21
1.67184
  0
LINE
  8
0
 10
162.116
 20
1.67184
 11
162.349
 21
2.10573
  0
LINE
  8
0
 10
162.349
 20
2.10573
 11
162.634
 21
2.5077
  0
LINE
  8
0
 10
162.634
 20
2.5077
 11
162.965
 21
2.87165
  0
LINE
  8
0
 10
162.965
 20
2.87165
 11
163.339
 21
3.19207
  0
LINE
  8
0
 10
163.339
 20
3.19207
 11
163.75
 21
3.4641
  0
LINE
  8
0
 10
163.75
 20
3.4641
 11
164.191
 21
3.68362
  0
LINE
  8
0
 10
164.191
 20
3.68362
 11
164.655
 21
3.8473
  0
LINE
  8
0
 10
164.655
 20
3.8473
 11
165.136
 21
3.95266
  0
LINE
  8
0
 10
165.136
 20
3.95266
 11
165.627
 21
3.9981
  0
LINE
  8
0
 10
165.627
 20
3.9981
 11
166.119
 21
3.98294
  0
LINE
  8
0
 10
166.119
 20
3.98294
 11
166.606
 21
3.90739
  0
LINE
  8
0
 10
166.606
 20
3.90739
 11
167.079
 21
3.77262
  0
LINE
  8
0
 10
167.079
 20
3.77262
 11
167.533
 21
3.58065
  0
LINE
  8
0
 10
167.533
 20
3.58065
 11
167.959
 21
3.33441
  0
LINE
  8
0
 10
167.959
 20
3.33441
 11
168.352
 21
3.03762
  0
LINE
  8
0
 10
168.352
 20
3.03762
 11
168.706
 21
2.69478
  0
LINE
  8
0
 10
168.706
 20
2.69478
 11
169.015
 21
2.3111
  0
LINE
  8
0
 10
169.015
 20
2.3111
 11
169.274
 21
1.89237
  0
LINE
  8
0
 10
169.274
 20
1.89237
 11
169.48
 21
1.44497
  0
LINE
  8
0
 10
169.48
 20
1.44497
 11
169.629
 21
0.975655
  0
LINE
  8
0
 10
169.629
 20
0.975655
 11
169.72
 21
0.491552
  0
LINE
  8
0
 10
169.72
 20
0.491552
 11
169.75
 21
0
  0
LINE
  8
0
 10
169.75
 20
0
 11
169.72
 21
-0.491552
  0
LINE
  8
0
 10
169.72
 20
-0.491552
 11
169.629
 21
-0.975655
  0
LINE
  8
0
 10
169.629
 20
-0.975655
 11
169.48
 21
-1.44497
  0
LINE
  8
0
 10
169.48
 20
-1.44497
 11
169.274
 21
-1.89237
  0
LINE
  8
0
 10
169.274
 20
-1.89237
 11
169.015
 21
-2.3111
  0
LINE
  8
0
 10
169.015
 20
-2.3111
 11
168.706
 21
-2.69478
  0
LINE
  8
0
 10
168.706
 20
-2.69478
 11
168.352
 21
-3.03762
  0
LINE
  8
0
 10
168.352
 20
-3.03762
 11
167.959
 21
-3.33441
  0
LINE
  8
0
 10
167.959
 20
-3.33441
 11
167.533
 21
-3.58065
  0
LINE
  8
0
 10
167.533
 20
-3.58065
 11
167.079
 21
-3.77262
  0
LINE
  8
0
 10
167.079
 20
-3.77262
 11
166.606
 21
-3.90739
  0
LINE
  8
0
 10
166.606
 20
-3.90739
 11
166.119
 21
-3.98294
  0
LINE
  8
0
 10
166.119
 20
-3.98294
 11
165.627
 21
-3.9981
  0
LINE
  8
0
 10
165.627
 20
-3.9981
 11
165.136
 21
-3.95266
  0
LINE
  8
0
 10
165.136
 20
-3.95266
 11
164.655
 21
-3.8473
  0
LINE
  8
0
 10
164.655
 20
-3.8473
 11
164.191
 21
-3.68362
  0
LINE
  8
0
 10
164.191
 20
-3.68362
 11
163.75
 21
-3.4641
  0
LINE
  8
0
 10
163.75
 20
-3.4641
 11
163.339
 21
-3.19207
  0
LINE
  8
0
 10
163.339
 20
-3.19207
 11
162.965
 21
-2.87165
  0
LINE
  8
0
 10
162.965
 20
-2.87165
 11
162.634
 21
-2.5077
  0
LINE
  8
0
 10
162.634
 20
-2.5077
 11
162.349
 21
-2.10573
  0
LINE
  8
0
 10
162.349
 20
-2.10573
 11
162.116
 21
-1.67184
  0
LINE
  8
0
 10
162.116
 20
-1.67184
 11
161.938
 21
-1.21261
  0
LINE
  8
0
 10
161.938
 20
-1.21261
 11
161.818
 21
-0.734998
  0
LINE
  8
0
 10
161.818
 20
-0.734998
 11
161.758
 21
-0.246243
  0
LINE
  8
0
 10
170.089
 20
61.4607
 11
170.089
 21
61.9393
  0
LINE
  8
0
 10
170.089
 20
61.9393
 11
170.311
 21
62.3631
  0
LINE
  8
0
 10
170.311
 20
62.3631
 11
170.705
 21
62.635
  0
LINE
  8
0
 10
170.705
 20
62.635
 11
171.181
 21
62.6927
  0
LINE
  8
0
 10
171.181
 20
62.6927
 11
171.628
 21
62.523
  0
LINE
  8
0
 10
171.628
 20
62.523
 11
171.945
 21
62.1647
  0
LINE
  8
0
 10
171.945
 20
62.1647
 11
172.06
 21
61.7
  0
LINE
  8
0
 10
172.06
 20
61.7
 11
171.945
 21
61.2353
  0
LINE
  8
0
 10
171.945
 20
61.2353
 11
171.628
 21
60.877
  0
LINE
  8
0
 10
171.628
 20
60.877
 11
171.181
 21
60.7073
  0
LINE
  8
0
 10
171.181
 20
60.7073
 11
170.705
 21
60.765
  0
LINE
  8
0
 10
170.705
 20
60.765
 11
170.311
 21
61.0369
  0
LINE
  8
0
 10
170.311
 20
61.0369
 11
170.089
 21
61.4607
  0
LINE
  8
0
 10
221.469
 20
61.4607
 11
221.469
 21
61.9393
  0
LINE
  8
0
 10
221.469
 20
61.9393
 11
221.691
 21
62.3631
  0
LINE
  8
0
 10
221.691
 20
62.3631
 11
222.085
 21
62.635
  0
LINE
  8
0
 10
222.085
 20
62.635
 11
222.561
 21
62.6927
  0
LINE
  8
0
 10
222.561
 20
62.6927
 11
223.008
 21
62.523
  0
LINE
  8
0
 10
223.008
 20
62.523
 11
223.325
 21
62.1647
  0
LINE
  8
0
 10
223.325
 20
62.1647
 11
223.44
 21
61.7
  0
LINE
  8
0
 10
223.44
 20
61.7
 11
223.325
 21
61.2353
  0
LINE
  8
0
 10
223.325
 20
61.2353
 11
223.008
 21
60.877
  0
LINE
  8
0
 10
223.008
 20
60.877
 11
222.561
 21
60.7073
  0
LINE
  8
0
 10
222.561
 20
60.7073
 11
222.085
 21
60.765
  0
LINE
  8
0
 10
222.085
 20
60.765
 11
221.691
 21
61.0369
  0
LINE
  8
0
 10
221.691
 20
61.0369
 11
221.469
 21
61.4607
  0
LINE
  8
0
 10
231.657
 20
80.7795
 11
231.715
 21
81.2546
  0
LINE
  8
0
 10
231.715
 20
81.2546
 11
231.987
 21
81.6485
  0
LINE
  8
0
 10
231.987
 20
81.6485
 11
232.411
 21
81.8709
  0
LINE
  8
0
 10
232.411
 20
81.8709
 11
232.889
 21
81.8709
  0
LINE
  8
0
 10
232.889
 20
81.8709
 11
233.313
 21
81.6485
  0
LINE
  8
0
 10
233.313
 20
81.6485
 11
233.585
 21
81.2546
  0
LINE
  8
0
 10
233.585
 20
81.2546
 11
233.643
 21
80.7795
  0
LINE
  8
0
 10
233.643
 20
80.7795
 11
233.473
 21
80.3319
  0
LINE
  8
0
 10
233.473
 20
80.3319
 11
233.115
 21
80.0145
  0
LINE
  8
0
 10
233.115
 20
80.0145
 11
232.65
 21
79.9
  0
LINE
  8
0
 10
232.65
 20
79.9
 11
232.185
 21
80.0145
  0
LINE
  8
0
 10
232.185
 20
80.0145
 11
231.827
 21
80.3319
  0
LINE
  8
0
 10
231.827
 20
80.3319
 11
231.657
 21
80.7795
  0
ENDSEC
  0
SECTION
  2
OBJECTS
  0
DICTIONARY
  0
ENDSEC
  0
EOF
