<?xml version="1.0"?>
<svg xmlns="http://www.w3.org/2000/svg" version="1.1" height="405mm" width="496mm" >
 <g style="fill-opacity:1.0; stroke:black; stroke-width:1;">
  <line x1="111.000000mm" y1="395.000000mm" x2="111.000000mm" y2="395.000000mm" />
  <line x1="111.000000mm" y1="395.000000mm" x2="111.000000mm" y2="107.900000mm" />
  <line x1="111.000000mm" y1="107.900000mm" x2="111.006000mm" y2="107.651000mm" />
  <line x1="111.006000mm" y1="107.651000mm" x2="111.056000mm" y2="107.155000mm" />
  <line x1="111.056000mm" y1="107.155000mm" x2="111.155000mm" y2="106.666000mm" />
  <line x1="111.155000mm" y1="106.666000mm" x2="111.302000mm" y2="106.190000mm" />
  <line x1="111.302000mm" y1="106.190000mm" x2="111.495000mm" y2="105.731000mm" />
  <line x1="111.495000mm" y1="105.731000mm" x2="111.734000mm" y2="105.293000mm" />
  <line x1="111.734000mm" y1="105.293000mm" x2="112.014000mm" y2="104.881000mm" />
  <line x1="112.014000mm" y1="104.881000mm" x2="112.335000mm" y2="104.499000mm" />
  <line x1="112.335000mm" y1="104.499000mm" x2="112.692000mm" y2="104.151000mm" />
  <line x1="112.692000mm" y1="104.151000mm" x2="113.081000mm" y2="103.840000mm" />
  <line x1="113.081000mm" y1="103.840000mm" x2="113.500000mm" y2="103.570000mm" />
  <line x1="113.500000mm" y1="103.570000mm" x2="113.944000mm" y2="103.342000mm" />
  <line x1="113.944000mm" y1="103.342000mm" x2="114.408000mm" y2="103.160000mm" />
  <line x1="114.408000mm" y1="103.160000mm" x2="114.887000mm" y2="103.025000mm" />
  <line x1="114.887000mm" y1="103.025000mm" x2="115.378000mm" y2="102.939000mm" />
  <line x1="115.378000mm" y1="102.939000mm" x2="115.875000mm" y2="102.902000mm" />
  <line x1="115.875000mm" y1="102.902000mm" x2="116.000000mm" y2="102.900000mm" />
  <line x1="116.000000mm" y1="102.900000mm" x2="356.000000mm" y2="102.900000mm" />
  <line x1="356.000000mm" y1="102.900000mm" x2="356.374000mm" y2="102.914000mm" />
  <line x1="356.374000mm" y1="102.914000mm" x2="356.868000mm" y2="102.976000mm" />
  <line x1="356.868000mm" y1="102.976000mm" x2="357.354000mm" y2="103.087000mm" />
  <line x1="357.354000mm" y1="103.087000mm" x2="357.827000mm" y2="103.246000mm" />
  <line x1="357.827000mm" y1="103.246000mm" x2="358.281000mm" y2="103.451000mm" />
  <line x1="358.281000mm" y1="103.451000mm" x2="358.713000mm" y2="103.700000mm" />
  <line x1="358.713000mm" y1="103.700000mm" x2="359.117000mm" y2="103.991000mm" />
  <line x1="359.117000mm" y1="103.991000mm" x2="359.491000mm" y2="104.321000mm" />
  <line x1="359.491000mm" y1="104.321000mm" x2="359.830000mm" y2="104.686000mm" />
  <line x1="359.830000mm" y1="104.686000mm" x2="360.131000mm" y2="105.083000mm" />
  <line x1="360.131000mm" y1="105.083000mm" x2="360.391000mm" y2="105.509000mm" />
  <line x1="360.391000mm" y1="105.509000mm" x2="360.607000mm" y2="105.958000mm" />
  <line x1="360.607000mm" y1="105.958000mm" x2="360.778000mm" y2="106.426000mm" />
  <line x1="360.778000mm" y1="106.426000mm" x2="360.901000mm" y2="106.909000mm" />
  <line x1="360.901000mm" y1="106.909000mm" x2="360.975000mm" y2="107.402000mm" />
  <line x1="360.975000mm" y1="107.402000mm" x2="361.000000mm" y2="107.900000mm" />
  <line x1="361.000000mm" y1="107.900000mm" x2="361.000000mm" y2="395.000000mm" />
  <line x1="361.000000mm" y1="395.000000mm" x2="485.500000mm" y2="395.000000mm" />
  <line x1="485.500000mm" y1="395.000000mm" x2="485.500000mm" y2="0.000000mm" />
  <line x1="485.500000mm" y1="0.000000mm" x2="0.000000mm" y2="0.000000mm" />
  <line x1="0.000000mm" y1="0.000000mm" x2="0.000000mm" y2="395.000000mm" />
  <line x1="0.000000mm" y1="395.000000mm" x2="111.000000mm" y2="395.000000mm" />
  <circle cx="407.500000mm" cy="8.499908mm" r="1.000092mm" fill="none"/>
  <line x1="409.500185mm" y1="8.499908mm" x2="405.499815mm" y2="8.499908mm" />
  <line x1="407.500000mm" y1="6.499723mm" x2="407.500000mm" y2="10.500092mm" />
  <text x="408mm" y="7mm" font-size="24">
   2.0
  </text>
  <circle cx="374.500000mm" cy="8.499908mm" r="1.000092mm" fill="none"/>
  <line x1="376.500185mm" y1="8.499908mm" x2="372.499815mm" y2="8.499908mm" />
  <line x1="374.500000mm" y1="6.499723mm" x2="374.500000mm" y2="10.500092mm" />
  <text x="375mm" y="7mm" font-size="24">
   2.0
  </text>
  <circle cx="40.500000mm" cy="8.499908mm" r="1.000092mm" fill="none"/>
  <line x1="42.500185mm" y1="8.499908mm" x2="38.499815mm" y2="8.499908mm" />
  <line x1="40.500000mm" y1="6.499723mm" x2="40.500000mm" y2="10.500092mm" />
  <text x="41mm" y="7mm" font-size="24">
   2.0
  </text>
  <circle cx="73.500000mm" cy="8.499908mm" r="1.000092mm" fill="none"/>
  <line x1="75.500185mm" y1="8.499908mm" x2="71.499815mm" y2="8.499908mm" />
  <line x1="73.500000mm" y1="6.499723mm" x2="73.500000mm" y2="10.500092mm" />
  <text x="74mm" y="7mm" font-size="24">
   2.0
  </text>
  <circle cx="469.199908mm" cy="12.000377mm" r="0.999982mm" fill="none"/>
  <line x1="471.199872mm" y1="12.000377mm" x2="467.199944mm" y2="12.000377mm" />
  <line x1="469.199908mm" y1="10.000413mm" x2="469.199908mm" y2="14.000341mm" />
  <text x="470mm" y="11mm" font-size="24">
   2.0
  </text>
  <circle cx="434.799908mm" cy="12.000377mm" r="0.999982mm" fill="none"/>
  <line x1="436.799872mm" y1="12.000377mm" x2="432.799944mm" y2="12.000377mm" />
  <line x1="434.799908mm" y1="10.000413mm" x2="434.799908mm" y2="14.000341mm" />
  <text x="435mm" y="11mm" font-size="24">
   2.0
  </text>
  <circle cx="40.500000mm" cy="18.999798mm" r="1.999777mm" fill="none"/>
  <line x1="44.499554mm" y1="18.999798mm" x2="36.500446mm" y2="18.999798mm" />
  <line x1="40.500000mm" y1="15.000245mm" x2="40.500000mm" y2="22.999352mm" />
  <text x="42mm" y="17mm" font-size="24">
   4.0
  </text>
  <circle cx="75.699777mm" cy="36.709918mm" r="1.000114mm" fill="none"/>
  <line x1="77.700004mm" y1="36.709918mm" x2="73.699550mm" y2="36.709918mm" />
  <line x1="75.699777mm" y1="34.709691mm" x2="75.699777mm" y2="38.710146mm" />
  <text x="76mm" y="35mm" font-size="24">
   2.0
  </text>
  <circle cx="373.300000mm" cy="36.709908mm" r="1.000092mm" fill="none"/>
  <line x1="375.300185mm" y1="36.709908mm" x2="371.299815mm" y2="36.709908mm" />
  <line x1="373.300000mm" y1="34.709723mm" x2="373.300000mm" y2="38.710092mm" />
  <text x="374mm" y="35mm" font-size="24">
   2.0
  </text>
  <circle cx="372.500000mm" cy="65.819908mm" r="1.000092mm" fill="none"/>
  <line x1="374.500185mm" y1="65.819908mm" x2="370.499815mm" y2="65.819908mm" />
  <line x1="372.500000mm" y1="63.819723mm" x2="372.500000mm" y2="67.820092mm" />
  <text x="373mm" y="64mm" font-size="24">
   2.0
  </text>
  <circle cx="76.500000mm" cy="65.819908mm" r="1.000092mm" fill="none"/>
  <line x1="78.500185mm" y1="65.819908mm" x2="74.499815mm" y2="65.819908mm" />
  <line x1="76.500000mm" y1="63.819723mm" x2="76.500000mm" y2="67.820092mm" />
  <text x="77mm" y="64mm" font-size="24">
   2.0
  </text>
  <circle cx="7.499908mm" cy="234.500377mm" r="0.999982mm" fill="none"/>
  <line x1="9.499872mm" y1="234.500377mm" x2="5.499944mm" y2="234.500377mm" />
  <line x1="7.499908mm" y1="232.500413mm" x2="7.499908mm" y2="236.500341mm" />
  <text x="8mm" y="233mm" font-size="24">
   2.0
  </text>
  <circle cx="7.499908mm" cy="275.900377mm" r="0.999982mm" fill="none"/>
  <line x1="9.499872mm" y1="275.900377mm" x2="5.499944mm" y2="275.900377mm" />
  <line x1="7.499908mm" y1="273.900413mm" x2="7.499908mm" y2="277.900341mm" />
  <text x="8mm" y="274mm" font-size="24">
   2.0
  </text>
  <circle cx="34.500000mm" cy="329.999943mm" r="2.000030mm" fill="none"/>
  <line x1="38.500060mm" y1="329.999943mm" x2="30.499940mm" y2="329.999943mm" />
  <line x1="34.500000mm" y1="325.999883mm" x2="34.500000mm" y2="334.000003mm" />
  <text x="36mm" y="327mm" font-size="24">
   4.0
  </text>
  <circle cx="48.499772mm" cy="342.000197mm" r="0.999879mm" fill="none"/>
  <line x1="50.499530mm" y1="342.000197mm" x2="46.500015mm" y2="342.000197mm" />
  <line x1="48.499772mm" y1="340.000440mm" x2="48.499772mm" y2="343.999955mm" />
  <text x="49mm" y="341mm" font-size="24">
   2.0
  </text>
  <circle cx="392.499772mm" cy="342.000197mm" r="0.999879mm" fill="none"/>
  <line x1="394.499530mm" y1="342.000197mm" x2="390.500015mm" y2="342.000197mm" />
  <line x1="392.499772mm" y1="340.000440mm" x2="392.499772mm" y2="343.999955mm" />
  <text x="393mm" y="341mm" font-size="24">
   2.0
  </text>
  <circle cx="424.499772mm" cy="342.000197mm" r="0.999879mm" fill="none"/>
  <line x1="426.499530mm" y1="342.000197mm" x2="422.500015mm" y2="342.000197mm" />
  <line x1="424.499772mm" y1="340.000440mm" x2="424.499772mm" y2="343.999955mm" />
  <text x="425mm" y="341mm" font-size="24">
   2.0
  </text>
  <circle cx="16.499772mm" cy="342.000197mm" r="0.999879mm" fill="none"/>
  <line x1="18.499530mm" y1="342.000197mm" x2="14.500015mm" y2="342.000197mm" />
  <line x1="16.499772mm" y1="340.000440mm" x2="16.499772mm" y2="343.999955mm" />
  <text x="17mm" y="341mm" font-size="24">
   2.0
  </text>
  <circle cx="75.699838mm" cy="358.289905mm" r="1.000112mm" fill="none"/>
  <line x1="77.700063mm" y1="358.289905mm" x2="73.699613mm" y2="358.289905mm" />
  <line x1="75.699838mm" y1="356.289680mm" x2="75.699838mm" y2="360.290129mm" />
  <text x="76mm" y="357mm" font-size="24">
   2.0
  </text>
  <circle cx="373.300000mm" cy="358.290012mm" r="0.999988mm" fill="none"/>
  <line x1="375.299975mm" y1="358.290012mm" x2="371.300025mm" y2="358.290012mm" />
  <line x1="373.300000mm" y1="356.290037mm" x2="373.300000mm" y2="360.289988mm" />
  <text x="374mm" y="357mm" font-size="24">
   2.0
  </text>
  <circle cx="474.999821mm" cy="363.699835mm" r="1.000087mm" fill="none"/>
  <line x1="476.999995mm" y1="363.699835mm" x2="472.999647mm" y2="363.699835mm" />
  <line x1="474.999821mm" y1="361.699661mm" x2="474.999821mm" y2="365.700009mm" />
  <text x="475mm" y="362mm" font-size="24">
   2.0
  </text>
  <circle cx="406.500028mm" cy="374.099820mm" r="2.500180mm" fill="none"/>
  <line x1="411.500388mm" y1="374.099820mm" x2="401.499668mm" y2="374.099820mm" />
  <line x1="406.500028mm" y1="369.099460mm" x2="406.500028mm" y2="379.100180mm" />
  <text x="409mm" y="371mm" font-size="24">
   5.0
  </text>
  <circle cx="43.120022mm" cy="387.499816mm" r="2.500184mm" fill="none"/>
  <line x1="48.120390mm" y1="387.499816mm" x2="38.119654mm" y2="387.499816mm" />
  <line x1="43.120022mm" y1="382.499448mm" x2="43.120022mm" y2="392.500184mm" />
  <text x="45mm" y="384mm" font-size="24">
   5.0
  </text>
  <circle cx="30.920222mm" cy="386.800201mm" r="0.999885mm" fill="none"/>
  <line x1="32.919992mm" y1="386.800201mm" x2="28.920453mm" y2="386.800201mm" />
  <line x1="30.920222mm" y1="384.800431mm" x2="30.920222mm" y2="388.799970mm" />
  <text x="31mm" y="385mm" font-size="24">
   2.0
  </text>
  <circle cx="475.800222mm" cy="386.800201mm" r="0.999885mm" fill="none"/>
  <line x1="477.799992mm" y1="386.800201mm" x2="473.800453mm" y2="386.800201mm" />
  <line x1="475.800222mm" y1="384.800431mm" x2="475.800222mm" y2="388.799970mm" />
  <text x="476mm" y="385mm" font-size="24">
   2.0
  </text>
  <circle cx="9.700222mm" cy="386.800201mm" r="0.999885mm" fill="none"/>
  <line x1="11.699992mm" y1="386.800201mm" x2="7.700453mm" y2="386.800201mm" />
  <line x1="9.700222mm" y1="384.800431mm" x2="9.700222mm" y2="388.799970mm" />
  <text x="10mm" y="385mm" font-size="24">
   2.0
  </text>
  <circle cx="454.580222mm" cy="386.800201mm" r="0.999885mm" fill="none"/>
  <line x1="456.579992mm" y1="386.800201mm" x2="452.580453mm" y2="386.800201mm" />
  <line x1="454.580222mm" y1="384.800431mm" x2="454.580222mm" y2="388.799970mm" />
  <text x="455mm" y="385mm" font-size="24">
   2.0
  </text>
  <circle cx="424.420222mm" cy="386.800201mm" r="0.999885mm" fill="none"/>
  <line x1="426.419992mm" y1="386.800201mm" x2="422.420453mm" y2="386.800201mm" />
  <line x1="424.420222mm" y1="384.800431mm" x2="424.420222mm" y2="388.799970mm" />
  <text x="425mm" y="385mm" font-size="24">
   2.0
  </text>
  <circle cx="403.200222mm" cy="386.800201mm" r="0.999885mm" fill="none"/>
  <line x1="405.199992mm" y1="386.800201mm" x2="401.200453mm" y2="386.800201mm" />
  <line x1="403.200222mm" y1="384.800431mm" x2="403.200222mm" y2="388.799970mm" />
  <text x="404mm" y="385mm" font-size="24">
   2.0
  </text>
  <circle cx="101.300222mm" cy="386.800201mm" r="0.999885mm" fill="none"/>
  <line x1="103.299992mm" y1="386.800201mm" x2="99.300453mm" y2="386.800201mm" />
  <line x1="101.300222mm" y1="384.800431mm" x2="101.300222mm" y2="388.799970mm" />
  <text x="102mm" y="385mm" font-size="24">
   2.0
  </text>
  <circle cx="80.080222mm" cy="386.800201mm" r="0.999885mm" fill="none"/>
  <line x1="82.079992mm" y1="386.800201mm" x2="78.080453mm" y2="386.800201mm" />
  <line x1="80.080222mm" y1="384.800431mm" x2="80.080222mm" y2="388.799970mm" />
  <text x="81mm" y="385mm" font-size="24">
   2.0
  </text>
  <circle cx="355.999654mm" cy="107.899829mm" r="4.989703mm" fill="none"/>
  <line x1="365.979060mm" y1="107.899829mm" x2="346.020248mm" y2="107.899829mm" />
  <line x1="355.999654mm" y1="97.920423mm" x2="355.999654mm" y2="117.879235mm" />
  <text x="360mm" y="102mm" font-size="24">
   10.0
  </text>
  <circle cx="115.999654mm" cy="107.899829mm" r="4.989703mm" fill="none"/>
  <line x1="125.979060mm" y1="107.899829mm" x2="106.020248mm" y2="107.899829mm" />
  <line x1="115.999654mm" y1="97.920423mm" x2="115.999654mm" y2="117.879235mm" />
  <text x="120mm" y="102mm" font-size="24">
   10.0
  </text>
 </g>
</svg>
