  0
SECTION
  2
BLOCKS
  0
ENDSEC
  0
SECTION
  2
ENTITIES
  0
LINE
  8
0
 10
-131.75
 20
287.1
 11
-131.744
 21
287.349
  0
LINE
  8
0
 10
-131.744
 20
287.349
 11
-131.694
 21
287.845
  0
LINE
  8
0
 10
-131.694
 20
287.845
 11
-131.595
 21
288.334
  0
LINE
  8
0
 10
-131.595
 20
288.334
 11
-131.448
 21
288.81
  0
LINE
  8
0
 10
-131.448
 20
288.81
 11
-131.255
 21
289.269
  0
LINE
  8
0
 10
-131.255
 20
289.269
 11
-131.016
 21
289.707
  0
LINE
  8
0
 10
-131.016
 20
289.707
 11
-130.736
 21
290.119
  0
LINE
  8
0
 10
-130.736
 20
290.119
 11
-130.415
 21
290.501
  0
LINE
  8
0
 10
-130.415
 20
290.501
 11
-130.058
 21
290.849
  0
LINE
  8
0
 10
-130.058
 20
290.849
 11
-129.669
 21
291.16
  0
LINE
  8
0
 10
-129.669
 20
291.16
 11
-129.25
 21
291.43
  0
LINE
  8
0
 10
-129.25
 20
291.43
 11
-128.806
 21
291.658
  0
LINE
  8
0
 10
-128.806
 20
291.658
 11
-128.342
 21
291.84
  0
LINE
  8
0
 10
-128.342
 20
291.84
 11
-127.863
 21
291.975
  0
LINE
  8
0
 10
-127.863
 20
291.975
 11
-127.372
 21
292.061
  0
LINE
  8
0
 10
-127.372
 20
292.061
 11
-126.875
 21
292.098
  0
LINE
  8
0
 10
-126.875
 20
292.098
 11
-126.75
 21
292.1
  0
LINE
  8
0
 10
-126.75
 20
292.1
 11
113.25
 21
292.1
  0
LINE
  8
0
 10
113.25
 20
292.1
 11
113.624
 21
292.086
  0
LINE
  8
0
 10
113.624
 20
292.086
 11
114.118
 21
292.024
  0
LINE
  8
0
 10
114.118
 20
292.024
 11
114.604
 21
291.913
  0
LINE
  8
0
 10
114.604
 20
291.913
 11
115.077
 21
291.754
  0
LINE
  8
0
 10
115.077
 20
291.754
 11
115.531
 21
291.549
  0
LINE
  8
0
 10
115.531
 20
291.549
 11
115.963
 21
291.3
  0
LINE
  8
0
 10
115.963
 20
291.3
 11
116.367
 21
291.009
  0
LINE
  8
0
 10
116.367
 20
291.009
 11
116.741
 21
290.679
  0
LINE
  8
0
 10
116.741
 20
290.679
 11
117.08
 21
290.314
  0
LINE
  8
0
 10
117.08
 20
290.314
 11
117.381
 21
289.917
  0
LINE
  8
0
 10
117.381
 20
289.917
 11
117.641
 21
289.491
  0
LINE
  8
0
 10
117.641
 20
289.491
 11
117.857
 21
289.042
  0
LINE
  8
0
 10
117.857
 20
289.042
 11
118.028
 21
288.574
  0
LINE
  8
0
 10
118.028
 20
288.574
 11
118.151
 21
288.091
  0
LINE
  8
0
 10
118.151
 20
288.091
 11
118.225
 21
287.598
  0
LINE
  8
0
 10
118.225
 20
287.598
 11
118.25
 21
287.1
  0
LINE
  8
0
 10
118.25
 20
287.1
 11
118.25
 21
0
  0
LINE
  8
0
 10
118.25
 20
0
 11
242.75
 21
0
  0
LINE
  8
0
 10
242.75
 20
0
 11
242.75
 21
395
  0
LINE
  8
0
 10
242.75
 20
395
 11
-242.75
 21
395
  0
LINE
  8
0
 10
-242.75
 20
395
 11
-242.75
 21
0
  0
LINE
  8
0
 10
-242.75
 20
0
 11
-131.75
 21
0
  0
LINE
  8
0
 10
-131.75
 20
0
 11
-131.75
 21
287.1
  0
LINE
  8
0
 10
164.285
 20
385.615
 11
163.927
 21
385.932
  0
LINE
  8
0
 10
163.927
 20
385.932
 11
163.757
 21
386.379
  0
LINE
  8
0
 10
163.757
 20
386.379
 11
163.815
 21
386.855
  0
LINE
  8
0
 10
163.815
 20
386.855
 11
164.087
 21
387.249
  0
LINE
  8
0
 10
164.087
 20
387.249
 11
164.511
 21
387.471
  0
LINE
  8
0
 10
164.511
 20
387.471
 11
164.989
 21
387.471
  0
LINE
  8
0
 10
164.989
 20
387.471
 11
165.413
 21
387.249
  0
LINE
  8
0
 10
165.413
 20
387.249
 11
165.685
 21
386.855
  0
LINE
  8
0
 10
165.685
 20
386.855
 11
165.743
 21
386.379
  0
LINE
  8
0
 10
165.743
 20
386.379
 11
165.573
 21
385.932
  0
LINE
  8
0
 10
165.573
 20
385.932
 11
165.215
 21
385.615
  0
LINE
  8
0
 10
165.215
 20
385.615
 11
164.75
 21
385.5
  0
LINE
  8
0
 10
164.75
 20
385.5
 11
164.285
 21
385.615
  0
LINE
  8
0
 10
131.285
 20
385.615
 11
130.927
 21
385.932
  0
LINE
  8
0
 10
130.927
 20
385.932
 11
130.757
 21
386.379
  0
LINE
  8
0
 10
130.757
 20
386.379
 11
130.815
 21
386.855
  0
LINE
  8
0
 10
130.815
 20
386.855
 11
131.087
 21
387.249
  0
LINE
  8
0
 10
131.087
 20
387.249
 11
131.511
 21
387.471
  0
LINE
  8
0
 10
131.511
 20
387.471
 11
131.989
 21
387.471
  0
LINE
  8
0
 10
131.989
 20
387.471
 11
132.413
 21
387.249
  0
LINE
  8
0
 10
132.413
 20
387.249
 11
132.685
 21
386.855
  0
LINE
  8
0
 10
132.685
 20
386.855
 11
132.743
 21
386.379
  0
LINE
  8
0
 10
132.743
 20
386.379
 11
132.573
 21
385.932
  0
LINE
  8
0
 10
132.573
 20
385.932
 11
132.215
 21
385.615
  0
LINE
  8
0
 10
132.215
 20
385.615
 11
131.75
 21
385.5
  0
LINE
  8
0
 10
131.75
 20
385.5
 11
131.285
 21
385.615
  0
LINE
  8
0
 10
-169.715
 20
385.615
 11
-170.073
 21
385.932
  0
LINE
  8
0
 10
-170.073
 20
385.932
 11
-170.243
 21
386.379
  0
LINE
  8
0
 10
-170.243
 20
386.379
 11
-170.185
 21
386.855
  0
LINE
  8
0
 10
-170.185
 20
386.855
 11
-169.913
 21
387.249
  0
LINE
  8
0
 10
-169.913
 20
387.249
 11
-169.489
 21
387.471
  0
LINE
  8
0
 10
-169.489
 20
387.471
 11
-169.011
 21
387.471
  0
LINE
  8
0
 10
-169.011
 20
387.471
 11
-168.587
 21
387.249
  0
LINE
  8
0
 10
-168.587
 20
387.249
 11
-168.315
 21
386.855
  0
LINE
  8
0
 10
-168.315
 20
386.855
 11
-168.257
 21
386.379
  0
LINE
  8
0
 10
-168.257
 20
386.379
 11
-168.427
 21
385.932
  0
LINE
  8
0
 10
-168.427
 20
385.932
 11
-168.785
 21
385.615
  0
LINE
  8
0
 10
-168.785
 20
385.615
 11
-169.25
 21
385.5
  0
LINE
  8
0
 10
-169.25
 20
385.5
 11
-169.715
 21
385.615
  0
LINE
  8
0
 10
-202.715
 20
385.615
 11
-203.073
 21
385.932
  0
LINE
  8
0
 10
-203.073
 20
385.932
 11
-203.243
 21
386.379
  0
LINE
  8
0
 10
-203.243
 20
386.379
 11
-203.185
 21
386.855
  0
LINE
  8
0
 10
-203.185
 20
386.855
 11
-202.913
 21
387.249
  0
LINE
  8
0
 10
-202.913
 20
387.249
 11
-202.489
 21
387.471
  0
LINE
  8
0
 10
-202.489
 20
387.471
 11
-202.011
 21
387.471
  0
LINE
  8
0
 10
-202.011
 20
387.471
 11
-201.587
 21
387.249
  0
LINE
  8
0
 10
-201.587
 20
387.249
 11
-201.315
 21
386.855
  0
LINE
  8
0
 10
-201.315
 20
386.855
 11
-201.257
 21
386.379
  0
LINE
  8
0
 10
-201.257
 20
386.379
 11
-201.427
 21
385.932
  0
LINE
  8
0
 10
-201.427
 20
385.932
 11
-201.785
 21
385.615
  0
LINE
  8
0
 10
-201.785
 20
385.615
 11
-202.25
 21
385.5
  0
LINE
  8
0
 10
-202.25
 20
385.5
 11
-202.715
 21
385.615
  0
LINE
  8
0
 10
226.095
 20
382.065
 11
225.701
 21
382.337
  0
LINE
  8
0
 10
225.701
 20
382.337
 11
225.479
 21
382.761
  0
LINE
  8
0
 10
225.479
 20
382.761
 11
225.479
 21
383.239
  0
LINE
  8
0
 10
225.479
 20
383.239
 11
225.701
 21
383.663
  0
LINE
  8
0
 10
225.701
 20
383.663
 11
226.095
 21
383.935
  0
LINE
  8
0
 10
226.095
 20
383.935
 11
226.571
 21
383.993
  0
LINE
  8
0
 10
226.571
 20
383.993
 11
227.018
 21
383.823
  0
LINE
  8
0
 10
227.018
 20
383.823
 11
227.335
 21
383.465
  0
LINE
  8
0
 10
227.335
 20
383.465
 11
227.45
 21
383
  0
LINE
  8
0
 10
227.45
 20
383
 11
227.335
 21
382.535
  0
LINE
  8
0
 10
227.335
 20
382.535
 11
227.018
 21
382.177
  0
LINE
  8
0
 10
227.018
 20
382.177
 11
226.571
 21
382.007
  0
LINE
  8
0
 10
226.571
 20
382.007
 11
226.095
 21
382.065
  0
LINE
  8
0
 10
191.695
 20
382.065
 11
191.301
 21
382.337
  0
LINE
  8
0
 10
191.301
 20
382.337
 11
191.079
 21
382.761
  0
LINE
  8
0
 10
191.079
 20
382.761
 11
191.079
 21
383.239
  0
LINE
  8
0
 10
191.079
 20
383.239
 11
191.301
 21
383.663
  0
LINE
  8
0
 10
191.301
 20
383.663
 11
191.695
 21
383.935
  0
LINE
  8
0
 10
191.695
 20
383.935
 11
192.171
 21
383.993
  0
LINE
  8
0
 10
192.171
 20
383.993
 11
192.618
 21
383.823
  0
LINE
  8
0
 10
192.618
 20
383.823
 11
192.935
 21
383.465
  0
LINE
  8
0
 10
192.935
 20
383.465
 11
193.05
 21
383
  0
LINE
  8
0
 10
193.05
 20
383
 11
192.935
 21
382.535
  0
LINE
  8
0
 10
192.935
 20
382.535
 11
192.618
 21
382.177
  0
LINE
  8
0
 10
192.618
 20
382.177
 11
192.171
 21
382.007
  0
LINE
  8
0
 10
192.171
 20
382.007
 11
191.695
 21
382.065
  0
LINE
  8
0
 10
-202.491
 20
374.015
 11
-202.959
 21
374.13
  0
LINE
  8
0
 10
-202.959
 20
374.13
 11
-203.386
 21
374.354
  0
LINE
  8
0
 10
-203.386
 20
374.354
 11
-203.747
 21
374.674
  0
LINE
  8
0
 10
-203.747
 20
374.674
 11
-204.021
 21
375.071
  0
LINE
  8
0
 10
-204.021
 20
375.071
 11
-204.192
 21
375.521
  0
LINE
  8
0
 10
-204.192
 20
375.521
 11
-204.25
 21
376
  0
LINE
  8
0
 10
-204.25
 20
376
 11
-204.192
 21
376.479
  0
LINE
  8
0
 10
-204.192
 20
376.479
 11
-204.021
 21
376.929
  0
LINE
  8
0
 10
-204.021
 20
376.929
 11
-203.747
 21
377.326
  0
LINE
  8
0
 10
-203.747
 20
377.326
 11
-203.386
 21
377.646
  0
LINE
  8
0
 10
-203.386
 20
377.646
 11
-202.959
 21
377.87
  0
LINE
  8
0
 10
-202.959
 20
377.87
 11
-202.491
 21
377.985
  0
LINE
  8
0
 10
-202.491
 20
377.985
 11
-202.009
 21
377.985
  0
LINE
  8
0
 10
-202.009
 20
377.985
 11
-201.541
 21
377.87
  0
LINE
  8
0
 10
-201.541
 20
377.87
 11
-201.114
 21
377.646
  0
LINE
  8
0
 10
-201.114
 20
377.646
 11
-200.753
 21
377.326
  0
LINE
  8
0
 10
-200.753
 20
377.326
 11
-200.479
 21
376.929
  0
LINE
  8
0
 10
-200.479
 20
376.929
 11
-200.308
 21
376.479
  0
LINE
  8
0
 10
-200.308
 20
376.479
 11
-200.25
 21
376
  0
LINE
  8
0
 10
-200.25
 20
376
 11
-200.308
 21
375.521
  0
LINE
  8
0
 10
-200.308
 20
375.521
 11
-200.479
 21
375.071
  0
LINE
  8
0
 10
-200.479
 20
375.071
 11
-200.753
 21
374.674
  0
LINE
  8
0
 10
-200.753
 20
374.674
 11
-201.114
 21
374.354
  0
LINE
  8
0
 10
-201.114
 20
374.354
 11
-201.541
 21
374.13
  0
LINE
  8
0
 10
-201.541
 20
374.13
 11
-202.009
 21
374.015
  0
LINE
  8
0
 10
-202.009
 20
374.015
 11
-202.491
 21
374.015
  0
LINE
  8
0
 10
-167.289
 20
357.319
 11
-167.713
 21
357.541
  0
LINE
  8
0
 10
-167.713
 20
357.541
 11
-167.985
 21
357.935
  0
LINE
  8
0
 10
-167.985
 20
357.935
 11
-168.043
 21
358.411
  0
LINE
  8
0
 10
-168.043
 20
358.411
 11
-167.873
 21
358.858
  0
LINE
  8
0
 10
-167.873
 20
358.858
 11
-167.515
 21
359.175
  0
LINE
  8
0
 10
-167.515
 20
359.175
 11
-167.05
 21
359.29
  0
LINE
  8
0
 10
-167.05
 20
359.29
 11
-166.585
 21
359.175
  0
LINE
  8
0
 10
-166.585
 20
359.175
 11
-166.227
 21
358.858
  0
LINE
  8
0
 10
-166.227
 20
358.858
 11
-166.057
 21
358.411
  0
LINE
  8
0
 10
-166.057
 20
358.411
 11
-166.115
 21
357.935
  0
LINE
  8
0
 10
-166.115
 20
357.935
 11
-166.387
 21
357.541
  0
LINE
  8
0
 10
-166.387
 20
357.541
 11
-166.811
 21
357.319
  0
LINE
  8
0
 10
-166.811
 20
357.319
 11
-167.289
 21
357.319
  0
LINE
  8
0
 10
130.085
 20
357.405
 11
129.727
 21
357.722
  0
LINE
  8
0
 10
129.727
 20
357.722
 11
129.557
 21
358.169
  0
LINE
  8
0
 10
129.557
 20
358.169
 11
129.615
 21
358.645
  0
LINE
  8
0
 10
129.615
 20
358.645
 11
129.887
 21
359.038
  0
LINE
  8
0
 10
129.887
 20
359.038
 11
130.311
 21
359.261
  0
LINE
  8
0
 10
130.311
 20
359.261
 11
130.789
 21
359.261
  0
LINE
  8
0
 10
130.789
 20
359.261
 11
131.213
 21
359.038
  0
LINE
  8
0
 10
131.213
 20
359.038
 11
131.485
 21
358.645
  0
LINE
  8
0
 10
131.485
 20
358.645
 11
131.543
 21
358.169
  0
LINE
  8
0
 10
131.543
 20
358.169
 11
131.373
 21
357.722
  0
LINE
  8
0
 10
131.373
 20
357.722
 11
131.015
 21
357.405
  0
LINE
  8
0
 10
131.015
 20
357.405
 11
130.55
 21
357.29
  0
LINE
  8
0
 10
130.55
 20
357.29
 11
130.085
 21
357.405
  0
LINE
  8
0
 10
-166.715
 20
328.295
 11
-167.073
 21
328.612
  0
LINE
  8
0
 10
-167.073
 20
328.612
 11
-167.243
 21
329.059
  0
LINE
  8
0
 10
-167.243
 20
329.059
 11
-167.185
 21
329.535
  0
LINE
  8
0
 10
-167.185
 20
329.535
 11
-166.913
 21
329.928
  0
LINE
  8
0
 10
-166.913
 20
329.928
 11
-166.489
 21
330.151
  0
LINE
  8
0
 10
-166.489
 20
330.151
 11
-166.011
 21
330.151
  0
LINE
  8
0
 10
-166.011
 20
330.151
 11
-165.587
 21
329.928
  0
LINE
  8
0
 10
-165.587
 20
329.928
 11
-165.315
 21
329.535
  0
LINE
  8
0
 10
-165.315
 20
329.535
 11
-165.257
 21
329.059
  0
LINE
  8
0
 10
-165.257
 20
329.059
 11
-165.427
 21
328.612
  0
LINE
  8
0
 10
-165.427
 20
328.612
 11
-165.785
 21
328.295
  0
LINE
  8
0
 10
-165.785
 20
328.295
 11
-166.25
 21
328.18
  0
LINE
  8
0
 10
-166.25
 20
328.18
 11
-166.715
 21
328.295
  0
LINE
  8
0
 10
129.285
 20
328.295
 11
128.927
 21
328.612
  0
LINE
  8
0
 10
128.927
 20
328.612
 11
128.757
 21
329.059
  0
LINE
  8
0
 10
128.757
 20
329.059
 11
128.815
 21
329.535
  0
LINE
  8
0
 10
128.815
 20
329.535
 11
129.087
 21
329.928
  0
LINE
  8
0
 10
129.087
 20
329.928
 11
129.511
 21
330.151
  0
LINE
  8
0
 10
129.511
 20
330.151
 11
129.989
 21
330.151
  0
LINE
  8
0
 10
129.989
 20
330.151
 11
130.413
 21
329.928
  0
LINE
  8
0
 10
130.413
 20
329.928
 11
130.685
 21
329.535
  0
LINE
  8
0
 10
130.685
 20
329.535
 11
130.743
 21
329.059
  0
LINE
  8
0
 10
130.743
 20
329.059
 11
130.573
 21
328.612
  0
LINE
  8
0
 10
130.573
 20
328.612
 11
130.215
 21
328.295
  0
LINE
  8
0
 10
130.215
 20
328.295
 11
129.75
 21
328.18
  0
LINE
  8
0
 10
129.75
 20
328.18
 11
129.285
 21
328.295
  0
LINE
  8
0
 10
-235.605
 20
159.565
 11
-235.999
 21
159.837
  0
LINE
  8
0
 10
-235.999
 20
159.837
 11
-236.221
 21
160.261
  0
LINE
  8
0
 10
-236.221
 20
160.261
 11
-236.221
 21
160.739
  0
LINE
  8
0
 10
-236.221
 20
160.739
 11
-235.999
 21
161.163
  0
LINE
  8
0
 10
-235.999
 20
161.163
 11
-235.605
 21
161.435
  0
LINE
  8
0
 10
-235.605
 20
161.435
 11
-235.129
 21
161.493
  0
LINE
  8
0
 10
-235.129
 20
161.493
 11
-234.682
 21
161.323
  0
LINE
  8
0
 10
-234.682
 20
161.323
 11
-234.365
 21
160.965
  0
LINE
  8
0
 10
-234.365
 20
160.965
 11
-234.25
 21
160.5
  0
LINE
  8
0
 10
-234.25
 20
160.5
 11
-234.365
 21
160.035
  0
LINE
  8
0
 10
-234.365
 20
160.035
 11
-234.682
 21
159.677
  0
LINE
  8
0
 10
-234.682
 20
159.677
 11
-235.129
 21
159.507
  0
LINE
  8
0
 10
-235.129
 20
159.507
 11
-235.605
 21
159.565
  0
LINE
  8
0
 10
-235.605
 20
118.165
 11
-235.999
 21
118.437
  0
LINE
  8
0
 10
-235.999
 20
118.437
 11
-236.221
 21
118.861
  0
LINE
  8
0
 10
-236.221
 20
118.861
 11
-236.221
 21
119.339
  0
LINE
  8
0
 10
-236.221
 20
119.339
 11
-235.999
 21
119.763
  0
LINE
  8
0
 10
-235.999
 20
119.763
 11
-235.605
 21
120.035
  0
LINE
  8
0
 10
-235.605
 20
120.035
 11
-235.129
 21
120.093
  0
LINE
  8
0
 10
-235.129
 20
120.093
 11
-234.682
 21
119.923
  0
LINE
  8
0
 10
-234.682
 20
119.923
 11
-234.365
 21
119.565
  0
LINE
  8
0
 10
-234.365
 20
119.565
 11
-234.25
 21
119.1
  0
LINE
  8
0
 10
-234.25
 20
119.1
 11
-234.365
 21
118.635
  0
LINE
  8
0
 10
-234.365
 20
118.635
 11
-234.682
 21
118.277
  0
LINE
  8
0
 10
-234.682
 20
118.277
 11
-235.129
 21
118.107
  0
LINE
  8
0
 10
-235.129
 20
118.107
 11
-235.605
 21
118.165
  0
LINE
  8
0
 10
-208.491
 20
63.0146
 11
-208.959
 21
63.13
  0
LINE
  8
0
 10
-208.959
 20
63.13
 11
-209.386
 21
63.354
  0
LINE
  8
0
 10
-209.386
 20
63.354
 11
-209.747
 21
63.6738
  0
LINE
  8
0
 10
-209.747
 20
63.6738
 11
-210.021
 21
64.0705
  0
LINE
  8
0
 10
-210.021
 20
64.0705
 11
-210.192
 21
64.5214
  0
LINE
  8
0
 10
-210.192
 20
64.5214
 11
-210.25
 21
65
  0
LINE
  8
0
 10
-210.25
 20
65
 11
-210.192
 21
65.4786
  0
LINE
  8
0
 10
-210.192
 20
65.4786
 11
-210.021
 21
65.9294
  0
LINE
  8
0
 10
-210.021
 20
65.9294
 11
-209.747
 21
66.3262
  0
LINE
  8
0
 10
-209.747
 20
66.3262
 11
-209.386
 21
66.646
  0
LINE
  8
0
 10
-209.386
 20
66.646
 11
-208.959
 21
66.87
  0
LINE
  8
0
 10
-208.959
 20
66.87
 11
-208.491
 21
66.9854
  0
LINE
  8
0
 10
-208.491
 20
66.9854
 11
-208.009
 21
66.9854
  0
LINE
  8
0
 10
-208.009
 20
66.9854
 11
-207.541
 21
66.87
  0
LINE
  8
0
 10
-207.541
 20
66.87
 11
-207.114
 21
66.646
  0
LINE
  8
0
 10
-207.114
 20
66.646
 11
-206.753
 21
66.3262
  0
LINE
  8
0
 10
-206.753
 20
66.3262
 11
-206.479
 21
65.9294
  0
LINE
  8
0
 10
-206.479
 20
65.9294
 11
-206.308
 21
65.4786
  0
LINE
  8
0
 10
-206.308
 20
65.4786
 11
-206.25
 21
65
  0
LINE
  8
0
 10
-206.25
 20
65
 11
-206.308
 21
64.5214
  0
LINE
  8
0
 10
-206.308
 20
64.5214
 11
-206.479
 21
64.0705
  0
LINE
  8
0
 10
-206.479
 20
64.0705
 11
-206.753
 21
63.6738
  0
LINE
  8
0
 10
-206.753
 20
63.6738
 11
-207.114
 21
63.354
  0
LINE
  8
0
 10
-207.114
 20
63.354
 11
-207.541
 21
63.13
  0
LINE
  8
0
 10
-207.541
 20
63.13
 11
-208.009
 21
63.0146
  0
LINE
  8
0
 10
-208.009
 20
63.0146
 11
-208.491
 21
63.0146
  0
LINE
  8
0
 10
-226.605
 20
52.065
 11
-226.999
 21
52.3369
  0
LINE
  8
0
 10
-226.999
 20
52.3369
 11
-227.221
 21
52.7607
  0
LINE
  8
0
 10
-227.221
 20
52.7607
 11
-227.221
 21
53.2393
  0
LINE
  8
0
 10
-227.221
 20
53.2393
 11
-226.999
 21
53.6631
  0
LINE
  8
0
 10
-226.999
 20
53.6631
 11
-226.605
 21
53.935
  0
LINE
  8
0
 10
-226.605
 20
53.935
 11
-226.129
 21
53.9927
  0
LINE
  8
0
 10
-226.129
 20
53.9927
 11
-225.682
 21
53.823
  0
LINE
  8
0
 10
-225.682
 20
53.823
 11
-225.365
 21
53.4647
  0
LINE
  8
0
 10
-225.365
 20
53.4647
 11
-225.25
 21
53
  0
LINE
  8
0
 10
-225.25
 20
53
 11
-225.365
 21
52.5353
  0
LINE
  8
0
 10
-225.365
 20
52.5353
 11
-225.682
 21
52.177
  0
LINE
  8
0
 10
-225.682
 20
52.177
 11
-226.129
 21
52.0073
  0
LINE
  8
0
 10
-226.129
 20
52.0073
 11
-226.605
 21
52.065
  0
LINE
  8
0
 10
149.395
 20
52.065
 11
149.001
 21
52.3369
  0
LINE
  8
0
 10
149.001
 20
52.3369
 11
148.779
 21
52.7607
  0
LINE
  8
0
 10
148.779
 20
52.7607
 11
148.779
 21
53.2393
  0
LINE
  8
0
 10
148.779
 20
53.2393
 11
149.001
 21
53.6631
  0
LINE
  8
0
 10
149.001
 20
53.6631
 11
149.395
 21
53.935
  0
LINE
  8
0
 10
149.395
 20
53.935
 11
149.871
 21
53.9927
  0
LINE
  8
0
 10
149.871
 20
53.9927
 11
150.318
 21
53.823
  0
LINE
  8
0
 10
150.318
 20
53.823
 11
150.635
 21
53.4647
  0
LINE
  8
0
 10
150.635
 20
53.4647
 11
150.75
 21
53
  0
LINE
  8
0
 10
150.75
 20
53
 11
150.635
 21
52.5353
  0
LINE
  8
0
 10
150.635
 20
52.5353
 11
150.318
 21
52.177
  0
LINE
  8
0
 10
150.318
 20
52.177
 11
149.871
 21
52.0073
  0
LINE
  8
0
 10
149.871
 20
52.0073
 11
149.395
 21
52.065
  0
LINE
  8
0
 10
-194.605
 20
52.065
 11
-194.999
 21
52.3369
  0
LINE
  8
0
 10
-194.999
 20
52.3369
 11
-195.221
 21
52.7607
  0
LINE
  8
0
 10
-195.221
 20
52.7607
 11
-195.221
 21
53.2393
  0
LINE
  8
0
 10
-195.221
 20
53.2393
 11
-194.999
 21
53.6631
  0
LINE
  8
0
 10
-194.999
 20
53.6631
 11
-194.605
 21
53.935
  0
LINE
  8
0
 10
-194.605
 20
53.935
 11
-194.129
 21
53.9927
  0
LINE
  8
0
 10
-194.129
 20
53.9927
 11
-193.682
 21
53.823
  0
LINE
  8
0
 10
-193.682
 20
53.823
 11
-193.365
 21
53.4647
  0
LINE
  8
0
 10
-193.365
 20
53.4647
 11
-193.25
 21
53
  0
LINE
  8
0
 10
-193.25
 20
53
 11
-193.365
 21
52.5353
  0
LINE
  8
0
 10
-193.365
 20
52.5353
 11
-193.682
 21
52.177
  0
LINE
  8
0
 10
-193.682
 20
52.177
 11
-194.129
 21
52.0073
  0
LINE
  8
0
 10
-194.129
 20
52.0073
 11
-194.605
 21
52.065
  0
LINE
  8
0
 10
181.395
 20
52.065
 11
181.001
 21
52.3369
  0
LINE
  8
0
 10
181.001
 20
52.3369
 11
180.779
 21
52.7607
  0
LINE
  8
0
 10
180.779
 20
52.7607
 11
180.779
 21
53.2393
  0
LINE
  8
0
 10
180.779
 20
53.2393
 11
181.001
 21
53.6631
  0
LINE
  8
0
 10
181.001
 20
53.6631
 11
181.395
 21
53.935
  0
LINE
  8
0
 10
181.395
 20
53.935
 11
181.871
 21
53.9927
  0
LINE
  8
0
 10
181.871
 20
53.9927
 11
182.318
 21
53.823
  0
LINE
  8
0
 10
182.318
 20
53.823
 11
182.635
 21
53.4647
  0
LINE
  8
0
 10
182.635
 20
53.4647
 11
182.75
 21
53
  0
LINE
  8
0
 10
182.75
 20
53
 11
182.635
 21
52.5353
  0
LINE
  8
0
 10
182.635
 20
52.5353
 11
182.318
 21
52.177
  0
LINE
  8
0
 10
182.318
 20
52.177
 11
181.871
 21
52.0073
  0
LINE
  8
0
 10
181.871
 20
52.0073
 11
181.395
 21
52.065
  0
LINE
  8
0
 10
-167.289
 20
35.739
 11
-167.713
 21
35.9615
  0
LINE
  8
0
 10
-167.713
 20
35.9615
 11
-167.985
 21
36.3554
  0
LINE
  8
0
 10
-167.985
 20
36.3554
 11
-168.043
 21
36.8305
  0
LINE
  8
0
 10
-168.043
 20
36.8305
 11
-167.873
 21
37.2781
  0
LINE
  8
0
 10
-167.873
 20
37.2781
 11
-167.515
 21
37.5954
  0
LINE
  8
0
 10
-167.515
 20
37.5954
 11
-167.05
 21
37.71
  0
LINE
  8
0
 10
-167.05
 20
37.71
 11
-166.585
 21
37.5954
  0
LINE
  8
0
 10
-166.585
 20
37.5954
 11
-166.227
 21
37.2781
  0
LINE
  8
0
 10
-166.227
 20
37.2781
 11
-166.057
 21
36.8305
  0
LINE
  8
0
 10
-166.057
 20
36.8305
 11
-166.115
 21
36.3554
  0
LINE
  8
0
 10
-166.115
 20
36.3554
 11
-166.387
 21
35.9615
  0
LINE
  8
0
 10
-166.387
 20
35.9615
 11
-166.811
 21
35.739
  0
LINE
  8
0
 10
-166.811
 20
35.739
 11
-167.289
 21
35.739
  0
LINE
  8
0
 10
130.085
 20
35.8245
 11
129.727
 21
36.1419
  0
LINE
  8
0
 10
129.727
 20
36.1419
 11
129.557
 21
36.5895
  0
LINE
  8
0
 10
129.557
 20
36.5895
 11
129.615
 21
37.0646
  0
LINE
  8
0
 10
129.615
 20
37.0646
 11
129.887
 21
37.4585
  0
LINE
  8
0
 10
129.887
 20
37.4585
 11
130.311
 21
37.6809
  0
LINE
  8
0
 10
130.311
 20
37.6809
 11
130.789
 21
37.6809
  0
LINE
  8
0
 10
130.789
 20
37.6809
 11
131.213
 21
37.4585
  0
LINE
  8
0
 10
131.213
 20
37.4585
 11
131.485
 21
37.0646
  0
LINE
  8
0
 10
131.485
 20
37.0646
 11
131.543
 21
36.5895
  0
LINE
  8
0
 10
131.543
 20
36.5895
 11
131.373
 21
36.1419
  0
LINE
  8
0
 10
131.373
 20
36.1419
 11
131.015
 21
35.8245
  0
LINE
  8
0
 10
131.015
 20
35.8245
 11
130.55
 21
35.71
  0
LINE
  8
0
 10
130.55
 20
35.71
 11
130.085
 21
35.8245
  0
LINE
  8
0
 10
232.011
 20
30.3291
 11
231.587
 21
30.5515
  0
LINE
  8
0
 10
231.587
 20
30.5515
 11
231.315
 21
30.9454
  0
LINE
  8
0
 10
231.315
 20
30.9454
 11
231.257
 21
31.4205
  0
LINE
  8
0
 10
231.257
 20
31.4205
 11
231.427
 21
31.8681
  0
LINE
  8
0
 10
231.427
 20
31.8681
 11
231.785
 21
32.1855
  0
LINE
  8
0
 10
231.785
 20
32.1855
 11
232.25
 21
32.3
  0
LINE
  8
0
 10
232.25
 20
32.3
 11
232.715
 21
32.1855
  0
LINE
  8
0
 10
232.715
 20
32.1855
 11
233.073
 21
31.8681
  0
LINE
  8
0
 10
233.073
 20
31.8681
 11
233.243
 21
31.4205
  0
LINE
  8
0
 10
233.243
 20
31.4205
 11
233.185
 21
30.9454
  0
LINE
  8
0
 10
233.185
 20
30.9454
 11
232.913
 21
30.5515
  0
LINE
  8
0
 10
232.913
 20
30.5515
 11
232.489
 21
30.3291
  0
LINE
  8
0
 10
232.489
 20
30.3291
 11
232.011
 21
30.3291
  0
LINE
  8
0
 10
163.262
 20
18.448
 11
162.793
 21
18.5903
  0
LINE
  8
0
 10
162.793
 20
18.5903
 11
162.361
 21
18.8213
  0
LINE
  8
0
 10
162.361
 20
18.8213
 11
161.982
 21
19.1322
  0
LINE
  8
0
 10
161.982
 20
19.1322
 11
161.671
 21
19.5111
  0
LINE
  8
0
 10
161.671
 20
19.5111
 11
161.44
 21
19.9433
  0
LINE
  8
0
 10
161.44
 20
19.9433
 11
161.298
 21
20.4123
  0
LINE
  8
0
 10
161.298
 20
20.4123
 11
161.25
 21
20.9
  0
LINE
  8
0
 10
161.25
 20
20.9
 11
161.298
 21
21.3877
  0
LINE
  8
0
 10
161.298
 20
21.3877
 11
161.44
 21
21.8567
  0
LINE
  8
0
 10
161.44
 20
21.8567
 11
161.671
 21
22.2889
  0
LINE
  8
0
 10
161.671
 20
22.2889
 11
161.982
 21
22.6678
  0
LINE
  8
0
 10
161.982
 20
22.6678
 11
162.361
 21
22.9787
  0
LINE
  8
0
 10
162.361
 20
22.9787
 11
162.793
 21
23.2097
  0
LINE
  8
0
 10
162.793
 20
23.2097
 11
163.262
 21
23.352
  0
LINE
  8
0
 10
163.262
 20
23.352
 11
163.75
 21
23.4
  0
LINE
  8
0
 10
163.75
 20
23.4
 11
164.238
 21
23.352
  0
LINE
  8
0
 10
164.238
 20
23.352
 11
164.707
 21
23.2097
  0
LINE
  8
0
 10
164.707
 20
23.2097
 11
165.139
 21
22.9787
  0
LINE
  8
0
 10
165.139
 20
22.9787
 11
165.518
 21
22.6678
  0
LINE
  8
0
 10
165.518
 20
22.6678
 11
165.829
 21
22.2889
  0
LINE
  8
0
 10
165.829
 20
22.2889
 11
166.06
 21
21.8567
  0
LINE
  8
0
 10
166.06
 20
21.8567
 11
166.202
 21
21.3877
  0
LINE
  8
0
 10
166.202
 20
21.3877
 11
166.25
 21
20.9
  0
LINE
  8
0
 10
166.25
 20
20.9
 11
166.202
 21
20.4123
  0
LINE
  8
0
 10
166.202
 20
20.4123
 11
166.06
 21
19.9433
  0
LINE
  8
0
 10
166.06
 20
19.9433
 11
165.829
 21
19.5111
  0
LINE
  8
0
 10
165.829
 20
19.5111
 11
165.518
 21
19.1322
  0
LINE
  8
0
 10
165.518
 20
19.1322
 11
165.139
 21
18.8213
  0
LINE
  8
0
 10
165.139
 20
18.8213
 11
164.707
 21
18.5903
  0
LINE
  8
0
 10
164.707
 20
18.5903
 11
164.238
 21
18.448
  0
LINE
  8
0
 10
164.238
 20
18.448
 11
163.75
 21
18.4
  0
LINE
  8
0
 10
163.75
 20
18.4
 11
163.262
 21
18.448
  0
LINE
  8
0
 10
-200.118
 20
5.04803
 11
-200.587
 21
5.19029
  0
LINE
  8
0
 10
-200.587
 20
5.19029
 11
-201.019
 21
5.42133
  0
LINE
  8
0
 10
-201.019
 20
5.42133
 11
-201.398
 21
5.73222
  0
LINE
  8
0
 10
-201.398
 20
5.73222
 11
-201.709
 21
6.11107
  0
LINE
  8
0
 10
-201.709
 20
6.11107
 11
-201.94
 21
6.54329
  0
LINE
  8
0
 10
-201.94
 20
6.54329
 11
-202.082
 21
7.01227
  0
LINE
  8
0
 10
-202.082
 20
7.01227
 11
-202.13
 21
7.5
  0
LINE
  8
0
 10
-202.13
 20
7.5
 11
-202.082
 21
7.98772
  0
LINE
  8
0
 10
-202.082
 20
7.98772
 11
-201.94
 21
8.4567
  0
LINE
  8
0
 10
-201.94
 20
8.4567
 11
-201.709
 21
8.88892
  0
LINE
  8
0
 10
-201.709
 20
8.88892
 11
-201.398
 21
9.26776
  0
LINE
  8
0
 10
-201.398
 20
9.26776
 11
-201.019
 21
9.57866
  0
LINE
  8
0
 10
-201.019
 20
9.57866
 11
-200.587
 21
9.80969
  0
LINE
  8
0
 10
-200.587
 20
9.80969
 11
-200.118
 21
9.95195
  0
LINE
  8
0
 10
-200.118
 20
9.95195
 11
-199.63
 21
10
  0
LINE
  8
0
 10
-199.63
 20
10
 11
-199.142
 21
9.95195
  0
LINE
  8
0
 10
-199.142
 20
9.95195
 11
-198.673
 21
9.80969
  0
LINE
  8
0
 10
-198.673
 20
9.80969
 11
-198.241
 21
9.57866
  0
LINE
  8
0
 10
-198.241
 20
9.57866
 11
-197.862
 21
9.26776
  0
LINE
  8
0
 10
-197.862
 20
9.26776
 11
-197.551
 21
8.88892
  0
LINE
  8
0
 10
-197.551
 20
8.88892
 11
-197.32
 21
8.4567
  0
LINE
  8
0
 10
-197.32
 20
8.4567
 11
-197.178
 21
7.98772
  0
LINE
  8
0
 10
-197.178
 20
7.98772
 11
-197.13
 21
7.5
  0
LINE
  8
0
 10
-197.13
 20
7.5
 11
-197.178
 21
7.01227
  0
LINE
  8
0
 10
-197.178
 20
7.01227
 11
-197.32
 21
6.54329
  0
LINE
  8
0
 10
-197.32
 20
6.54329
 11
-197.551
 21
6.11107
  0
LINE
  8
0
 10
-197.551
 20
6.11107
 11
-197.862
 21
5.73222
  0
LINE
  8
0
 10
-197.862
 20
5.73222
 11
-198.241
 21
5.42133
  0
LINE
  8
0
 10
-198.241
 20
5.42133
 11
-198.673
 21
5.19029
  0
LINE
  8
0
 10
-198.673
 20
5.19029
 11
-199.142
 21
5.04803
  0
LINE
  8
0
 10
-199.142
 20
5.04803
 11
-199.63
 21
5
  0
LINE
  8
0
 10
-199.63
 20
5
 11
-200.118
 21
5.04803
  0
LINE
  8
0
 10
-142.018
 20
7.37701
 11
-142.335
 21
7.73528
  0
LINE
  8
0
 10
-142.335
 20
7.73528
 11
-142.45
 21
8.2
  0
LINE
  8
0
 10
-142.45
 20
8.2
 11
-142.335
 21
8.66472
  0
LINE
  8
0
 10
-142.335
 20
8.66472
 11
-142.018
 21
9.02298
  0
LINE
  8
0
 10
-142.018
 20
9.02298
 11
-141.571
 21
9.1927
  0
LINE
  8
0
 10
-141.571
 20
9.1927
 11
-141.095
 21
9.13501
  0
LINE
  8
0
 10
-141.095
 20
9.13501
 11
-140.701
 21
8.86311
  0
LINE
  8
0
 10
-140.701
 20
8.86311
 11
-140.479
 21
8.4393
  0
LINE
  8
0
 10
-140.479
 20
8.4393
 11
-140.479
 21
7.96068
  0
LINE
  8
0
 10
-140.479
 20
7.96068
 11
-140.701
 21
7.53687
  0
LINE
  8
0
 10
-140.701
 20
7.53687
 11
-141.095
 21
7.26497
  0
LINE
  8
0
 10
-141.095
 20
7.26497
 11
-141.571
 21
7.20729
  0
LINE
  8
0
 10
-141.571
 20
7.20729
 11
-142.018
 21
7.37701
  0
LINE
  8
0
 10
-163.238
 20
7.37701
 11
-163.555
 21
7.73528
  0
LINE
  8
0
 10
-163.555
 20
7.73528
 11
-163.67
 21
8.2
  0
LINE
  8
0
 10
-163.67
 20
8.2
 11
-163.555
 21
8.66472
  0
LINE
  8
0
 10
-163.555
 20
8.66472
 11
-163.238
 21
9.02298
  0
LINE
  8
0
 10
-163.238
 20
9.02298
 11
-162.791
 21
9.1927
  0
LINE
  8
0
 10
-162.791
 20
9.1927
 11
-162.315
 21
9.13501
  0
LINE
  8
0
 10
-162.315
 20
9.13501
 11
-161.921
 21
8.86311
  0
LINE
  8
0
 10
-161.921
 20
8.86311
 11
-161.699
 21
8.4393
  0
LINE
  8
0
 10
-161.699
 20
8.4393
 11
-161.699
 21
7.96068
  0
LINE
  8
0
 10
-161.699
 20
7.96068
 11
-161.921
 21
7.53687
  0
LINE
  8
0
 10
-161.921
 20
7.53687
 11
-162.315
 21
7.26497
  0
LINE
  8
0
 10
-162.315
 20
7.26497
 11
-162.791
 21
7.20729
  0
LINE
  8
0
 10
-162.791
 20
7.20729
 11
-163.238
 21
7.37701
  0
LINE
  8
0
 10
159.882
 20
7.37701
 11
159.565
 21
7.73528
  0
LINE
  8
0
 10
159.565
 20
7.73528
 11
159.45
 21
8.2
  0
LINE
  8
0
 10
159.45
 20
8.2
 11
159.565
 21
8.66472
  0
LINE
  8
0
 10
159.565
 20
8.66472
 11
159.882
 21
9.02298
  0
LINE
  8
0
 10
159.882
 20
9.02298
 11
160.329
 21
9.1927
  0
LINE
  8
0
 10
160.329
 20
9.1927
 11
160.805
 21
9.13501
  0
LINE
  8
0
 10
160.805
 20
9.13501
 11
161.199
 21
8.86311
  0
LINE
  8
0
 10
161.199
 20
8.86311
 11
161.421
 21
8.4393
  0
LINE
  8
0
 10
161.421
 20
8.4393
 11
161.421
 21
7.96068
  0
LINE
  8
0
 10
161.421
 20
7.96068
 11
161.199
 21
7.53687
  0
LINE
  8
0
 10
161.199
 20
7.53687
 11
160.805
 21
7.26497
  0
LINE
  8
0
 10
160.805
 20
7.26497
 11
160.329
 21
7.20729
  0
LINE
  8
0
 10
160.329
 20
7.20729
 11
159.882
 21
7.37701
  0
LINE
  8
0
 10
181.102
 20
7.37701
 11
180.785
 21
7.73528
  0
LINE
  8
0
 10
180.785
 20
7.73528
 11
180.67
 21
8.2
  0
LINE
  8
0
 10
180.67
 20
8.2
 11
180.785
 21
8.66472
  0
LINE
  8
0
 10
180.785
 20
8.66472
 11
181.102
 21
9.02298
  0
LINE
  8
0
 10
181.102
 20
9.02298
 11
181.549
 21
9.1927
  0
LINE
  8
0
 10
181.549
 20
9.1927
 11
182.025
 21
9.13501
  0
LINE
  8
0
 10
182.025
 20
9.13501
 11
182.419
 21
8.86311
  0
LINE
  8
0
 10
182.419
 20
8.86311
 11
182.641
 21
8.4393
  0
LINE
  8
0
 10
182.641
 20
8.4393
 11
182.641
 21
7.96068
  0
LINE
  8
0
 10
182.641
 20
7.96068
 11
182.419
 21
7.53687
  0
LINE
  8
0
 10
182.419
 20
7.53687
 11
182.025
 21
7.26497
  0
LINE
  8
0
 10
182.025
 20
7.26497
 11
181.549
 21
7.20729
  0
LINE
  8
0
 10
181.549
 20
7.20729
 11
181.102
 21
7.37701
  0
LINE
  8
0
 10
211.262
 20
7.37701
 11
210.945
 21
7.73528
  0
LINE
  8
0
 10
210.945
 20
7.73528
 11
210.83
 21
8.2
  0
LINE
  8
0
 10
210.83
 20
8.2
 11
210.945
 21
8.66472
  0
LINE
  8
0
 10
210.945
 20
8.66472
 11
211.262
 21
9.02298
  0
LINE
  8
0
 10
211.262
 20
9.02298
 11
211.709
 21
9.1927
  0
LINE
  8
0
 10
211.709
 20
9.1927
 11
212.185
 21
9.13501
  0
LINE
  8
0
 10
212.185
 20
9.13501
 11
212.579
 21
8.86311
  0
LINE
  8
0
 10
212.579
 20
8.86311
 11
212.801
 21
8.4393
  0
LINE
  8
0
 10
212.801
 20
8.4393
 11
212.801
 21
7.96068
  0
LINE
  8
0
 10
212.801
 20
7.96068
 11
212.579
 21
7.53687
  0
LINE
  8
0
 10
212.579
 20
7.53687
 11
212.185
 21
7.26497
  0
LINE
  8
0
 10
212.185
 20
7.26497
 11
211.709
 21
7.20729
  0
LINE
  8
0
 10
211.709
 20
7.20729
 11
211.262
 21
7.37701
  0
LINE
  8
0
 10
-212.398
 20
7.37701
 11
-212.715
 21
7.73528
  0
LINE
  8
0
 10
-212.715
 20
7.73528
 11
-212.83
 21
8.2
  0
LINE
  8
0
 10
-212.83
 20
8.2
 11
-212.715
 21
8.66472
  0
LINE
  8
0
 10
-212.715
 20
8.66472
 11
-212.398
 21
9.02298
  0
LINE
  8
0
 10
-212.398
 20
9.02298
 11
-211.951
 21
9.1927
  0
LINE
  8
0
 10
-211.951
 20
9.1927
 11
-211.475
 21
9.13501
  0
LINE
  8
0
 10
-211.475
 20
9.13501
 11
-211.081
 21
8.86311
  0
LINE
  8
0
 10
-211.081
 20
8.86311
 11
-210.859
 21
8.4393
  0
LINE
  8
0
 10
-210.859
 20
8.4393
 11
-210.859
 21
7.96068
  0
LINE
  8
0
 10
-210.859
 20
7.96068
 11
-211.081
 21
7.53687
  0
LINE
  8
0
 10
-211.081
 20
7.53687
 11
-211.475
 21
7.26497
  0
LINE
  8
0
 10
-211.475
 20
7.26497
 11
-211.951
 21
7.20729
  0
LINE
  8
0
 10
-211.951
 20
7.20729
 11
-212.398
 21
7.37701
  0
LINE
  8
0
 10
-233.618
 20
7.37701
 11
-233.935
 21
7.73528
  0
LINE
  8
0
 10
-233.935
 20
7.73528
 11
-234.05
 21
8.2
  0
LINE
  8
0
 10
-234.05
 20
8.2
 11
-233.935
 21
8.66472
  0
LINE
  8
0
 10
-233.935
 20
8.66472
 11
-233.618
 21
9.02298
  0
LINE
  8
0
 10
-233.618
 20
9.02298
 11
-233.171
 21
9.1927
  0
LINE
  8
0
 10
-233.171
 20
9.1927
 11
-232.695
 21
9.13501
  0
LINE
  8
0
 10
-232.695
 20
9.13501
 11
-232.301
 21
8.86311
  0
LINE
  8
0
 10
-232.301
 20
8.86311
 11
-232.079
 21
8.4393
  0
LINE
  8
0
 10
-232.079
 20
8.4393
 11
-232.079
 21
7.96068
  0
LINE
  8
0
 10
-232.079
 20
7.96068
 11
-232.301
 21
7.53687
  0
LINE
  8
0
 10
-232.301
 20
7.53687
 11
-232.695
 21
7.26497
  0
LINE
  8
0
 10
-232.695
 20
7.26497
 11
-233.171
 21
7.20729
  0
LINE
  8
0
 10
-233.171
 20
7.20729
 11
-233.618
 21
7.37701
  0
LINE
  8
0
 10
232.482
 20
7.37701
 11
232.165
 21
7.73528
  0
LINE
  8
0
 10
232.165
 20
7.73528
 11
232.05
 21
8.2
  0
LINE
  8
0
 10
232.05
 20
8.2
 11
232.165
 21
8.66472
  0
LINE
  8
0
 10
232.165
 20
8.66472
 11
232.482
 21
9.02298
  0
LINE
  8
0
 10
232.482
 20
9.02298
 11
232.929
 21
9.1927
  0
LINE
  8
0
 10
232.929
 20
9.1927
 11
233.405
 21
9.13501
  0
LINE
  8
0
 10
233.405
 20
9.13501
 11
233.799
 21
8.86311
  0
LINE
  8
0
 10
233.799
 20
8.86311
 11
234.021
 21
8.4393
  0
LINE
  8
0
 10
234.021
 20
8.4393
 11
234.021
 21
7.96068
  0
LINE
  8
0
 10
234.021
 20
7.96068
 11
233.799
 21
7.53687
  0
LINE
  8
0
 10
233.799
 20
7.53687
 11
233.405
 21
7.26497
  0
LINE
  8
0
 10
233.405
 20
7.26497
 11
232.929
 21
7.20729
  0
LINE
  8
0
 10
232.929
 20
7.20729
 11
232.482
 21
7.37701
  0
LINE
  8
0
 10
98.9977
 20
0.0102386
 11
99.4865
 21
0.0917969
  0
LINE
  8
0
 10
99.4865
 20
0.0917969
 11
99.9551
 21
0.25267
  0
LINE
  8
0
 10
99.9551
 20
0.25267
 11
100.391
 21
0.488495
  0
LINE
  8
0
 10
100.391
 20
0.488495
 11
100.782
 21
0.792816
  0
LINE
  8
0
 10
100.782
 20
0.792816
 11
101.117
 21
1.15735
  0
LINE
  8
0
 10
101.117
 20
1.15735
 11
101.388
 21
1.57214
  0
LINE
  8
0
 10
101.388
 20
1.57214
 11
101.587
 21
2.02589
  0
LINE
  8
0
 10
101.587
 20
2.02589
 11
101.709
 21
2.50621
  0
LINE
  8
0
 10
101.709
 20
2.50621
 11
101.75
 21
3
  0
LINE
  8
0
 10
101.75
 20
3
 11
101.74
 21
214.248
  0
LINE
  8
0
 10
101.74
 20
214.248
 11
101.658
 21
214.736
  0
LINE
  8
0
 10
101.658
 20
214.736
 11
101.497
 21
215.205
  0
LINE
  8
0
 10
101.497
 20
215.205
 11
101.261
 21
215.641
  0
LINE
  8
0
 10
101.261
 20
215.641
 11
100.957
 21
216.032
  0
LINE
  8
0
 10
100.957
 20
216.032
 11
100.593
 21
216.367
  0
LINE
  8
0
 10
100.593
 20
216.367
 11
100.178
 21
216.638
  0
LINE
  8
0
 10
100.178
 20
216.638
 11
99.7241
 21
216.837
  0
LINE
  8
0
 10
99.7241
 20
216.837
 11
99.2438
 21
216.959
  0
LINE
  8
0
 10
99.2438
 20
216.959
 11
98.75
 21
217
  0
LINE
  8
0
 10
98.75
 20
217
 11
11.76
 21
216.996
  0
LINE
  8
0
 10
11.76
 20
216.996
 11
11.76
 21
211.15
  0
LINE
  8
0
 10
11.76
 20
211.15
 11
-25.26
 21
211.15
  0
LINE
  8
0
 10
-25.26
 20
211.15
 11
-25.26
 21
216.994
  0
LINE
  8
0
 10
-25.26
 20
216.994
 11
-112.498
 21
216.99
  0
LINE
  8
0
 10
-112.498
 20
216.99
 11
-112.986
 21
216.908
  0
LINE
  8
0
 10
-112.986
 20
216.908
 11
-113.455
 21
216.747
  0
LINE
  8
0
 10
-113.455
 20
216.747
 11
-113.891
 21
216.511
  0
LINE
  8
0
 10
-113.891
 20
216.511
 11
-114.282
 21
216.207
  0
LINE
  8
0
 10
-114.282
 20
216.207
 11
-114.617
 21
215.843
  0
LINE
  8
0
 10
-114.617
 20
215.843
 11
-114.888
 21
215.428
  0
LINE
  8
0
 10
-114.888
 20
215.428
 11
-115.087
 21
214.974
  0
LINE
  8
0
 10
-115.087
 20
214.974
 11
-115.209
 21
214.494
  0
LINE
  8
0
 10
-115.209
 20
214.494
 11
-115.25
 21
214
  0
LINE
  8
0
 10
-115.25
 20
214
 11
-115.24
 21
2.75226
  0
LINE
  8
0
 10
-115.24
 20
2.75226
 11
-115.158
 21
2.26353
  0
LINE
  8
0
 10
-115.158
 20
2.26353
 11
-114.997
 21
1.79491
  0
LINE
  8
0
 10
-114.997
 20
1.79491
 11
-114.761
 21
1.35915
  0
LINE
  8
0
 10
-114.761
 20
1.35915
 11
-114.457
 21
0.968155
  0
LINE
  8
0
 10
-114.457
 20
0.968155
 11
-114.093
 21
0.632568
  0
LINE
  8
0
 10
-114.093
 20
0.632568
 11
-113.678
 21
0.361572
  0
LINE
  8
0
 10
-113.678
 20
0.361572
 11
-113.224
 21
0.162537
  0
LINE
  8
0
 10
-113.224
 20
0.162537
 11
-112.744
 21
0.0409088
  0
LINE
  8
0
 10
-112.744
 20
0.0409088
 11
-112.25
 21
0
  0
LINE
  8
0
 10
-112.25
 20
0
 11
98.9977
 21
0.0102386
  0
LINE
  8
0
 10
97.2716
 20
211.845
 11
96.8661
 21
212.116
  0
LINE
  8
0
 10
96.8661
 20
212.116
 11
96.5951
 21
212.522
  0
LINE
  8
0
 10
96.5951
 20
212.522
 11
96.5
 21
213
  0
LINE
  8
0
 10
96.5
 20
213
 11
96.5951
 21
213.478
  0
LINE
  8
0
 10
96.5951
 20
213.478
 11
96.8661
 21
213.884
  0
LINE
  8
0
 10
96.8661
 20
213.884
 11
97.2716
 21
214.155
  0
LINE
  8
0
 10
97.2716
 20
214.155
 11
97.75
 21
214.25
  0
LINE
  8
0
 10
97.75
 20
214.25
 11
98.2283
 21
214.155
  0
LINE
  8
0
 10
98.2283
 20
214.155
 11
98.6339
 21
213.884
  0
LINE
  8
0
 10
98.6339
 20
213.884
 11
98.9048
 21
213.478
  0
LINE
  8
0
 10
98.9048
 20
213.478
 11
99
 21
213
  0
LINE
  8
0
 10
99
 20
213
 11
98.9048
 21
212.522
  0
LINE
  8
0
 10
98.9048
 20
212.522
 11
98.6339
 21
212.116
  0
LINE
  8
0
 10
98.6339
 20
212.116
 11
98.2283
 21
211.845
  0
LINE
  8
0
 10
98.2283
 20
211.845
 11
97.75
 21
211.75
  0
LINE
  8
0
 10
97.75
 20
211.75
 11
97.2716
 21
211.845
  0
LINE
  8
0
 10
-111.728
 20
211.845
 11
-112.134
 21
212.116
  0
LINE
  8
0
 10
-112.134
 20
212.116
 11
-112.405
 21
212.522
  0
LINE
  8
0
 10
-112.405
 20
212.522
 11
-112.5
 21
213
  0
LINE
  8
0
 10
-112.5
 20
213
 11
-112.405
 21
213.478
  0
LINE
  8
0
 10
-112.405
 20
213.478
 11
-112.134
 21
213.884
  0
LINE
  8
0
 10
-112.134
 20
213.884
 11
-111.728
 21
214.155
  0
LINE
  8
0
 10
-111.728
 20
214.155
 11
-111.25
 21
214.25
  0
LINE
  8
0
 10
-111.25
 20
214.25
 11
-110.772
 21
214.155
  0
LINE
  8
0
 10
-110.772
 20
214.155
 11
-110.366
 21
213.884
  0
LINE
  8
0
 10
-110.366
 20
213.884
 11
-110.095
 21
213.478
  0
LINE
  8
0
 10
-110.095
 20
213.478
 11
-110
 21
213
  0
LINE
  8
0
 10
-110
 20
213
 11
-110.095
 21
212.522
  0
LINE
  8
0
 10
-110.095
 20
212.522
 11
-110.366
 21
212.116
  0
LINE
  8
0
 10
-110.366
 20
212.116
 11
-110.772
 21
211.845
  0
LINE
  8
0
 10
-110.772
 20
211.845
 11
-111.25
 21
211.75
  0
LINE
  8
0
 10
-111.25
 20
211.75
 11
-111.728
 21
211.845
  0
LINE
  8
0
 10
13.9704
 20
203.155
 11
13.5054
 21
203.318
  0
LINE
  8
0
 10
13.5054
 20
203.318
 11
13.0883
 21
203.58
  0
LINE
  8
0
 10
13.0883
 20
203.58
 11
12.74
 21
203.928
  0
LINE
  8
0
 10
12.74
 20
203.928
 11
12.4779
 21
204.345
  0
LINE
  8
0
 10
12.4779
 20
204.345
 11
12.3152
 21
204.81
  0
LINE
  8
0
 10
12.3152
 20
204.81
 11
12.26
 21
205.3
  0
LINE
  8
0
 10
12.26
 20
205.3
 11
12.3152
 21
205.79
  0
LINE
  8
0
 10
12.3152
 20
205.79
 11
12.4779
 21
206.255
  0
LINE
  8
0
 10
12.4779
 20
206.255
 11
12.74
 21
206.672
  0
LINE
  8
0
 10
12.74
 20
206.672
 11
13.0883
 21
207.02
  0
LINE
  8
0
 10
13.0883
 20
207.02
 11
13.5054
 21
207.282
  0
LINE
  8
0
 10
13.5054
 20
207.282
 11
13.9704
 21
207.445
  0
LINE
  8
0
 10
13.9704
 20
207.445
 11
14.46
 21
207.5
  0
LINE
  8
0
 10
14.46
 20
207.5
 11
14.9495
 21
207.445
  0
LINE
  8
0
 10
14.9495
 20
207.445
 11
15.4145
 21
207.282
  0
LINE
  8
0
 10
15.4145
 20
207.282
 11
15.8317
 21
207.02
  0
LINE
  8
0
 10
15.8317
 20
207.02
 11
16.18
 21
206.672
  0
LINE
  8
0
 10
16.18
 20
206.672
 11
16.4421
 21
206.255
  0
LINE
  8
0
 10
16.4421
 20
206.255
 11
16.6048
 21
205.79
  0
LINE
  8
0
 10
16.6048
 20
205.79
 11
16.66
 21
205.3
  0
LINE
  8
0
 10
16.66
 20
205.3
 11
16.6048
 21
204.81
  0
LINE
  8
0
 10
16.6048
 20
204.81
 11
16.4421
 21
204.345
  0
LINE
  8
0
 10
16.4421
 20
204.345
 11
16.18
 21
203.928
  0
LINE
  8
0
 10
16.18
 20
203.928
 11
15.8317
 21
203.58
  0
LINE
  8
0
 10
15.8317
 20
203.58
 11
15.4145
 21
203.318
  0
LINE
  8
0
 10
15.4145
 20
203.318
 11
14.9495
 21
203.155
  0
LINE
  8
0
 10
14.9495
 20
203.155
 11
14.46
 21
203.1
  0
LINE
  8
0
 10
14.46
 20
203.1
 11
13.9704
 21
203.155
  0
LINE
  8
0
 10
-28.4495
 20
203.155
 11
-28.9145
 21
203.318
  0
LINE
  8
0
 10
-28.9145
 20
203.318
 11
-29.3317
 21
203.58
  0
LINE
  8
0
 10
-29.3317
 20
203.58
 11
-29.68
 21
203.928
  0
LINE
  8
0
 10
-29.68
 20
203.928
 11
-29.9421
 21
204.345
  0
LINE
  8
0
 10
-29.9421
 20
204.345
 11
-30.1048
 21
204.81
  0
LINE
  8
0
 10
-30.1048
 20
204.81
 11
-30.16
 21
205.3
  0
LINE
  8
0
 10
-30.16
 20
205.3
 11
-30.1048
 21
205.79
  0
LINE
  8
0
 10
-30.1048
 20
205.79
 11
-29.9421
 21
206.255
  0
LINE
  8
0
 10
-29.9421
 20
206.255
 11
-29.68
 21
206.672
  0
LINE
  8
0
 10
-29.68
 20
206.672
 11
-29.3317
 21
207.02
  0
LINE
  8
0
 10
-29.3317
 20
207.02
 11
-28.9145
 21
207.282
  0
LINE
  8
0
 10
-28.9145
 20
207.282
 11
-28.4495
 21
207.445
  0
LINE
  8
0
 10
-28.4495
 20
207.445
 11
-27.96
 21
207.5
  0
LINE
  8
0
 10
-27.96
 20
207.5
 11
-27.4704
 21
207.445
  0
LINE
  8
0
 10
-27.4704
 20
207.445
 11
-27.0054
 21
207.282
  0
LINE
  8
0
 10
-27.0054
 20
207.282
 11
-26.5883
 21
207.02
  0
LINE
  8
0
 10
-26.5883
 20
207.02
 11
-26.24
 21
206.672
  0
LINE
  8
0
 10
-26.24
 20
206.672
 11
-25.9779
 21
206.255
  0
LINE
  8
0
 10
-25.9779
 20
206.255
 11
-25.8152
 21
205.79
  0
LINE
  8
0
 10
-25.8152
 20
205.79
 11
-25.76
 21
205.3
  0
LINE
  8
0
 10
-25.76
 20
205.3
 11
-25.8152
 21
204.81
  0
LINE
  8
0
 10
-25.8152
 20
204.81
 11
-25.9779
 21
204.345
  0
LINE
  8
0
 10
-25.9779
 20
204.345
 11
-26.24
 21
203.928
  0
LINE
  8
0
 10
-26.24
 20
203.928
 11
-26.5883
 21
203.58
  0
LINE
  8
0
 10
-26.5883
 20
203.58
 11
-27.0054
 21
203.318
  0
LINE
  8
0
 10
-27.0054
 20
203.318
 11
-27.4704
 21
203.155
  0
LINE
  8
0
 10
-27.4704
 20
203.155
 11
-27.96
 21
203.1
  0
LINE
  8
0
 10
-27.96
 20
203.1
 11
-28.4495
 21
203.155
  0
LINE
  8
0
 10
-75.2395
 20
194.355
 11
-75.7045
 21
194.518
  0
LINE
  8
0
 10
-75.7045
 20
194.518
 11
-76.1217
 21
194.78
  0
LINE
  8
0
 10
-76.1217
 20
194.78
 11
-76.47
 21
195.128
  0
LINE
  8
0
 10
-76.47
 20
195.128
 11
-76.7321
 21
195.545
  0
LINE
  8
0
 10
-76.7321
 20
195.545
 11
-76.8948
 21
196.01
  0
LINE
  8
0
 10
-76.8948
 20
196.01
 11
-76.95
 21
196.5
  0
LINE
  8
0
 10
-76.95
 20
196.5
 11
-76.8948
 21
196.99
  0
LINE
  8
0
 10
-76.8948
 20
196.99
 11
-76.7321
 21
197.455
  0
LINE
  8
0
 10
-76.7321
 20
197.455
 11
-76.47
 21
197.872
  0
LINE
  8
0
 10
-76.47
 20
197.872
 11
-76.1217
 21
198.22
  0
LINE
  8
0
 10
-76.1217
 20
198.22
 11
-75.7045
 21
198.482
  0
LINE
  8
0
 10
-75.7045
 20
198.482
 11
-75.2395
 21
198.645
  0
LINE
  8
0
 10
-75.2395
 20
198.645
 11
-74.75
 21
198.7
  0
LINE
  8
0
 10
-74.75
 20
198.7
 11
-74.2605
 21
198.645
  0
LINE
  8
0
 10
-74.2605
 20
198.645
 11
-73.7955
 21
198.482
  0
LINE
  8
0
 10
-73.7955
 20
198.482
 11
-73.3783
 21
198.22
  0
LINE
  8
0
 10
-73.3783
 20
198.22
 11
-73.03
 21
197.872
  0
LINE
  8
0
 10
-73.03
 20
197.872
 11
-72.7679
 21
197.455
  0
LINE
  8
0
 10
-72.7679
 20
197.455
 11
-72.6051
 21
196.99
  0
LINE
  8
0
 10
-72.6051
 20
196.99
 11
-72.55
 21
196.5
  0
LINE
  8
0
 10
-72.55
 20
196.5
 11
-72.6051
 21
196.01
  0
LINE
  8
0
 10
-72.6051
 20
196.01
 11
-72.7679
 21
195.545
  0
LINE
  8
0
 10
-72.7679
 20
195.545
 11
-73.03
 21
195.128
  0
LINE
  8
0
 10
-73.03
 20
195.128
 11
-73.3783
 21
194.78
  0
LINE
  8
0
 10
-73.3783
 20
194.78
 11
-73.7955
 21
194.518
  0
LINE
  8
0
 10
-73.7955
 20
194.518
 11
-74.2605
 21
194.355
  0
LINE
  8
0
 10
-74.2605
 20
194.355
 11
-74.75
 21
194.3
  0
LINE
  8
0
 10
-74.75
 20
194.3
 11
-75.2395
 21
194.355
  0
LINE
  8
0
 10
-109.24
 20
174.355
 11
-109.705
 21
174.518
  0
LINE
  8
0
 10
-109.705
 20
174.518
 11
-110.122
 21
174.78
  0
LINE
  8
0
 10
-110.122
 20
174.78
 11
-110.47
 21
175.128
  0
LINE
  8
0
 10
-110.47
 20
175.128
 11
-110.732
 21
175.545
  0
LINE
  8
0
 10
-110.732
 20
175.545
 11
-110.895
 21
176.01
  0
LINE
  8
0
 10
-110.895
 20
176.01
 11
-110.95
 21
176.5
  0
LINE
  8
0
 10
-110.95
 20
176.5
 11
-110.895
 21
176.99
  0
LINE
  8
0
 10
-110.895
 20
176.99
 11
-110.732
 21
177.455
  0
LINE
  8
0
 10
-110.732
 20
177.455
 11
-110.47
 21
177.872
  0
LINE
  8
0
 10
-110.47
 20
177.872
 11
-110.122
 21
178.22
  0
LINE
  8
0
 10
-110.122
 20
178.22
 11
-109.705
 21
178.482
  0
LINE
  8
0
 10
-109.705
 20
178.482
 11
-109.24
 21
178.645
  0
LINE
  8
0
 10
-109.24
 20
178.645
 11
-108.75
 21
178.7
  0
LINE
  8
0
 10
-108.75
 20
178.7
 11
-108.26
 21
178.645
  0
LINE
  8
0
 10
-108.26
 20
178.645
 11
-107.795
 21
178.482
  0
LINE
  8
0
 10
-107.795
 20
178.482
 11
-107.378
 21
178.22
  0
LINE
  8
0
 10
-107.378
 20
178.22
 11
-107.03
 21
177.872
  0
LINE
  8
0
 10
-107.03
 20
177.872
 11
-106.768
 21
177.455
  0
LINE
  8
0
 10
-106.768
 20
177.455
 11
-106.605
 21
176.99
  0
LINE
  8
0
 10
-106.605
 20
176.99
 11
-106.55
 21
176.5
  0
LINE
  8
0
 10
-106.55
 20
176.5
 11
-106.605
 21
176.01
  0
LINE
  8
0
 10
-106.605
 20
176.01
 11
-106.768
 21
175.545
  0
LINE
  8
0
 10
-106.768
 20
175.545
 11
-107.03
 21
175.128
  0
LINE
  8
0
 10
-107.03
 20
175.128
 11
-107.378
 21
174.78
  0
LINE
  8
0
 10
-107.378
 20
174.78
 11
-107.795
 21
174.518
  0
LINE
  8
0
 10
-107.795
 20
174.518
 11
-108.26
 21
174.355
  0
LINE
  8
0
 10
-108.26
 20
174.355
 11
-108.75
 21
174.3
  0
LINE
  8
0
 10
-108.75
 20
174.3
 11
-109.24
 21
174.355
  0
LINE
  8
0
 10
-38.6272
 20
156.716
 11
-39.085
 21
156.896
  0
LINE
  8
0
 10
-39.085
 20
156.896
 11
-39.4695
 21
157.202
  0
LINE
  8
0
 10
-39.4695
 20
157.202
 11
-39.7466
 21
157.609
  0
LINE
  8
0
 10
-39.7466
 20
157.609
 11
-39.8916
 21
158.079
  0
LINE
  8
0
 10
-39.8916
 20
158.079
 11
-39.8916
 21
158.57
  0
LINE
  8
0
 10
-39.8916
 20
158.57
 11
-39.7466
 21
159.04
  0
LINE
  8
0
 10
-39.7466
 20
159.04
 11
-39.4695
 21
159.447
  0
LINE
  8
0
 10
-39.4695
 20
159.447
 11
-39.085
 21
159.754
  0
LINE
  8
0
 10
-39.085
 20
159.754
 11
-38.6272
 21
159.933
  0
LINE
  8
0
 10
-38.6272
 20
159.933
 11
-38.1367
 21
159.97
  0
LINE
  8
0
 10
-38.1367
 20
159.97
 11
-37.6572
 21
159.861
  0
LINE
  8
0
 10
-37.6572
 20
159.861
 11
-37.2312
 21
159.615
  0
LINE
  8
0
 10
-37.2312
 20
159.615
 11
-36.8967
 21
159.254
  0
LINE
  8
0
 10
-36.8967
 20
159.254
 11
-36.6833
 21
158.811
  0
LINE
  8
0
 10
-36.6833
 20
158.811
 11
-36.61
 21
158.325
  0
LINE
  8
0
 10
-36.61
 20
158.325
 11
-36.6833
 21
157.838
  0
LINE
  8
0
 10
-36.6833
 20
157.838
 11
-36.8967
 21
157.395
  0
LINE
  8
0
 10
-36.8967
 20
157.395
 11
-37.2312
 21
157.035
  0
LINE
  8
0
 10
-37.2312
 20
157.035
 11
-37.6572
 21
156.789
  0
LINE
  8
0
 10
-37.6572
 20
156.789
 11
-38.1367
 21
156.679
  0
LINE
  8
0
 10
-38.1367
 20
156.679
 11
-38.6272
 21
156.716
  0
LINE
  8
0
 10
-38.6272
 20
142.067
 11
-39.085
 21
142.246
  0
LINE
  8
0
 10
-39.085
 20
142.246
 11
-39.4695
 21
142.553
  0
LINE
  8
0
 10
-39.4695
 20
142.553
 11
-39.7466
 21
142.96
  0
LINE
  8
0
 10
-39.7466
 20
142.96
 11
-39.8916
 21
143.429
  0
LINE
  8
0
 10
-39.8916
 20
143.429
 11
-39.8916
 21
143.921
  0
LINE
  8
0
 10
-39.8916
 20
143.921
 11
-39.7466
 21
144.391
  0
LINE
  8
0
 10
-39.7466
 20
144.391
 11
-39.4695
 21
144.798
  0
LINE
  8
0
 10
-39.4695
 20
144.798
 11
-39.085
 21
145.104
  0
LINE
  8
0
 10
-39.085
 20
145.104
 11
-38.6272
 21
145.284
  0
LINE
  8
0
 10
-38.6272
 20
145.284
 11
-38.1367
 21
145.321
  0
LINE
  8
0
 10
-38.1367
 20
145.321
 11
-37.6572
 21
145.211
  0
LINE
  8
0
 10
-37.6572
 20
145.211
 11
-37.2312
 21
144.965
  0
LINE
  8
0
 10
-37.2312
 20
144.965
 11
-36.8967
 21
144.605
  0
LINE
  8
0
 10
-36.8967
 20
144.605
 11
-36.6833
 21
144.162
  0
LINE
  8
0
 10
-36.6833
 20
144.162
 11
-36.61
 21
143.675
  0
LINE
  8
0
 10
-36.61
 20
143.675
 11
-36.6833
 21
143.189
  0
LINE
  8
0
 10
-36.6833
 20
143.189
 11
-36.8967
 21
142.746
  0
LINE
  8
0
 10
-36.8967
 20
142.746
 11
-37.2312
 21
142.385
  0
LINE
  8
0
 10
-37.2312
 20
142.385
 11
-37.6572
 21
142.139
  0
LINE
  8
0
 10
-37.6572
 20
142.139
 11
-38.1367
 21
142.03
  0
LINE
  8
0
 10
-38.1367
 20
142.03
 11
-38.6272
 21
142.067
  0
LINE
  8
0
 10
94.7605
 20
116.355
 11
94.2954
 21
116.518
  0
LINE
  8
0
 10
94.2954
 20
116.518
 11
93.8783
 21
116.78
  0
LINE
  8
0
 10
93.8783
 20
116.78
 11
93.53
 21
117.128
  0
LINE
  8
0
 10
93.53
 20
117.128
 11
93.2679
 21
117.545
  0
LINE
  8
0
 10
93.2679
 20
117.545
 11
93.1051
 21
118.01
  0
LINE
  8
0
 10
93.1051
 20
118.01
 11
93.05
 21
118.5
  0
LINE
  8
0
 10
93.05
 20
118.5
 11
93.1051
 21
118.99
  0
LINE
  8
0
 10
93.1051
 20
118.99
 11
93.2679
 21
119.455
  0
LINE
  8
0
 10
93.2679
 20
119.455
 11
93.53
 21
119.872
  0
LINE
  8
0
 10
93.53
 20
119.872
 11
93.8783
 21
120.22
  0
LINE
  8
0
 10
93.8783
 20
120.22
 11
94.2954
 21
120.482
  0
LINE
  8
0
 10
94.2954
 20
120.482
 11
94.7605
 21
120.645
  0
LINE
  8
0
 10
94.7605
 20
120.645
 11
95.25
 21
120.7
  0
LINE
  8
0
 10
95.25
 20
120.7
 11
95.7395
 21
120.645
  0
LINE
  8
0
 10
95.7395
 20
120.645
 11
96.2045
 21
120.482
  0
LINE
  8
0
 10
96.2045
 20
120.482
 11
96.6217
 21
120.22
  0
LINE
  8
0
 10
96.6217
 20
120.22
 11
96.97
 21
119.872
  0
LINE
  8
0
 10
96.97
 20
119.872
 11
97.2321
 21
119.455
  0
LINE
  8
0
 10
97.2321
 20
119.455
 11
97.3948
 21
118.99
  0
LINE
  8
0
 10
97.3948
 20
118.99
 11
97.45
 21
118.5
  0
LINE
  8
0
 10
97.45
 20
118.5
 11
97.3948
 21
118.01
  0
LINE
  8
0
 10
97.3948
 20
118.01
 11
97.2321
 21
117.545
  0
LINE
  8
0
 10
97.2321
 20
117.545
 11
96.97
 21
117.128
  0
LINE
  8
0
 10
96.97
 20
117.128
 11
96.6217
 21
116.78
  0
LINE
  8
0
 10
96.6217
 20
116.78
 11
96.2045
 21
116.518
  0
LINE
  8
0
 10
96.2045
 20
116.518
 11
95.7395
 21
116.355
  0
LINE
  8
0
 10
95.7395
 20
116.355
 11
95.25
 21
116.3
  0
LINE
  8
0
 10
95.25
 20
116.3
 11
94.7605
 21
116.355
  0
LINE
  8
0
 10
60.7605
 20
96.3551
 11
60.2955
 21
96.5179
  0
LINE
  8
0
 10
60.2955
 20
96.5179
 11
59.8783
 21
96.78
  0
LINE
  8
0
 10
59.8783
 20
96.78
 11
59.53
 21
97.1283
  0
LINE
  8
0
 10
59.53
 20
97.1283
 11
59.2679
 21
97.5455
  0
LINE
  8
0
 10
59.2679
 20
97.5455
 11
59.1051
 21
98.0105
  0
LINE
  8
0
 10
59.1051
 20
98.0105
 11
59.05
 21
98.5
  0
LINE
  8
0
 10
59.05
 20
98.5
 11
59.1051
 21
98.9895
  0
LINE
  8
0
 10
59.1051
 20
98.9895
 11
59.2679
 21
99.4545
  0
LINE
  8
0
 10
59.2679
 20
99.4545
 11
59.53
 21
99.8717
  0
LINE
  8
0
 10
59.53
 20
99.8717
 11
59.8783
 21
100.22
  0
LINE
  8
0
 10
59.8783
 20
100.22
 11
60.2955
 21
100.482
  0
LINE
  8
0
 10
60.2955
 20
100.482
 11
60.7605
 21
100.645
  0
LINE
  8
0
 10
60.7605
 20
100.645
 11
61.25
 21
100.7
  0
LINE
  8
0
 10
61.25
 20
100.7
 11
61.7395
 21
100.645
  0
LINE
  8
0
 10
61.7395
 20
100.645
 11
62.2045
 21
100.482
  0
LINE
  8
0
 10
62.2045
 20
100.482
 11
62.6217
 21
100.22
  0
LINE
  8
0
 10
62.6217
 20
100.22
 11
62.97
 21
99.8717
  0
LINE
  8
0
 10
62.97
 20
99.8717
 11
63.2321
 21
99.4545
  0
LINE
  8
0
 10
63.2321
 20
99.4545
 11
63.3948
 21
98.9895
  0
LINE
  8
0
 10
63.3948
 20
98.9895
 11
63.45
 21
98.5
  0
LINE
  8
0
 10
63.45
 20
98.5
 11
63.3948
 21
98.0105
  0
LINE
  8
0
 10
63.3948
 20
98.0105
 11
63.2321
 21
97.5455
  0
LINE
  8
0
 10
63.2321
 20
97.5455
 11
62.97
 21
97.1283
  0
LINE
  8
0
 10
62.97
 20
97.1283
 11
62.6217
 21
96.78
  0
LINE
  8
0
 10
62.6217
 20
96.78
 11
62.2045
 21
96.5179
  0
LINE
  8
0
 10
62.2045
 20
96.5179
 11
61.7395
 21
96.3551
  0
LINE
  8
0
 10
61.7395
 20
96.3551
 11
61.25
 21
96.3
  0
LINE
  8
0
 10
61.25
 20
96.3
 11
60.7605
 21
96.3551
  0
LINE
  8
0
 10
-38.8628
 20
67.9386
 11
-39.2888
 21
68.1846
  0
LINE
  8
0
 10
-39.2888
 20
68.1846
 11
-39.6233
 21
68.5451
  0
LINE
  8
0
 10
-39.6233
 20
68.5451
 11
-39.8367
 21
68.9882
  0
LINE
  8
0
 10
-39.8367
 20
68.9882
 11
-39.91
 21
69.4746
  0
LINE
  8
0
 10
-39.91
 20
69.4746
 11
-39.8367
 21
69.9609
  0
LINE
  8
0
 10
-39.8367
 20
69.9609
 11
-39.6233
 21
70.4041
  0
LINE
  8
0
 10
-39.6233
 20
70.4041
 11
-39.2888
 21
70.7646
  0
LINE
  8
0
 10
-39.2888
 20
70.7646
 11
-38.8628
 21
71.0105
  0
LINE
  8
0
 10
-38.8628
 20
71.0105
 11
-38.3833
 21
71.12
  0
LINE
  8
0
 10
-38.3833
 20
71.12
 11
-37.8928
 21
71.0832
  0
LINE
  8
0
 10
-37.8928
 20
71.0832
 11
-37.435
 21
70.9035
  0
LINE
  8
0
 10
-37.435
 20
70.9035
 11
-37.0505
 21
70.5969
  0
LINE
  8
0
 10
-37.0505
 20
70.5969
 11
-36.7734
 21
70.1905
  0
LINE
  8
0
 10
-36.7734
 20
70.1905
 11
-36.6284
 21
69.7205
  0
LINE
  8
0
 10
-36.6284
 20
69.7205
 11
-36.6284
 21
69.2287
  0
LINE
  8
0
 10
-36.6284
 20
69.2287
 11
-36.7734
 21
68.7587
  0
LINE
  8
0
 10
-36.7734
 20
68.7587
 11
-37.0505
 21
68.3523
  0
LINE
  8
0
 10
-37.0505
 20
68.3523
 11
-37.435
 21
68.0456
  0
LINE
  8
0
 10
-37.435
 20
68.0456
 11
-37.8928
 21
67.8659
  0
LINE
  8
0
 10
-37.8928
 20
67.8659
 11
-38.3833
 21
67.8292
  0
LINE
  8
0
 10
-38.3833
 20
67.8292
 11
-38.8628
 21
67.9386
  0
LINE
  8
0
 10
-38.8628
 20
53.2895
 11
-39.2888
 21
53.5354
  0
LINE
  8
0
 10
-39.2888
 20
53.5354
 11
-39.6233
 21
53.8959
  0
LINE
  8
0
 10
-39.6233
 20
53.8959
 11
-39.8367
 21
54.3391
  0
LINE
  8
0
 10
-39.8367
 20
54.3391
 11
-39.91
 21
54.8254
  0
LINE
  8
0
 10
-39.91
 20
54.8254
 11
-39.8367
 21
55.3118
  0
LINE
  8
0
 10
-39.8367
 20
55.3118
 11
-39.6233
 21
55.7549
  0
LINE
  8
0
 10
-39.6233
 20
55.7549
 11
-39.2888
 21
56.1154
  0
LINE
  8
0
 10
-39.2888
 20
56.1154
 11
-38.8628
 21
56.3614
  0
LINE
  8
0
 10
-38.8628
 20
56.3614
 11
-38.3833
 21
56.4708
  0
LINE
  8
0
 10
-38.3833
 20
56.4708
 11
-37.8928
 21
56.434
  0
LINE
  8
0
 10
-37.8928
 20
56.434
 11
-37.435
 21
56.2543
  0
LINE
  8
0
 10
-37.435
 20
56.2543
 11
-37.0505
 21
55.9477
  0
LINE
  8
0
 10
-37.0505
 20
55.9477
 11
-36.7734
 21
55.5413
  0
LINE
  8
0
 10
-36.7734
 20
55.5413
 11
-36.6284
 21
55.0713
  0
LINE
  8
0
 10
-36.6284
 20
55.0713
 11
-36.6284
 21
54.5795
  0
LINE
  8
0
 10
-36.6284
 20
54.5795
 11
-36.7734
 21
54.1095
  0
LINE
  8
0
 10
-36.7734
 20
54.1095
 11
-37.0505
 21
53.7031
  0
LINE
  8
0
 10
-37.0505
 20
53.7031
 11
-37.435
 21
53.3965
  0
LINE
  8
0
 10
-37.435
 20
53.3965
 11
-37.8928
 21
53.2168
  0
LINE
  8
0
 10
-37.8928
 20
53.2168
 11
-38.3833
 21
53.18
  0
LINE
  8
0
 10
-38.3833
 20
53.18
 11
-38.8628
 21
53.2895
  0
LINE
  8
0
 10
-75.2395
 20
38.3551
 11
-75.7045
 21
38.5179
  0
LINE
  8
0
 10
-75.7045
 20
38.5179
 11
-76.1217
 21
38.78
  0
LINE
  8
0
 10
-76.1217
 20
38.78
 11
-76.47
 21
39.1283
  0
LINE
  8
0
 10
-76.47
 20
39.1283
 11
-76.7321
 21
39.5454
  0
LINE
  8
0
 10
-76.7321
 20
39.5454
 11
-76.8948
 21
40.0105
  0
LINE
  8
0
 10
-76.8948
 20
40.0105
 11
-76.95
 21
40.5
  0
LINE
  8
0
 10
-76.95
 20
40.5
 11
-76.8948
 21
40.9895
  0
LINE
  8
0
 10
-76.8948
 20
40.9895
 11
-76.7321
 21
41.4545
  0
LINE
  8
0
 10
-76.7321
 20
41.4545
 11
-76.47
 21
41.8717
  0
LINE
  8
0
 10
-76.47
 20
41.8717
 11
-76.1217
 21
42.22
  0
LINE
  8
0
 10
-76.1217
 20
42.22
 11
-75.7045
 21
42.4821
  0
LINE
  8
0
 10
-75.7045
 20
42.4821
 11
-75.2395
 21
42.6448
  0
LINE
  8
0
 10
-75.2395
 20
42.6448
 11
-74.75
 21
42.7
  0
LINE
  8
0
 10
-74.75
 20
42.7
 11
-74.2605
 21
42.6448
  0
LINE
  8
0
 10
-74.2605
 20
42.6448
 11
-73.7955
 21
42.4821
  0
LINE
  8
0
 10
-73.7955
 20
42.4821
 11
-73.3783
 21
42.22
  0
LINE
  8
0
 10
-73.3783
 20
42.22
 11
-73.03
 21
41.8717
  0
LINE
  8
0
 10
-73.03
 20
41.8717
 11
-72.7679
 21
41.4545
  0
LINE
  8
0
 10
-72.7679
 20
41.4545
 11
-72.6051
 21
40.9895
  0
LINE
  8
0
 10
-72.6051
 20
40.9895
 11
-72.55
 21
40.5
  0
LINE
  8
0
 10
-72.55
 20
40.5
 11
-72.6051
 21
40.0105
  0
LINE
  8
0
 10
-72.6051
 20
40.0105
 11
-72.7679
 21
39.5454
  0
LINE
  8
0
 10
-72.7679
 20
39.5454
 11
-73.03
 21
39.1283
  0
LINE
  8
0
 10
-73.03
 20
39.1283
 11
-73.3783
 21
38.78
  0
LINE
  8
0
 10
-73.3783
 20
38.78
 11
-73.7955
 21
38.5179
  0
LINE
  8
0
 10
-73.7955
 20
38.5179
 11
-74.2605
 21
38.3551
  0
LINE
  8
0
 10
-74.2605
 20
38.3551
 11
-74.75
 21
38.3
  0
LINE
  8
0
 10
-74.75
 20
38.3
 11
-75.2395
 21
38.3551
  0
LINE
  8
0
 10
-109.24
 20
18.3551
 11
-109.705
 21
18.5179
  0
LINE
  8
0
 10
-109.705
 20
18.5179
 11
-110.122
 21
18.78
  0
LINE
  8
0
 10
-110.122
 20
18.78
 11
-110.47
 21
19.1283
  0
LINE
  8
0
 10
-110.47
 20
19.1283
 11
-110.732
 21
19.5455
  0
LINE
  8
0
 10
-110.732
 20
19.5455
 11
-110.895
 21
20.0105
  0
LINE
  8
0
 10
-110.895
 20
20.0105
 11
-110.95
 21
20.5
  0
LINE
  8
0
 10
-110.95
 20
20.5
 11
-110.895
 21
20.9895
  0
LINE
  8
0
 10
-110.895
 20
20.9895
 11
-110.732
 21
21.4545
  0
LINE
  8
0
 10
-110.732
 20
21.4545
 11
-110.47
 21
21.8717
  0
LINE
  8
0
 10
-110.47
 20
21.8717
 11
-110.122
 21
22.22
  0
LINE
  8
0
 10
-110.122
 20
22.22
 11
-109.705
 21
22.4821
  0
LINE
  8
0
 10
-109.705
 20
22.4821
 11
-109.24
 21
22.6448
  0
LINE
  8
0
 10
-109.24
 20
22.6448
 11
-108.75
 21
22.7
  0
LINE
  8
0
 10
-108.75
 20
22.7
 11
-108.26
 21
22.6448
  0
LINE
  8
0
 10
-108.26
 20
22.6448
 11
-107.795
 21
22.4821
  0
LINE
  8
0
 10
-107.795
 20
22.4821
 11
-107.378
 21
22.22
  0
LINE
  8
0
 10
-107.378
 20
22.22
 11
-107.03
 21
21.8717
  0
LINE
  8
0
 10
-107.03
 20
21.8717
 11
-106.768
 21
21.4545
  0
LINE
  8
0
 10
-106.768
 20
21.4545
 11
-106.605
 21
20.9895
  0
LINE
  8
0
 10
-106.605
 20
20.9895
 11
-106.55
 21
20.5
  0
LINE
  8
0
 10
-106.55
 20
20.5
 11
-106.605
 21
20.0105
  0
LINE
  8
0
 10
-106.605
 20
20.0105
 11
-106.768
 21
19.5455
  0
LINE
  8
0
 10
-106.768
 20
19.5455
 11
-107.03
 21
19.1283
  0
LINE
  8
0
 10
-107.03
 20
19.1283
 11
-107.378
 21
18.78
  0
LINE
  8
0
 10
-107.378
 20
18.78
 11
-107.795
 21
18.5179
  0
LINE
  8
0
 10
-107.795
 20
18.5179
 11
-108.26
 21
18.3551
  0
LINE
  8
0
 10
-108.26
 20
18.3551
 11
-108.75
 21
18.3
  0
LINE
  8
0
 10
-108.75
 20
18.3
 11
-109.24
 21
18.3551
  0
LINE
  8
0
 10
-111.728
 20
2.84514
 11
-112.134
 21
3.1161
  0
LINE
  8
0
 10
-112.134
 20
3.1161
 11
-112.405
 21
3.52164
  0
LINE
  8
0
 10
-112.405
 20
3.52164
 11
-112.5
 21
4
  0
LINE
  8
0
 10
-112.5
 20
4
 11
-112.405
 21
4.47835
  0
LINE
  8
0
 10
-112.405
 20
4.47835
 11
-112.134
 21
4.88388
  0
LINE
  8
0
 10
-112.134
 20
4.88388
 11
-111.728
 21
5.15485
  0
LINE
  8
0
 10
-111.728
 20
5.15485
 11
-111.25
 21
5.25
  0
LINE
  8
0
 10
-111.25
 20
5.25
 11
-110.772
 21
5.15485
  0
LINE
  8
0
 10
-110.772
 20
5.15485
 11
-110.366
 21
4.88388
  0
LINE
  8
0
 10
-110.366
 20
4.88388
 11
-110.095
 21
4.47835
  0
LINE
  8
0
 10
-110.095
 20
4.47835
 11
-110
 21
4
  0
LINE
  8
0
 10
-110
 20
4
 11
-110.095
 21
3.52164
  0
LINE
  8
0
 10
-110.095
 20
3.52164
 11
-110.366
 21
3.1161
  0
LINE
  8
0
 10
-110.366
 20
3.1161
 11
-110.772
 21
2.84514
  0
LINE
  8
0
 10
-110.772
 20
2.84514
 11
-111.25
 21
2.75
  0
LINE
  8
0
 10
-111.25
 20
2.75
 11
-111.728
 21
2.84514
  0
LINE
  8
0
 10
97.2716
 20
2.84514
 11
96.8661
 21
3.1161
  0
LINE
  8
0
 10
96.8661
 20
3.1161
 11
96.5951
 21
3.52164
  0
LINE
  8
0
 10
96.5951
 20
3.52164
 11
96.5
 21
4
  0
LINE
  8
0
 10
96.5
 20
4
 11
96.5951
 21
4.47835
  0
LINE
  8
0
 10
96.5951
 20
4.47835
 11
96.8661
 21
4.88388
  0
LINE
  8
0
 10
96.8661
 20
4.88388
 11
97.2716
 21
5.15485
  0
LINE
  8
0
 10
97.2716
 20
5.15485
 11
97.75
 21
5.25
  0
LINE
  8
0
 10
97.75
 20
5.25
 11
98.2283
 21
5.15485
  0
LINE
  8
0
 10
98.2283
 20
5.15485
 11
98.6339
 21
4.88388
  0
LINE
  8
0
 10
98.6339
 20
4.88388
 11
98.9048
 21
4.47835
  0
LINE
  8
0
 10
98.9048
 20
4.47835
 11
99
 21
4
  0
LINE
  8
0
 10
99
 20
4
 11
98.9048
 21
3.52164
  0
LINE
  8
0
 10
98.9048
 20
3.52164
 11
98.6339
 21
3.1161
  0
LINE
  8
0
 10
98.6339
 20
3.1161
 11
98.2283
 21
2.84514
  0
LINE
  8
0
 10
98.2283
 20
2.84514
 11
97.75
 21
2.75
  0
LINE
  8
0
 10
97.75
 20
2.75
 11
97.2716
 21
2.84514
  0
ENDSEC
  0
SECTION
  2
OBJECTS
  0
DICTIONARY
  0
ENDSEC
  0
EOF
