<?xml version="1.0"?>
<svg xmlns="http://www.w3.org/2000/svg" version="1.1" height="343mm" width="405mm" >
 <g style="fill-opacity:1.0; stroke:black; stroke-width:1;">
  <line x1="395.000000mm" y1="164.500000mm" x2="395.000000mm" y2="164.500000mm" />
  <line x1="395.000000mm" y1="164.500000mm" x2="395.000000mm" y2="0.000000mm" />
  <line x1="395.000000mm" y1="0.000000mm" x2="0.000000mm" y2="0.000000mm" />
  <line x1="0.000000mm" y1="0.000000mm" x2="0.000000mm" y2="164.500000mm" />
  <line x1="0.000000mm" y1="164.500000mm" x2="395.000000mm" y2="164.500000mm" />
  <circle cx="8.199957mm" cy="9.700044mm" r="1.000020mm" fill="none"/>
  <line x1="10.199998mm" y1="9.700044mm" x2="6.199917mm" y2="9.700044mm" />
  <line x1="8.199957mm" y1="7.700004mm" x2="8.199957mm" y2="11.700084mm" />
  <text x="9mm" y="8mm" font-size="24">
   2.0
  </text>
  <circle cx="8.199957mm" cy="30.920044mm" r="1.000020mm" fill="none"/>
  <line x1="10.199998mm" y1="30.920044mm" x2="6.199917mm" y2="30.920044mm" />
  <line x1="8.199957mm" y1="28.920004mm" x2="8.199957mm" y2="32.920084mm" />
  <text x="9mm" y="29mm" font-size="24">
   2.0
  </text>
  <circle cx="56.250000mm" cy="70.350033mm" r="2.199967mm" fill="none"/>
  <line x1="60.649934mm" y1="70.350033mm" x2="51.850066mm" y2="70.350033mm" />
  <line x1="56.250000mm" y1="65.950100mm" x2="56.250000mm" y2="74.749967mm" />
  <text x="58mm" y="68mm" font-size="24">
   4.4
  </text>
  <circle cx="127.750000mm" cy="70.350096mm" r="2.199904mm" fill="none"/>
  <line x1="132.149808mm" y1="70.350096mm" x2="123.350192mm" y2="70.350096mm" />
  <line x1="127.750000mm" y1="65.950288mm" x2="127.750000mm" y2="74.749904mm" />
  <text x="129mm" y="68mm" font-size="24">
   4.4
  </text>
  <circle cx="92.000000mm" cy="106.099973mm" r="37.500027mm" fill="none"/>
  <line x1="167.000055mm" y1="106.099973mm" x2="16.999945mm" y2="106.099973mm" />
  <line x1="92.000000mm" y1="31.099918mm" x2="92.000000mm" y2="181.100027mm" />
  <text x="129mm" y="68mm" font-size="24">
   75.0
  </text>
  <circle cx="294.511797mm" cy="75.599816mm" r="1.000206mm" fill="none"/>
  <line x1="296.512208mm" y1="75.599816mm" x2="292.511386mm" y2="75.599816mm" />
  <line x1="294.511797mm" y1="73.599404mm" x2="294.511797mm" y2="77.600227mm" />
  <text x="295mm" y="74mm" font-size="24">
   2.0
  </text>
  <circle cx="56.250000mm" cy="141.850033mm" r="2.199967mm" fill="none"/>
  <line x1="60.649934mm" y1="141.850033mm" x2="51.850066mm" y2="141.850033mm" />
  <line x1="56.250000mm" y1="137.450100mm" x2="56.250000mm" y2="146.249967mm" />
  <text x="58mm" y="139mm" font-size="24">
   4.4
  </text>
  <circle cx="127.750000mm" cy="141.850096mm" r="2.199904mm" fill="none"/>
  <line x1="132.149808mm" y1="141.850096mm" x2="123.350192mm" y2="141.850096mm" />
  <line x1="127.750000mm" y1="137.450288mm" x2="127.750000mm" y2="146.249904mm" />
  <text x="129mm" y="139mm" font-size="24">
   4.4
  </text>
  <circle cx="323.080000mm" cy="156.500271mm" r="2.999758mm" fill="none"/>
  <line x1="329.079515mm" y1="156.500271mm" x2="317.080485mm" y2="156.500271mm" />
  <line x1="323.080000mm" y1="150.500756mm" x2="323.080000mm" y2="162.499787mm" />
  <text x="326mm" y="153mm" font-size="24">
   6.0
  </text>
  <circle cx="47.319955mm" cy="156.300004mm" r="1.000000mm" fill="none"/>
  <line x1="49.319955mm" y1="156.300004mm" x2="45.319956mm" y2="156.300004mm" />
  <line x1="47.319955mm" y1="154.300004mm" x2="47.319955mm" y2="158.300003mm" />
  <text x="48mm" y="155mm" font-size="24">
   2.0
  </text>
  <circle cx="347.680222mm" cy="156.300201mm" r="0.999885mm" fill="none"/>
  <line x1="349.679992mm" y1="156.300201mm" x2="345.680453mm" y2="156.300201mm" />
  <line x1="347.680222mm" y1="154.300431mm" x2="347.680222mm" y2="158.299970mm" />
  <text x="348mm" y="155mm" font-size="24">
   2.0
  </text>
  <circle cx="368.900222mm" cy="156.300201mm" r="0.999885mm" fill="none"/>
  <line x1="370.899992mm" y1="156.300201mm" x2="366.900453mm" y2="156.300201mm" />
  <line x1="368.900222mm" y1="154.300431mm" x2="368.900222mm" y2="158.299970mm" />
  <text x="369mm" y="155mm" font-size="24">
   2.0
  </text>
  <circle cx="26.099957mm" cy="156.299995mm" r="0.999997mm" fill="none"/>
  <line x1="28.099950mm" y1="156.299995mm" x2="24.099963mm" y2="156.299995mm" />
  <line x1="26.099957mm" y1="154.300002mm" x2="26.099957mm" y2="158.299988mm" />
  <text x="27mm" y="155mm" font-size="24">
   2.0
  </text>
  <circle cx="334.580000mm" cy="157.499951mm" r="2.000052mm" fill="none"/>
  <line x1="338.580104mm" y1="157.499951mm" x2="330.579896mm" y2="157.499951mm" />
  <line x1="334.580000mm" y1="153.499847mm" x2="334.580000mm" y2="161.500055mm" />
  <text x="336mm" y="155mm" font-size="24">
   4.0
  </text>
  <line x1="395.000000mm" y1="333.000000mm" x2="395.000000mm" y2="333.000000mm" />
  <line x1="395.000000mm" y1="333.000000mm" x2="395.000000mm" y2="168.500000mm" />
  <line x1="395.000000mm" y1="168.500000mm" x2="0.000000mm" y2="168.500000mm" />
  <line x1="0.000000mm" y1="168.500000mm" x2="0.000000mm" y2="333.000000mm" />
  <line x1="0.000000mm" y1="333.000000mm" x2="395.000000mm" y2="333.000000mm" />
  <circle cx="323.080000mm" cy="176.500211mm" r="2.999758mm" fill="none"/>
  <line x1="329.079515mm" y1="176.500211mm" x2="317.080485mm" y2="176.500211mm" />
  <line x1="323.080000mm" y1="170.500696mm" x2="323.080000mm" y2="182.499727mm" />
  <text x="326mm" y="173mm" font-size="24">
   6.0
  </text>
  <circle cx="334.580000mm" cy="175.499911mm" r="2.000062mm" fill="none"/>
  <line x1="338.580123mm" y1="175.499911mm" x2="330.579877mm" y2="175.499911mm" />
  <line x1="334.580000mm" y1="171.499788mm" x2="334.580000mm" y2="179.500034mm" />
  <text x="336mm" y="173mm" font-size="24">
   4.0
  </text>
  <circle cx="368.899772mm" cy="176.700197mm" r="0.999879mm" fill="none"/>
  <line x1="370.899530mm" y1="176.700197mm" x2="366.900015mm" y2="176.700197mm" />
  <line x1="368.899772mm" y1="174.700440mm" x2="368.899772mm" y2="178.699955mm" />
  <text x="369mm" y="175mm" font-size="24">
   2.0
  </text>
  <circle cx="347.679772mm" cy="176.700197mm" r="0.999879mm" fill="none"/>
  <line x1="349.679530mm" y1="176.700197mm" x2="345.680015mm" y2="176.700197mm" />
  <line x1="347.679772mm" y1="174.700440mm" x2="347.679772mm" y2="178.699955mm" />
  <text x="348mm" y="175mm" font-size="24">
   2.0
  </text>
  <circle cx="47.319939mm" cy="176.700000mm" r="0.999994mm" fill="none"/>
  <line x1="49.319927mm" y1="176.700000mm" x2="45.319952mm" y2="176.700000mm" />
  <line x1="47.319939mm" y1="174.700013mm" x2="47.319939mm" y2="178.699988mm" />
  <text x="48mm" y="175mm" font-size="24">
   2.0
  </text>
  <circle cx="26.099939mm" cy="176.700000mm" r="0.999994mm" fill="none"/>
  <line x1="28.099927mm" y1="176.700000mm" x2="24.099952mm" y2="176.700000mm" />
  <line x1="26.099939mm" y1="174.700013mm" x2="26.099939mm" y2="178.699988mm" />
  <text x="27mm" y="175mm" font-size="24">
   2.0
  </text>
  <circle cx="7.500003mm" cy="187.400010mm" r="2.499990mm" fill="none"/>
  <line x1="12.499983mm" y1="187.400010mm" x2="2.500022mm" y2="187.400010mm" />
  <line x1="7.500003mm" y1="182.400030mm" x2="7.500003mm" y2="192.399990mm" />
  <text x="9mm" y="184mm" font-size="24">
   5.0
  </text>
  <circle cx="7.000000mm" cy="196.900004mm" r="1.999996mm" fill="none"/>
  <line x1="10.999991mm" y1="196.900004mm" x2="3.000008mm" y2="196.900004mm" />
  <line x1="7.000000mm" y1="192.900013mm" x2="7.000000mm" y2="200.899996mm" />
  <text x="8mm" y="194mm" font-size="24">
   4.0
  </text>
  <circle cx="294.511797mm" cy="200.599816mm" r="1.000206mm" fill="none"/>
  <line x1="296.512208mm" y1="200.599816mm" x2="292.511386mm" y2="200.599816mm" />
  <line x1="294.511797mm" y1="198.599404mm" x2="294.511797mm" y2="202.600227mm" />
  <text x="295mm" y="199mm" font-size="24">
   2.0
  </text>
  <circle cx="327.690000mm" cy="229.159887mm" r="1.250113mm" fill="none"/>
  <line x1="330.190227mm" y1="229.159887mm" x2="325.189773mm" y2="229.159887mm" />
  <line x1="327.690000mm" y1="226.659660mm" x2="327.690000mm" y2="231.660113mm" />
  <text x="328mm" y="227mm" font-size="24">
   2.5
  </text>
  <circle cx="233.710000mm" cy="229.159887mm" r="1.250113mm" fill="none"/>
  <line x1="236.210227mm" y1="229.159887mm" x2="231.209773mm" y2="229.159887mm" />
  <line x1="233.710000mm" y1="226.659660mm" x2="233.710000mm" y2="231.660113mm" />
  <text x="234mm" y="227mm" font-size="24">
   2.5
  </text>
  <circle cx="7.000000mm" cy="256.900004mm" r="1.999996mm" fill="none"/>
  <line x1="10.999991mm" y1="256.900004mm" x2="3.000008mm" y2="256.900004mm" />
  <line x1="7.000000mm" y1="252.900013mm" x2="7.000000mm" y2="260.899996mm" />
  <text x="8mm" y="254mm" font-size="24">
   4.0
  </text>
  <circle cx="8.500071mm" cy="269.100039mm" r="3.499961mm" fill="none"/>
  <line x1="15.499992mm" y1="269.100039mm" x2="1.500150mm" y2="269.100039mm" />
  <line x1="8.500071mm" y1="262.100118mm" x2="8.500071mm" y2="276.099961mm" />
  <text x="12mm" y="265mm" font-size="24">
   7.0
  </text>
  <circle cx="206.350123mm" cy="271.049798mm" r="0.849877mm" fill="none"/>
  <line x1="208.049877mm" y1="271.049798mm" x2="204.650369mm" y2="271.049798mm" />
  <line x1="206.350123mm" y1="269.350044mm" x2="206.350123mm" y2="272.749552mm" />
  <text x="207mm" y="270mm" font-size="24">
   1.7
  </text>
  <circle cx="233.710000mm" cy="272.339997mm" r="1.250003mm" fill="none"/>
  <line x1="236.210005mm" y1="272.339997mm" x2="231.209995mm" y2="272.339997mm" />
  <line x1="233.710000mm" y1="269.839992mm" x2="233.710000mm" y2="274.840003mm" />
  <text x="234mm" y="271mm" font-size="24">
   2.5
  </text>
  <circle cx="327.690000mm" cy="272.339997mm" r="1.250003mm" fill="none"/>
  <line x1="330.190005mm" y1="272.339997mm" x2="325.189995mm" y2="272.339997mm" />
  <line x1="327.690000mm" y1="269.839992mm" x2="327.690000mm" y2="274.840003mm" />
  <text x="328mm" y="271mm" font-size="24">
   2.5
  </text>
  <circle cx="192.050123mm" cy="286.949798mm" r="0.849877mm" fill="none"/>
  <line x1="193.749877mm" y1="286.949798mm" x2="190.350369mm" y2="286.949798mm" />
  <line x1="192.050123mm" y1="285.250044mm" x2="192.050123mm" y2="288.649552mm" />
  <text x="192mm" y="286mm" font-size="24">
   1.7
  </text>
  <circle cx="8.199957mm" cy="302.080044mm" r="1.000020mm" fill="none"/>
  <line x1="10.199998mm" y1="302.080044mm" x2="6.199917mm" y2="302.080044mm" />
  <line x1="8.199957mm" y1="300.080004mm" x2="8.199957mm" y2="304.080084mm" />
  <text x="9mm" y="301mm" font-size="24">
   2.0
  </text>
  <circle cx="206.350123mm" cy="302.549798mm" r="0.849877mm" fill="none"/>
  <line x1="208.049877mm" y1="302.549798mm" x2="204.650369mm" y2="302.549798mm" />
  <line x1="206.350123mm" y1="300.850044mm" x2="206.350123mm" y2="304.249552mm" />
  <text x="207mm" y="301mm" font-size="24">
   1.7
  </text>
  <circle cx="192.050123mm" cy="318.449798mm" r="0.849877mm" fill="none"/>
  <line x1="193.749877mm" y1="318.449798mm" x2="190.350369mm" y2="318.449798mm" />
  <line x1="192.050123mm" y1="316.750044mm" x2="192.050123mm" y2="320.149552mm" />
  <text x="192mm" y="317mm" font-size="24">
   1.7
  </text>
  <circle cx="8.199957mm" cy="323.300044mm" r="1.000020mm" fill="none"/>
  <line x1="10.199998mm" y1="323.300044mm" x2="6.199917mm" y2="323.300044mm" />
  <line x1="8.199957mm" y1="321.300004mm" x2="8.199957mm" y2="325.300084mm" />
  <text x="9mm" y="322mm" font-size="24">
   2.0
  </text>
  <circle cx="125.899908mm" cy="326.000377mm" r="0.999982mm" fill="none"/>
  <line x1="127.899872mm" y1="326.000377mm" x2="123.899944mm" y2="326.000377mm" />
  <line x1="125.899908mm" y1="324.000413mm" x2="125.899908mm" y2="328.000341mm" />
  <text x="126mm" y="325mm" font-size="24">
   2.0
  </text>
  <circle cx="32.900075mm" cy="326.000180mm" r="1.000097mm" fill="none"/>
  <line x1="34.900268mm" y1="326.000180mm" x2="30.899881mm" y2="326.000180mm" />
  <line x1="32.900075mm" y1="323.999987mm" x2="32.900075mm" y2="328.000374mm" />
  <text x="33mm" y="325mm" font-size="24">
   2.0
  </text>
 </g>
</svg>
