  0
SECTION
  2
BLOCKS
  0
ENDSEC
  0
SECTION
  2
ENTITIES
  0
LINE
  8
0
 10
-131.75
 20
287.1
 11
-131.744
 21
287.349
  0
LINE
  8
0
 10
-131.744
 20
287.349
 11
-131.694
 21
287.845
  0
LINE
  8
0
 10
-131.694
 20
287.845
 11
-131.595
 21
288.334
  0
LINE
  8
0
 10
-131.595
 20
288.334
 11
-131.448
 21
288.81
  0
LINE
  8
0
 10
-131.448
 20
288.81
 11
-131.255
 21
289.269
  0
LINE
  8
0
 10
-131.255
 20
289.269
 11
-131.016
 21
289.707
  0
LINE
  8
0
 10
-131.016
 20
289.707
 11
-130.736
 21
290.119
  0
LINE
  8
0
 10
-130.736
 20
290.119
 11
-130.415
 21
290.501
  0
LINE
  8
0
 10
-130.415
 20
290.501
 11
-130.058
 21
290.849
  0
LINE
  8
0
 10
-130.058
 20
290.849
 11
-129.669
 21
291.16
  0
LINE
  8
0
 10
-129.669
 20
291.16
 11
-129.25
 21
291.43
  0
LINE
  8
0
 10
-129.25
 20
291.43
 11
-128.806
 21
291.658
  0
LINE
  8
0
 10
-128.806
 20
291.658
 11
-128.342
 21
291.84
  0
LINE
  8
0
 10
-128.342
 20
291.84
 11
-127.863
 21
291.975
  0
LINE
  8
0
 10
-127.863
 20
291.975
 11
-127.372
 21
292.061
  0
LINE
  8
0
 10
-127.372
 20
292.061
 11
-126.875
 21
292.098
  0
LINE
  8
0
 10
-126.875
 20
292.098
 11
-126.75
 21
292.1
  0
LINE
  8
0
 10
-126.75
 20
292.1
 11
113.25
 21
292.1
  0
LINE
  8
0
 10
113.25
 20
292.1
 11
113.624
 21
292.086
  0
LINE
  8
0
 10
113.624
 20
292.086
 11
114.118
 21
292.024
  0
LINE
  8
0
 10
114.118
 20
292.024
 11
114.604
 21
291.913
  0
LINE
  8
0
 10
114.604
 20
291.913
 11
115.077
 21
291.754
  0
LINE
  8
0
 10
115.077
 20
291.754
 11
115.531
 21
291.549
  0
LINE
  8
0
 10
115.531
 20
291.549
 11
115.963
 21
291.3
  0
LINE
  8
0
 10
115.963
 20
291.3
 11
116.367
 21
291.009
  0
LINE
  8
0
 10
116.367
 20
291.009
 11
116.741
 21
290.679
  0
LINE
  8
0
 10
116.741
 20
290.679
 11
117.08
 21
290.314
  0
LINE
  8
0
 10
117.08
 20
290.314
 11
117.381
 21
289.917
  0
LINE
  8
0
 10
117.381
 20
289.917
 11
117.641
 21
289.491
  0
LINE
  8
0
 10
117.641
 20
289.491
 11
117.857
 21
289.042
  0
LINE
  8
0
 10
117.857
 20
289.042
 11
118.028
 21
288.574
  0
LINE
  8
0
 10
118.028
 20
288.574
 11
118.151
 21
288.091
  0
LINE
  8
0
 10
118.151
 20
288.091
 11
118.225
 21
287.598
  0
LINE
  8
0
 10
118.225
 20
287.598
 11
118.25
 21
287.1
  0
LINE
  8
0
 10
118.25
 20
287.1
 11
118.25
 21
0
  0
LINE
  8
0
 10
118.25
 20
0
 11
242.75
 21
0
  0
LINE
  8
0
 10
242.75
 20
0
 11
242.75
 21
395
  0
LINE
  8
0
 10
242.75
 20
395
 11
-242.75
 21
395
  0
LINE
  8
0
 10
-242.75
 20
395
 11
-242.75
 21
0
  0
LINE
  8
0
 10
-242.75
 20
0
 11
-131.75
 21
0
  0
LINE
  8
0
 10
-131.75
 20
0
 11
-131.75
 21
287.1
  0
LINE
  8
0
 10
164.285
 20
385.615
 11
163.927
 21
385.932
  0
LINE
  8
0
 10
163.927
 20
385.932
 11
163.757
 21
386.379
  0
LINE
  8
0
 10
163.757
 20
386.379
 11
163.815
 21
386.855
  0
LINE
  8
0
 10
163.815
 20
386.855
 11
164.087
 21
387.249
  0
LINE
  8
0
 10
164.087
 20
387.249
 11
164.511
 21
387.471
  0
LINE
  8
0
 10
164.511
 20
387.471
 11
164.989
 21
387.471
  0
LINE
  8
0
 10
164.989
 20
387.471
 11
165.413
 21
387.249
  0
LINE
  8
0
 10
165.413
 20
387.249
 11
165.685
 21
386.855
  0
LINE
  8
0
 10
165.685
 20
386.855
 11
165.743
 21
386.379
  0
LINE
  8
0
 10
165.743
 20
386.379
 11
165.573
 21
385.932
  0
LINE
  8
0
 10
165.573
 20
385.932
 11
165.215
 21
385.615
  0
LINE
  8
0
 10
165.215
 20
385.615
 11
164.75
 21
385.5
  0
LINE
  8
0
 10
164.75
 20
385.5
 11
164.285
 21
385.615
  0
LINE
  8
0
 10
131.285
 20
385.615
 11
130.927
 21
385.932
  0
LINE
  8
0
 10
130.927
 20
385.932
 11
130.757
 21
386.379
  0
LINE
  8
0
 10
130.757
 20
386.379
 11
130.815
 21
386.855
  0
LINE
  8
0
 10
130.815
 20
386.855
 11
131.087
 21
387.249
  0
LINE
  8
0
 10
131.087
 20
387.249
 11
131.511
 21
387.471
  0
LINE
  8
0
 10
131.511
 20
387.471
 11
131.989
 21
387.471
  0
LINE
  8
0
 10
131.989
 20
387.471
 11
132.413
 21
387.249
  0
LINE
  8
0
 10
132.413
 20
387.249
 11
132.685
 21
386.855
  0
LINE
  8
0
 10
132.685
 20
386.855
 11
132.743
 21
386.379
  0
LINE
  8
0
 10
132.743
 20
386.379
 11
132.573
 21
385.932
  0
LINE
  8
0
 10
132.573
 20
385.932
 11
132.215
 21
385.615
  0
LINE
  8
0
 10
132.215
 20
385.615
 11
131.75
 21
385.5
  0
LINE
  8
0
 10
131.75
 20
385.5
 11
131.285
 21
385.615
  0
LINE
  8
0
 10
-202.715
 20
385.615
 11
-203.073
 21
385.932
  0
LINE
  8
0
 10
-203.073
 20
385.932
 11
-203.243
 21
386.379
  0
LINE
  8
0
 10
-203.243
 20
386.379
 11
-203.185
 21
386.855
  0
LINE
  8
0
 10
-203.185
 20
386.855
 11
-202.913
 21
387.249
  0
LINE
  8
0
 10
-202.913
 20
387.249
 11
-202.489
 21
387.471
  0
LINE
  8
0
 10
-202.489
 20
387.471
 11
-202.011
 21
387.471
  0
LINE
  8
0
 10
-202.011
 20
387.471
 11
-201.587
 21
387.249
  0
LINE
  8
0
 10
-201.587
 20
387.249
 11
-201.315
 21
386.855
  0
LINE
  8
0
 10
-201.315
 20
386.855
 11
-201.257
 21
386.379
  0
LINE
  8
0
 10
-201.257
 20
386.379
 11
-201.427
 21
385.932
  0
LINE
  8
0
 10
-201.427
 20
385.932
 11
-201.785
 21
385.615
  0
LINE
  8
0
 10
-201.785
 20
385.615
 11
-202.25
 21
385.5
  0
LINE
  8
0
 10
-202.25
 20
385.5
 11
-202.715
 21
385.615
  0
LINE
  8
0
 10
-169.715
 20
385.615
 11
-170.073
 21
385.932
  0
LINE
  8
0
 10
-170.073
 20
385.932
 11
-170.243
 21
386.379
  0
LINE
  8
0
 10
-170.243
 20
386.379
 11
-170.185
 21
386.855
  0
LINE
  8
0
 10
-170.185
 20
386.855
 11
-169.913
 21
387.249
  0
LINE
  8
0
 10
-169.913
 20
387.249
 11
-169.489
 21
387.471
  0
LINE
  8
0
 10
-169.489
 20
387.471
 11
-169.011
 21
387.471
  0
LINE
  8
0
 10
-169.011
 20
387.471
 11
-168.587
 21
387.249
  0
LINE
  8
0
 10
-168.587
 20
387.249
 11
-168.315
 21
386.855
  0
LINE
  8
0
 10
-168.315
 20
386.855
 11
-168.257
 21
386.379
  0
LINE
  8
0
 10
-168.257
 20
386.379
 11
-168.427
 21
385.932
  0
LINE
  8
0
 10
-168.427
 20
385.932
 11
-168.785
 21
385.615
  0
LINE
  8
0
 10
-168.785
 20
385.615
 11
-169.25
 21
385.5
  0
LINE
  8
0
 10
-169.25
 20
385.5
 11
-169.715
 21
385.615
  0
LINE
  8
0
 10
226.095
 20
382.065
 11
225.701
 21
382.337
  0
LINE
  8
0
 10
225.701
 20
382.337
 11
225.479
 21
382.761
  0
LINE
  8
0
 10
225.479
 20
382.761
 11
225.479
 21
383.239
  0
LINE
  8
0
 10
225.479
 20
383.239
 11
225.701
 21
383.663
  0
LINE
  8
0
 10
225.701
 20
383.663
 11
226.095
 21
383.935
  0
LINE
  8
0
 10
226.095
 20
383.935
 11
226.571
 21
383.993
  0
LINE
  8
0
 10
226.571
 20
383.993
 11
227.018
 21
383.823
  0
LINE
  8
0
 10
227.018
 20
383.823
 11
227.335
 21
383.465
  0
LINE
  8
0
 10
227.335
 20
383.465
 11
227.45
 21
383
  0
LINE
  8
0
 10
227.45
 20
383
 11
227.335
 21
382.535
  0
LINE
  8
0
 10
227.335
 20
382.535
 11
227.018
 21
382.177
  0
LINE
  8
0
 10
227.018
 20
382.177
 11
226.571
 21
382.007
  0
LINE
  8
0
 10
226.571
 20
382.007
 11
226.095
 21
382.065
  0
LINE
  8
0
 10
191.695
 20
382.065
 11
191.301
 21
382.337
  0
LINE
  8
0
 10
191.301
 20
382.337
 11
191.079
 21
382.761
  0
LINE
  8
0
 10
191.079
 20
382.761
 11
191.079
 21
383.239
  0
LINE
  8
0
 10
191.079
 20
383.239
 11
191.301
 21
383.663
  0
LINE
  8
0
 10
191.301
 20
383.663
 11
191.695
 21
383.935
  0
LINE
  8
0
 10
191.695
 20
383.935
 11
192.171
 21
383.993
  0
LINE
  8
0
 10
192.171
 20
383.993
 11
192.618
 21
383.823
  0
LINE
  8
0
 10
192.618
 20
383.823
 11
192.935
 21
383.465
  0
LINE
  8
0
 10
192.935
 20
383.465
 11
193.05
 21
383
  0
LINE
  8
0
 10
193.05
 20
383
 11
192.935
 21
382.535
  0
LINE
  8
0
 10
192.935
 20
382.535
 11
192.618
 21
382.177
  0
LINE
  8
0
 10
192.618
 20
382.177
 11
192.171
 21
382.007
  0
LINE
  8
0
 10
192.171
 20
382.007
 11
191.695
 21
382.065
  0
LINE
  8
0
 10
-202.491
 20
374.015
 11
-202.959
 21
374.13
  0
LINE
  8
0
 10
-202.959
 20
374.13
 11
-203.386
 21
374.354
  0
LINE
  8
0
 10
-203.386
 20
374.354
 11
-203.747
 21
374.674
  0
LINE
  8
0
 10
-203.747
 20
374.674
 11
-204.021
 21
375.071
  0
LINE
  8
0
 10
-204.021
 20
375.071
 11
-204.192
 21
375.521
  0
LINE
  8
0
 10
-204.192
 20
375.521
 11
-204.25
 21
376
  0
LINE
  8
0
 10
-204.25
 20
376
 11
-204.192
 21
376.479
  0
LINE
  8
0
 10
-204.192
 20
376.479
 11
-204.021
 21
376.929
  0
LINE
  8
0
 10
-204.021
 20
376.929
 11
-203.747
 21
377.326
  0
LINE
  8
0
 10
-203.747
 20
377.326
 11
-203.386
 21
377.646
  0
LINE
  8
0
 10
-203.386
 20
377.646
 11
-202.959
 21
377.87
  0
LINE
  8
0
 10
-202.959
 20
377.87
 11
-202.491
 21
377.985
  0
LINE
  8
0
 10
-202.491
 20
377.985
 11
-202.009
 21
377.985
  0
LINE
  8
0
 10
-202.009
 20
377.985
 11
-201.541
 21
377.87
  0
LINE
  8
0
 10
-201.541
 20
377.87
 11
-201.114
 21
377.646
  0
LINE
  8
0
 10
-201.114
 20
377.646
 11
-200.753
 21
377.326
  0
LINE
  8
0
 10
-200.753
 20
377.326
 11
-200.479
 21
376.929
  0
LINE
  8
0
 10
-200.479
 20
376.929
 11
-200.308
 21
376.479
  0
LINE
  8
0
 10
-200.308
 20
376.479
 11
-200.25
 21
376
  0
LINE
  8
0
 10
-200.25
 20
376
 11
-200.308
 21
375.521
  0
LINE
  8
0
 10
-200.308
 20
375.521
 11
-200.479
 21
375.071
  0
LINE
  8
0
 10
-200.479
 20
375.071
 11
-200.753
 21
374.674
  0
LINE
  8
0
 10
-200.753
 20
374.674
 11
-201.114
 21
374.354
  0
LINE
  8
0
 10
-201.114
 20
374.354
 11
-201.541
 21
374.13
  0
LINE
  8
0
 10
-201.541
 20
374.13
 11
-202.009
 21
374.015
  0
LINE
  8
0
 10
-202.009
 20
374.015
 11
-202.491
 21
374.015
  0
LINE
  8
0
 10
-167.289
 20
357.319
 11
-167.713
 21
357.541
  0
LINE
  8
0
 10
-167.713
 20
357.541
 11
-167.985
 21
357.935
  0
LINE
  8
0
 10
-167.985
 20
357.935
 11
-168.043
 21
358.411
  0
LINE
  8
0
 10
-168.043
 20
358.411
 11
-167.873
 21
358.858
  0
LINE
  8
0
 10
-167.873
 20
358.858
 11
-167.515
 21
359.175
  0
LINE
  8
0
 10
-167.515
 20
359.175
 11
-167.05
 21
359.29
  0
LINE
  8
0
 10
-167.05
 20
359.29
 11
-166.585
 21
359.175
  0
LINE
  8
0
 10
-166.585
 20
359.175
 11
-166.227
 21
358.858
  0
LINE
  8
0
 10
-166.227
 20
358.858
 11
-166.057
 21
358.411
  0
LINE
  8
0
 10
-166.057
 20
358.411
 11
-166.115
 21
357.935
  0
LINE
  8
0
 10
-166.115
 20
357.935
 11
-166.387
 21
357.541
  0
LINE
  8
0
 10
-166.387
 20
357.541
 11
-166.811
 21
357.319
  0
LINE
  8
0
 10
-166.811
 20
357.319
 11
-167.289
 21
357.319
  0
LINE
  8
0
 10
130.085
 20
357.405
 11
129.727
 21
357.722
  0
LINE
  8
0
 10
129.727
 20
357.722
 11
129.557
 21
358.169
  0
LINE
  8
0
 10
129.557
 20
358.169
 11
129.615
 21
358.645
  0
LINE
  8
0
 10
129.615
 20
358.645
 11
129.887
 21
359.038
  0
LINE
  8
0
 10
129.887
 20
359.038
 11
130.311
 21
359.261
  0
LINE
  8
0
 10
130.311
 20
359.261
 11
130.789
 21
359.261
  0
LINE
  8
0
 10
130.789
 20
359.261
 11
131.213
 21
359.038
  0
LINE
  8
0
 10
131.213
 20
359.038
 11
131.485
 21
358.645
  0
LINE
  8
0
 10
131.485
 20
358.645
 11
131.543
 21
358.169
  0
LINE
  8
0
 10
131.543
 20
358.169
 11
131.373
 21
357.722
  0
LINE
  8
0
 10
131.373
 20
357.722
 11
131.015
 21
357.405
  0
LINE
  8
0
 10
131.015
 20
357.405
 11
130.55
 21
357.29
  0
LINE
  8
0
 10
130.55
 20
357.29
 11
130.085
 21
357.405
  0
LINE
  8
0
 10
129.285
 20
328.295
 11
128.927
 21
328.612
  0
LINE
  8
0
 10
128.927
 20
328.612
 11
128.757
 21
329.059
  0
LINE
  8
0
 10
128.757
 20
329.059
 11
128.815
 21
329.535
  0
LINE
  8
0
 10
128.815
 20
329.535
 11
129.087
 21
329.928
  0
LINE
  8
0
 10
129.087
 20
329.928
 11
129.511
 21
330.151
  0
LINE
  8
0
 10
129.511
 20
330.151
 11
129.989
 21
330.151
  0
LINE
  8
0
 10
129.989
 20
330.151
 11
130.413
 21
329.928
  0
LINE
  8
0
 10
130.413
 20
329.928
 11
130.685
 21
329.535
  0
LINE
  8
0
 10
130.685
 20
329.535
 11
130.743
 21
329.059
  0
LINE
  8
0
 10
130.743
 20
329.059
 11
130.573
 21
328.612
  0
LINE
  8
0
 10
130.573
 20
328.612
 11
130.215
 21
328.295
  0
LINE
  8
0
 10
130.215
 20
328.295
 11
129.75
 21
328.18
  0
LINE
  8
0
 10
129.75
 20
328.18
 11
129.285
 21
328.295
  0
LINE
  8
0
 10
-166.715
 20
328.295
 11
-167.073
 21
328.612
  0
LINE
  8
0
 10
-167.073
 20
328.612
 11
-167.243
 21
329.059
  0
LINE
  8
0
 10
-167.243
 20
329.059
 11
-167.185
 21
329.535
  0
LINE
  8
0
 10
-167.185
 20
329.535
 11
-166.913
 21
329.928
  0
LINE
  8
0
 10
-166.913
 20
329.928
 11
-166.489
 21
330.151
  0
LINE
  8
0
 10
-166.489
 20
330.151
 11
-166.011
 21
330.151
  0
LINE
  8
0
 10
-166.011
 20
330.151
 11
-165.587
 21
329.928
  0
LINE
  8
0
 10
-165.587
 20
329.928
 11
-165.315
 21
329.535
  0
LINE
  8
0
 10
-165.315
 20
329.535
 11
-165.257
 21
329.059
  0
LINE
  8
0
 10
-165.257
 20
329.059
 11
-165.427
 21
328.612
  0
LINE
  8
0
 10
-165.427
 20
328.612
 11
-165.785
 21
328.295
  0
LINE
  8
0
 10
-165.785
 20
328.295
 11
-166.25
 21
328.18
  0
LINE
  8
0
 10
-166.25
 20
328.18
 11
-166.715
 21
328.295
  0
LINE
  8
0
 10
-235.605
 20
159.565
 11
-235.999
 21
159.837
  0
LINE
  8
0
 10
-235.999
 20
159.837
 11
-236.221
 21
160.261
  0
LINE
  8
0
 10
-236.221
 20
160.261
 11
-236.221
 21
160.739
  0
LINE
  8
0
 10
-236.221
 20
160.739
 11
-235.999
 21
161.163
  0
LINE
  8
0
 10
-235.999
 20
161.163
 11
-235.605
 21
161.435
  0
LINE
  8
0
 10
-235.605
 20
161.435
 11
-235.129
 21
161.493
  0
LINE
  8
0
 10
-235.129
 20
161.493
 11
-234.682
 21
161.323
  0
LINE
  8
0
 10
-234.682
 20
161.323
 11
-234.365
 21
160.965
  0
LINE
  8
0
 10
-234.365
 20
160.965
 11
-234.25
 21
160.5
  0
LINE
  8
0
 10
-234.25
 20
160.5
 11
-234.365
 21
160.035
  0
LINE
  8
0
 10
-234.365
 20
160.035
 11
-234.682
 21
159.677
  0
LINE
  8
0
 10
-234.682
 20
159.677
 11
-235.129
 21
159.507
  0
LINE
  8
0
 10
-235.129
 20
159.507
 11
-235.605
 21
159.565
  0
LINE
  8
0
 10
-235.605
 20
118.165
 11
-235.999
 21
118.437
  0
LINE
  8
0
 10
-235.999
 20
118.437
 11
-236.221
 21
118.861
  0
LINE
  8
0
 10
-236.221
 20
118.861
 11
-236.221
 21
119.339
  0
LINE
  8
0
 10
-236.221
 20
119.339
 11
-235.999
 21
119.763
  0
LINE
  8
0
 10
-235.999
 20
119.763
 11
-235.605
 21
120.035
  0
LINE
  8
0
 10
-235.605
 20
120.035
 11
-235.129
 21
120.093
  0
LINE
  8
0
 10
-235.129
 20
120.093
 11
-234.682
 21
119.923
  0
LINE
  8
0
 10
-234.682
 20
119.923
 11
-234.365
 21
119.565
  0
LINE
  8
0
 10
-234.365
 20
119.565
 11
-234.25
 21
119.1
  0
LINE
  8
0
 10
-234.25
 20
119.1
 11
-234.365
 21
118.635
  0
LINE
  8
0
 10
-234.365
 20
118.635
 11
-234.682
 21
118.277
  0
LINE
  8
0
 10
-234.682
 20
118.277
 11
-235.129
 21
118.107
  0
LINE
  8
0
 10
-235.129
 20
118.107
 11
-235.605
 21
118.165
  0
LINE
  8
0
 10
-208.491
 20
63.0146
 11
-208.959
 21
63.13
  0
LINE
  8
0
 10
-208.959
 20
63.13
 11
-209.386
 21
63.354
  0
LINE
  8
0
 10
-209.386
 20
63.354
 11
-209.747
 21
63.6738
  0
LINE
  8
0
 10
-209.747
 20
63.6738
 11
-210.021
 21
64.0705
  0
LINE
  8
0
 10
-210.021
 20
64.0705
 11
-210.192
 21
64.5214
  0
LINE
  8
0
 10
-210.192
 20
64.5214
 11
-210.25
 21
65
  0
LINE
  8
0
 10
-210.25
 20
65
 11
-210.192
 21
65.4786
  0
LINE
  8
0
 10
-210.192
 20
65.4786
 11
-210.021
 21
65.9294
  0
LINE
  8
0
 10
-210.021
 20
65.9294
 11
-209.747
 21
66.3262
  0
LINE
  8
0
 10
-209.747
 20
66.3262
 11
-209.386
 21
66.646
  0
LINE
  8
0
 10
-209.386
 20
66.646
 11
-208.959
 21
66.87
  0
LINE
  8
0
 10
-208.959
 20
66.87
 11
-208.491
 21
66.9854
  0
LINE
  8
0
 10
-208.491
 20
66.9854
 11
-208.009
 21
66.9854
  0
LINE
  8
0
 10
-208.009
 20
66.9854
 11
-207.541
 21
66.87
  0
LINE
  8
0
 10
-207.541
 20
66.87
 11
-207.114
 21
66.646
  0
LINE
  8
0
 10
-207.114
 20
66.646
 11
-206.753
 21
66.3262
  0
LINE
  8
0
 10
-206.753
 20
66.3262
 11
-206.479
 21
65.9294
  0
LINE
  8
0
 10
-206.479
 20
65.9294
 11
-206.308
 21
65.4786
  0
LINE
  8
0
 10
-206.308
 20
65.4786
 11
-206.25
 21
65
  0
LINE
  8
0
 10
-206.25
 20
65
 11
-206.308
 21
64.5214
  0
LINE
  8
0
 10
-206.308
 20
64.5214
 11
-206.479
 21
64.0705
  0
LINE
  8
0
 10
-206.479
 20
64.0705
 11
-206.753
 21
63.6738
  0
LINE
  8
0
 10
-206.753
 20
63.6738
 11
-207.114
 21
63.354
  0
LINE
  8
0
 10
-207.114
 20
63.354
 11
-207.541
 21
63.13
  0
LINE
  8
0
 10
-207.541
 20
63.13
 11
-208.009
 21
63.0146
  0
LINE
  8
0
 10
-208.009
 20
63.0146
 11
-208.491
 21
63.0146
  0
LINE
  8
0
 10
-194.605
 20
52.065
 11
-194.999
 21
52.3369
  0
LINE
  8
0
 10
-194.999
 20
52.3369
 11
-195.221
 21
52.7607
  0
LINE
  8
0
 10
-195.221
 20
52.7607
 11
-195.221
 21
53.2393
  0
LINE
  8
0
 10
-195.221
 20
53.2393
 11
-194.999
 21
53.6631
  0
LINE
  8
0
 10
-194.999
 20
53.6631
 11
-194.605
 21
53.935
  0
LINE
  8
0
 10
-194.605
 20
53.935
 11
-194.129
 21
53.9927
  0
LINE
  8
0
 10
-194.129
 20
53.9927
 11
-193.682
 21
53.823
  0
LINE
  8
0
 10
-193.682
 20
53.823
 11
-193.365
 21
53.4647
  0
LINE
  8
0
 10
-193.365
 20
53.4647
 11
-193.25
 21
53
  0
LINE
  8
0
 10
-193.25
 20
53
 11
-193.365
 21
52.5353
  0
LINE
  8
0
 10
-193.365
 20
52.5353
 11
-193.682
 21
52.177
  0
LINE
  8
0
 10
-193.682
 20
52.177
 11
-194.129
 21
52.0073
  0
LINE
  8
0
 10
-194.129
 20
52.0073
 11
-194.605
 21
52.065
  0
LINE
  8
0
 10
149.395
 20
52.065
 11
149.001
 21
52.3369
  0
LINE
  8
0
 10
149.001
 20
52.3369
 11
148.779
 21
52.7607
  0
LINE
  8
0
 10
148.779
 20
52.7607
 11
148.779
 21
53.2393
  0
LINE
  8
0
 10
148.779
 20
53.2393
 11
149.001
 21
53.6631
  0
LINE
  8
0
 10
149.001
 20
53.6631
 11
149.395
 21
53.935
  0
LINE
  8
0
 10
149.395
 20
53.935
 11
149.871
 21
53.9927
  0
LINE
  8
0
 10
149.871
 20
53.9927
 11
150.318
 21
53.823
  0
LINE
  8
0
 10
150.318
 20
53.823
 11
150.635
 21
53.4647
  0
LINE
  8
0
 10
150.635
 20
53.4647
 11
150.75
 21
53
  0
LINE
  8
0
 10
150.75
 20
53
 11
150.635
 21
52.5353
  0
LINE
  8
0
 10
150.635
 20
52.5353
 11
150.318
 21
52.177
  0
LINE
  8
0
 10
150.318
 20
52.177
 11
149.871
 21
52.0073
  0
LINE
  8
0
 10
149.871
 20
52.0073
 11
149.395
 21
52.065
  0
LINE
  8
0
 10
181.395
 20
52.065
 11
181.001
 21
52.3369
  0
LINE
  8
0
 10
181.001
 20
52.3369
 11
180.779
 21
52.7607
  0
LINE
  8
0
 10
180.779
 20
52.7607
 11
180.779
 21
53.2393
  0
LINE
  8
0
 10
180.779
 20
53.2393
 11
181.001
 21
53.6631
  0
LINE
  8
0
 10
181.001
 20
53.6631
 11
181.395
 21
53.935
  0
LINE
  8
0
 10
181.395
 20
53.935
 11
181.871
 21
53.9927
  0
LINE
  8
0
 10
181.871
 20
53.9927
 11
182.318
 21
53.823
  0
LINE
  8
0
 10
182.318
 20
53.823
 11
182.635
 21
53.4647
  0
LINE
  8
0
 10
182.635
 20
53.4647
 11
182.75
 21
53
  0
LINE
  8
0
 10
182.75
 20
53
 11
182.635
 21
52.5353
  0
LINE
  8
0
 10
182.635
 20
52.5353
 11
182.318
 21
52.177
  0
LINE
  8
0
 10
182.318
 20
52.177
 11
181.871
 21
52.0073
  0
LINE
  8
0
 10
181.871
 20
52.0073
 11
181.395
 21
52.065
  0
LINE
  8
0
 10
-226.605
 20
52.065
 11
-226.999
 21
52.3369
  0
LINE
  8
0
 10
-226.999
 20
52.3369
 11
-227.221
 21
52.7607
  0
LINE
  8
0
 10
-227.221
 20
52.7607
 11
-227.221
 21
53.2393
  0
LINE
  8
0
 10
-227.221
 20
53.2393
 11
-226.999
 21
53.6631
  0
LINE
  8
0
 10
-226.999
 20
53.6631
 11
-226.605
 21
53.935
  0
LINE
  8
0
 10
-226.605
 20
53.935
 11
-226.129
 21
53.9927
  0
LINE
  8
0
 10
-226.129
 20
53.9927
 11
-225.682
 21
53.823
  0
LINE
  8
0
 10
-225.682
 20
53.823
 11
-225.365
 21
53.4647
  0
LINE
  8
0
 10
-225.365
 20
53.4647
 11
-225.25
 21
53
  0
LINE
  8
0
 10
-225.25
 20
53
 11
-225.365
 21
52.5353
  0
LINE
  8
0
 10
-225.365
 20
52.5353
 11
-225.682
 21
52.177
  0
LINE
  8
0
 10
-225.682
 20
52.177
 11
-226.129
 21
52.0073
  0
LINE
  8
0
 10
-226.129
 20
52.0073
 11
-226.605
 21
52.065
  0
LINE
  8
0
 10
-167.289
 20
35.739
 11
-167.713
 21
35.9615
  0
LINE
  8
0
 10
-167.713
 20
35.9615
 11
-167.985
 21
36.3554
  0
LINE
  8
0
 10
-167.985
 20
36.3554
 11
-168.043
 21
36.8305
  0
LINE
  8
0
 10
-168.043
 20
36.8305
 11
-167.873
 21
37.2781
  0
LINE
  8
0
 10
-167.873
 20
37.2781
 11
-167.515
 21
37.5954
  0
LINE
  8
0
 10
-167.515
 20
37.5954
 11
-167.05
 21
37.71
  0
LINE
  8
0
 10
-167.05
 20
37.71
 11
-166.585
 21
37.5954
  0
LINE
  8
0
 10
-166.585
 20
37.5954
 11
-166.227
 21
37.2781
  0
LINE
  8
0
 10
-166.227
 20
37.2781
 11
-166.057
 21
36.8305
  0
LINE
  8
0
 10
-166.057
 20
36.8305
 11
-166.115
 21
36.3554
  0
LINE
  8
0
 10
-166.115
 20
36.3554
 11
-166.387
 21
35.9615
  0
LINE
  8
0
 10
-166.387
 20
35.9615
 11
-166.811
 21
35.739
  0
LINE
  8
0
 10
-166.811
 20
35.739
 11
-167.289
 21
35.739
  0
LINE
  8
0
 10
130.085
 20
35.8245
 11
129.727
 21
36.1419
  0
LINE
  8
0
 10
129.727
 20
36.1419
 11
129.557
 21
36.5895
  0
LINE
  8
0
 10
129.557
 20
36.5895
 11
129.615
 21
37.0646
  0
LINE
  8
0
 10
129.615
 20
37.0646
 11
129.887
 21
37.4585
  0
LINE
  8
0
 10
129.887
 20
37.4585
 11
130.311
 21
37.6809
  0
LINE
  8
0
 10
130.311
 20
37.6809
 11
130.789
 21
37.6809
  0
LINE
  8
0
 10
130.789
 20
37.6809
 11
131.213
 21
37.4585
  0
LINE
  8
0
 10
131.213
 20
37.4585
 11
131.485
 21
37.0646
  0
LINE
  8
0
 10
131.485
 20
37.0646
 11
131.543
 21
36.5895
  0
LINE
  8
0
 10
131.543
 20
36.5895
 11
131.373
 21
36.1419
  0
LINE
  8
0
 10
131.373
 20
36.1419
 11
131.015
 21
35.8245
  0
LINE
  8
0
 10
131.015
 20
35.8245
 11
130.55
 21
35.71
  0
LINE
  8
0
 10
130.55
 20
35.71
 11
130.085
 21
35.8245
  0
LINE
  8
0
 10
232.011
 20
30.3291
 11
231.587
 21
30.5515
  0
LINE
  8
0
 10
231.587
 20
30.5515
 11
231.315
 21
30.9454
  0
LINE
  8
0
 10
231.315
 20
30.9454
 11
231.257
 21
31.4205
  0
LINE
  8
0
 10
231.257
 20
31.4205
 11
231.427
 21
31.8681
  0
LINE
  8
0
 10
231.427
 20
31.8681
 11
231.785
 21
32.1855
  0
LINE
  8
0
 10
231.785
 20
32.1855
 11
232.25
 21
32.3
  0
LINE
  8
0
 10
232.25
 20
32.3
 11
232.715
 21
32.1855
  0
LINE
  8
0
 10
232.715
 20
32.1855
 11
233.073
 21
31.8681
  0
LINE
  8
0
 10
233.073
 20
31.8681
 11
233.243
 21
31.4205
  0
LINE
  8
0
 10
233.243
 20
31.4205
 11
233.185
 21
30.9454
  0
LINE
  8
0
 10
233.185
 20
30.9454
 11
232.913
 21
30.5515
  0
LINE
  8
0
 10
232.913
 20
30.5515
 11
232.489
 21
30.3291
  0
LINE
  8
0
 10
232.489
 20
30.3291
 11
232.011
 21
30.3291
  0
LINE
  8
0
 10
163.262
 20
18.448
 11
162.793
 21
18.5903
  0
LINE
  8
0
 10
162.793
 20
18.5903
 11
162.361
 21
18.8213
  0
LINE
  8
0
 10
162.361
 20
18.8213
 11
161.982
 21
19.1322
  0
LINE
  8
0
 10
161.982
 20
19.1322
 11
161.671
 21
19.5111
  0
LINE
  8
0
 10
161.671
 20
19.5111
 11
161.44
 21
19.9433
  0
LINE
  8
0
 10
161.44
 20
19.9433
 11
161.298
 21
20.4123
  0
LINE
  8
0
 10
161.298
 20
20.4123
 11
161.25
 21
20.9
  0
LINE
  8
0
 10
161.25
 20
20.9
 11
161.298
 21
21.3877
  0
LINE
  8
0
 10
161.298
 20
21.3877
 11
161.44
 21
21.8567
  0
LINE
  8
0
 10
161.44
 20
21.8567
 11
161.671
 21
22.2889
  0
LINE
  8
0
 10
161.671
 20
22.2889
 11
161.982
 21
22.6678
  0
LINE
  8
0
 10
161.982
 20
22.6678
 11
162.361
 21
22.9787
  0
LINE
  8
0
 10
162.361
 20
22.9787
 11
162.793
 21
23.2097
  0
LINE
  8
0
 10
162.793
 20
23.2097
 11
163.262
 21
23.352
  0
LINE
  8
0
 10
163.262
 20
23.352
 11
163.75
 21
23.4
  0
LINE
  8
0
 10
163.75
 20
23.4
 11
164.238
 21
23.352
  0
LINE
  8
0
 10
164.238
 20
23.352
 11
164.707
 21
23.2097
  0
LINE
  8
0
 10
164.707
 20
23.2097
 11
165.139
 21
22.9787
  0
LINE
  8
0
 10
165.139
 20
22.9787
 11
165.518
 21
22.6678
  0
LINE
  8
0
 10
165.518
 20
22.6678
 11
165.829
 21
22.2889
  0
LINE
  8
0
 10
165.829
 20
22.2889
 11
166.06
 21
21.8567
  0
LINE
  8
0
 10
166.06
 20
21.8567
 11
166.202
 21
21.3877
  0
LINE
  8
0
 10
166.202
 20
21.3877
 11
166.25
 21
20.9
  0
LINE
  8
0
 10
166.25
 20
20.9
 11
166.202
 21
20.4123
  0
LINE
  8
0
 10
166.202
 20
20.4123
 11
166.06
 21
19.9433
  0
LINE
  8
0
 10
166.06
 20
19.9433
 11
165.829
 21
19.5111
  0
LINE
  8
0
 10
165.829
 20
19.5111
 11
165.518
 21
19.1322
  0
LINE
  8
0
 10
165.518
 20
19.1322
 11
165.139
 21
18.8213
  0
LINE
  8
0
 10
165.139
 20
18.8213
 11
164.707
 21
18.5903
  0
LINE
  8
0
 10
164.707
 20
18.5903
 11
164.238
 21
18.448
  0
LINE
  8
0
 10
164.238
 20
18.448
 11
163.75
 21
18.4
  0
LINE
  8
0
 10
163.75
 20
18.4
 11
163.262
 21
18.448
  0
LINE
  8
0
 10
-200.118
 20
5.04803
 11
-200.587
 21
5.19029
  0
LINE
  8
0
 10
-200.587
 20
5.19029
 11
-201.019
 21
5.42133
  0
LINE
  8
0
 10
-201.019
 20
5.42133
 11
-201.398
 21
5.73222
  0
LINE
  8
0
 10
-201.398
 20
5.73222
 11
-201.709
 21
6.11107
  0
LINE
  8
0
 10
-201.709
 20
6.11107
 11
-201.94
 21
6.54329
  0
LINE
  8
0
 10
-201.94
 20
6.54329
 11
-202.082
 21
7.01227
  0
LINE
  8
0
 10
-202.082
 20
7.01227
 11
-202.13
 21
7.5
  0
LINE
  8
0
 10
-202.13
 20
7.5
 11
-202.082
 21
7.98772
  0
LINE
  8
0
 10
-202.082
 20
7.98772
 11
-201.94
 21
8.4567
  0
LINE
  8
0
 10
-201.94
 20
8.4567
 11
-201.709
 21
8.88892
  0
LINE
  8
0
 10
-201.709
 20
8.88892
 11
-201.398
 21
9.26776
  0
LINE
  8
0
 10
-201.398
 20
9.26776
 11
-201.019
 21
9.57866
  0
LINE
  8
0
 10
-201.019
 20
9.57866
 11
-200.587
 21
9.80969
  0
LINE
  8
0
 10
-200.587
 20
9.80969
 11
-200.118
 21
9.95195
  0
LINE
  8
0
 10
-200.118
 20
9.95195
 11
-199.63
 21
10
  0
LINE
  8
0
 10
-199.63
 20
10
 11
-199.142
 21
9.95195
  0
LINE
  8
0
 10
-199.142
 20
9.95195
 11
-198.673
 21
9.80969
  0
LINE
  8
0
 10
-198.673
 20
9.80969
 11
-198.241
 21
9.57866
  0
LINE
  8
0
 10
-198.241
 20
9.57866
 11
-197.862
 21
9.26776
  0
LINE
  8
0
 10
-197.862
 20
9.26776
 11
-197.551
 21
8.88892
  0
LINE
  8
0
 10
-197.551
 20
8.88892
 11
-197.32
 21
8.4567
  0
LINE
  8
0
 10
-197.32
 20
8.4567
 11
-197.178
 21
7.98772
  0
LINE
  8
0
 10
-197.178
 20
7.98772
 11
-197.13
 21
7.5
  0
LINE
  8
0
 10
-197.13
 20
7.5
 11
-197.178
 21
7.01227
  0
LINE
  8
0
 10
-197.178
 20
7.01227
 11
-197.32
 21
6.54329
  0
LINE
  8
0
 10
-197.32
 20
6.54329
 11
-197.551
 21
6.11107
  0
LINE
  8
0
 10
-197.551
 20
6.11107
 11
-197.862
 21
5.73222
  0
LINE
  8
0
 10
-197.862
 20
5.73222
 11
-198.241
 21
5.42133
  0
LINE
  8
0
 10
-198.241
 20
5.42133
 11
-198.673
 21
5.19029
  0
LINE
  8
0
 10
-198.673
 20
5.19029
 11
-199.142
 21
5.04803
  0
LINE
  8
0
 10
-199.142
 20
5.04803
 11
-199.63
 21
5
  0
LINE
  8
0
 10
-199.63
 20
5
 11
-200.118
 21
5.04803
  0
LINE
  8
0
 10
-212.398
 20
7.37701
 11
-212.715
 21
7.73528
  0
LINE
  8
0
 10
-212.715
 20
7.73528
 11
-212.83
 21
8.2
  0
LINE
  8
0
 10
-212.83
 20
8.2
 11
-212.715
 21
8.66472
  0
LINE
  8
0
 10
-212.715
 20
8.66472
 11
-212.398
 21
9.02298
  0
LINE
  8
0
 10
-212.398
 20
9.02298
 11
-211.951
 21
9.1927
  0
LINE
  8
0
 10
-211.951
 20
9.1927
 11
-211.475
 21
9.13501
  0
LINE
  8
0
 10
-211.475
 20
9.13501
 11
-211.081
 21
8.86311
  0
LINE
  8
0
 10
-211.081
 20
8.86311
 11
-210.859
 21
8.4393
  0
LINE
  8
0
 10
-210.859
 20
8.4393
 11
-210.859
 21
7.96068
  0
LINE
  8
0
 10
-210.859
 20
7.96068
 11
-211.081
 21
7.53687
  0
LINE
  8
0
 10
-211.081
 20
7.53687
 11
-211.475
 21
7.26497
  0
LINE
  8
0
 10
-211.475
 20
7.26497
 11
-211.951
 21
7.20729
  0
LINE
  8
0
 10
-211.951
 20
7.20729
 11
-212.398
 21
7.37701
  0
LINE
  8
0
 10
232.482
 20
7.37701
 11
232.165
 21
7.73528
  0
LINE
  8
0
 10
232.165
 20
7.73528
 11
232.05
 21
8.2
  0
LINE
  8
0
 10
232.05
 20
8.2
 11
232.165
 21
8.66472
  0
LINE
  8
0
 10
232.165
 20
8.66472
 11
232.482
 21
9.02298
  0
LINE
  8
0
 10
232.482
 20
9.02298
 11
232.929
 21
9.1927
  0
LINE
  8
0
 10
232.929
 20
9.1927
 11
233.405
 21
9.13501
  0
LINE
  8
0
 10
233.405
 20
9.13501
 11
233.799
 21
8.86311
  0
LINE
  8
0
 10
233.799
 20
8.86311
 11
234.021
 21
8.4393
  0
LINE
  8
0
 10
234.021
 20
8.4393
 11
234.021
 21
7.96068
  0
LINE
  8
0
 10
234.021
 20
7.96068
 11
233.799
 21
7.53687
  0
LINE
  8
0
 10
233.799
 20
7.53687
 11
233.405
 21
7.26497
  0
LINE
  8
0
 10
233.405
 20
7.26497
 11
232.929
 21
7.20729
  0
LINE
  8
0
 10
232.929
 20
7.20729
 11
232.482
 21
7.37701
  0
LINE
  8
0
 10
-233.618
 20
7.37701
 11
-233.935
 21
7.73528
  0
LINE
  8
0
 10
-233.935
 20
7.73528
 11
-234.05
 21
8.2
  0
LINE
  8
0
 10
-234.05
 20
8.2
 11
-233.935
 21
8.66472
  0
LINE
  8
0
 10
-233.935
 20
8.66472
 11
-233.618
 21
9.02298
  0
LINE
  8
0
 10
-233.618
 20
9.02298
 11
-233.171
 21
9.1927
  0
LINE
  8
0
 10
-233.171
 20
9.1927
 11
-232.695
 21
9.13501
  0
LINE
  8
0
 10
-232.695
 20
9.13501
 11
-232.301
 21
8.86311
  0
LINE
  8
0
 10
-232.301
 20
8.86311
 11
-232.079
 21
8.4393
  0
LINE
  8
0
 10
-232.079
 20
8.4393
 11
-232.079
 21
7.96068
  0
LINE
  8
0
 10
-232.079
 20
7.96068
 11
-232.301
 21
7.53687
  0
LINE
  8
0
 10
-232.301
 20
7.53687
 11
-232.695
 21
7.26497
  0
LINE
  8
0
 10
-232.695
 20
7.26497
 11
-233.171
 21
7.20729
  0
LINE
  8
0
 10
-233.171
 20
7.20729
 11
-233.618
 21
7.37701
  0
LINE
  8
0
 10
211.262
 20
7.37701
 11
210.945
 21
7.73528
  0
LINE
  8
0
 10
210.945
 20
7.73528
 11
210.83
 21
8.2
  0
LINE
  8
0
 10
210.83
 20
8.2
 11
210.945
 21
8.66472
  0
LINE
  8
0
 10
210.945
 20
8.66472
 11
211.262
 21
9.02298
  0
LINE
  8
0
 10
211.262
 20
9.02298
 11
211.709
 21
9.1927
  0
LINE
  8
0
 10
211.709
 20
9.1927
 11
212.185
 21
9.13501
  0
LINE
  8
0
 10
212.185
 20
9.13501
 11
212.579
 21
8.86311
  0
LINE
  8
0
 10
212.579
 20
8.86311
 11
212.801
 21
8.4393
  0
LINE
  8
0
 10
212.801
 20
8.4393
 11
212.801
 21
7.96068
  0
LINE
  8
0
 10
212.801
 20
7.96068
 11
212.579
 21
7.53687
  0
LINE
  8
0
 10
212.579
 20
7.53687
 11
212.185
 21
7.26497
  0
LINE
  8
0
 10
212.185
 20
7.26497
 11
211.709
 21
7.20729
  0
LINE
  8
0
 10
211.709
 20
7.20729
 11
211.262
 21
7.37701
  0
LINE
  8
0
 10
181.102
 20
7.37701
 11
180.785
 21
7.73528
  0
LINE
  8
0
 10
180.785
 20
7.73528
 11
180.67
 21
8.2
  0
LINE
  8
0
 10
180.67
 20
8.2
 11
180.785
 21
8.66472
  0
LINE
  8
0
 10
180.785
 20
8.66472
 11
181.102
 21
9.02298
  0
LINE
  8
0
 10
181.102
 20
9.02298
 11
181.549
 21
9.1927
  0
LINE
  8
0
 10
181.549
 20
9.1927
 11
182.025
 21
9.13501
  0
LINE
  8
0
 10
182.025
 20
9.13501
 11
182.419
 21
8.86311
  0
LINE
  8
0
 10
182.419
 20
8.86311
 11
182.641
 21
8.4393
  0
LINE
  8
0
 10
182.641
 20
8.4393
 11
182.641
 21
7.96068
  0
LINE
  8
0
 10
182.641
 20
7.96068
 11
182.419
 21
7.53687
  0
LINE
  8
0
 10
182.419
 20
7.53687
 11
182.025
 21
7.26497
  0
LINE
  8
0
 10
182.025
 20
7.26497
 11
181.549
 21
7.20729
  0
LINE
  8
0
 10
181.549
 20
7.20729
 11
181.102
 21
7.37701
  0
LINE
  8
0
 10
159.882
 20
7.37701
 11
159.565
 21
7.73528
  0
LINE
  8
0
 10
159.565
 20
7.73528
 11
159.45
 21
8.2
  0
LINE
  8
0
 10
159.45
 20
8.2
 11
159.565
 21
8.66472
  0
LINE
  8
0
 10
159.565
 20
8.66472
 11
159.882
 21
9.02298
  0
LINE
  8
0
 10
159.882
 20
9.02298
 11
160.329
 21
9.1927
  0
LINE
  8
0
 10
160.329
 20
9.1927
 11
160.805
 21
9.13501
  0
LINE
  8
0
 10
160.805
 20
9.13501
 11
161.199
 21
8.86311
  0
LINE
  8
0
 10
161.199
 20
8.86311
 11
161.421
 21
8.4393
  0
LINE
  8
0
 10
161.421
 20
8.4393
 11
161.421
 21
7.96068
  0
LINE
  8
0
 10
161.421
 20
7.96068
 11
161.199
 21
7.53687
  0
LINE
  8
0
 10
161.199
 20
7.53687
 11
160.805
 21
7.26497
  0
LINE
  8
0
 10
160.805
 20
7.26497
 11
160.329
 21
7.20729
  0
LINE
  8
0
 10
160.329
 20
7.20729
 11
159.882
 21
7.37701
  0
LINE
  8
0
 10
-142.018
 20
7.37701
 11
-142.335
 21
7.73528
  0
LINE
  8
0
 10
-142.335
 20
7.73528
 11
-142.45
 21
8.2
  0
LINE
  8
0
 10
-142.45
 20
8.2
 11
-142.335
 21
8.66472
  0
LINE
  8
0
 10
-142.335
 20
8.66472
 11
-142.018
 21
9.02298
  0
LINE
  8
0
 10
-142.018
 20
9.02298
 11
-141.571
 21
9.1927
  0
LINE
  8
0
 10
-141.571
 20
9.1927
 11
-141.095
 21
9.13501
  0
LINE
  8
0
 10
-141.095
 20
9.13501
 11
-140.701
 21
8.86311
  0
LINE
  8
0
 10
-140.701
 20
8.86311
 11
-140.479
 21
8.4393
  0
LINE
  8
0
 10
-140.479
 20
8.4393
 11
-140.479
 21
7.96068
  0
LINE
  8
0
 10
-140.479
 20
7.96068
 11
-140.701
 21
7.53687
  0
LINE
  8
0
 10
-140.701
 20
7.53687
 11
-141.095
 21
7.26497
  0
LINE
  8
0
 10
-141.095
 20
7.26497
 11
-141.571
 21
7.20729
  0
LINE
  8
0
 10
-141.571
 20
7.20729
 11
-142.018
 21
7.37701
  0
LINE
  8
0
 10
-163.238
 20
7.37701
 11
-163.555
 21
7.73528
  0
LINE
  8
0
 10
-163.555
 20
7.73528
 11
-163.67
 21
8.2
  0
LINE
  8
0
 10
-163.67
 20
8.2
 11
-163.555
 21
8.66472
  0
LINE
  8
0
 10
-163.555
 20
8.66472
 11
-163.238
 21
9.02298
  0
LINE
  8
0
 10
-163.238
 20
9.02298
 11
-162.791
 21
9.1927
  0
LINE
  8
0
 10
-162.791
 20
9.1927
 11
-162.315
 21
9.13501
  0
LINE
  8
0
 10
-162.315
 20
9.13501
 11
-161.921
 21
8.86311
  0
LINE
  8
0
 10
-161.921
 20
8.86311
 11
-161.699
 21
8.4393
  0
LINE
  8
0
 10
-161.699
 20
8.4393
 11
-161.699
 21
7.96068
  0
LINE
  8
0
 10
-161.699
 20
7.96068
 11
-161.921
 21
7.53687
  0
LINE
  8
0
 10
-161.921
 20
7.53687
 11
-162.315
 21
7.26497
  0
LINE
  8
0
 10
-162.315
 20
7.26497
 11
-162.791
 21
7.20729
  0
LINE
  8
0
 10
-162.791
 20
7.20729
 11
-163.238
 21
7.37701
  0
LINE
  8
0
 10
113.623
 20
282.124
 11
114.117
 21
282.186
  0
LINE
  8
0
 10
114.117
 20
282.186
 11
114.601
 21
282.296
  0
LINE
  8
0
 10
114.601
 20
282.296
 11
115.073
 21
282.455
  0
LINE
  8
0
 10
115.073
 20
282.455
 11
115.526
 21
282.66
  0
LINE
  8
0
 10
115.526
 20
282.66
 11
115.957
 21
282.908
  0
LINE
  8
0
 10
115.957
 20
282.908
 11
116.361
 21
283.199
  0
LINE
  8
0
 10
116.361
 20
283.199
 11
116.734
 21
283.528
  0
LINE
  8
0
 10
116.734
 20
283.528
 11
117.073
 21
283.892
  0
LINE
  8
0
 10
117.073
 20
283.892
 11
117.373
 21
284.289
  0
LINE
  8
0
 10
117.373
 20
284.289
 11
117.632
 21
284.714
  0
LINE
  8
0
 10
117.632
 20
284.714
 11
117.848
 21
285.162
  0
LINE
  8
0
 10
117.848
 20
285.162
 11
118.018
 21
285.629
  0
LINE
  8
0
 10
118.018
 20
285.629
 11
118.141
 21
286.111
  0
LINE
  8
0
 10
118.141
 20
286.111
 11
118.215
 21
286.603
  0
LINE
  8
0
 10
118.215
 20
286.603
 11
118.24
 21
287.1
  0
LINE
  8
0
 10
118.24
 20
287.1
 11
118.215
 21
287.597
  0
LINE
  8
0
 10
118.215
 20
287.597
 11
118.141
 21
288.089
  0
LINE
  8
0
 10
118.141
 20
288.089
 11
118.018
 21
288.571
  0
LINE
  8
0
 10
118.018
 20
288.571
 11
117.848
 21
289.038
  0
LINE
  8
0
 10
117.848
 20
289.038
 11
117.632
 21
289.486
  0
LINE
  8
0
 10
117.632
 20
289.486
 11
117.373
 21
289.911
  0
LINE
  8
0
 10
117.373
 20
289.911
 11
117.073
 21
290.307
  0
LINE
  8
0
 10
117.073
 20
290.307
 11
116.734
 21
290.672
  0
LINE
  8
0
 10
116.734
 20
290.672
 11
116.361
 21
291.001
  0
LINE
  8
0
 10
116.361
 20
291.001
 11
115.957
 21
291.292
  0
LINE
  8
0
 10
115.957
 20
291.292
 11
115.526
 21
291.54
  0
LINE
  8
0
 10
115.526
 20
291.54
 11
115.073
 21
291.745
  0
LINE
  8
0
 10
115.073
 20
291.745
 11
114.601
 21
291.903
  0
LINE
  8
0
 10
114.601
 20
291.903
 11
114.117
 21
292.014
  0
LINE
  8
0
 10
114.117
 20
292.014
 11
113.623
 21
292.076
  0
LINE
  8
0
 10
113.623
 20
292.076
 11
113.126
 21
292.088
  0
LINE
  8
0
 10
113.126
 20
292.088
 11
112.63
 21
292.051
  0
LINE
  8
0
 10
112.63
 20
292.051
 11
112.14
 21
291.965
  0
LINE
  8
0
 10
112.14
 20
291.965
 11
111.661
 21
291.83
  0
LINE
  8
0
 10
111.661
 20
291.83
 11
111.198
 21
291.648
  0
LINE
  8
0
 10
111.198
 20
291.648
 11
110.755
 21
291.421
  0
LINE
  8
0
 10
110.755
 20
291.421
 11
110.337
 21
291.152
  0
LINE
  8
0
 10
110.337
 20
291.152
 11
109.948
 21
290.841
  0
LINE
  8
0
 10
109.948
 20
290.841
 11
109.592
 21
290.494
  0
LINE
  8
0
 10
109.592
 20
290.494
 11
109.272
 21
290.113
  0
LINE
  8
0
 10
109.272
 20
290.113
 11
108.992
 21
289.702
  0
LINE
  8
0
 10
108.992
 20
289.702
 11
108.754
 21
289.265
  0
LINE
  8
0
 10
108.754
 20
289.265
 11
108.561
 21
288.807
  0
LINE
  8
0
 10
108.561
 20
288.807
 11
108.414
 21
288.331
  0
LINE
  8
0
 10
108.414
 20
288.331
 11
108.316
 21
287.844
  0
LINE
  8
0
 10
108.316
 20
287.844
 11
108.266
 21
287.349
  0
LINE
  8
0
 10
108.266
 20
287.349
 11
108.266
 21
286.851
  0
LINE
  8
0
 10
108.266
 20
286.851
 11
108.316
 21
286.356
  0
LINE
  8
0
 10
108.316
 20
286.356
 11
108.414
 21
285.869
  0
LINE
  8
0
 10
108.414
 20
285.869
 11
108.561
 21
285.393
  0
LINE
  8
0
 10
108.561
 20
285.393
 11
108.754
 21
284.935
  0
LINE
  8
0
 10
108.754
 20
284.935
 11
108.992
 21
284.498
  0
LINE
  8
0
 10
108.992
 20
284.498
 11
109.272
 21
284.087
  0
LINE
  8
0
 10
109.272
 20
284.087
 11
109.592
 21
283.706
  0
LINE
  8
0
 10
109.592
 20
283.706
 11
109.948
 21
283.359
  0
LINE
  8
0
 10
109.948
 20
283.359
 11
110.337
 21
283.048
  0
LINE
  8
0
 10
110.337
 20
283.048
 11
110.755
 21
282.779
  0
LINE
  8
0
 10
110.755
 20
282.779
 11
111.198
 21
282.552
  0
LINE
  8
0
 10
111.198
 20
282.552
 11
111.661
 21
282.37
  0
LINE
  8
0
 10
111.661
 20
282.37
 11
112.14
 21
282.235
  0
LINE
  8
0
 10
112.14
 20
282.235
 11
112.63
 21
282.149
  0
LINE
  8
0
 10
112.63
 20
282.149
 11
113.126
 21
282.112
  0
LINE
  8
0
 10
113.126
 20
282.112
 11
113.623
 21
282.124
  0
LINE
  8
0
 10
-126.377
 20
282.124
 11
-125.883
 21
282.186
  0
LINE
  8
0
 10
-125.883
 20
282.186
 11
-125.398
 21
282.296
  0
LINE
  8
0
 10
-125.398
 20
282.296
 11
-124.927
 21
282.455
  0
LINE
  8
0
 10
-124.927
 20
282.455
 11
-124.473
 21
282.66
  0
LINE
  8
0
 10
-124.473
 20
282.66
 11
-124.043
 21
282.908
  0
LINE
  8
0
 10
-124.043
 20
282.908
 11
-123.639
 21
283.199
  0
LINE
  8
0
 10
-123.639
 20
283.199
 11
-123.266
 21
283.528
  0
LINE
  8
0
 10
-123.266
 20
283.528
 11
-122.927
 21
283.892
  0
LINE
  8
0
 10
-122.927
 20
283.892
 11
-122.627
 21
284.289
  0
LINE
  8
0
 10
-122.627
 20
284.289
 11
-122.368
 21
284.714
  0
LINE
  8
0
 10
-122.368
 20
284.714
 11
-122.152
 21
285.162
  0
LINE
  8
0
 10
-122.152
 20
285.162
 11
-121.982
 21
285.629
  0
LINE
  8
0
 10
-121.982
 20
285.629
 11
-121.859
 21
286.111
  0
LINE
  8
0
 10
-121.859
 20
286.111
 11
-121.785
 21
286.603
  0
LINE
  8
0
 10
-121.785
 20
286.603
 11
-121.76
 21
287.1
  0
LINE
  8
0
 10
-121.76
 20
287.1
 11
-121.785
 21
287.597
  0
LINE
  8
0
 10
-121.785
 20
287.597
 11
-121.859
 21
288.089
  0
LINE
  8
0
 10
-121.859
 20
288.089
 11
-121.982
 21
288.571
  0
LINE
  8
0
 10
-121.982
 20
288.571
 11
-122.152
 21
289.038
  0
LINE
  8
0
 10
-122.152
 20
289.038
 11
-122.368
 21
289.486
  0
LINE
  8
0
 10
-122.368
 20
289.486
 11
-122.627
 21
289.911
  0
LINE
  8
0
 10
-122.627
 20
289.911
 11
-122.927
 21
290.307
  0
LINE
  8
0
 10
-122.927
 20
290.307
 11
-123.266
 21
290.672
  0
LINE
  8
0
 10
-123.266
 20
290.672
 11
-123.639
 21
291.001
  0
LINE
  8
0
 10
-123.639
 20
291.001
 11
-124.043
 21
291.292
  0
LINE
  8
0
 10
-124.043
 20
291.292
 11
-124.473
 21
291.54
  0
LINE
  8
0
 10
-124.473
 20
291.54
 11
-124.927
 21
291.745
  0
LINE
  8
0
 10
-124.927
 20
291.745
 11
-125.398
 21
291.903
  0
LINE
  8
0
 10
-125.398
 20
291.903
 11
-125.883
 21
292.014
  0
LINE
  8
0
 10
-125.883
 20
292.014
 11
-126.377
 21
292.076
  0
LINE
  8
0
 10
-126.377
 20
292.076
 11
-126.874
 21
292.088
  0
LINE
  8
0
 10
-126.874
 20
292.088
 11
-127.37
 21
292.051
  0
LINE
  8
0
 10
-127.37
 20
292.051
 11
-127.86
 21
291.965
  0
LINE
  8
0
 10
-127.86
 20
291.965
 11
-128.339
 21
291.83
  0
LINE
  8
0
 10
-128.339
 20
291.83
 11
-128.802
 21
291.648
  0
LINE
  8
0
 10
-128.802
 20
291.648
 11
-129.245
 21
291.421
  0
LINE
  8
0
 10
-129.245
 20
291.421
 11
-129.663
 21
291.152
  0
LINE
  8
0
 10
-129.663
 20
291.152
 11
-130.052
 21
290.841
  0
LINE
  8
0
 10
-130.052
 20
290.841
 11
-130.408
 21
290.494
  0
LINE
  8
0
 10
-130.408
 20
290.494
 11
-130.728
 21
290.113
  0
LINE
  8
0
 10
-130.728
 20
290.113
 11
-131.008
 21
289.702
  0
LINE
  8
0
 10
-131.008
 20
289.702
 11
-131.246
 21
289.265
  0
LINE
  8
0
 10
-131.246
 20
289.265
 11
-131.439
 21
288.807
  0
LINE
  8
0
 10
-131.439
 20
288.807
 11
-131.586
 21
288.331
  0
LINE
  8
0
 10
-131.586
 20
288.331
 11
-131.684
 21
287.844
  0
LINE
  8
0
 10
-131.684
 20
287.844
 11
-131.734
 21
287.349
  0
LINE
  8
0
 10
-131.734
 20
287.349
 11
-131.734
 21
286.851
  0
LINE
  8
0
 10
-131.734
 20
286.851
 11
-131.684
 21
286.356
  0
LINE
  8
0
 10
-131.684
 20
286.356
 11
-131.586
 21
285.869
  0
LINE
  8
0
 10
-131.586
 20
285.869
 11
-131.439
 21
285.393
  0
LINE
  8
0
 10
-131.439
 20
285.393
 11
-131.246
 21
284.935
  0
LINE
  8
0
 10
-131.246
 20
284.935
 11
-131.008
 21
284.498
  0
LINE
  8
0
 10
-131.008
 20
284.498
 11
-130.728
 21
284.087
  0
LINE
  8
0
 10
-130.728
 20
284.087
 11
-130.408
 21
283.706
  0
LINE
  8
0
 10
-130.408
 20
283.706
 11
-130.052
 21
283.359
  0
LINE
  8
0
 10
-130.052
 20
283.359
 11
-129.663
 21
283.048
  0
LINE
  8
0
 10
-129.663
 20
283.048
 11
-129.245
 21
282.779
  0
LINE
  8
0
 10
-129.245
 20
282.779
 11
-128.802
 21
282.552
  0
LINE
  8
0
 10
-128.802
 20
282.552
 11
-128.339
 21
282.37
  0
LINE
  8
0
 10
-128.339
 20
282.37
 11
-127.86
 21
282.235
  0
LINE
  8
0
 10
-127.86
 20
282.235
 11
-127.37
 21
282.149
  0
LINE
  8
0
 10
-127.37
 20
282.149
 11
-126.874
 21
282.112
  0
LINE
  8
0
 10
-126.874
 20
282.112
 11
-126.377
 21
282.124
  0
ENDSEC
  0
SECTION
  2
OBJECTS
  0
DICTIONARY
  0
ENDSEC
  0
EOF
