  0
SECTION
  2
BLOCKS
  0
ENDSEC
  0
SECTION
  2
ENTITIES
  0
LINE
  8
0
 10
395
 20
164.5
 11
0
 21
164.5
  0
LINE
  8
0
 10
0
 20
164.5
 11
0
 21
0
  0
LINE
  8
0
 10
0
 20
0
 11
395
 21
0
  0
LINE
  8
0
 10
395
 20
0
 11
395
 21
164.5
  0
LINE
  8
0
 10
7.96068
 20
153.829
 11
7.53687
 21
154.051
  0
LINE
  8
0
 10
7.53687
 20
154.051
 11
7.26497
 21
154.445
  0
LINE
  8
0
 10
7.26497
 20
154.445
 11
7.20729
 21
154.921
  0
LINE
  8
0
 10
7.20729
 20
154.921
 11
7.37701
 21
155.368
  0
LINE
  8
0
 10
7.37701
 20
155.368
 11
7.73528
 21
155.685
  0
LINE
  8
0
 10
7.73528
 20
155.685
 11
8.2
 21
155.8
  0
LINE
  8
0
 10
8.2
 20
155.8
 11
8.66472
 21
155.685
  0
LINE
  8
0
 10
8.66472
 20
155.685
 11
9.02298
 21
155.368
  0
LINE
  8
0
 10
9.02298
 20
155.368
 11
9.1927
 21
154.921
  0
LINE
  8
0
 10
9.1927
 20
154.921
 11
9.13501
 21
154.445
  0
LINE
  8
0
 10
9.13501
 20
154.445
 11
8.86311
 21
154.051
  0
LINE
  8
0
 10
8.86311
 20
154.051
 11
8.4393
 21
153.829
  0
LINE
  8
0
 10
8.4393
 20
153.829
 11
7.96068
 21
153.829
  0
LINE
  8
0
 10
7.96068
 20
132.609
 11
7.53687
 21
132.831
  0
LINE
  8
0
 10
7.53687
 20
132.831
 11
7.26497
 21
133.225
  0
LINE
  8
0
 10
7.26497
 20
133.225
 11
7.20729
 21
133.701
  0
LINE
  8
0
 10
7.20729
 20
133.701
 11
7.37701
 21
134.148
  0
LINE
  8
0
 10
7.37701
 20
134.148
 11
7.73528
 21
134.465
  0
LINE
  8
0
 10
7.73528
 20
134.465
 11
8.2
 21
134.58
  0
LINE
  8
0
 10
8.2
 20
134.58
 11
8.66472
 21
134.465
  0
LINE
  8
0
 10
8.66472
 20
134.465
 11
9.02298
 21
134.148
  0
LINE
  8
0
 10
9.02298
 20
134.148
 11
9.1927
 21
133.701
  0
LINE
  8
0
 10
9.1927
 20
133.701
 11
9.13501
 21
133.225
  0
LINE
  8
0
 10
9.13501
 20
133.225
 11
8.86311
 21
132.831
  0
LINE
  8
0
 10
8.86311
 20
132.831
 11
8.4393
 21
132.609
  0
LINE
  8
0
 10
8.4393
 20
132.609
 11
7.96068
 21
132.609
  0
LINE
  8
0
 10
55.7605
 20
92.0052
 11
55.2955
 21
92.1679
  0
LINE
  8
0
 10
55.2955
 20
92.1679
 11
54.8783
 21
92.43
  0
LINE
  8
0
 10
54.8783
 20
92.43
 11
54.53
 21
92.7783
  0
LINE
  8
0
 10
54.53
 20
92.7783
 11
54.2679
 21
93.1954
  0
LINE
  8
0
 10
54.2679
 20
93.1954
 11
54.1051
 21
93.6604
  0
LINE
  8
0
 10
54.1051
 20
93.6604
 11
54.05
 21
94.15
  0
LINE
  8
0
 10
54.05
 20
94.15
 11
54.1051
 21
94.6395
  0
LINE
  8
0
 10
54.1051
 20
94.6395
 11
54.2679
 21
95.1045
  0
LINE
  8
0
 10
54.2679
 20
95.1045
 11
54.53
 21
95.5217
  0
LINE
  8
0
 10
54.53
 20
95.5217
 11
54.8783
 21
95.87
  0
LINE
  8
0
 10
54.8783
 20
95.87
 11
55.2955
 21
96.1321
  0
LINE
  8
0
 10
55.2955
 20
96.1321
 11
55.7605
 21
96.2948
  0
LINE
  8
0
 10
55.7605
 20
96.2948
 11
56.25
 21
96.35
  0
LINE
  8
0
 10
56.25
 20
96.35
 11
56.7395
 21
96.2948
  0
LINE
  8
0
 10
56.7395
 20
96.2948
 11
57.2045
 21
96.1321
  0
LINE
  8
0
 10
57.2045
 20
96.1321
 11
57.6217
 21
95.87
  0
LINE
  8
0
 10
57.6217
 20
95.87
 11
57.97
 21
95.5217
  0
LINE
  8
0
 10
57.97
 20
95.5217
 11
58.2321
 21
95.1045
  0
LINE
  8
0
 10
58.2321
 20
95.1045
 11
58.3948
 21
94.6395
  0
LINE
  8
0
 10
58.3948
 20
94.6395
 11
58.45
 21
94.15
  0
LINE
  8
0
 10
58.45
 20
94.15
 11
58.3948
 21
93.6604
  0
LINE
  8
0
 10
58.3948
 20
93.6604
 11
58.2321
 21
93.1954
  0
LINE
  8
0
 10
58.2321
 20
93.1954
 11
57.97
 21
92.7783
  0
LINE
  8
0
 10
57.97
 20
92.7783
 11
57.6217
 21
92.43
  0
LINE
  8
0
 10
57.6217
 20
92.43
 11
57.2045
 21
92.1679
  0
LINE
  8
0
 10
57.2045
 20
92.1679
 11
56.7395
 21
92.0052
  0
LINE
  8
0
 10
56.7395
 20
92.0052
 11
56.25
 21
91.95
  0
LINE
  8
0
 10
56.25
 20
91.95
 11
55.7605
 21
92.0052
  0
LINE
  8
0
 10
127.26
 20
92.0052
 11
126.795
 21
92.1679
  0
LINE
  8
0
 10
126.795
 20
92.1679
 11
126.378
 21
92.43
  0
LINE
  8
0
 10
126.378
 20
92.43
 11
126.03
 21
92.7783
  0
LINE
  8
0
 10
126.03
 20
92.7783
 11
125.768
 21
93.1954
  0
LINE
  8
0
 10
125.768
 20
93.1954
 11
125.605
 21
93.6604
  0
LINE
  8
0
 10
125.605
 20
93.6604
 11
125.55
 21
94.15
  0
LINE
  8
0
 10
125.55
 20
94.15
 11
125.605
 21
94.6395
  0
LINE
  8
0
 10
125.605
 20
94.6395
 11
125.768
 21
95.1045
  0
LINE
  8
0
 10
125.768
 20
95.1045
 11
126.03
 21
95.5217
  0
LINE
  8
0
 10
126.03
 20
95.5217
 11
126.378
 21
95.87
  0
LINE
  8
0
 10
126.378
 20
95.87
 11
126.795
 21
96.1321
  0
LINE
  8
0
 10
126.795
 20
96.1321
 11
127.26
 21
96.2948
  0
LINE
  8
0
 10
127.26
 20
96.2948
 11
127.75
 21
96.35
  0
LINE
  8
0
 10
127.75
 20
96.35
 11
128.24
 21
96.2948
  0
LINE
  8
0
 10
128.24
 20
96.2948
 11
128.705
 21
96.1321
  0
LINE
  8
0
 10
128.705
 20
96.1321
 11
129.122
 21
95.87
  0
LINE
  8
0
 10
129.122
 20
95.87
 11
129.47
 21
95.5217
  0
LINE
  8
0
 10
129.47
 20
95.5217
 11
129.732
 21
95.1045
  0
LINE
  8
0
 10
129.732
 20
95.1045
 11
129.895
 21
94.6395
  0
LINE
  8
0
 10
129.895
 20
94.6395
 11
129.95
 21
94.15
  0
LINE
  8
0
 10
129.95
 20
94.15
 11
129.895
 21
93.6604
  0
LINE
  8
0
 10
129.895
 20
93.6604
 11
129.732
 21
93.1954
  0
LINE
  8
0
 10
129.732
 20
93.1954
 11
129.47
 21
92.7783
  0
LINE
  8
0
 10
129.47
 20
92.7783
 11
129.122
 21
92.43
  0
LINE
  8
0
 10
129.122
 20
92.43
 11
128.705
 21
92.1679
  0
LINE
  8
0
 10
128.705
 20
92.1679
 11
128.24
 21
92.0052
  0
LINE
  8
0
 10
128.24
 20
92.0052
 11
127.75
 21
91.95
  0
LINE
  8
0
 10
127.75
 20
91.95
 11
127.26
 21
92.0052
  0
LINE
  8
0
 10
88.7317
 20
21.0427
 11
85.4882
 21
21.4697
  0
LINE
  8
0
 10
85.4882
 20
21.4697
 11
82.2943
 21
22.1778
  0
LINE
  8
0
 10
82.2943
 20
22.1778
 11
79.1742
 21
23.1615
  0
LINE
  8
0
 10
79.1742
 20
23.1615
 11
76.1518
 21
24.4135
  0
LINE
  8
0
 10
76.1518
 20
24.4135
 11
73.25
 21
25.924
  0
LINE
  8
0
 10
73.25
 20
25.924
 11
70.4909
 21
27.6818
  0
LINE
  8
0
 10
70.4909
 20
27.6818
 11
67.8955
 21
29.6733
  0
LINE
  8
0
 10
67.8955
 20
29.6733
 11
65.4835
 21
31.8835
  0
LINE
  8
0
 10
65.4835
 20
31.8835
 11
63.2733
 21
34.2955
  0
LINE
  8
0
 10
63.2733
 20
34.2955
 11
61.2818
 21
36.8909
  0
LINE
  8
0
 10
61.2818
 20
36.8909
 11
59.524
 21
39.65
  0
LINE
  8
0
 10
59.524
 20
39.65
 11
58.0135
 21
42.5518
  0
LINE
  8
0
 10
58.0135
 20
42.5518
 11
56.7615
 21
45.5742
  0
LINE
  8
0
 10
56.7615
 20
45.5742
 11
55.7778
 21
48.6943
  0
LINE
  8
0
 10
55.7778
 20
48.6943
 11
55.0697
 21
51.8882
  0
LINE
  8
0
 10
55.0697
 20
51.8882
 11
54.6427
 21
55.1317
  0
LINE
  8
0
 10
54.6427
 20
55.1317
 11
54.5
 21
58.4
  0
LINE
  8
0
 10
54.5
 20
58.4
 11
54.6427
 21
61.6683
  0
LINE
  8
0
 10
54.6427
 20
61.6683
 11
55.0697
 21
64.9118
  0
LINE
  8
0
 10
55.0697
 20
64.9118
 11
55.7778
 21
68.1057
  0
LINE
  8
0
 10
55.7778
 20
68.1057
 11
56.7615
 21
71.2258
  0
LINE
  8
0
 10
56.7615
 20
71.2258
 11
58.0135
 21
74.2482
  0
LINE
  8
0
 10
58.0135
 20
74.2482
 11
59.524
 21
77.15
  0
LINE
  8
0
 10
59.524
 20
77.15
 11
61.2818
 21
79.9091
  0
LINE
  8
0
 10
61.2818
 20
79.9091
 11
63.2733
 21
82.5045
  0
LINE
  8
0
 10
63.2733
 20
82.5045
 11
65.4835
 21
84.9165
  0
LINE
  8
0
 10
65.4835
 20
84.9165
 11
67.8955
 21
87.1267
  0
LINE
  8
0
 10
67.8955
 20
87.1267
 11
70.4909
 21
89.1182
  0
LINE
  8
0
 10
70.4909
 20
89.1182
 11
73.25
 21
90.8759
  0
LINE
  8
0
 10
73.25
 20
90.8759
 11
76.1518
 21
92.3865
  0
LINE
  8
0
 10
76.1518
 20
92.3865
 11
79.1742
 21
93.6385
  0
LINE
  8
0
 10
79.1742
 20
93.6385
 11
82.2943
 21
94.6222
  0
LINE
  8
0
 10
82.2943
 20
94.6222
 11
85.4882
 21
95.3303
  0
LINE
  8
0
 10
85.4882
 20
95.3303
 11
88.7317
 21
95.7573
  0
LINE
  8
0
 10
88.7317
 20
95.7573
 11
92
 21
95.9
  0
LINE
  8
0
 10
92
 20
95.9
 11
95.2683
 21
95.7573
  0
LINE
  8
0
 10
95.2683
 20
95.7573
 11
98.5118
 21
95.3303
  0
LINE
  8
0
 10
98.5118
 20
95.3303
 11
101.706
 21
94.6222
  0
LINE
  8
0
 10
101.706
 20
94.6222
 11
104.826
 21
93.6385
  0
LINE
  8
0
 10
104.826
 20
93.6385
 11
107.848
 21
92.3865
  0
LINE
  8
0
 10
107.848
 20
92.3865
 11
110.75
 21
90.8759
  0
LINE
  8
0
 10
110.75
 20
90.8759
 11
113.509
 21
89.1182
  0
LINE
  8
0
 10
113.509
 20
89.1182
 11
116.105
 21
87.1267
  0
LINE
  8
0
 10
116.105
 20
87.1267
 11
118.516
 21
84.9165
  0
LINE
  8
0
 10
118.516
 20
84.9165
 11
120.727
 21
82.5045
  0
LINE
  8
0
 10
120.727
 20
82.5045
 11
122.718
 21
79.9091
  0
LINE
  8
0
 10
122.718
 20
79.9091
 11
124.476
 21
77.15
  0
LINE
  8
0
 10
124.476
 20
77.15
 11
125.987
 21
74.2482
  0
LINE
  8
0
 10
125.987
 20
74.2482
 11
127.238
 21
71.2258
  0
LINE
  8
0
 10
127.238
 20
71.2258
 11
128.222
 21
68.1057
  0
LINE
  8
0
 10
128.222
 20
68.1057
 11
128.93
 21
64.9118
  0
LINE
  8
0
 10
128.93
 20
64.9118
 11
129.357
 21
61.6683
  0
LINE
  8
0
 10
129.357
 20
61.6683
 11
129.5
 21
58.4
  0
LINE
  8
0
 10
129.5
 20
58.4
 11
129.357
 21
55.1317
  0
LINE
  8
0
 10
129.357
 20
55.1317
 11
128.93
 21
51.8882
  0
LINE
  8
0
 10
128.93
 20
51.8882
 11
128.222
 21
48.6943
  0
LINE
  8
0
 10
128.222
 20
48.6943
 11
127.238
 21
45.5742
  0
LINE
  8
0
 10
127.238
 20
45.5742
 11
125.987
 21
42.5518
  0
LINE
  8
0
 10
125.987
 20
42.5518
 11
124.476
 21
39.65
  0
LINE
  8
0
 10
124.476
 20
39.65
 11
122.718
 21
36.8909
  0
LINE
  8
0
 10
122.718
 20
36.8909
 11
120.727
 21
34.2955
  0
LINE
  8
0
 10
120.727
 20
34.2955
 11
118.516
 21
31.8835
  0
LINE
  8
0
 10
118.516
 20
31.8835
 11
116.105
 21
29.6733
  0
LINE
  8
0
 10
116.105
 20
29.6733
 11
113.509
 21
27.6818
  0
LINE
  8
0
 10
113.509
 20
27.6818
 11
110.75
 21
25.924
  0
LINE
  8
0
 10
110.75
 20
25.924
 11
107.848
 21
24.4135
  0
LINE
  8
0
 10
107.848
 20
24.4135
 11
104.826
 21
23.1615
  0
LINE
  8
0
 10
104.826
 20
23.1615
 11
101.706
 21
22.1778
  0
LINE
  8
0
 10
101.706
 20
22.1778
 11
98.5118
 21
21.4697
  0
LINE
  8
0
 10
98.5118
 20
21.4697
 11
95.2683
 21
21.0427
  0
LINE
  8
0
 10
95.2683
 20
21.0427
 11
92
 21
20.9
  0
LINE
  8
0
 10
92
 20
20.9
 11
88.7317
 21
21.0427
  0
LINE
  8
0
 10
293.944
 20
88.077
 11
293.626
 21
88.4353
  0
LINE
  8
0
 10
293.626
 20
88.4353
 11
293.512
 21
88.9
  0
LINE
  8
0
 10
293.512
 20
88.9
 11
293.626
 21
89.3647
  0
LINE
  8
0
 10
293.626
 20
89.3647
 11
293.944
 21
89.723
  0
LINE
  8
0
 10
293.944
 20
89.723
 11
294.391
 21
89.8927
  0
LINE
  8
0
 10
294.391
 20
89.8927
 11
294.866
 21
89.835
  0
LINE
  8
0
 10
294.866
 20
89.835
 11
295.26
 21
89.5631
  0
LINE
  8
0
 10
295.26
 20
89.5631
 11
295.483
 21
89.1393
  0
LINE
  8
0
 10
295.483
 20
89.1393
 11
295.483
 21
88.6607
  0
LINE
  8
0
 10
295.483
 20
88.6607
 11
295.26
 21
88.2369
  0
LINE
  8
0
 10
295.26
 20
88.2369
 11
294.866
 21
87.965
  0
LINE
  8
0
 10
294.866
 20
87.965
 11
294.391
 21
87.9073
  0
LINE
  8
0
 10
294.391
 20
87.9073
 11
293.944
 21
88.077
  0
LINE
  8
0
 10
55.7605
 20
20.5052
 11
55.2955
 21
20.6679
  0
LINE
  8
0
 10
55.2955
 20
20.6679
 11
54.8783
 21
20.93
  0
LINE
  8
0
 10
54.8783
 20
20.93
 11
54.53
 21
21.2783
  0
LINE
  8
0
 10
54.53
 20
21.2783
 11
54.2679
 21
21.6954
  0
LINE
  8
0
 10
54.2679
 20
21.6954
 11
54.1051
 21
22.1604
  0
LINE
  8
0
 10
54.1051
 20
22.1604
 11
54.05
 21
22.65
  0
LINE
  8
0
 10
54.05
 20
22.65
 11
54.1051
 21
23.1395
  0
LINE
  8
0
 10
54.1051
 20
23.1395
 11
54.2679
 21
23.6045
  0
LINE
  8
0
 10
54.2679
 20
23.6045
 11
54.53
 21
24.0217
  0
LINE
  8
0
 10
54.53
 20
24.0217
 11
54.8783
 21
24.37
  0
LINE
  8
0
 10
54.8783
 20
24.37
 11
55.2955
 21
24.6321
  0
LINE
  8
0
 10
55.2955
 20
24.6321
 11
55.7605
 21
24.7948
  0
LINE
  8
0
 10
55.7605
 20
24.7948
 11
56.25
 21
24.85
  0
LINE
  8
0
 10
56.25
 20
24.85
 11
56.7395
 21
24.7948
  0
LINE
  8
0
 10
56.7395
 20
24.7948
 11
57.2045
 21
24.6321
  0
LINE
  8
0
 10
57.2045
 20
24.6321
 11
57.6217
 21
24.37
  0
LINE
  8
0
 10
57.6217
 20
24.37
 11
57.97
 21
24.0217
  0
LINE
  8
0
 10
57.97
 20
24.0217
 11
58.2321
 21
23.6045
  0
LINE
  8
0
 10
58.2321
 20
23.6045
 11
58.3948
 21
23.1395
  0
LINE
  8
0
 10
58.3948
 20
23.1395
 11
58.45
 21
22.65
  0
LINE
  8
0
 10
58.45
 20
22.65
 11
58.3948
 21
22.1604
  0
LINE
  8
0
 10
58.3948
 20
22.1604
 11
58.2321
 21
21.6954
  0
LINE
  8
0
 10
58.2321
 20
21.6954
 11
57.97
 21
21.2783
  0
LINE
  8
0
 10
57.97
 20
21.2783
 11
57.6217
 21
20.93
  0
LINE
  8
0
 10
57.6217
 20
20.93
 11
57.2045
 21
20.6679
  0
LINE
  8
0
 10
57.2045
 20
20.6679
 11
56.7395
 21
20.5052
  0
LINE
  8
0
 10
56.7395
 20
20.5052
 11
56.25
 21
20.45
  0
LINE
  8
0
 10
56.25
 20
20.45
 11
55.7605
 21
20.5052
  0
LINE
  8
0
 10
127.26
 20
20.5052
 11
126.795
 21
20.6679
  0
LINE
  8
0
 10
126.795
 20
20.6679
 11
126.378
 21
20.93
  0
LINE
  8
0
 10
126.378
 20
20.93
 11
126.03
 21
21.2783
  0
LINE
  8
0
 10
126.03
 20
21.2783
 11
125.768
 21
21.6954
  0
LINE
  8
0
 10
125.768
 20
21.6954
 11
125.605
 21
22.1604
  0
LINE
  8
0
 10
125.605
 20
22.1604
 11
125.55
 21
22.65
  0
LINE
  8
0
 10
125.55
 20
22.65
 11
125.605
 21
23.1395
  0
LINE
  8
0
 10
125.605
 20
23.1395
 11
125.768
 21
23.6045
  0
LINE
  8
0
 10
125.768
 20
23.6045
 11
126.03
 21
24.0217
  0
LINE
  8
0
 10
126.03
 20
24.0217
 11
126.378
 21
24.37
  0
LINE
  8
0
 10
126.378
 20
24.37
 11
126.795
 21
24.6321
  0
LINE
  8
0
 10
126.795
 20
24.6321
 11
127.26
 21
24.7948
  0
LINE
  8
0
 10
127.26
 20
24.7948
 11
127.75
 21
24.85
  0
LINE
  8
0
 10
127.75
 20
24.85
 11
128.24
 21
24.7948
  0
LINE
  8
0
 10
128.24
 20
24.7948
 11
128.705
 21
24.6321
  0
LINE
  8
0
 10
128.705
 20
24.6321
 11
129.122
 21
24.37
  0
LINE
  8
0
 10
129.122
 20
24.37
 11
129.47
 21
24.0217
  0
LINE
  8
0
 10
129.47
 20
24.0217
 11
129.732
 21
23.6045
  0
LINE
  8
0
 10
129.732
 20
23.6045
 11
129.895
 21
23.1395
  0
LINE
  8
0
 10
129.895
 20
23.1395
 11
129.95
 21
22.65
  0
LINE
  8
0
 10
129.95
 20
22.65
 11
129.895
 21
22.1604
  0
LINE
  8
0
 10
129.895
 20
22.1604
 11
129.732
 21
21.6954
  0
LINE
  8
0
 10
129.732
 20
21.6954
 11
129.47
 21
21.2783
  0
LINE
  8
0
 10
129.47
 20
21.2783
 11
129.122
 21
20.93
  0
LINE
  8
0
 10
129.122
 20
20.93
 11
128.705
 21
20.6679
  0
LINE
  8
0
 10
128.705
 20
20.6679
 11
128.24
 21
20.5052
  0
LINE
  8
0
 10
128.24
 20
20.5052
 11
127.75
 21
20.45
  0
LINE
  8
0
 10
127.75
 20
20.45
 11
127.26
 21
20.5052
  0
LINE
  8
0
 10
322.832
 20
5.01024
 11
322.344
 21
5.0918
  0
LINE
  8
0
 10
322.344
 20
5.0918
 11
321.875
 21
5.25267
  0
LINE
  8
0
 10
321.875
 20
5.25267
 11
321.439
 21
5.48849
  0
LINE
  8
0
 10
321.439
 20
5.48849
 11
321.048
 21
5.79282
  0
LINE
  8
0
 10
321.048
 20
5.79282
 11
320.713
 21
6.15735
  0
LINE
  8
0
 10
320.713
 20
6.15735
 11
320.442
 21
6.57214
  0
LINE
  8
0
 10
320.442
 20
6.57214
 11
320.243
 21
7.02589
  0
LINE
  8
0
 10
320.243
 20
7.02589
 11
320.121
 21
7.50621
  0
LINE
  8
0
 10
320.121
 20
7.50621
 11
320.08
 21
8
  0
LINE
  8
0
 10
320.08
 20
8
 11
320.121
 21
8.49377
  0
LINE
  8
0
 10
320.121
 20
8.49377
 11
320.243
 21
8.97409
  0
LINE
  8
0
 10
320.243
 20
8.97409
 11
320.442
 21
9.42784
  0
LINE
  8
0
 10
320.442
 20
9.42784
 11
320.713
 21
9.84264
  0
LINE
  8
0
 10
320.713
 20
9.84264
 11
321.048
 21
10.2072
  0
LINE
  8
0
 10
321.048
 20
10.2072
 11
321.439
 21
10.5115
  0
LINE
  8
0
 10
321.439
 20
10.5115
 11
321.875
 21
10.7473
  0
LINE
  8
0
 10
321.875
 20
10.7473
 11
322.344
 21
10.9082
  0
LINE
  8
0
 10
322.344
 20
10.9082
 11
322.832
 21
10.9897
  0
LINE
  8
0
 10
322.832
 20
10.9897
 11
323.328
 21
10.9897
  0
LINE
  8
0
 10
323.328
 20
10.9897
 11
323.816
 21
10.9082
  0
LINE
  8
0
 10
323.816
 20
10.9082
 11
324.285
 21
10.7473
  0
LINE
  8
0
 10
324.285
 20
10.7473
 11
324.721
 21
10.5115
  0
LINE
  8
0
 10
324.721
 20
10.5115
 11
325.112
 21
10.2072
  0
LINE
  8
0
 10
325.112
 20
10.2072
 11
325.447
 21
9.84264
  0
LINE
  8
0
 10
325.447
 20
9.84264
 11
325.718
 21
9.42784
  0
LINE
  8
0
 10
325.718
 20
9.42784
 11
325.917
 21
8.97409
  0
LINE
  8
0
 10
325.917
 20
8.97409
 11
326.039
 21
8.49377
  0
LINE
  8
0
 10
326.039
 20
8.49377
 11
326.08
 21
8
  0
LINE
  8
0
 10
326.08
 20
8
 11
326.039
 21
7.50621
  0
LINE
  8
0
 10
326.039
 20
7.50621
 11
325.917
 21
7.02589
  0
LINE
  8
0
 10
325.917
 20
7.02589
 11
325.718
 21
6.57214
  0
LINE
  8
0
 10
325.718
 20
6.57214
 11
325.447
 21
6.15735
  0
LINE
  8
0
 10
325.447
 20
6.15735
 11
325.112
 21
5.79282
  0
LINE
  8
0
 10
325.112
 20
5.79282
 11
324.721
 21
5.48849
  0
LINE
  8
0
 10
324.721
 20
5.48849
 11
324.285
 21
5.25267
  0
LINE
  8
0
 10
324.285
 20
5.25267
 11
323.816
 21
5.0918
  0
LINE
  8
0
 10
323.816
 20
5.0918
 11
323.328
 21
5.01024
  0
LINE
  8
0
 10
323.328
 20
5.01024
 11
322.832
 21
5.01024
  0
LINE
  8
0
 10
46.7519
 20
7.37701
 11
46.4345
 21
7.73528
  0
LINE
  8
0
 10
46.4345
 20
7.73528
 11
46.32
 21
8.2
  0
LINE
  8
0
 10
46.32
 20
8.2
 11
46.4345
 21
8.66472
  0
LINE
  8
0
 10
46.4345
 20
8.66472
 11
46.7519
 21
9.02298
  0
LINE
  8
0
 10
46.7519
 20
9.02298
 11
47.1994
 21
9.1927
  0
LINE
  8
0
 10
47.1994
 20
9.1927
 11
47.6746
 21
9.13501
  0
LINE
  8
0
 10
47.6746
 20
9.13501
 11
48.0685
 21
8.86311
  0
LINE
  8
0
 10
48.0685
 20
8.86311
 11
48.2909
 21
8.4393
  0
LINE
  8
0
 10
48.2909
 20
8.4393
 11
48.2909
 21
7.96068
  0
LINE
  8
0
 10
48.2909
 20
7.96068
 11
48.0685
 21
7.53687
  0
LINE
  8
0
 10
48.0685
 20
7.53687
 11
47.6746
 21
7.26497
  0
LINE
  8
0
 10
47.6746
 20
7.26497
 11
47.1994
 21
7.20729
  0
LINE
  8
0
 10
47.1994
 20
7.20729
 11
46.7519
 21
7.37701
  0
LINE
  8
0
 10
347.112
 20
7.37701
 11
346.795
 21
7.73528
  0
LINE
  8
0
 10
346.795
 20
7.73528
 11
346.68
 21
8.2
  0
LINE
  8
0
 10
346.68
 20
8.2
 11
346.795
 21
8.66472
  0
LINE
  8
0
 10
346.795
 20
8.66472
 11
347.112
 21
9.02298
  0
LINE
  8
0
 10
347.112
 20
9.02298
 11
347.559
 21
9.1927
  0
LINE
  8
0
 10
347.559
 20
9.1927
 11
348.035
 21
9.13501
  0
LINE
  8
0
 10
348.035
 20
9.13501
 11
348.428
 21
8.86311
  0
LINE
  8
0
 10
348.428
 20
8.86311
 11
348.651
 21
8.4393
  0
LINE
  8
0
 10
348.651
 20
8.4393
 11
348.651
 21
7.96068
  0
LINE
  8
0
 10
348.651
 20
7.96068
 11
348.428
 21
7.53687
  0
LINE
  8
0
 10
348.428
 20
7.53687
 11
348.035
 21
7.26497
  0
LINE
  8
0
 10
348.035
 20
7.26497
 11
347.559
 21
7.20729
  0
LINE
  8
0
 10
347.559
 20
7.20729
 11
347.112
 21
7.37701
  0
LINE
  8
0
 10
368.332
 20
7.37701
 11
368.015
 21
7.73528
  0
LINE
  8
0
 10
368.015
 20
7.73528
 11
367.9
 21
8.2
  0
LINE
  8
0
 10
367.9
 20
8.2
 11
368.015
 21
8.66472
  0
LINE
  8
0
 10
368.015
 20
8.66472
 11
368.332
 21
9.02298
  0
LINE
  8
0
 10
368.332
 20
9.02298
 11
368.779
 21
9.1927
  0
LINE
  8
0
 10
368.779
 20
9.1927
 11
369.255
 21
9.13501
  0
LINE
  8
0
 10
369.255
 20
9.13501
 11
369.648
 21
8.86311
  0
LINE
  8
0
 10
369.648
 20
8.86311
 11
369.871
 21
8.4393
  0
LINE
  8
0
 10
369.871
 20
8.4393
 11
369.871
 21
7.96068
  0
LINE
  8
0
 10
369.871
 20
7.96068
 11
369.648
 21
7.53687
  0
LINE
  8
0
 10
369.648
 20
7.53687
 11
369.255
 21
7.26497
  0
LINE
  8
0
 10
369.255
 20
7.26497
 11
368.779
 21
7.20729
  0
LINE
  8
0
 10
368.779
 20
7.20729
 11
368.332
 21
7.37701
  0
LINE
  8
0
 10
25.5319
 20
7.37701
 11
25.2145
 21
7.73528
  0
LINE
  8
0
 10
25.2145
 20
7.73528
 11
25.1
 21
8.2
  0
LINE
  8
0
 10
25.1
 20
8.2
 11
25.2145
 21
8.66472
  0
LINE
  8
0
 10
25.2145
 20
8.66472
 11
25.5319
 21
9.02298
  0
LINE
  8
0
 10
25.5319
 20
9.02298
 11
25.9795
 21
9.1927
  0
LINE
  8
0
 10
25.9795
 20
9.1927
 11
26.4546
 21
9.13501
  0
LINE
  8
0
 10
26.4546
 20
9.13501
 11
26.8485
 21
8.86311
  0
LINE
  8
0
 10
26.8485
 20
8.86311
 11
27.0709
 21
8.4393
  0
LINE
  8
0
 10
27.0709
 20
8.4393
 11
27.0709
 21
7.96068
  0
LINE
  8
0
 10
27.0709
 20
7.96068
 11
26.8485
 21
7.53687
  0
LINE
  8
0
 10
26.8485
 20
7.53687
 11
26.4546
 21
7.26497
  0
LINE
  8
0
 10
26.4546
 20
7.26497
 11
25.9795
 21
7.20729
  0
LINE
  8
0
 10
25.9795
 20
7.20729
 11
25.5319
 21
7.37701
  0
LINE
  8
0
 10
334.339
 20
5.01457
 11
333.871
 21
5.12996
  0
LINE
  8
0
 10
333.871
 20
5.12996
 11
333.444
 21
5.35402
  0
LINE
  8
0
 10
333.444
 20
5.35402
 11
333.083
 21
5.67375
  0
LINE
  8
0
 10
333.083
 20
5.67375
 11
332.809
 21
6.07054
  0
LINE
  8
0
 10
332.809
 20
6.07054
 11
332.638
 21
6.52136
  0
LINE
  8
0
 10
332.638
 20
6.52136
 11
332.58
 21
7
  0
LINE
  8
0
 10
332.58
 20
7
 11
332.638
 21
7.47862
  0
LINE
  8
0
 10
332.638
 20
7.47862
 11
332.809
 21
7.92944
  0
LINE
  8
0
 10
332.809
 20
7.92944
 11
333.083
 21
8.32623
  0
LINE
  8
0
 10
333.083
 20
8.32623
 11
333.444
 21
8.64597
  0
LINE
  8
0
 10
333.444
 20
8.64597
 11
333.871
 21
8.87003
  0
LINE
  8
0
 10
333.871
 20
8.87003
 11
334.339
 21
8.98541
  0
LINE
  8
0
 10
334.339
 20
8.98541
 11
334.821
 21
8.98541
  0
LINE
  8
0
 10
334.821
 20
8.98541
 11
335.289
 21
8.87003
  0
LINE
  8
0
 10
335.289
 20
8.87003
 11
335.716
 21
8.64597
  0
LINE
  8
0
 10
335.716
 20
8.64597
 11
336.077
 21
8.32623
  0
LINE
  8
0
 10
336.077
 20
8.32623
 11
336.351
 21
7.92944
  0
LINE
  8
0
 10
336.351
 20
7.92944
 11
336.522
 21
7.47862
  0
LINE
  8
0
 10
336.522
 20
7.47862
 11
336.58
 21
6.99998
  0
LINE
  8
0
 10
336.58
 20
6.99998
 11
336.522
 21
6.52136
  0
LINE
  8
0
 10
336.522
 20
6.52136
 11
336.351
 21
6.07054
  0
LINE
  8
0
 10
336.351
 20
6.07054
 11
336.077
 21
5.67375
  0
LINE
  8
0
 10
336.077
 20
5.67375
 11
335.716
 21
5.35402
  0
LINE
  8
0
 10
335.716
 20
5.35402
 11
335.289
 21
5.12996
  0
LINE
  8
0
 10
335.289
 20
5.12996
 11
334.821
 21
5.01457
  0
LINE
  8
0
 10
334.821
 20
5.01457
 11
334.339
 21
5.01457
  0
LINE
  8
0
 10
395
 20
-4
 11
0
 21
-4
  0
LINE
  8
0
 10
0
 20
-4
 11
0
 21
-168.5
  0
LINE
  8
0
 10
0
 20
-168.5
 11
395
 21
-168.5
  0
LINE
  8
0
 10
395
 20
-168.5
 11
395
 21
-4
  0
LINE
  8
0
 10
322.832
 20
-14.9897
 11
322.344
 21
-14.9082
  0
LINE
  8
0
 10
322.344
 20
-14.9082
 11
321.875
 21
-14.7473
  0
LINE
  8
0
 10
321.875
 20
-14.7473
 11
321.439
 21
-14.5115
  0
LINE
  8
0
 10
321.439
 20
-14.5115
 11
321.048
 21
-14.2072
  0
LINE
  8
0
 10
321.048
 20
-14.2072
 11
320.713
 21
-13.8426
  0
LINE
  8
0
 10
320.713
 20
-13.8426
 11
320.442
 21
-13.4278
  0
LINE
  8
0
 10
320.442
 20
-13.4278
 11
320.243
 21
-12.9741
  0
LINE
  8
0
 10
320.243
 20
-12.9741
 11
320.121
 21
-12.4938
  0
LINE
  8
0
 10
320.121
 20
-12.4938
 11
320.08
 21
-12
  0
LINE
  8
0
 10
320.08
 20
-12
 11
320.121
 21
-11.5062
  0
LINE
  8
0
 10
320.121
 20
-11.5062
 11
320.243
 21
-11.0259
  0
LINE
  8
0
 10
320.243
 20
-11.0259
 11
320.442
 21
-10.5721
  0
LINE
  8
0
 10
320.442
 20
-10.5721
 11
320.713
 21
-10.1573
  0
LINE
  8
0
 10
320.713
 20
-10.1573
 11
321.048
 21
-9.79282
  0
LINE
  8
0
 10
321.048
 20
-9.79282
 11
321.439
 21
-9.48849
  0
LINE
  8
0
 10
321.439
 20
-9.48849
 11
321.875
 21
-9.25267
  0
LINE
  8
0
 10
321.875
 20
-9.25267
 11
322.344
 21
-9.0918
  0
LINE
  8
0
 10
322.344
 20
-9.0918
 11
322.832
 21
-9.01024
  0
LINE
  8
0
 10
322.832
 20
-9.01024
 11
323.328
 21
-9.01024
  0
LINE
  8
0
 10
323.328
 20
-9.01024
 11
323.816
 21
-9.0918
  0
LINE
  8
0
 10
323.816
 20
-9.0918
 11
324.285
 21
-9.25267
  0
LINE
  8
0
 10
324.285
 20
-9.25267
 11
324.721
 21
-9.48849
  0
LINE
  8
0
 10
324.721
 20
-9.48849
 11
325.112
 21
-9.79282
  0
LINE
  8
0
 10
325.112
 20
-9.79282
 11
325.447
 21
-10.1573
  0
LINE
  8
0
 10
325.447
 20
-10.1573
 11
325.718
 21
-10.5721
  0
LINE
  8
0
 10
325.718
 20
-10.5721
 11
325.917
 21
-11.0259
  0
LINE
  8
0
 10
325.917
 20
-11.0259
 11
326.039
 21
-11.5062
  0
LINE
  8
0
 10
326.039
 20
-11.5062
 11
326.08
 21
-12
  0
LINE
  8
0
 10
326.08
 20
-12
 11
326.039
 21
-12.4938
  0
LINE
  8
0
 10
326.039
 20
-12.4938
 11
325.917
 21
-12.9741
  0
LINE
  8
0
 10
325.917
 20
-12.9741
 11
325.718
 21
-13.4278
  0
LINE
  8
0
 10
325.718
 20
-13.4278
 11
325.447
 21
-13.8426
  0
LINE
  8
0
 10
325.447
 20
-13.8426
 11
325.112
 21
-14.2072
  0
LINE
  8
0
 10
325.112
 20
-14.2072
 11
324.721
 21
-14.5115
  0
LINE
  8
0
 10
324.721
 20
-14.5115
 11
324.285
 21
-14.7473
  0
LINE
  8
0
 10
324.285
 20
-14.7473
 11
323.816
 21
-14.9082
  0
LINE
  8
0
 10
323.816
 20
-14.9082
 11
323.328
 21
-14.9897
  0
LINE
  8
0
 10
323.328
 20
-14.9897
 11
322.832
 21
-14.9897
  0
LINE
  8
0
 10
334.339
 20
-12.9854
 11
333.871
 21
-12.87
  0
LINE
  8
0
 10
333.871
 20
-12.87
 11
333.444
 21
-12.646
  0
LINE
  8
0
 10
333.444
 20
-12.646
 11
333.083
 21
-12.3262
  0
LINE
  8
0
 10
333.083
 20
-12.3262
 11
332.809
 21
-11.9294
  0
LINE
  8
0
 10
332.809
 20
-11.9294
 11
332.638
 21
-11.4786
  0
LINE
  8
0
 10
332.638
 20
-11.4786
 11
332.58
 21
-11
  0
LINE
  8
0
 10
332.58
 20
-11
 11
332.638
 21
-10.5214
  0
LINE
  8
0
 10
332.638
 20
-10.5214
 11
332.809
 21
-10.0705
  0
LINE
  8
0
 10
332.809
 20
-10.0705
 11
333.083
 21
-9.67375
  0
LINE
  8
0
 10
333.083
 20
-9.67375
 11
333.444
 21
-9.35402
  0
LINE
  8
0
 10
333.444
 20
-9.35402
 11
333.871
 21
-9.12996
  0
LINE
  8
0
 10
333.871
 20
-9.12996
 11
334.339
 21
-9.01457
  0
LINE
  8
0
 10
334.339
 20
-9.01457
 11
334.821
 21
-9.01457
  0
LINE
  8
0
 10
334.821
 20
-9.01457
 11
335.289
 21
-9.12996
  0
LINE
  8
0
 10
335.289
 20
-9.12996
 11
335.716
 21
-9.35402
  0
LINE
  8
0
 10
335.716
 20
-9.35402
 11
336.077
 21
-9.67375
  0
LINE
  8
0
 10
336.077
 20
-9.67375
 11
336.351
 21
-10.0705
  0
LINE
  8
0
 10
336.351
 20
-10.0705
 11
336.522
 21
-10.5214
  0
LINE
  8
0
 10
336.522
 20
-10.5214
 11
336.58
 21
-11
  0
LINE
  8
0
 10
336.58
 20
-11
 11
336.522
 21
-11.4786
  0
LINE
  8
0
 10
336.522
 20
-11.4786
 11
336.351
 21
-11.9294
  0
LINE
  8
0
 10
336.351
 20
-11.9294
 11
336.077
 21
-12.3262
  0
LINE
  8
0
 10
336.077
 20
-12.3262
 11
335.716
 21
-12.646
  0
LINE
  8
0
 10
335.716
 20
-12.646
 11
335.289
 21
-12.87
  0
LINE
  8
0
 10
335.289
 20
-12.87
 11
334.821
 21
-12.9854
  0
LINE
  8
0
 10
334.821
 20
-12.9854
 11
334.339
 21
-12.9854
  0
LINE
  8
0
 10
368.545
 20
-13.135
 11
368.151
 21
-12.8631
  0
LINE
  8
0
 10
368.151
 20
-12.8631
 11
367.929
 21
-12.4393
  0
LINE
  8
0
 10
367.929
 20
-12.4393
 11
367.929
 21
-11.9607
  0
LINE
  8
0
 10
367.929
 20
-11.9607
 11
368.151
 21
-11.5369
  0
LINE
  8
0
 10
368.151
 20
-11.5369
 11
368.545
 21
-11.265
  0
LINE
  8
0
 10
368.545
 20
-11.265
 11
369.021
 21
-11.2073
  0
LINE
  8
0
 10
369.021
 20
-11.2073
 11
369.468
 21
-11.377
  0
LINE
  8
0
 10
369.468
 20
-11.377
 11
369.785
 21
-11.7353
  0
LINE
  8
0
 10
369.785
 20
-11.7353
 11
369.9
 21
-12.2
  0
LINE
  8
0
 10
369.9
 20
-12.2
 11
369.785
 21
-12.6647
  0
LINE
  8
0
 10
369.785
 20
-12.6647
 11
369.468
 21
-13.023
  0
LINE
  8
0
 10
369.468
 20
-13.023
 11
369.021
 21
-13.1927
  0
LINE
  8
0
 10
369.021
 20
-13.1927
 11
368.545
 21
-13.135
  0
LINE
  8
0
 10
347.325
 20
-13.135
 11
346.931
 21
-12.8631
  0
LINE
  8
0
 10
346.931
 20
-12.8631
 11
346.709
 21
-12.4393
  0
LINE
  8
0
 10
346.709
 20
-12.4393
 11
346.709
 21
-11.9607
  0
LINE
  8
0
 10
346.709
 20
-11.9607
 11
346.931
 21
-11.5369
  0
LINE
  8
0
 10
346.931
 20
-11.5369
 11
347.325
 21
-11.265
  0
LINE
  8
0
 10
347.325
 20
-11.265
 11
347.801
 21
-11.2073
  0
LINE
  8
0
 10
347.801
 20
-11.2073
 11
348.248
 21
-11.377
  0
LINE
  8
0
 10
348.248
 20
-11.377
 11
348.565
 21
-11.7353
  0
LINE
  8
0
 10
348.565
 20
-11.7353
 11
348.68
 21
-12.2
  0
LINE
  8
0
 10
348.68
 20
-12.2
 11
348.565
 21
-12.6647
  0
LINE
  8
0
 10
348.565
 20
-12.6647
 11
348.248
 21
-13.023
  0
LINE
  8
0
 10
348.248
 20
-13.023
 11
347.801
 21
-13.1927
  0
LINE
  8
0
 10
347.801
 20
-13.1927
 11
347.325
 21
-13.135
  0
LINE
  8
0
 10
46.9654
 20
-13.135
 11
46.5715
 21
-12.8631
  0
LINE
  8
0
 10
46.5715
 20
-12.8631
 11
46.349
 21
-12.4393
  0
LINE
  8
0
 10
46.349
 20
-12.4393
 11
46.349
 21
-11.9607
  0
LINE
  8
0
 10
46.349
 20
-11.9607
 11
46.5715
 21
-11.5369
  0
LINE
  8
0
 10
46.5715
 20
-11.5369
 11
46.9654
 21
-11.265
  0
LINE
  8
0
 10
46.9654
 20
-11.265
 11
47.4405
 21
-11.2073
  0
LINE
  8
0
 10
47.4405
 20
-11.2073
 11
47.8881
 21
-11.377
  0
LINE
  8
0
 10
47.8881
 20
-11.377
 11
48.2054
 21
-11.7353
  0
LINE
  8
0
 10
48.2054
 20
-11.7353
 11
48.32
 21
-12.2
  0
LINE
  8
0
 10
48.32
 20
-12.2
 11
48.2054
 21
-12.6647
  0
LINE
  8
0
 10
48.2054
 20
-12.6647
 11
47.8881
 21
-13.023
  0
LINE
  8
0
 10
47.8881
 20
-13.023
 11
47.4405
 21
-13.1927
  0
LINE
  8
0
 10
47.4405
 20
-13.1927
 11
46.9654
 21
-13.135
  0
LINE
  8
0
 10
25.7454
 20
-13.135
 11
25.3515
 21
-12.8631
  0
LINE
  8
0
 10
25.3515
 20
-12.8631
 11
25.129
 21
-12.4393
  0
LINE
  8
0
 10
25.129
 20
-12.4393
 11
25.129
 21
-11.9607
  0
LINE
  8
0
 10
25.129
 20
-11.9607
 11
25.3515
 21
-11.5369
  0
LINE
  8
0
 10
25.3515
 20
-11.5369
 11
25.7454
 21
-11.265
  0
LINE
  8
0
 10
25.7454
 20
-11.265
 11
26.2205
 21
-11.2073
  0
LINE
  8
0
 10
26.2205
 20
-11.2073
 11
26.6681
 21
-11.377
  0
LINE
  8
0
 10
26.6681
 20
-11.377
 11
26.9854
 21
-11.7353
  0
LINE
  8
0
 10
26.9854
 20
-11.7353
 11
27.1
 21
-12.2
  0
LINE
  8
0
 10
27.1
 20
-12.2
 11
26.9854
 21
-12.6647
  0
LINE
  8
0
 10
26.9854
 20
-12.6647
 11
26.6681
 21
-13.023
  0
LINE
  8
0
 10
26.6681
 20
-13.023
 11
26.2205
 21
-13.1927
  0
LINE
  8
0
 10
26.2205
 20
-13.1927
 11
25.7454
 21
-13.135
  0
LINE
  8
0
 10
7.01227
 20
-25.352
 11
6.54329
 21
-25.2097
  0
LINE
  8
0
 10
6.54329
 20
-25.2097
 11
6.11107
 21
-24.9787
  0
LINE
  8
0
 10
6.11107
 20
-24.9787
 11
5.73222
 21
-24.6678
  0
LINE
  8
0
 10
5.73222
 20
-24.6678
 11
5.42133
 21
-24.2889
  0
LINE
  8
0
 10
5.42133
 20
-24.2889
 11
5.19029
 21
-23.8567
  0
LINE
  8
0
 10
5.19029
 20
-23.8567
 11
5.04803
 21
-23.3877
  0
LINE
  8
0
 10
5.04803
 20
-23.3877
 11
5
 21
-22.9
  0
LINE
  8
0
 10
5
 20
-22.9
 11
5.04803
 21
-22.4123
  0
LINE
  8
0
 10
5.04803
 20
-22.4123
 11
5.19029
 21
-21.9433
  0
LINE
  8
0
 10
5.19029
 20
-21.9433
 11
5.42133
 21
-21.5111
  0
LINE
  8
0
 10
5.42133
 20
-21.5111
 11
5.73222
 21
-21.1322
  0
LINE
  8
0
 10
5.73222
 20
-21.1322
 11
6.11107
 21
-20.8213
  0
LINE
  8
0
 10
6.11107
 20
-20.8213
 11
6.54329
 21
-20.5903
  0
LINE
  8
0
 10
6.54329
 20
-20.5903
 11
7.01227
 21
-20.448
  0
LINE
  8
0
 10
7.01227
 20
-20.448
 11
7.5
 21
-20.4
  0
LINE
  8
0
 10
7.5
 20
-20.4
 11
7.98772
 21
-20.448
  0
LINE
  8
0
 10
7.98772
 20
-20.448
 11
8.4567
 21
-20.5903
  0
LINE
  8
0
 10
8.4567
 20
-20.5903
 11
8.88892
 21
-20.8213
  0
LINE
  8
0
 10
8.88892
 20
-20.8213
 11
9.26776
 21
-21.1322
  0
LINE
  8
0
 10
9.26776
 20
-21.1322
 11
9.57866
 21
-21.5111
  0
LINE
  8
0
 10
9.57866
 20
-21.5111
 11
9.80969
 21
-21.9433
  0
LINE
  8
0
 10
9.80969
 20
-21.9433
 11
9.95195
 21
-22.4123
  0
LINE
  8
0
 10
9.95195
 20
-22.4123
 11
10
 21
-22.9
  0
LINE
  8
0
 10
10
 20
-22.9
 11
9.95195
 21
-23.3877
  0
LINE
  8
0
 10
9.95195
 20
-23.3877
 11
9.80969
 21
-23.8567
  0
LINE
  8
0
 10
9.80969
 20
-23.8567
 11
9.57866
 21
-24.2889
  0
LINE
  8
0
 10
9.57866
 20
-24.2889
 11
9.26776
 21
-24.6678
  0
LINE
  8
0
 10
9.26776
 20
-24.6678
 11
8.88892
 21
-24.9787
  0
LINE
  8
0
 10
8.88892
 20
-24.9787
 11
8.4567
 21
-25.2097
  0
LINE
  8
0
 10
8.4567
 20
-25.2097
 11
7.98772
 21
-25.352
  0
LINE
  8
0
 10
7.98772
 20
-25.352
 11
7.5
 21
-25.4
  0
LINE
  8
0
 10
7.5
 20
-25.4
 11
7.01227
 21
-25.352
  0
LINE
  8
0
 10
6.52136
 20
-34.3419
 11
6.07054
 21
-34.1709
  0
LINE
  8
0
 10
6.07054
 20
-34.1709
 11
5.67375
 21
-33.897
  0
LINE
  8
0
 10
5.67375
 20
-33.897
 11
5.35402
 21
-33.5361
  0
LINE
  8
0
 10
5.35402
 20
-33.5361
 11
5.12996
 21
-33.1092
  0
LINE
  8
0
 10
5.12996
 20
-33.1092
 11
5.01457
 21
-32.6411
  0
LINE
  8
0
 10
5.01457
 20
-32.6411
 11
5.01457
 21
-32.1589
  0
LINE
  8
0
 10
5.01457
 20
-32.1589
 11
5.12996
 21
-31.6908
  0
LINE
  8
0
 10
5.12996
 20
-31.6908
 11
5.35402
 21
-31.2639
  0
LINE
  8
0
 10
5.35402
 20
-31.2639
 11
5.67375
 21
-30.903
  0
LINE
  8
0
 10
5.67375
 20
-30.903
 11
6.07054
 21
-30.6291
  0
LINE
  8
0
 10
6.07054
 20
-30.6291
 11
6.52136
 21
-30.4581
  0
LINE
  8
0
 10
6.52136
 20
-30.4581
 11
6.99998
 21
-30.4
  0
LINE
  8
0
 10
6.99998
 20
-30.4
 11
7.47862
 21
-30.4581
  0
LINE
  8
0
 10
7.47862
 20
-30.4581
 11
7.92944
 21
-30.6291
  0
LINE
  8
0
 10
7.92944
 20
-30.6291
 11
8.32623
 21
-30.903
  0
LINE
  8
0
 10
8.32623
 20
-30.903
 11
8.64597
 21
-31.2639
  0
LINE
  8
0
 10
8.64597
 20
-31.2639
 11
8.87003
 21
-31.6908
  0
LINE
  8
0
 10
8.87003
 20
-31.6908
 11
8.98541
 21
-32.1589
  0
LINE
  8
0
 10
8.98541
 20
-32.1589
 11
8.98541
 21
-32.6411
  0
LINE
  8
0
 10
8.98541
 20
-32.6411
 11
8.87003
 21
-33.1092
  0
LINE
  8
0
 10
8.87003
 20
-33.1092
 11
8.64597
 21
-33.5361
  0
LINE
  8
0
 10
8.64597
 20
-33.5361
 11
8.32623
 21
-33.897
  0
LINE
  8
0
 10
8.32623
 20
-33.897
 11
7.92944
 21
-34.1709
  0
LINE
  8
0
 10
7.92944
 20
-34.1709
 11
7.47862
 21
-34.3419
  0
LINE
  8
0
 10
7.47862
 20
-34.3419
 11
7
 21
-34.4
  0
LINE
  8
0
 10
7
 20
-34.4
 11
6.52136
 21
-34.3419
  0
LINE
  8
0
 10
293.944
 20
-36.923
 11
293.626
 21
-36.5647
  0
LINE
  8
0
 10
293.626
 20
-36.5647
 11
293.512
 21
-36.1
  0
LINE
  8
0
 10
293.512
 20
-36.1
 11
293.626
 21
-35.6353
  0
LINE
  8
0
 10
293.626
 20
-35.6353
 11
293.944
 21
-35.277
  0
LINE
  8
0
 10
293.944
 20
-35.277
 11
294.391
 21
-35.1073
  0
LINE
  8
0
 10
294.391
 20
-35.1073
 11
294.866
 21
-35.165
  0
LINE
  8
0
 10
294.866
 20
-35.165
 11
295.26
 21
-35.4369
  0
LINE
  8
0
 10
295.26
 20
-35.4369
 11
295.483
 21
-35.8607
  0
LINE
  8
0
 10
295.483
 20
-35.8607
 11
295.483
 21
-36.3393
  0
LINE
  8
0
 10
295.483
 20
-36.3393
 11
295.26
 21
-36.7631
  0
LINE
  8
0
 10
295.26
 20
-36.7631
 11
294.866
 21
-37.035
  0
LINE
  8
0
 10
294.866
 20
-37.035
 11
294.391
 21
-37.0927
  0
LINE
  8
0
 10
294.391
 20
-37.0927
 11
293.944
 21
-36.923
  0
LINE
  8
0
 10
327.212
 20
-65.8148
 11
326.806
 21
-65.5439
  0
LINE
  8
0
 10
326.806
 20
-65.5439
 11
326.535
 21
-65.1384
  0
LINE
  8
0
 10
326.535
 20
-65.1384
 11
326.44
 21
-64.66
  0
LINE
  8
0
 10
326.44
 20
-64.66
 11
326.535
 21
-64.1816
  0
LINE
  8
0
 10
326.535
 20
-64.1816
 11
326.806
 21
-63.7761
  0
LINE
  8
0
 10
326.806
 20
-63.7761
 11
327.212
 21
-63.5051
  0
LINE
  8
0
 10
327.212
 20
-63.5051
 11
327.69
 21
-63.41
  0
LINE
  8
0
 10
327.69
 20
-63.41
 11
328.168
 21
-63.5051
  0
LINE
  8
0
 10
328.168
 20
-63.5051
 11
328.574
 21
-63.7761
  0
LINE
  8
0
 10
328.574
 20
-63.7761
 11
328.845
 21
-64.1816
  0
LINE
  8
0
 10
328.845
 20
-64.1816
 11
328.94
 21
-64.66
  0
LINE
  8
0
 10
328.94
 20
-64.66
 11
328.845
 21
-65.1384
  0
LINE
  8
0
 10
328.845
 20
-65.1384
 11
328.574
 21
-65.5439
  0
LINE
  8
0
 10
328.574
 20
-65.5439
 11
328.168
 21
-65.8148
  0
LINE
  8
0
 10
328.168
 20
-65.8148
 11
327.69
 21
-65.91
  0
LINE
  8
0
 10
327.69
 20
-65.91
 11
327.212
 21
-65.8148
  0
LINE
  8
0
 10
233.232
 20
-65.8148
 11
232.826
 21
-65.5439
  0
LINE
  8
0
 10
232.826
 20
-65.5439
 11
232.555
 21
-65.1384
  0
LINE
  8
0
 10
232.555
 20
-65.1384
 11
232.46
 21
-64.66
  0
LINE
  8
0
 10
232.46
 20
-64.66
 11
232.555
 21
-64.1816
  0
LINE
  8
0
 10
232.555
 20
-64.1816
 11
232.826
 21
-63.7761
  0
LINE
  8
0
 10
232.826
 20
-63.7761
 11
233.232
 21
-63.5051
  0
LINE
  8
0
 10
233.232
 20
-63.5051
 11
233.71
 21
-63.41
  0
LINE
  8
0
 10
233.71
 20
-63.41
 11
234.188
 21
-63.5051
  0
LINE
  8
0
 10
234.188
 20
-63.5051
 11
234.594
 21
-63.7761
  0
LINE
  8
0
 10
234.594
 20
-63.7761
 11
234.865
 21
-64.1816
  0
LINE
  8
0
 10
234.865
 20
-64.1816
 11
234.96
 21
-64.66
  0
LINE
  8
0
 10
234.96
 20
-64.66
 11
234.865
 21
-65.1384
  0
LINE
  8
0
 10
234.865
 20
-65.1384
 11
234.594
 21
-65.5439
  0
LINE
  8
0
 10
234.594
 20
-65.5439
 11
234.188
 21
-65.8148
  0
LINE
  8
0
 10
234.188
 20
-65.8148
 11
233.71
 21
-65.91
  0
LINE
  8
0
 10
233.71
 20
-65.91
 11
233.232
 21
-65.8148
  0
LINE
  8
0
 10
6.52136
 20
-94.3419
 11
6.07054
 21
-94.1709
  0
LINE
  8
0
 10
6.07054
 20
-94.1709
 11
5.67375
 21
-93.897
  0
LINE
  8
0
 10
5.67375
 20
-93.897
 11
5.35402
 21
-93.5361
  0
LINE
  8
0
 10
5.35402
 20
-93.5361
 11
5.12996
 21
-93.1092
  0
LINE
  8
0
 10
5.12996
 20
-93.1092
 11
5.01457
 21
-92.6411
  0
LINE
  8
0
 10
5.01457
 20
-92.6411
 11
5.01457
 21
-92.1589
  0
LINE
  8
0
 10
5.01457
 20
-92.1589
 11
5.12996
 21
-91.6908
  0
LINE
  8
0
 10
5.12996
 20
-91.6908
 11
5.35402
 21
-91.2639
  0
LINE
  8
0
 10
5.35402
 20
-91.2639
 11
5.67375
 21
-90.903
  0
LINE
  8
0
 10
5.67375
 20
-90.903
 11
6.07054
 21
-90.6291
  0
LINE
  8
0
 10
6.07054
 20
-90.6291
 11
6.52136
 21
-90.4581
  0
LINE
  8
0
 10
6.52136
 20
-90.4581
 11
6.99998
 21
-90.4
  0
LINE
  8
0
 10
6.99998
 20
-90.4
 11
7.47862
 21
-90.4581
  0
LINE
  8
0
 10
7.47862
 20
-90.4581
 11
7.92944
 21
-90.6291
  0
LINE
  8
0
 10
7.92944
 20
-90.6291
 11
8.32623
 21
-90.903
  0
LINE
  8
0
 10
8.32623
 20
-90.903
 11
8.64597
 21
-91.2639
  0
LINE
  8
0
 10
8.64597
 20
-91.2639
 11
8.87003
 21
-91.6908
  0
LINE
  8
0
 10
8.87003
 20
-91.6908
 11
8.98541
 21
-92.1589
  0
LINE
  8
0
 10
8.98541
 20
-92.1589
 11
8.98541
 21
-92.6411
  0
LINE
  8
0
 10
8.98541
 20
-92.6411
 11
8.87003
 21
-93.1092
  0
LINE
  8
0
 10
8.87003
 20
-93.1092
 11
8.64597
 21
-93.5361
  0
LINE
  8
0
 10
8.64597
 20
-93.5361
 11
8.32623
 21
-93.897
  0
LINE
  8
0
 10
8.32623
 20
-93.897
 11
7.92944
 21
-94.1709
  0
LINE
  8
0
 10
7.92944
 20
-94.1709
 11
7.47862
 21
-94.3419
  0
LINE
  8
0
 10
7.47862
 20
-94.3419
 11
7
 21
-94.4
  0
LINE
  8
0
 10
7
 20
-94.4
 11
6.52136
 21
-94.3419
  0
LINE
  8
0
 10
8.00189
 20
-108.064
 11
7.51393
 21
-107.958
  0
LINE
  8
0
 10
7.51393
 20
-107.958
 11
7.04604
 21
-107.784
  0
LINE
  8
0
 10
7.04604
 20
-107.784
 11
6.60774
 21
-107.544
  0
LINE
  8
0
 10
6.60774
 20
-107.544
 11
6.20798
 21
-107.245
  0
LINE
  8
0
 10
6.20798
 20
-107.245
 11
5.85487
 21
-106.892
  0
LINE
  8
0
 10
5.85487
 20
-106.892
 11
5.5556
 21
-106.492
  0
LINE
  8
0
 10
5.5556
 20
-106.492
 11
5.31628
 21
-106.054
  0
LINE
  8
0
 10
5.31628
 20
-106.054
 11
5.14177
 21
-105.586
  0
LINE
  8
0
 10
5.14177
 20
-105.586
 11
5.03561
 21
-105.098
  0
LINE
  8
0
 10
5.03561
 20
-105.098
 11
5
 21
-104.6
  0
LINE
  8
0
 10
5
 20
-104.6
 11
5.03561
 21
-104.102
  0
LINE
  8
0
 10
5.03561
 20
-104.102
 11
5.14177
 21
-103.614
  0
LINE
  8
0
 10
5.14177
 20
-103.614
 11
5.31628
 21
-103.146
  0
LINE
  8
0
 10
5.31628
 20
-103.146
 11
5.5556
 21
-102.708
  0
LINE
  8
0
 10
5.5556
 20
-102.708
 11
5.85487
 21
-102.308
  0
LINE
  8
0
 10
5.85487
 20
-102.308
 11
6.20798
 21
-101.955
  0
LINE
  8
0
 10
6.20798
 20
-101.955
 11
6.60774
 21
-101.656
  0
LINE
  8
0
 10
6.60774
 20
-101.656
 11
7.04604
 21
-101.416
  0
LINE
  8
0
 10
7.04604
 20
-101.416
 11
7.51393
 21
-101.242
  0
LINE
  8
0
 10
7.51393
 20
-101.242
 11
8.00189
 21
-101.136
  0
LINE
  8
0
 10
8.00189
 20
-101.136
 11
8.5
 21
-101.1
  0
LINE
  8
0
 10
8.5
 20
-101.1
 11
8.99809
 21
-101.136
  0
LINE
  8
0
 10
8.99809
 20
-101.136
 11
9.48605
 21
-101.242
  0
LINE
  8
0
 10
9.48605
 20
-101.242
 11
9.95395
 21
-101.416
  0
LINE
  8
0
 10
9.95395
 20
-101.416
 11
10.3922
 21
-101.656
  0
LINE
  8
0
 10
10.3922
 20
-101.656
 11
10.792
 21
-101.955
  0
LINE
  8
0
 10
10.792
 20
-101.955
 11
11.1451
 21
-102.308
  0
LINE
  8
0
 10
11.1451
 20
-102.308
 11
11.4444
 21
-102.708
  0
LINE
  8
0
 10
11.4444
 20
-102.708
 11
11.6837
 21
-103.146
  0
LINE
  8
0
 10
11.6837
 20
-103.146
 11
11.8582
 21
-103.614
  0
LINE
  8
0
 10
11.8582
 20
-103.614
 11
11.9644
 21
-104.102
  0
LINE
  8
0
 10
11.9644
 20
-104.102
 11
12
 21
-104.6
  0
LINE
  8
0
 10
12
 20
-104.6
 11
11.9644
 21
-105.098
  0
LINE
  8
0
 10
11.9644
 20
-105.098
 11
11.8582
 21
-105.586
  0
LINE
  8
0
 10
11.8582
 20
-105.586
 11
11.6837
 21
-106.054
  0
LINE
  8
0
 10
11.6837
 20
-106.054
 11
11.4444
 21
-106.492
  0
LINE
  8
0
 10
11.4444
 20
-106.492
 11
11.1451
 21
-106.892
  0
LINE
  8
0
 10
11.1451
 20
-106.892
 11
10.792
 21
-107.245
  0
LINE
  8
0
 10
10.792
 20
-107.245
 11
10.3922
 21
-107.544
  0
LINE
  8
0
 10
10.3922
 20
-107.544
 11
9.95395
 21
-107.784
  0
LINE
  8
0
 10
9.95395
 20
-107.784
 11
9.48605
 21
-107.958
  0
LINE
  8
0
 10
9.48605
 20
-107.958
 11
8.99809
 21
-108.064
  0
LINE
  8
0
 10
8.99809
 20
-108.064
 11
8.5
 21
-108.1
  0
LINE
  8
0
 10
8.5
 20
-108.1
 11
8.00189
 21
-108.064
  0
LINE
  8
0
 10
205.793
 20
-107.192
 11
205.534
 21
-106.789
  0
LINE
  8
0
 10
205.534
 20
-106.789
 11
205.534
 21
-106.311
  0
LINE
  8
0
 10
205.534
 20
-106.311
 11
205.793
 21
-105.908
  0
LINE
  8
0
 10
205.793
 20
-105.908
 11
206.229
 21
-105.709
  0
LINE
  8
0
 10
206.229
 20
-105.709
 11
206.703
 21
-105.777
  0
LINE
  8
0
 10
206.703
 20
-105.777
 11
207.065
 21
-106.09
  0
LINE
  8
0
 10
207.065
 20
-106.09
 11
207.2
 21
-106.55
  0
LINE
  8
0
 10
207.2
 20
-106.55
 11
207.065
 21
-107.01
  0
LINE
  8
0
 10
207.065
 20
-107.01
 11
206.703
 21
-107.323
  0
LINE
  8
0
 10
206.703
 20
-107.323
 11
206.229
 21
-107.391
  0
LINE
  8
0
 10
206.229
 20
-107.391
 11
205.793
 21
-107.192
  0
LINE
  8
0
 10
233.232
 20
-108.995
 11
232.826
 21
-108.724
  0
LINE
  8
0
 10
232.826
 20
-108.724
 11
232.555
 21
-108.318
  0
LINE
  8
0
 10
232.555
 20
-108.318
 11
232.46
 21
-107.84
  0
LINE
  8
0
 10
232.46
 20
-107.84
 11
232.555
 21
-107.362
  0
LINE
  8
0
 10
232.555
 20
-107.362
 11
232.826
 21
-106.956
  0
LINE
  8
0
 10
232.826
 20
-106.956
 11
233.232
 21
-106.685
  0
LINE
  8
0
 10
233.232
 20
-106.685
 11
233.71
 21
-106.59
  0
LINE
  8
0
 10
233.71
 20
-106.59
 11
234.188
 21
-106.685
  0
LINE
  8
0
 10
234.188
 20
-106.685
 11
234.594
 21
-106.956
  0
LINE
  8
0
 10
234.594
 20
-106.956
 11
234.865
 21
-107.362
  0
LINE
  8
0
 10
234.865
 20
-107.362
 11
234.96
 21
-107.84
  0
LINE
  8
0
 10
234.96
 20
-107.84
 11
234.865
 21
-108.318
  0
LINE
  8
0
 10
234.865
 20
-108.318
 11
234.594
 21
-108.724
  0
LINE
  8
0
 10
234.594
 20
-108.724
 11
234.188
 21
-108.995
  0
LINE
  8
0
 10
234.188
 20
-108.995
 11
233.71
 21
-109.09
  0
LINE
  8
0
 10
233.71
 20
-109.09
 11
233.232
 21
-108.995
  0
LINE
  8
0
 10
327.212
 20
-108.995
 11
326.806
 21
-108.724
  0
LINE
  8
0
 10
326.806
 20
-108.724
 11
326.535
 21
-108.318
  0
LINE
  8
0
 10
326.535
 20
-108.318
 11
326.44
 21
-107.84
  0
LINE
  8
0
 10
326.44
 20
-107.84
 11
326.535
 21
-107.362
  0
LINE
  8
0
 10
326.535
 20
-107.362
 11
326.806
 21
-106.956
  0
LINE
  8
0
 10
326.806
 20
-106.956
 11
327.212
 21
-106.685
  0
LINE
  8
0
 10
327.212
 20
-106.685
 11
327.69
 21
-106.59
  0
LINE
  8
0
 10
327.69
 20
-106.59
 11
328.168
 21
-106.685
  0
LINE
  8
0
 10
328.168
 20
-106.685
 11
328.574
 21
-106.956
  0
LINE
  8
0
 10
328.574
 20
-106.956
 11
328.845
 21
-107.362
  0
LINE
  8
0
 10
328.845
 20
-107.362
 11
328.94
 21
-107.84
  0
LINE
  8
0
 10
328.94
 20
-107.84
 11
328.845
 21
-108.318
  0
LINE
  8
0
 10
328.845
 20
-108.318
 11
328.574
 21
-108.724
  0
LINE
  8
0
 10
328.574
 20
-108.724
 11
328.168
 21
-108.995
  0
LINE
  8
0
 10
328.168
 20
-108.995
 11
327.69
 21
-109.09
  0
LINE
  8
0
 10
327.69
 20
-109.09
 11
327.212
 21
-108.995
  0
LINE
  8
0
 10
191.493
 20
-123.092
 11
191.234
 21
-122.689
  0
LINE
  8
0
 10
191.234
 20
-122.689
 11
191.234
 21
-122.211
  0
LINE
  8
0
 10
191.234
 20
-122.211
 11
191.493
 21
-121.808
  0
LINE
  8
0
 10
191.493
 20
-121.808
 11
191.929
 21
-121.609
  0
LINE
  8
0
 10
191.929
 20
-121.609
 11
192.403
 21
-121.677
  0
LINE
  8
0
 10
192.403
 20
-121.677
 11
192.765
 21
-121.99
  0
LINE
  8
0
 10
192.765
 20
-121.99
 11
192.9
 21
-122.45
  0
LINE
  8
0
 10
192.9
 20
-122.45
 11
192.765
 21
-122.91
  0
LINE
  8
0
 10
192.765
 20
-122.91
 11
192.403
 21
-123.223
  0
LINE
  8
0
 10
192.403
 20
-123.223
 11
191.929
 21
-123.291
  0
LINE
  8
0
 10
191.929
 20
-123.291
 11
191.493
 21
-123.092
  0
LINE
  8
0
 10
7.96068
 20
-138.551
 11
7.53687
 21
-138.329
  0
LINE
  8
0
 10
7.53687
 20
-138.329
 11
7.26497
 21
-137.935
  0
LINE
  8
0
 10
7.26497
 20
-137.935
 11
7.20729
 21
-137.459
  0
LINE
  8
0
 10
7.20729
 20
-137.459
 11
7.37701
 21
-137.012
  0
LINE
  8
0
 10
7.37701
 20
-137.012
 11
7.73528
 21
-136.695
  0
LINE
  8
0
 10
7.73528
 20
-136.695
 11
8.2
 21
-136.58
  0
LINE
  8
0
 10
8.2
 20
-136.58
 11
8.66472
 21
-136.695
  0
LINE
  8
0
 10
8.66472
 20
-136.695
 11
9.02298
 21
-137.012
  0
LINE
  8
0
 10
9.02298
 20
-137.012
 11
9.1927
 21
-137.459
  0
LINE
  8
0
 10
9.1927
 20
-137.459
 11
9.13501
 21
-137.935
  0
LINE
  8
0
 10
9.13501
 20
-137.935
 11
8.86311
 21
-138.329
  0
LINE
  8
0
 10
8.86311
 20
-138.329
 11
8.4393
 21
-138.551
  0
LINE
  8
0
 10
8.4393
 20
-138.551
 11
7.96068
 21
-138.551
  0
LINE
  8
0
 10
205.793
 20
-138.692
 11
205.534
 21
-138.289
  0
LINE
  8
0
 10
205.534
 20
-138.289
 11
205.534
 21
-137.811
  0
LINE
  8
0
 10
205.534
 20
-137.811
 11
205.793
 21
-137.408
  0
LINE
  8
0
 10
205.793
 20
-137.408
 11
206.229
 21
-137.209
  0
LINE
  8
0
 10
206.229
 20
-137.209
 11
206.703
 21
-137.277
  0
LINE
  8
0
 10
206.703
 20
-137.277
 11
207.065
 21
-137.59
  0
LINE
  8
0
 10
207.065
 20
-137.59
 11
207.2
 21
-138.05
  0
LINE
  8
0
 10
207.2
 20
-138.05
 11
207.065
 21
-138.51
  0
LINE
  8
0
 10
207.065
 20
-138.51
 11
206.703
 21
-138.823
  0
LINE
  8
0
 10
206.703
 20
-138.823
 11
206.229
 21
-138.891
  0
LINE
  8
0
 10
206.229
 20
-138.891
 11
205.793
 21
-138.692
  0
LINE
  8
0
 10
191.493
 20
-154.592
 11
191.234
 21
-154.189
  0
LINE
  8
0
 10
191.234
 20
-154.189
 11
191.234
 21
-153.711
  0
LINE
  8
0
 10
191.234
 20
-153.711
 11
191.493
 21
-153.308
  0
LINE
  8
0
 10
191.493
 20
-153.308
 11
191.929
 21
-153.109
  0
LINE
  8
0
 10
191.929
 20
-153.109
 11
192.403
 21
-153.177
  0
LINE
  8
0
 10
192.403
 20
-153.177
 11
192.765
 21
-153.49
  0
LINE
  8
0
 10
192.765
 20
-153.49
 11
192.9
 21
-153.95
  0
LINE
  8
0
 10
192.9
 20
-153.95
 11
192.765
 21
-154.41
  0
LINE
  8
0
 10
192.765
 20
-154.41
 11
192.403
 21
-154.723
  0
LINE
  8
0
 10
192.403
 20
-154.723
 11
191.929
 21
-154.791
  0
LINE
  8
0
 10
191.929
 20
-154.791
 11
191.493
 21
-154.592
  0
LINE
  8
0
 10
7.96068
 20
-159.771
 11
7.53687
 21
-159.549
  0
LINE
  8
0
 10
7.53687
 20
-159.549
 11
7.26497
 21
-159.155
  0
LINE
  8
0
 10
7.26497
 20
-159.155
 11
7.20729
 21
-158.679
  0
LINE
  8
0
 10
7.20729
 20
-158.679
 11
7.37701
 21
-158.232
  0
LINE
  8
0
 10
7.37701
 20
-158.232
 11
7.73528
 21
-157.915
  0
LINE
  8
0
 10
7.73528
 20
-157.915
 11
8.2
 21
-157.8
  0
LINE
  8
0
 10
8.2
 20
-157.8
 11
8.66472
 21
-157.915
  0
LINE
  8
0
 10
8.66472
 20
-157.915
 11
9.02298
 21
-158.232
  0
LINE
  8
0
 10
9.02298
 20
-158.232
 11
9.1927
 21
-158.679
  0
LINE
  8
0
 10
9.1927
 20
-158.679
 11
9.13501
 21
-159.155
  0
LINE
  8
0
 10
9.13501
 20
-159.155
 11
8.86311
 21
-159.549
  0
LINE
  8
0
 10
8.86311
 20
-159.549
 11
8.4393
 21
-159.771
  0
LINE
  8
0
 10
8.4393
 20
-159.771
 11
7.96068
 21
-159.771
  0
LINE
  8
0
 10
125.545
 20
-162.435
 11
125.151
 21
-162.163
  0
LINE
  8
0
 10
125.151
 20
-162.163
 11
124.929
 21
-161.739
  0
LINE
  8
0
 10
124.929
 20
-161.739
 11
124.929
 21
-161.261
  0
LINE
  8
0
 10
124.929
 20
-161.261
 11
125.151
 21
-160.837
  0
LINE
  8
0
 10
125.151
 20
-160.837
 11
125.545
 21
-160.565
  0
LINE
  8
0
 10
125.545
 20
-160.565
 11
126.021
 21
-160.507
  0
LINE
  8
0
 10
126.021
 20
-160.507
 11
126.468
 21
-160.677
  0
LINE
  8
0
 10
126.468
 20
-160.677
 11
126.785
 21
-161.035
  0
LINE
  8
0
 10
126.785
 20
-161.035
 11
126.9
 21
-161.5
  0
LINE
  8
0
 10
126.9
 20
-161.5
 11
126.785
 21
-161.965
  0
LINE
  8
0
 10
126.785
 20
-161.965
 11
126.468
 21
-162.323
  0
LINE
  8
0
 10
126.468
 20
-162.323
 11
126.021
 21
-162.493
  0
LINE
  8
0
 10
126.021
 20
-162.493
 11
125.545
 21
-162.435
  0
LINE
  8
0
 10
32.5454
 20
-162.435
 11
32.1515
 21
-162.163
  0
LINE
  8
0
 10
32.1515
 20
-162.163
 11
31.929
 21
-161.739
  0
LINE
  8
0
 10
31.929
 20
-161.739
 11
31.929
 21
-161.261
  0
LINE
  8
0
 10
31.929
 20
-161.261
 11
32.1515
 21
-160.837
  0
LINE
  8
0
 10
32.1515
 20
-160.837
 11
32.5454
 21
-160.565
  0
LINE
  8
0
 10
32.5454
 20
-160.565
 11
33.0205
 21
-160.507
  0
LINE
  8
0
 10
33.0205
 20
-160.507
 11
33.4681
 21
-160.677
  0
LINE
  8
0
 10
33.4681
 20
-160.677
 11
33.7854
 21
-161.035
  0
LINE
  8
0
 10
33.7854
 20
-161.035
 11
33.9
 21
-161.5
  0
LINE
  8
0
 10
33.9
 20
-161.5
 11
33.7854
 21
-161.965
  0
LINE
  8
0
 10
33.7854
 20
-161.965
 11
33.4681
 21
-162.323
  0
LINE
  8
0
 10
33.4681
 20
-162.323
 11
33.0205
 21
-162.493
  0
LINE
  8
0
 10
33.0205
 20
-162.493
 11
32.5454
 21
-162.435
  0
ENDSEC
  0
SECTION
  2
OBJECTS
  0
DICTIONARY
  0
ENDSEC
  0
EOF
