  0
SECTION
  2
BLOCKS
  0
ENDSEC
  0
SECTION
  2
ENTITIES
  0
LINE
  8
0
 10
0
 20
-164.5
 11
395
 21
-164.5
  0
LINE
  8
0
 10
395
 20
-164.5
 11
395
 21
0
  0
LINE
  8
0
 10
395
 20
0
 11
0
 21
0
  0
LINE
  8
0
 10
0
 20
0
 11
0
 21
-164.5
  0
LINE
  8
0
 10
5
 20
-100.6
 11
5.03562
 21
-100.102
  0
LINE
  8
0
 10
5.03562
 20
-100.102
 11
5.14177
 21
-99.6139
  0
LINE
  8
0
 10
5.14177
 20
-99.6139
 11
5.31629
 21
-99.146
  0
LINE
  8
0
 10
5.31629
 20
-99.146
 11
5.55561
 21
-98.7078
  0
LINE
  8
0
 10
5.55561
 20
-98.7078
 11
5.85488
 21
-98.308
  0
LINE
  8
0
 10
5.85488
 20
-98.308
 11
6.20799
 21
-97.9549
  0
LINE
  8
0
 10
6.20799
 20
-97.9549
 11
6.60776
 21
-97.6556
  0
LINE
  8
0
 10
6.60776
 20
-97.6556
 11
7.04605
 21
-97.4163
  0
LINE
  8
0
 10
7.04605
 20
-97.4163
 11
7.51394
 21
-97.2418
  0
LINE
  8
0
 10
7.51394
 20
-97.2418
 11
8.0019
 21
-97.1356
  0
LINE
  8
0
 10
8.0019
 20
-97.1356
 11
8.5
 21
-97.1
  0
LINE
  8
0
 10
8.5
 20
-97.1
 11
8.9981
 21
-97.1356
  0
LINE
  8
0
 10
8.9981
 20
-97.1356
 11
9.48606
 21
-97.2418
  0
LINE
  8
0
 10
9.48606
 20
-97.2418
 11
9.95395
 21
-97.4163
  0
LINE
  8
0
 10
9.95395
 20
-97.4163
 11
10.3922
 21
-97.6556
  0
LINE
  8
0
 10
10.3922
 20
-97.6556
 11
10.792
 21
-97.9549
  0
LINE
  8
0
 10
10.792
 20
-97.9549
 11
11.1451
 21
-98.308
  0
LINE
  8
0
 10
11.1451
 20
-98.308
 11
11.4444
 21
-98.7078
  0
LINE
  8
0
 10
11.4444
 20
-98.7078
 11
11.6837
 21
-99.146
  0
LINE
  8
0
 10
11.6837
 20
-99.146
 11
11.8582
 21
-99.6139
  0
LINE
  8
0
 10
11.8582
 20
-99.6139
 11
11.9644
 21
-100.102
  0
LINE
  8
0
 10
11.9644
 20
-100.102
 11
12
 21
-100.6
  0
LINE
  8
0
 10
12
 20
-100.6
 11
11.9644
 21
-101.098
  0
LINE
  8
0
 10
11.9644
 20
-101.098
 11
11.8582
 21
-101.586
  0
LINE
  8
0
 10
11.8582
 20
-101.586
 11
11.6837
 21
-102.054
  0
LINE
  8
0
 10
11.6837
 20
-102.054
 11
11.4444
 21
-102.492
  0
LINE
  8
0
 10
11.4444
 20
-102.492
 11
11.1451
 21
-102.892
  0
LINE
  8
0
 10
11.1451
 20
-102.892
 11
10.792
 21
-103.245
  0
LINE
  8
0
 10
10.792
 20
-103.245
 11
10.3922
 21
-103.544
  0
LINE
  8
0
 10
10.3922
 20
-103.544
 11
9.95395
 21
-103.784
  0
LINE
  8
0
 10
9.95395
 20
-103.784
 11
9.48606
 21
-103.958
  0
LINE
  8
0
 10
9.48606
 20
-103.958
 11
8.9981
 21
-104.064
  0
LINE
  8
0
 10
8.9981
 20
-104.064
 11
8.5
 21
-104.1
  0
LINE
  8
0
 10
8.5
 20
-104.1
 11
8.0019
 21
-104.064
  0
LINE
  8
0
 10
8.0019
 20
-104.064
 11
7.51394
 21
-103.958
  0
LINE
  8
0
 10
7.51394
 20
-103.958
 11
7.04605
 21
-103.784
  0
LINE
  8
0
 10
7.04605
 20
-103.784
 11
6.60776
 21
-103.544
  0
LINE
  8
0
 10
6.60776
 20
-103.544
 11
6.20799
 21
-103.245
  0
LINE
  8
0
 10
6.20799
 20
-103.245
 11
5.85488
 21
-102.892
  0
LINE
  8
0
 10
5.85488
 20
-102.892
 11
5.55561
 21
-102.492
  0
LINE
  8
0
 10
5.55561
 20
-102.492
 11
5.31629
 21
-102.054
  0
LINE
  8
0
 10
5.31629
 20
-102.054
 11
5.14177
 21
-101.586
  0
LINE
  8
0
 10
5.14177
 20
-101.586
 11
5.03562
 21
-101.098
  0
LINE
  8
0
 10
5.03562
 20
-101.098
 11
5
 21
-100.6
  0
LINE
  8
0
 10
5
 20
-18.9
 11
5.04804
 21
-18.4123
  0
LINE
  8
0
 10
5.04804
 20
-18.4123
 11
5.1903
 21
-17.9433
  0
LINE
  8
0
 10
5.1903
 20
-17.9433
 11
5.42133
 21
-17.5111
  0
LINE
  8
0
 10
5.42133
 20
-17.5111
 11
5.73223
 21
-17.1322
  0
LINE
  8
0
 10
5.73223
 20
-17.1322
 11
6.11107
 21
-16.8213
  0
LINE
  8
0
 10
6.11107
 20
-16.8213
 11
6.54329
 21
-16.5903
  0
LINE
  8
0
 10
6.54329
 20
-16.5903
 11
7.01227
 21
-16.448
  0
LINE
  8
0
 10
7.01227
 20
-16.448
 11
7.5
 21
-16.4
  0
LINE
  8
0
 10
7.5
 20
-16.4
 11
7.98773
 21
-16.448
  0
LINE
  8
0
 10
7.98773
 20
-16.448
 11
8.45671
 21
-16.5903
  0
LINE
  8
0
 10
8.45671
 20
-16.5903
 11
8.88893
 21
-16.8213
  0
LINE
  8
0
 10
8.88893
 20
-16.8213
 11
9.26777
 21
-17.1322
  0
LINE
  8
0
 10
9.26777
 20
-17.1322
 11
9.57867
 21
-17.5111
  0
LINE
  8
0
 10
9.57867
 20
-17.5111
 11
9.8097
 21
-17.9433
  0
LINE
  8
0
 10
9.8097
 20
-17.9433
 11
9.95196
 21
-18.4123
  0
LINE
  8
0
 10
9.95196
 20
-18.4123
 11
10
 21
-18.9
  0
LINE
  8
0
 10
10
 20
-18.9
 11
9.95196
 21
-19.3877
  0
LINE
  8
0
 10
9.95196
 20
-19.3877
 11
9.8097
 21
-19.8567
  0
LINE
  8
0
 10
9.8097
 20
-19.8567
 11
9.57867
 21
-20.2889
  0
LINE
  8
0
 10
9.57867
 20
-20.2889
 11
9.26777
 21
-20.6678
  0
LINE
  8
0
 10
9.26777
 20
-20.6678
 11
8.88893
 21
-20.9787
  0
LINE
  8
0
 10
8.88893
 20
-20.9787
 11
8.45671
 21
-21.2097
  0
LINE
  8
0
 10
8.45671
 20
-21.2097
 11
7.98773
 21
-21.352
  0
LINE
  8
0
 10
7.98773
 20
-21.352
 11
7.5
 21
-21.4
  0
LINE
  8
0
 10
7.5
 20
-21.4
 11
7.01227
 21
-21.352
  0
LINE
  8
0
 10
7.01227
 20
-21.352
 11
6.54329
 21
-21.2097
  0
LINE
  8
0
 10
6.54329
 20
-21.2097
 11
6.11107
 21
-20.9787
  0
LINE
  8
0
 10
6.11107
 20
-20.9787
 11
5.73223
 21
-20.6678
  0
LINE
  8
0
 10
5.73223
 20
-20.6678
 11
5.42133
 21
-20.2889
  0
LINE
  8
0
 10
5.42133
 20
-20.2889
 11
5.1903
 21
-19.8567
  0
LINE
  8
0
 10
5.1903
 20
-19.8567
 11
5.04804
 21
-19.3877
  0
LINE
  8
0
 10
5.04804
 20
-19.3877
 11
5
 21
-18.9
  0
LINE
  8
0
 10
5.01458
 20
-88.6411
 11
5.01458
 21
-88.1589
  0
LINE
  8
0
 10
5.01458
 20
-88.1589
 11
5.12997
 21
-87.6908
  0
LINE
  8
0
 10
5.12997
 20
-87.6908
 11
5.35403
 21
-87.2639
  0
LINE
  8
0
 10
5.35403
 20
-87.2639
 11
5.67375
 21
-86.903
  0
LINE
  8
0
 10
5.67375
 20
-86.903
 11
6.07055
 21
-86.6291
  0
LINE
  8
0
 10
6.07055
 20
-86.6291
 11
6.52137
 21
-86.4581
  0
LINE
  8
0
 10
6.52137
 20
-86.4581
 11
7
 21
-86.4
  0
LINE
  8
0
 10
7
 20
-86.4
 11
7.47863
 21
-86.4581
  0
LINE
  8
0
 10
7.47863
 20
-86.4581
 11
7.92945
 21
-86.6291
  0
LINE
  8
0
 10
7.92945
 20
-86.6291
 11
8.32625
 21
-86.903
  0
LINE
  8
0
 10
8.32625
 20
-86.903
 11
8.64597
 21
-87.2639
  0
LINE
  8
0
 10
8.64597
 20
-87.2639
 11
8.87003
 21
-87.6908
  0
LINE
  8
0
 10
8.87003
 20
-87.6908
 11
8.98542
 21
-88.1589
  0
LINE
  8
0
 10
8.98542
 20
-88.1589
 11
8.98542
 21
-88.6411
  0
LINE
  8
0
 10
8.98542
 20
-88.6411
 11
8.87003
 21
-89.1092
  0
LINE
  8
0
 10
8.87003
 20
-89.1092
 11
8.64597
 21
-89.5361
  0
LINE
  8
0
 10
8.64597
 20
-89.5361
 11
8.32625
 21
-89.897
  0
LINE
  8
0
 10
8.32625
 20
-89.897
 11
7.92945
 21
-90.1709
  0
LINE
  8
0
 10
7.92945
 20
-90.1709
 11
7.47863
 21
-90.3419
  0
LINE
  8
0
 10
7.47863
 20
-90.3419
 11
7
 21
-90.4
  0
LINE
  8
0
 10
7
 20
-90.4
 11
6.52137
 21
-90.3419
  0
LINE
  8
0
 10
6.52137
 20
-90.3419
 11
6.07055
 21
-90.1709
  0
LINE
  8
0
 10
6.07055
 20
-90.1709
 11
5.67375
 21
-89.897
  0
LINE
  8
0
 10
5.67375
 20
-89.897
 11
5.35403
 21
-89.5361
  0
LINE
  8
0
 10
5.35403
 20
-89.5361
 11
5.12997
 21
-89.1092
  0
LINE
  8
0
 10
5.12997
 20
-89.1092
 11
5.01458
 21
-88.6411
  0
LINE
  8
0
 10
5.01458
 20
-28.6411
 11
5.01458
 21
-28.1589
  0
LINE
  8
0
 10
5.01458
 20
-28.1589
 11
5.12997
 21
-27.6908
  0
LINE
  8
0
 10
5.12997
 20
-27.6908
 11
5.35403
 21
-27.2639
  0
LINE
  8
0
 10
5.35403
 20
-27.2639
 11
5.67375
 21
-26.903
  0
LINE
  8
0
 10
5.67375
 20
-26.903
 11
6.07055
 21
-26.6291
  0
LINE
  8
0
 10
6.07055
 20
-26.6291
 11
6.52137
 21
-26.4581
  0
LINE
  8
0
 10
6.52137
 20
-26.4581
 11
7
 21
-26.4
  0
LINE
  8
0
 10
7
 20
-26.4
 11
7.47863
 21
-26.4581
  0
LINE
  8
0
 10
7.47863
 20
-26.4581
 11
7.92945
 21
-26.6291
  0
LINE
  8
0
 10
7.92945
 20
-26.6291
 11
8.32625
 21
-26.903
  0
LINE
  8
0
 10
8.32625
 20
-26.903
 11
8.64597
 21
-27.2639
  0
LINE
  8
0
 10
8.64597
 20
-27.2639
 11
8.87003
 21
-27.6908
  0
LINE
  8
0
 10
8.87003
 20
-27.6908
 11
8.98542
 21
-28.1589
  0
LINE
  8
0
 10
8.98542
 20
-28.1589
 11
8.98542
 21
-28.6411
  0
LINE
  8
0
 10
8.98542
 20
-28.6411
 11
8.87003
 21
-29.1092
  0
LINE
  8
0
 10
8.87003
 20
-29.1092
 11
8.64597
 21
-29.5361
  0
LINE
  8
0
 10
8.64597
 20
-29.5361
 11
8.32625
 21
-29.897
  0
LINE
  8
0
 10
8.32625
 20
-29.897
 11
7.92945
 21
-30.1709
  0
LINE
  8
0
 10
7.92945
 20
-30.1709
 11
7.47863
 21
-30.3419
  0
LINE
  8
0
 10
7.47863
 20
-30.3419
 11
7
 21
-30.4
  0
LINE
  8
0
 10
7
 20
-30.4
 11
6.52137
 21
-30.3419
  0
LINE
  8
0
 10
6.52137
 20
-30.3419
 11
6.07055
 21
-30.1709
  0
LINE
  8
0
 10
6.07055
 20
-30.1709
 11
5.67375
 21
-29.897
  0
LINE
  8
0
 10
5.67375
 20
-29.897
 11
5.35403
 21
-29.5361
  0
LINE
  8
0
 10
5.35403
 20
-29.5361
 11
5.12997
 21
-29.1092
  0
LINE
  8
0
 10
5.12997
 20
-29.1092
 11
5.01458
 21
-28.6411
  0
LINE
  8
0
 10
7.20729
 20
-154.679
 11
7.37702
 21
-154.232
  0
LINE
  8
0
 10
7.37702
 20
-154.232
 11
7.73528
 21
-153.915
  0
LINE
  8
0
 10
7.73528
 20
-153.915
 11
8.2
 21
-153.8
  0
LINE
  8
0
 10
8.2
 20
-153.8
 11
8.66472
 21
-153.915
  0
LINE
  8
0
 10
8.66472
 20
-153.915
 11
9.02298
 21
-154.232
  0
LINE
  8
0
 10
9.02298
 20
-154.232
 11
9.19271
 21
-154.679
  0
LINE
  8
0
 10
9.19271
 20
-154.679
 11
9.13502
 21
-155.155
  0
LINE
  8
0
 10
9.13502
 20
-155.155
 11
8.86312
 21
-155.549
  0
LINE
  8
0
 10
8.86312
 20
-155.549
 11
8.43931
 21
-155.771
  0
LINE
  8
0
 10
8.43931
 20
-155.771
 11
7.96068
 21
-155.771
  0
LINE
  8
0
 10
7.96068
 20
-155.771
 11
7.53688
 21
-155.549
  0
LINE
  8
0
 10
7.53688
 20
-155.549
 11
7.26498
 21
-155.155
  0
LINE
  8
0
 10
7.26498
 20
-155.155
 11
7.20729
 21
-154.679
  0
LINE
  8
0
 10
7.20729
 20
-133.459
 11
7.37702
 21
-133.012
  0
LINE
  8
0
 10
7.37702
 20
-133.012
 11
7.73528
 21
-132.695
  0
LINE
  8
0
 10
7.73528
 20
-132.695
 11
8.2
 21
-132.58
  0
LINE
  8
0
 10
8.2
 20
-132.58
 11
8.66472
 21
-132.695
  0
LINE
  8
0
 10
8.66472
 20
-132.695
 11
9.02298
 21
-133.012
  0
LINE
  8
0
 10
9.02298
 20
-133.012
 11
9.19271
 21
-133.459
  0
LINE
  8
0
 10
9.19271
 20
-133.459
 11
9.13502
 21
-133.935
  0
LINE
  8
0
 10
9.13502
 20
-133.935
 11
8.86312
 21
-134.329
  0
LINE
  8
0
 10
8.86312
 20
-134.329
 11
8.43931
 21
-134.551
  0
LINE
  8
0
 10
8.43931
 20
-134.551
 11
7.96068
 21
-134.551
  0
LINE
  8
0
 10
7.96068
 20
-134.551
 11
7.53688
 21
-134.329
  0
LINE
  8
0
 10
7.53688
 20
-134.329
 11
7.26498
 21
-133.935
  0
LINE
  8
0
 10
7.26498
 20
-133.935
 11
7.20729
 21
-133.459
  0
LINE
  8
0
 10
25.1291
 20
-8.43931
 11
25.1291
 21
-7.96068
  0
LINE
  8
0
 10
25.1291
 20
-7.96068
 11
25.3515
 21
-7.53688
  0
LINE
  8
0
 10
25.3515
 20
-7.53688
 11
25.7454
 21
-7.26498
  0
LINE
  8
0
 10
25.7454
 20
-7.26498
 11
26.2205
 21
-7.20729
  0
LINE
  8
0
 10
26.2205
 20
-7.20729
 11
26.6681
 21
-7.37702
  0
LINE
  8
0
 10
26.6681
 20
-7.37702
 11
26.9855
 21
-7.73528
  0
LINE
  8
0
 10
26.9855
 20
-7.73528
 11
27.1
 21
-8.2
  0
LINE
  8
0
 10
27.1
 20
-8.2
 11
26.9855
 21
-8.66472
  0
LINE
  8
0
 10
26.9855
 20
-8.66472
 11
26.6681
 21
-9.02298
  0
LINE
  8
0
 10
26.6681
 20
-9.02298
 11
26.2205
 21
-9.19271
  0
LINE
  8
0
 10
26.2205
 20
-9.19271
 11
25.7454
 21
-9.13502
  0
LINE
  8
0
 10
25.7454
 20
-9.13502
 11
25.3515
 21
-8.86312
  0
LINE
  8
0
 10
25.3515
 20
-8.86312
 11
25.1291
 21
-8.43931
  0
LINE
  8
0
 10
31.9291
 20
-157.739
 11
31.9291
 21
-157.261
  0
LINE
  8
0
 10
31.9291
 20
-157.261
 11
32.1515
 21
-156.837
  0
LINE
  8
0
 10
32.1515
 20
-156.837
 11
32.5454
 21
-156.565
  0
LINE
  8
0
 10
32.5454
 20
-156.565
 11
33.0205
 21
-156.507
  0
LINE
  8
0
 10
33.0205
 20
-156.507
 11
33.4681
 21
-156.677
  0
LINE
  8
0
 10
33.4681
 20
-156.677
 11
33.7855
 21
-157.035
  0
LINE
  8
0
 10
33.7855
 20
-157.035
 11
33.9
 21
-157.5
  0
LINE
  8
0
 10
33.9
 20
-157.5
 11
33.7855
 21
-157.965
  0
LINE
  8
0
 10
33.7855
 20
-157.965
 11
33.4681
 21
-158.323
  0
LINE
  8
0
 10
33.4681
 20
-158.323
 11
33.0205
 21
-158.493
  0
LINE
  8
0
 10
33.0205
 20
-158.493
 11
32.5454
 21
-158.435
  0
LINE
  8
0
 10
32.5454
 20
-158.435
 11
32.1515
 21
-158.163
  0
LINE
  8
0
 10
32.1515
 20
-158.163
 11
31.9291
 21
-157.739
  0
LINE
  8
0
 10
46.3491
 20
-8.43931
 11
46.3491
 21
-7.96068
  0
LINE
  8
0
 10
46.3491
 20
-7.96068
 11
46.5715
 21
-7.53688
  0
LINE
  8
0
 10
46.5715
 20
-7.53688
 11
46.9654
 21
-7.26498
  0
LINE
  8
0
 10
46.9654
 20
-7.26498
 11
47.4405
 21
-7.20729
  0
LINE
  8
0
 10
47.4405
 20
-7.20729
 11
47.8881
 21
-7.37702
  0
LINE
  8
0
 10
47.8881
 20
-7.37702
 11
48.2055
 21
-7.73528
  0
LINE
  8
0
 10
48.2055
 20
-7.73528
 11
48.32
 21
-8.2
  0
LINE
  8
0
 10
48.32
 20
-8.2
 11
48.2055
 21
-8.66472
  0
LINE
  8
0
 10
48.2055
 20
-8.66472
 11
47.8881
 21
-9.02298
  0
LINE
  8
0
 10
47.8881
 20
-9.02298
 11
47.4405
 21
-9.19271
  0
LINE
  8
0
 10
47.4405
 20
-9.19271
 11
46.9654
 21
-9.13502
  0
LINE
  8
0
 10
46.9654
 20
-9.13502
 11
46.5715
 21
-8.86312
  0
LINE
  8
0
 10
46.5715
 20
-8.86312
 11
46.3491
 21
-8.43931
  0
LINE
  8
0
 10
124.929
 20
-157.739
 11
124.929
 21
-157.261
  0
LINE
  8
0
 10
124.929
 20
-157.261
 11
125.151
 21
-156.837
  0
LINE
  8
0
 10
125.151
 20
-156.837
 11
125.545
 21
-156.565
  0
LINE
  8
0
 10
125.545
 20
-156.565
 11
126.021
 21
-156.507
  0
LINE
  8
0
 10
126.021
 20
-156.507
 11
126.468
 21
-156.677
  0
LINE
  8
0
 10
126.468
 20
-156.677
 11
126.785
 21
-157.035
  0
LINE
  8
0
 10
126.785
 20
-157.035
 11
126.9
 21
-157.5
  0
LINE
  8
0
 10
126.9
 20
-157.5
 11
126.785
 21
-157.965
  0
LINE
  8
0
 10
126.785
 20
-157.965
 11
126.468
 21
-158.323
  0
LINE
  8
0
 10
126.468
 20
-158.323
 11
126.021
 21
-158.493
  0
LINE
  8
0
 10
126.021
 20
-158.493
 11
125.545
 21
-158.435
  0
LINE
  8
0
 10
125.545
 20
-158.435
 11
125.151
 21
-158.163
  0
LINE
  8
0
 10
125.151
 20
-158.163
 11
124.929
 21
-157.739
  0
LINE
  8
0
 10
191.234
 20
-150.189
 11
191.234
 21
-149.711
  0
LINE
  8
0
 10
191.234
 20
-149.711
 11
191.493
 21
-149.308
  0
LINE
  8
0
 10
191.493
 20
-149.308
 11
191.929
 21
-149.109
  0
LINE
  8
0
 10
191.929
 20
-149.109
 11
192.403
 21
-149.177
  0
LINE
  8
0
 10
192.403
 20
-149.177
 11
192.765
 21
-149.49
  0
LINE
  8
0
 10
192.765
 20
-149.49
 11
192.9
 21
-149.95
  0
LINE
  8
0
 10
192.9
 20
-149.95
 11
192.765
 21
-150.41
  0
LINE
  8
0
 10
192.765
 20
-150.41
 11
192.403
 21
-150.723
  0
LINE
  8
0
 10
192.403
 20
-150.723
 11
191.929
 21
-150.791
  0
LINE
  8
0
 10
191.929
 20
-150.791
 11
191.493
 21
-150.592
  0
LINE
  8
0
 10
191.493
 20
-150.592
 11
191.234
 21
-150.189
  0
LINE
  8
0
 10
191.234
 20
-118.689
 11
191.234
 21
-118.211
  0
LINE
  8
0
 10
191.234
 20
-118.211
 11
191.493
 21
-117.808
  0
LINE
  8
0
 10
191.493
 20
-117.808
 11
191.929
 21
-117.609
  0
LINE
  8
0
 10
191.929
 20
-117.609
 11
192.403
 21
-117.677
  0
LINE
  8
0
 10
192.403
 20
-117.677
 11
192.765
 21
-117.99
  0
LINE
  8
0
 10
192.765
 20
-117.99
 11
192.9
 21
-118.45
  0
LINE
  8
0
 10
192.9
 20
-118.45
 11
192.765
 21
-118.91
  0
LINE
  8
0
 10
192.765
 20
-118.91
 11
192.403
 21
-119.223
  0
LINE
  8
0
 10
192.403
 20
-119.223
 11
191.929
 21
-119.291
  0
LINE
  8
0
 10
191.929
 20
-119.291
 11
191.493
 21
-119.092
  0
LINE
  8
0
 10
191.493
 20
-119.092
 11
191.234
 21
-118.689
  0
LINE
  8
0
 10
205.534
 20
-134.289
 11
205.534
 21
-133.811
  0
LINE
  8
0
 10
205.534
 20
-133.811
 11
205.793
 21
-133.408
  0
LINE
  8
0
 10
205.793
 20
-133.408
 11
206.229
 21
-133.209
  0
LINE
  8
0
 10
206.229
 20
-133.209
 11
206.703
 21
-133.277
  0
LINE
  8
0
 10
206.703
 20
-133.277
 11
207.065
 21
-133.59
  0
LINE
  8
0
 10
207.065
 20
-133.59
 11
207.2
 21
-134.05
  0
LINE
  8
0
 10
207.2
 20
-134.05
 11
207.065
 21
-134.51
  0
LINE
  8
0
 10
207.065
 20
-134.51
 11
206.703
 21
-134.823
  0
LINE
  8
0
 10
206.703
 20
-134.823
 11
206.229
 21
-134.891
  0
LINE
  8
0
 10
206.229
 20
-134.891
 11
205.793
 21
-134.692
  0
LINE
  8
0
 10
205.793
 20
-134.692
 11
205.534
 21
-134.289
  0
LINE
  8
0
 10
205.534
 20
-102.789
 11
205.534
 21
-102.311
  0
LINE
  8
0
 10
205.534
 20
-102.311
 11
205.793
 21
-101.908
  0
LINE
  8
0
 10
205.793
 20
-101.908
 11
206.229
 21
-101.709
  0
LINE
  8
0
 10
206.229
 20
-101.709
 11
206.703
 21
-101.777
  0
LINE
  8
0
 10
206.703
 20
-101.777
 11
207.065
 21
-102.09
  0
LINE
  8
0
 10
207.065
 20
-102.09
 11
207.2
 21
-102.55
  0
LINE
  8
0
 10
207.2
 20
-102.55
 11
207.065
 21
-103.01
  0
LINE
  8
0
 10
207.065
 20
-103.01
 11
206.703
 21
-103.323
  0
LINE
  8
0
 10
206.703
 20
-103.323
 11
206.229
 21
-103.391
  0
LINE
  8
0
 10
206.229
 20
-103.391
 11
205.793
 21
-103.192
  0
LINE
  8
0
 10
205.793
 20
-103.192
 11
205.534
 21
-102.789
  0
LINE
  8
0
 10
232.46
 20
-103.84
 11
232.555
 21
-103.362
  0
LINE
  8
0
 10
232.555
 20
-103.362
 11
232.826
 21
-102.956
  0
LINE
  8
0
 10
232.826
 20
-102.956
 11
233.232
 21
-102.685
  0
LINE
  8
0
 10
233.232
 20
-102.685
 11
233.71
 21
-102.59
  0
LINE
  8
0
 10
233.71
 20
-102.59
 11
234.188
 21
-102.685
  0
LINE
  8
0
 10
234.188
 20
-102.685
 11
234.594
 21
-102.956
  0
LINE
  8
0
 10
234.594
 20
-102.956
 11
234.865
 21
-103.362
  0
LINE
  8
0
 10
234.865
 20
-103.362
 11
234.96
 21
-103.84
  0
LINE
  8
0
 10
234.96
 20
-103.84
 11
234.865
 21
-104.318
  0
LINE
  8
0
 10
234.865
 20
-104.318
 11
234.594
 21
-104.724
  0
LINE
  8
0
 10
234.594
 20
-104.724
 11
234.188
 21
-104.995
  0
LINE
  8
0
 10
234.188
 20
-104.995
 11
233.71
 21
-105.09
  0
LINE
  8
0
 10
233.71
 20
-105.09
 11
233.232
 21
-104.995
  0
LINE
  8
0
 10
233.232
 20
-104.995
 11
232.826
 21
-104.724
  0
LINE
  8
0
 10
232.826
 20
-104.724
 11
232.555
 21
-104.318
  0
LINE
  8
0
 10
232.555
 20
-104.318
 11
232.46
 21
-103.84
  0
LINE
  8
0
 10
232.46
 20
-60.66
 11
232.555
 21
-60.1816
  0
LINE
  8
0
 10
232.555
 20
-60.1816
 11
232.826
 21
-59.7761
  0
LINE
  8
0
 10
232.826
 20
-59.7761
 11
233.232
 21
-59.5052
  0
LINE
  8
0
 10
233.232
 20
-59.5052
 11
233.71
 21
-59.41
  0
LINE
  8
0
 10
233.71
 20
-59.41
 11
234.188
 21
-59.5052
  0
LINE
  8
0
 10
234.188
 20
-59.5052
 11
234.594
 21
-59.7761
  0
LINE
  8
0
 10
234.594
 20
-59.7761
 11
234.865
 21
-60.1816
  0
LINE
  8
0
 10
234.865
 20
-60.1816
 11
234.96
 21
-60.66
  0
LINE
  8
0
 10
234.96
 20
-60.66
 11
234.865
 21
-61.1384
  0
LINE
  8
0
 10
234.865
 20
-61.1384
 11
234.594
 21
-61.5439
  0
LINE
  8
0
 10
234.594
 20
-61.5439
 11
234.188
 21
-61.8148
  0
LINE
  8
0
 10
234.188
 20
-61.8148
 11
233.71
 21
-61.91
  0
LINE
  8
0
 10
233.71
 20
-61.91
 11
233.232
 21
-61.8148
  0
LINE
  8
0
 10
233.232
 20
-61.8148
 11
232.826
 21
-61.5439
  0
LINE
  8
0
 10
232.826
 20
-61.5439
 11
232.555
 21
-61.1384
  0
LINE
  8
0
 10
232.555
 20
-61.1384
 11
232.46
 21
-60.66
  0
LINE
  8
0
 10
293.512
 20
-32.1
 11
293.626
 21
-31.6353
  0
LINE
  8
0
 10
293.626
 20
-31.6353
 11
293.944
 21
-31.277
  0
LINE
  8
0
 10
293.944
 20
-31.277
 11
294.391
 21
-31.1073
  0
LINE
  8
0
 10
294.391
 20
-31.1073
 11
294.866
 21
-31.165
  0
LINE
  8
0
 10
294.866
 20
-31.165
 11
295.26
 21
-31.4369
  0
LINE
  8
0
 10
295.26
 20
-31.4369
 11
295.483
 21
-31.8607
  0
LINE
  8
0
 10
295.483
 20
-31.8607
 11
295.483
 21
-32.3393
  0
LINE
  8
0
 10
295.483
 20
-32.3393
 11
295.26
 21
-32.7631
  0
LINE
  8
0
 10
295.26
 20
-32.7631
 11
294.866
 21
-33.035
  0
LINE
  8
0
 10
294.866
 20
-33.035
 11
294.391
 21
-33.0927
  0
LINE
  8
0
 10
294.391
 20
-33.0927
 11
293.944
 21
-32.923
  0
LINE
  8
0
 10
293.944
 20
-32.923
 11
293.626
 21
-32.5647
  0
LINE
  8
0
 10
293.626
 20
-32.5647
 11
293.512
 21
-32.1
  0
LINE
  8
0
 10
320.08
 20
-8
 11
320.121
 21
-7.50622
  0
LINE
  8
0
 10
320.121
 20
-7.50622
 11
320.243
 21
-7.0259
  0
LINE
  8
0
 10
320.243
 20
-7.0259
 11
320.442
 21
-6.57216
  0
LINE
  8
0
 10
320.442
 20
-6.57216
 11
320.713
 21
-6.15736
  0
LINE
  8
0
 10
320.713
 20
-6.15736
 11
321.048
 21
-5.79283
  0
LINE
  8
0
 10
321.048
 20
-5.79283
 11
321.439
 21
-5.4885
  0
LINE
  8
0
 10
321.439
 20
-5.4885
 11
321.875
 21
-5.25268
  0
LINE
  8
0
 10
321.875
 20
-5.25268
 11
322.344
 21
-5.0918
  0
LINE
  8
0
 10
322.344
 20
-5.0918
 11
322.832
 21
-5.01025
  0
LINE
  8
0
 10
322.832
 20
-5.01025
 11
323.328
 21
-5.01025
  0
LINE
  8
0
 10
323.328
 20
-5.01025
 11
323.816
 21
-5.0918
  0
LINE
  8
0
 10
323.816
 20
-5.0918
 11
324.285
 21
-5.25268
  0
LINE
  8
0
 10
324.285
 20
-5.25268
 11
324.721
 21
-5.4885
  0
LINE
  8
0
 10
324.721
 20
-5.4885
 11
325.112
 21
-5.79283
  0
LINE
  8
0
 10
325.112
 20
-5.79283
 11
325.447
 21
-6.15736
  0
LINE
  8
0
 10
325.447
 20
-6.15736
 11
325.718
 21
-6.57216
  0
LINE
  8
0
 10
325.718
 20
-6.57216
 11
325.917
 21
-7.0259
  0
LINE
  8
0
 10
325.917
 20
-7.0259
 11
326.039
 21
-7.50622
  0
LINE
  8
0
 10
326.039
 20
-7.50622
 11
326.08
 21
-8
  0
LINE
  8
0
 10
326.08
 20
-8
 11
326.039
 21
-8.49378
  0
LINE
  8
0
 10
326.039
 20
-8.49378
 11
325.917
 21
-8.9741
  0
LINE
  8
0
 10
325.917
 20
-8.9741
 11
325.718
 21
-9.42784
  0
LINE
  8
0
 10
325.718
 20
-9.42784
 11
325.447
 21
-9.84264
  0
LINE
  8
0
 10
325.447
 20
-9.84264
 11
325.112
 21
-10.2072
  0
LINE
  8
0
 10
325.112
 20
-10.2072
 11
324.721
 21
-10.5115
  0
LINE
  8
0
 10
324.721
 20
-10.5115
 11
324.285
 21
-10.7473
  0
LINE
  8
0
 10
324.285
 20
-10.7473
 11
323.816
 21
-10.9082
  0
LINE
  8
0
 10
323.816
 20
-10.9082
 11
323.328
 21
-10.9898
  0
LINE
  8
0
 10
323.328
 20
-10.9898
 11
322.832
 21
-10.9898
  0
LINE
  8
0
 10
322.832
 20
-10.9898
 11
322.344
 21
-10.9082
  0
LINE
  8
0
 10
322.344
 20
-10.9082
 11
321.875
 21
-10.7473
  0
LINE
  8
0
 10
321.875
 20
-10.7473
 11
321.439
 21
-10.5115
  0
LINE
  8
0
 10
321.439
 20
-10.5115
 11
321.048
 21
-10.2072
  0
LINE
  8
0
 10
321.048
 20
-10.2072
 11
320.713
 21
-9.84264
  0
LINE
  8
0
 10
320.713
 20
-9.84264
 11
320.442
 21
-9.42784
  0
LINE
  8
0
 10
320.442
 20
-9.42784
 11
320.243
 21
-8.9741
  0
LINE
  8
0
 10
320.243
 20
-8.9741
 11
320.121
 21
-8.49378
  0
LINE
  8
0
 10
320.121
 20
-8.49378
 11
320.08
 21
-8
  0
LINE
  8
0
 10
326.44
 20
-103.84
 11
326.535
 21
-103.362
  0
LINE
  8
0
 10
326.535
 20
-103.362
 11
326.806
 21
-102.956
  0
LINE
  8
0
 10
326.806
 20
-102.956
 11
327.212
 21
-102.685
  0
LINE
  8
0
 10
327.212
 20
-102.685
 11
327.69
 21
-102.59
  0
LINE
  8
0
 10
327.69
 20
-102.59
 11
328.168
 21
-102.685
  0
LINE
  8
0
 10
328.168
 20
-102.685
 11
328.574
 21
-102.956
  0
LINE
  8
0
 10
328.574
 20
-102.956
 11
328.845
 21
-103.362
  0
LINE
  8
0
 10
328.845
 20
-103.362
 11
328.94
 21
-103.84
  0
LINE
  8
0
 10
328.94
 20
-103.84
 11
328.845
 21
-104.318
  0
LINE
  8
0
 10
328.845
 20
-104.318
 11
328.574
 21
-104.724
  0
LINE
  8
0
 10
328.574
 20
-104.724
 11
328.168
 21
-104.995
  0
LINE
  8
0
 10
328.168
 20
-104.995
 11
327.69
 21
-105.09
  0
LINE
  8
0
 10
327.69
 20
-105.09
 11
327.212
 21
-104.995
  0
LINE
  8
0
 10
327.212
 20
-104.995
 11
326.806
 21
-104.724
  0
LINE
  8
0
 10
326.806
 20
-104.724
 11
326.535
 21
-104.318
  0
LINE
  8
0
 10
326.535
 20
-104.318
 11
326.44
 21
-103.84
  0
LINE
  8
0
 10
326.44
 20
-60.66
 11
326.535
 21
-60.1816
  0
LINE
  8
0
 10
326.535
 20
-60.1816
 11
326.806
 21
-59.7761
  0
LINE
  8
0
 10
326.806
 20
-59.7761
 11
327.212
 21
-59.5052
  0
LINE
  8
0
 10
327.212
 20
-59.5052
 11
327.69
 21
-59.41
  0
LINE
  8
0
 10
327.69
 20
-59.41
 11
328.168
 21
-59.5052
  0
LINE
  8
0
 10
328.168
 20
-59.5052
 11
328.574
 21
-59.7761
  0
LINE
  8
0
 10
328.574
 20
-59.7761
 11
328.845
 21
-60.1816
  0
LINE
  8
0
 10
328.845
 20
-60.1816
 11
328.94
 21
-60.66
  0
LINE
  8
0
 10
328.94
 20
-60.66
 11
328.845
 21
-61.1384
  0
LINE
  8
0
 10
328.845
 20
-61.1384
 11
328.574
 21
-61.5439
  0
LINE
  8
0
 10
328.574
 20
-61.5439
 11
328.168
 21
-61.8148
  0
LINE
  8
0
 10
328.168
 20
-61.8148
 11
327.69
 21
-61.91
  0
LINE
  8
0
 10
327.69
 20
-61.91
 11
327.212
 21
-61.8148
  0
LINE
  8
0
 10
327.212
 20
-61.8148
 11
326.806
 21
-61.5439
  0
LINE
  8
0
 10
326.806
 20
-61.5439
 11
326.535
 21
-61.1384
  0
LINE
  8
0
 10
326.535
 20
-61.1384
 11
326.44
 21
-60.66
  0
LINE
  8
0
 10
332.58
 20
-7
 11
332.638
 21
-6.52137
  0
LINE
  8
0
 10
332.638
 20
-6.52137
 11
332.809
 21
-6.07055
  0
LINE
  8
0
 10
332.809
 20
-6.07055
 11
333.083
 21
-5.67375
  0
LINE
  8
0
 10
333.083
 20
-5.67375
 11
333.444
 21
-5.35403
  0
LINE
  8
0
 10
333.444
 20
-5.35403
 11
333.871
 21
-5.12997
  0
LINE
  8
0
 10
333.871
 20
-5.12997
 11
334.339
 21
-5.01458
  0
LINE
  8
0
 10
334.339
 20
-5.01458
 11
334.821
 21
-5.01458
  0
LINE
  8
0
 10
334.821
 20
-5.01458
 11
335.289
 21
-5.12997
  0
LINE
  8
0
 10
335.289
 20
-5.12997
 11
335.716
 21
-5.35403
  0
LINE
  8
0
 10
335.716
 20
-5.35403
 11
336.077
 21
-5.67375
  0
LINE
  8
0
 10
336.077
 20
-5.67375
 11
336.351
 21
-6.07055
  0
LINE
  8
0
 10
336.351
 20
-6.07055
 11
336.522
 21
-6.52137
  0
LINE
  8
0
 10
336.522
 20
-6.52137
 11
336.58
 21
-7
  0
LINE
  8
0
 10
336.58
 20
-7
 11
336.522
 21
-7.47863
  0
LINE
  8
0
 10
336.522
 20
-7.47863
 11
336.351
 21
-7.92945
  0
LINE
  8
0
 10
336.351
 20
-7.92945
 11
336.077
 21
-8.32625
  0
LINE
  8
0
 10
336.077
 20
-8.32625
 11
335.716
 21
-8.64597
  0
LINE
  8
0
 10
335.716
 20
-8.64597
 11
335.289
 21
-8.87003
  0
LINE
  8
0
 10
335.289
 20
-8.87003
 11
334.821
 21
-8.98542
  0
LINE
  8
0
 10
334.821
 20
-8.98542
 11
334.339
 21
-8.98542
  0
LINE
  8
0
 10
334.339
 20
-8.98542
 11
333.871
 21
-8.87003
  0
LINE
  8
0
 10
333.871
 20
-8.87003
 11
333.444
 21
-8.64597
  0
LINE
  8
0
 10
333.444
 20
-8.64597
 11
333.083
 21
-8.32625
  0
LINE
  8
0
 10
333.083
 20
-8.32625
 11
332.809
 21
-7.92945
  0
LINE
  8
0
 10
332.809
 20
-7.92945
 11
332.638
 21
-7.47863
  0
LINE
  8
0
 10
332.638
 20
-7.47863
 11
332.58
 21
-7
  0
LINE
  8
0
 10
346.709
 20
-8.43931
 11
346.709
 21
-7.96068
  0
LINE
  8
0
 10
346.709
 20
-7.96068
 11
346.931
 21
-7.53688
  0
LINE
  8
0
 10
346.931
 20
-7.53688
 11
347.325
 21
-7.26498
  0
LINE
  8
0
 10
347.325
 20
-7.26498
 11
347.801
 21
-7.20729
  0
LINE
  8
0
 10
347.801
 20
-7.20729
 11
348.248
 21
-7.37702
  0
LINE
  8
0
 10
348.248
 20
-7.37702
 11
348.565
 21
-7.73528
  0
LINE
  8
0
 10
348.565
 20
-7.73528
 11
348.68
 21
-8.2
  0
LINE
  8
0
 10
348.68
 20
-8.2
 11
348.565
 21
-8.66472
  0
LINE
  8
0
 10
348.565
 20
-8.66472
 11
348.248
 21
-9.02298
  0
LINE
  8
0
 10
348.248
 20
-9.02298
 11
347.801
 21
-9.19271
  0
LINE
  8
0
 10
347.801
 20
-9.19271
 11
347.325
 21
-9.13502
  0
LINE
  8
0
 10
347.325
 20
-9.13502
 11
346.931
 21
-8.86312
  0
LINE
  8
0
 10
346.931
 20
-8.86312
 11
346.709
 21
-8.43931
  0
LINE
  8
0
 10
367.929
 20
-8.43931
 11
367.929
 21
-7.96068
  0
LINE
  8
0
 10
367.929
 20
-7.96068
 11
368.151
 21
-7.53688
  0
LINE
  8
0
 10
368.151
 20
-7.53688
 11
368.545
 21
-7.26498
  0
LINE
  8
0
 10
368.545
 20
-7.26498
 11
369.021
 21
-7.20729
  0
LINE
  8
0
 10
369.021
 20
-7.20729
 11
369.468
 21
-7.37702
  0
LINE
  8
0
 10
369.468
 20
-7.37702
 11
369.785
 21
-7.73528
  0
LINE
  8
0
 10
369.785
 20
-7.73528
 11
369.9
 21
-8.2
  0
LINE
  8
0
 10
369.9
 20
-8.2
 11
369.785
 21
-8.66472
  0
LINE
  8
0
 10
369.785
 20
-8.66472
 11
369.468
 21
-9.02298
  0
LINE
  8
0
 10
369.468
 20
-9.02298
 11
369.021
 21
-9.19271
  0
LINE
  8
0
 10
369.021
 20
-9.19271
 11
368.545
 21
-9.13502
  0
LINE
  8
0
 10
368.545
 20
-9.13502
 11
368.151
 21
-8.86312
  0
LINE
  8
0
 10
368.151
 20
-8.86312
 11
367.929
 21
-8.43931
  0
ENDSEC
  0
SECTION
  2
OBJECTS
  0
DICTIONARY
  0
ENDSEC
  0
EOF
