  0
SECTION
  2
BLOCKS
  0
ENDSEC
  0
SECTION
  2
ENTITIES
  0
LINE
  8
0
 10
-100.5
 20
-108.5
 11
100.5
 21
-108.5
  0
LINE
  8
0
 10
100.5
 20
-108.5
 11
100.5
 21
5
  0
LINE
  8
0
 10
100.5
 20
5
 11
97
 21
5
  0
LINE
  8
0
 10
97
 20
5
 11
97
 21
15
  0
LINE
  8
0
 10
97
 20
15
 11
100.5
 21
15
  0
LINE
  8
0
 10
100.5
 20
15
 11
100.5
 21
108.5
  0
LINE
  8
0
 10
100.5
 20
108.5
 11
29.56
 21
108.5
  0
LINE
  8
0
 10
29.56
 20
108.5
 11
29.56
 21
73.5
  0
LINE
  8
0
 10
29.56
 20
73.5
 11
-29.56
 21
73.5
  0
LINE
  8
0
 10
-29.56
 20
73.5
 11
-29.56
 21
108.5
  0
LINE
  8
0
 10
-29.56
 20
108.5
 11
-100.5
 21
108.5
  0
LINE
  8
0
 10
-100.5
 20
108.5
 11
-100.5
 21
73
  0
LINE
  8
0
 10
-100.5
 20
73
 11
-97
 21
73
  0
LINE
  8
0
 10
-97
 20
73
 11
-97
 21
63
  0
LINE
  8
0
 10
-97
 20
63
 11
-100.5
 21
63
  0
LINE
  8
0
 10
-100.5
 20
63
 11
-100.5
 21
-83
  0
LINE
  8
0
 10
-100.5
 20
-83
 11
-97
 21
-83
  0
LINE
  8
0
 10
-97
 20
-83
 11
-97
 21
-93
  0
LINE
  8
0
 10
-97
 20
-93
 11
-100.5
 21
-93
  0
LINE
  8
0
 10
-100.5
 20
-93
 11
-100.5
 21
-108.5
  0
LINE
  8
0
 10
-73
 20
-73
 11
-73
 21
-63
  0
LINE
  8
0
 10
-73
 20
-63
 11
-63
 21
-63
  0
LINE
  8
0
 10
-63
 20
-63
 11
-63
 21
-73
  0
LINE
  8
0
 10
-63
 20
-73
 11
-73
 21
-73
  0
LINE
  8
0
 10
-73
 20
83
 11
-73
 21
93
  0
LINE
  8
0
 10
-73
 20
93
 11
-63
 21
93
  0
LINE
  8
0
 10
-63
 20
93
 11
-63
 21
83
  0
LINE
  8
0
 10
-63
 20
83
 11
-73
 21
83
  0
LINE
  8
0
 10
-36.51
 20
-58.6746
 11
-36.51
 21
-34.0254
  0
LINE
  8
0
 10
-36.51
 20
-34.0254
 11
-26.51
 21
-34.0254
  0
LINE
  8
0
 10
-26.51
 20
-34.0254
 11
-26.51
 21
-58.6746
  0
LINE
  8
0
 10
-26.51
 20
-58.6746
 11
-36.51
 21
-58.6746
  0
LINE
  8
0
 10
-36.51
 20
30.1754
 11
-36.51
 21
54.8246
  0
LINE
  8
0
 10
-36.51
 20
54.8246
 11
-26.51
 21
54.8246
  0
LINE
  8
0
 10
-26.51
 20
54.8246
 11
-26.51
 21
30.1754
  0
LINE
  8
0
 10
-26.51
 20
30.1754
 11
-36.51
 21
30.1754
  0
LINE
  8
0
 10
63
 20
-15
 11
63
 21
-5
  0
LINE
  8
0
 10
63
 20
-5
 11
73
 21
-5
  0
LINE
  8
0
 10
73
 20
-5
 11
73
 21
-15
  0
LINE
  8
0
 10
73
 20
-15
 11
63
 21
-15
  0
ENDSEC
  0
SECTION
  2
OBJECTS
  0
DICTIONARY
  0
ENDSEC
  0
EOF
