<?xml version="1.0"?>
<svg xmlns="http://www.w3.org/2000/svg" version="1.1" height="227mm" width="211mm" >
 <g style="fill-opacity:1.0; stroke:black; stroke-width:1;">
  <line x1="0.000000mm" y1="201.500000mm" x2="0.000000mm" y2="201.500000mm" />
  <line x1="0.000000mm" y1="201.500000mm" x2="0.000000mm" y2="217.000000mm" />
  <line x1="0.000000mm" y1="217.000000mm" x2="201.000000mm" y2="217.000000mm" />
  <line x1="201.000000mm" y1="217.000000mm" x2="201.000000mm" y2="103.500000mm" />
  <line x1="201.000000mm" y1="103.500000mm" x2="197.500000mm" y2="103.500000mm" />
  <line x1="197.500000mm" y1="103.500000mm" x2="197.500000mm" y2="93.500000mm" />
  <line x1="197.500000mm" y1="93.500000mm" x2="201.000000mm" y2="93.500000mm" />
  <line x1="201.000000mm" y1="93.500000mm" x2="201.000000mm" y2="0.000000mm" />
  <line x1="201.000000mm" y1="0.000000mm" x2="130.060000mm" y2="0.000000mm" />
  <line x1="130.060000mm" y1="0.000000mm" x2="130.060000mm" y2="35.000000mm" />
  <line x1="130.060000mm" y1="35.000000mm" x2="70.940000mm" y2="35.000000mm" />
  <line x1="70.940000mm" y1="35.000000mm" x2="70.940000mm" y2="0.000000mm" />
  <line x1="70.940000mm" y1="0.000000mm" x2="0.000000mm" y2="0.000000mm" />
  <line x1="0.000000mm" y1="0.000000mm" x2="0.000000mm" y2="35.500000mm" />
  <line x1="0.000000mm" y1="35.500000mm" x2="3.500000mm" y2="35.500000mm" />
  <line x1="3.500000mm" y1="35.500000mm" x2="3.500000mm" y2="45.500000mm" />
  <line x1="3.500000mm" y1="45.500000mm" x2="0.000000mm" y2="45.500000mm" />
  <line x1="0.000000mm" y1="45.500000mm" x2="0.000000mm" y2="191.500000mm" />
  <line x1="0.000000mm" y1="191.500000mm" x2="3.500000mm" y2="191.500000mm" />
  <line x1="3.500000mm" y1="191.500000mm" x2="3.500000mm" y2="201.500000mm" />
  <line x1="3.500000mm" y1="201.500000mm" x2="0.000000mm" y2="201.500000mm" />
  <line x1="37.500000mm" y1="181.500000mm" x2="37.500000mm" y2="181.500000mm" />
  <line x1="37.500000mm" y1="181.500000mm" x2="27.500000mm" y2="181.500000mm" />
  <line x1="27.500000mm" y1="181.500000mm" x2="27.500000mm" y2="171.500000mm" />
  <line x1="27.500000mm" y1="171.500000mm" x2="37.500000mm" y2="171.500000mm" />
  <line x1="37.500000mm" y1="171.500000mm" x2="37.500000mm" y2="181.500000mm" />
  <line x1="37.500000mm" y1="25.500000mm" x2="37.500000mm" y2="25.500000mm" />
  <line x1="37.500000mm" y1="25.500000mm" x2="27.500000mm" y2="25.500000mm" />
  <line x1="27.500000mm" y1="25.500000mm" x2="27.500000mm" y2="15.500000mm" />
  <line x1="27.500000mm" y1="15.500000mm" x2="37.500000mm" y2="15.500000mm" />
  <line x1="37.500000mm" y1="15.500000mm" x2="37.500000mm" y2="25.500000mm" />
  <line x1="73.990000mm" y1="167.174600mm" x2="73.990000mm" y2="167.174600mm" />
  <line x1="73.990000mm" y1="167.174600mm" x2="63.990000mm" y2="167.174600mm" />
  <line x1="63.990000mm" y1="167.174600mm" x2="63.990000mm" y2="142.525400mm" />
  <line x1="63.990000mm" y1="142.525400mm" x2="73.990000mm" y2="142.525400mm" />
  <line x1="73.990000mm" y1="142.525400mm" x2="73.990000mm" y2="167.174600mm" />
  <line x1="73.990000mm" y1="78.324600mm" x2="73.990000mm" y2="78.324600mm" />
  <line x1="73.990000mm" y1="78.324600mm" x2="63.990000mm" y2="78.324600mm" />
  <line x1="63.990000mm" y1="78.324600mm" x2="63.990000mm" y2="53.675400mm" />
  <line x1="63.990000mm" y1="53.675400mm" x2="73.990000mm" y2="53.675400mm" />
  <line x1="73.990000mm" y1="53.675400mm" x2="73.990000mm" y2="78.324600mm" />
  <line x1="173.500000mm" y1="123.500000mm" x2="173.500000mm" y2="123.500000mm" />
  <line x1="173.500000mm" y1="123.500000mm" x2="163.500000mm" y2="123.500000mm" />
  <line x1="163.500000mm" y1="123.500000mm" x2="163.500000mm" y2="113.500000mm" />
  <line x1="163.500000mm" y1="113.500000mm" x2="173.500000mm" y2="113.500000mm" />
  <line x1="173.500000mm" y1="113.500000mm" x2="173.500000mm" y2="123.500000mm" />
 </g>
</svg>
