solid OpenSCAD_Model
  facet normal -1 0 0
    outer loop
      vertex 0 -11 10.094
      vertex 0 19 13
      vertex 0 4 10.094
    endloop
  endfacet
  facet normal 0 0 -1
    outer loop
      vertex 0 -11 10.094
      vertex 0 4 10.094
      vertex 20.32 -5.925 10.094
    endloop
  endfacet
  facet normal 0 0 -1
    outer loop
      vertex 0 -11 10.094
      vertex 20.32 -10.075 10.094
      vertex 20.32 -11 10.094
    endloop
  endfacet
  facet normal 0 1 -0
    outer loop
      vertex 0 -11 10.094
      vertex 20.32 -11 10.094
      vertex 20.32 -11 8.49186
    endloop
  endfacet
  facet normal -0 0 -1
    outer loop
      vertex 0 -11 10.094
      vertex 20.32 -5.925 10.094
      vertex 20.32 -10.075 10.094
    endloop
  endfacet
  facet normal 0 1 0
    outer loop
      vertex 0 -11 2.906
      vertex 0 -11 4.50814
      vertex 20.32 -11 2.906
    endloop
  endfacet
  facet normal -1 0 0
    outer loop
      vertex 0 -11 2.906
      vertex 0 4 2.906
      vertex 0 19 0
    endloop
  endfacet
  facet normal 0 0 1
    outer loop
      vertex 0 -11 2.906
      vertex 20.32 -10.075 2.906
      vertex 20.32 -5.925 2.906
    endloop
  endfacet
  facet normal 0 0 1
    outer loop
      vertex 0 -11 2.906
      vertex 20.32 -11 2.906
      vertex 20.32 -10.075 2.906
    endloop
  endfacet
  facet normal 0 0 1
    outer loop
      vertex 0 -11 2.906
      vertex 20.32 -5.925 2.906
      vertex 0 4 2.906
    endloop
  endfacet
  facet normal 0 1 -0
    outer loop
      vertex 0 -11 4.50814
      vertex 20.32 -11 4.50814
      vertex 20.32 -11 2.906
    endloop
  endfacet
  facet normal 0 1 0
    outer loop
      vertex 0 -11 8.49186
      vertex 0 -11 10.094
      vertex 20.32 -11 8.49186
    endloop
  endfacet
  facet normal 0 0.866025 -0.5
    outer loop
      vertex 0 -12.15 6.5
      vertex 0 -11 8.49186
      vertex 20.32 -11 8.49186
    endloop
  endfacet
  facet normal 0 0.866025 0.5
    outer loop
      vertex 0 -12.15 6.5
      vertex 20.32 -11 4.50814
      vertex 0 -11 4.50814
    endloop
  endfacet
  facet normal 0 0.866025 -0.5
    outer loop
      vertex 0 -12.15 6.5
      vertex 20.32 -11 8.49186
      vertex 24.33 -12.15 6.5
    endloop
  endfacet
  facet normal 0 0.866025 0.5
    outer loop
      vertex 0 -12.15 6.5
      vertex 24.33 -12.15 6.5
      vertex 20.32 -11 4.50814
    endloop
  endfacet
  facet normal 0 -0.992709 -0.120538
    outer loop
      vertex 0 -17 6.5
      vertex 5 -17 6.5
      vertex 5 -17.0581 6.97863
    endloop
  endfacet
  facet normal -1 -0 0
    outer loop
      vertex 0 -17.0581 6.02137
      vertex 0 -17 6.5
      vertex 0 -12.15 6.5
    endloop
  endfacet
  facet normal 0 -0.992709 0.120538
    outer loop
      vertex 0 -17.0581 6.02137
      vertex 5 -17 6.5
      vertex 0 -17 6.5
    endloop
  endfacet
  facet normal 0 -0.992709 0.120538
    outer loop
      vertex 0 -17.0581 6.02137
      vertex 5 -17.0581 6.02137
      vertex 5 -17 6.5
    endloop
  endfacet
  facet normal -1 0 0
    outer loop
      vertex 0 -17.0581 6.97863
      vertex 0 -12.15 6.5
      vertex 0 -17 6.5
    endloop
  endfacet
  facet normal 0 -0.992709 -0.120538
    outer loop
      vertex 0 -17.0581 6.97863
      vertex 0 -17 6.5
      vertex 5 -17.0581 6.97863
    endloop
  endfacet
  facet normal 0 -0.935017 -0.354604
    outer loop
      vertex 0 -17.0581 6.97863
      vertex 5 -17.0581 6.97863
      vertex 5 -17.2291 7.42945
    endloop
  endfacet
  facet normal -1 0 0
    outer loop
      vertex 0 -17.2291 5.57055
      vertex 0 -11 4.50814
      vertex 0 -11 2.906
    endloop
  endfacet
  facet normal -1 0 0
    outer loop
      vertex 0 -17.2291 5.57055
      vertex 0 -12.15 6.5
      vertex 0 -11 4.50814
    endloop
  endfacet
  facet normal -1 0 0
    outer loop
      vertex 0 -17.2291 5.57055
      vertex 0 -17.0581 6.02137
      vertex 0 -12.15 6.5
    endloop
  endfacet
  facet normal 0 -0.935017 0.354604
    outer loop
      vertex 0 -17.2291 5.57055
      vertex 5 -17.0581 6.02137
      vertex 0 -17.0581 6.02137
    endloop
  endfacet
  facet normal 0 -0.935017 0.354604
    outer loop
      vertex 0 -17.2291 5.57055
      vertex 5 -17.2291 5.57055
      vertex 5 -17.0581 6.02137
    endloop
  endfacet
  facet normal -1 -0 0
    outer loop
      vertex 0 -17.2291 7.42945
      vertex 0 -11 10.094
      vertex 0 -11 8.49186
    endloop
  endfacet
  facet normal -1 0 0
    outer loop
      vertex 0 -17.2291 7.42945
      vertex 0 -11 8.49186
      vertex 0 -12.15 6.5
    endloop
  endfacet
  facet normal -1 0 0
    outer loop
      vertex 0 -17.2291 7.42945
      vertex 0 -12.15 6.5
      vertex 0 -17.0581 6.97863
    endloop
  endfacet
  facet normal 0 -0.935017 -0.354604
    outer loop
      vertex 0 -17.2291 7.42945
      vertex 0 -17.0581 6.97863
      vertex 5 -17.2291 7.42945
    endloop
  endfacet
  facet normal 0 -0.822983 -0.568066
    outer loop
      vertex 0 -17.2291 7.42945
      vertex 5 -17.2291 7.42945
      vertex 5 -17.503 7.82625
    endloop
  endfacet
  facet normal -1 0 0
    outer loop
      vertex 0 -17.503 5.17375
      vertex 0 -17.2291 5.57055
      vertex 0 -11 2.906
    endloop
  endfacet
  facet normal 0 -0.822983 0.568066
    outer loop
      vertex 0 -17.503 5.17375
      vertex 5 -17.2291 5.57055
      vertex 0 -17.2291 5.57055
    endloop
  endfacet
  facet normal 0 -0.822983 0.568066
    outer loop
      vertex 0 -17.503 5.17375
      vertex 5 -17.503 5.17375
      vertex 5 -17.2291 5.57055
    endloop
  endfacet
  facet normal 0 -0.663125 0.748509
    outer loop
      vertex 0 -17.503 5.17375
      vertex 5 -17.8639 4.85403
      vertex 5 -17.503 5.17375
    endloop
  endfacet
  facet normal -1 0 0
    outer loop
      vertex 0 -17.503 7.82625
      vertex 0 -11 10.094
      vertex 0 -17.2291 7.42945
    endloop
  endfacet
  facet normal 0 -0.822983 -0.568066
    outer loop
      vertex 0 -17.503 7.82625
      vertex 0 -17.2291 7.42945
      vertex 5 -17.503 7.82625
    endloop
  endfacet
  facet normal 0 -0.70982 -0.704383
    outer loop
      vertex 0 -17.503 7.82625
      vertex 5 -17.503 7.82625
      vertex 5 -18.1716 8.5
    endloop
  endfacet
  facet normal -1 0 0
    outer loop
      vertex 0 -17.8639 4.85403
      vertex 0 -17.503 5.17375
      vertex 0 -11 2.906
    endloop
  endfacet
  facet normal 0 -0.663125 0.748509
    outer loop
      vertex 0 -17.8639 4.85403
      vertex 5 -17.8639 4.85403
      vertex 0 -17.503 5.17375
    endloop
  endfacet
  facet normal 0 -0.464721 0.885457
    outer loop
      vertex 0 -17.8639 4.85403
      vertex 5 -18.2908 4.62997
      vertex 5 -17.8639 4.85403
    endloop
  endfacet
  facet normal -1 0 0
    outer loop
      vertex 0 -18.1716 8.5
      vertex 0 -11 10.094
      vertex 0 -17.503 7.82625
    endloop
  endfacet
  facet normal 0 -0.70982 -0.704383
    outer loop
      vertex 0 -18.1716 8.5
      vertex 0 -17.503 7.82625
      vertex 5 -18.1716 8.5
    endloop
  endfacet
  facet normal -1 0 0
    outer loop
      vertex 0 -18.2908 4.62997
      vertex 0 -17.8639 4.85403
      vertex 0 -11 2.906
    endloop
  endfacet
  facet normal 0 -0.464721 0.885457
    outer loop
      vertex 0 -18.2908 4.62997
      vertex 5 -18.2908 4.62997
      vertex 0 -17.8639 4.85403
    endloop
  endfacet
  facet normal 0 -0.239316 0.970942
    outer loop
      vertex 0 -18.2908 4.62997
      vertex 5 -18.7589 4.51458
      vertex 5 -18.2908 4.62997
    endloop
  endfacet
  facet normal -1 0 0
    outer loop
      vertex 0 -18.7589 4.51458
      vertex 0 -18.2908 4.62997
      vertex 0 -11 2.906
    endloop
  endfacet
  facet normal 0 -0.239316 0.970942
    outer loop
      vertex 0 -18.7589 4.51458
      vertex 5 -18.7589 4.51458
      vertex 0 -18.2908 4.62997
    endloop
  endfacet
  facet normal -0 0 1
    outer loop
      vertex 0 -18.7589 4.51458
      vertex 5 -21.2411 4.51458
      vertex 5 -18.7589 4.51458
    endloop
  endfacet
  facet normal 0 0 1
    outer loop
      vertex 0 -21.2411 4.51458
      vertex 5 -21.2411 4.51458
      vertex 0 -18.7589 4.51458
    endloop
  endfacet
  facet normal -0 0.239316 0.970942
    outer loop
      vertex 0 -21.2411 4.51458
      vertex 5 -21.7092 4.62997
      vertex 5 -21.2411 4.51458
    endloop
  endfacet
  facet normal 0 0.239316 0.970942
    outer loop
      vertex 0 -21.7092 4.62997
      vertex 5 -21.7092 4.62997
      vertex 0 -21.2411 4.51458
    endloop
  endfacet
  facet normal -0 0.464723 0.885456
    outer loop
      vertex 0 -21.7092 4.62997
      vertex 5 -22.1361 4.85403
      vertex 5 -21.7092 4.62997
    endloop
  endfacet
  facet normal -0 0 -1
    outer loop
      vertex 0 -21.8284 8.5
      vertex 0 -18.1716 8.5
      vertex 5 -18.1716 8.5
    endloop
  endfacet
  facet normal 0 0 -1
    outer loop
      vertex 0 -21.8284 8.5
      vertex 5 -18.1716 8.5
      vertex 5 -21.8284 8.5
    endloop
  endfacet
  facet normal 0 0.70982 -0.704383
    outer loop
      vertex 0 -21.8284 8.5
      vertex 5 -21.8284 8.5
      vertex 5 -22.497 7.82625
    endloop
  endfacet
  facet normal 0 0.464723 0.885456
    outer loop
      vertex 0 -22.1361 4.85403
      vertex 5 -22.1361 4.85403
      vertex 0 -21.7092 4.62997
    endloop
  endfacet
  facet normal -0 0.663123 0.74851
    outer loop
      vertex 0 -22.1361 4.85403
      vertex 5 -22.497 5.17375
      vertex 5 -22.1361 4.85403
    endloop
  endfacet
  facet normal 0 0.663123 0.74851
    outer loop
      vertex 0 -22.497 5.17375
      vertex 5 -22.497 5.17375
      vertex 0 -22.1361 4.85403
    endloop
  endfacet
  facet normal 0 0.70982 -0.704383
    outer loop
      vertex 0 -22.497 7.82625
      vertex 0 -21.8284 8.5
      vertex 5 -22.497 7.82625
    endloop
  endfacet
  facet normal 0 0.822983 -0.568066
    outer loop
      vertex 0 -22.497 7.82625
      vertex 5 -22.497 7.82625
      vertex 5 -22.7709 7.42945
    endloop
  endfacet
  facet normal 0 0.822983 0.568066
    outer loop
      vertex 0 -22.7709 5.57055
      vertex 5 -22.497 5.17375
      vertex 0 -22.497 5.17375
    endloop
  endfacet
  facet normal 0 0.822983 0.568066
    outer loop
      vertex 0 -22.7709 5.57055
      vertex 5 -22.7709 5.57055
      vertex 5 -22.497 5.17375
    endloop
  endfacet
  facet normal 0 0.822983 -0.568066
    outer loop
      vertex 0 -22.7709 7.42945
      vertex 0 -22.497 7.82625
      vertex 5 -22.7709 7.42945
    endloop
  endfacet
  facet normal 0 0.935017 -0.354604
    outer loop
      vertex 0 -22.7709 7.42945
      vertex 5 -22.7709 7.42945
      vertex 5 -22.9419 6.97863
    endloop
  endfacet
  facet normal 0 0.935017 0.354604
    outer loop
      vertex 0 -22.9419 6.02137
      vertex 5 -22.7709 5.57055
      vertex 0 -22.7709 5.57055
    endloop
  endfacet
  facet normal 0 0.935017 0.354604
    outer loop
      vertex 0 -22.9419 6.02137
      vertex 5 -22.9419 6.02137
      vertex 5 -22.7709 5.57055
    endloop
  endfacet
  facet normal 0 0.935017 -0.354604
    outer loop
      vertex 0 -22.9419 6.97863
      vertex 0 -22.7709 7.42945
      vertex 5 -22.9419 6.97863
    endloop
  endfacet
  facet normal 0 0.992709 -0.120538
    outer loop
      vertex 0 -22.9419 6.97863
      vertex 5 -22.9419 6.97863
      vertex 5 -23 6.5
    endloop
  endfacet
  facet normal 0 0.992709 -0.120538
    outer loop
      vertex 0 -23 6.5
      vertex 0 -22.9419 6.97863
      vertex 5 -23 6.5
    endloop
  endfacet
  facet normal 0 0.992709 0.120538
    outer loop
      vertex 0 -23 6.5
      vertex 5 -22.9419 6.02137
      vertex 0 -22.9419 6.02137
    endloop
  endfacet
  facet normal 0 0.992709 0.120538
    outer loop
      vertex 0 -23 6.5
      vertex 5 -23 6.5
      vertex 5 -22.9419 6.02137
    endloop
  endfacet
  facet normal -1 0 0
    outer loop
      vertex 0 -26 0
      vertex 0 -11 2.906
      vertex 0 19 0
    endloop
  endfacet
  facet normal -1 0 0
    outer loop
      vertex 0 -26 0
      vertex 0 -18.7589 4.51458
      vertex 0 -11 2.906
    endloop
  endfacet
  facet normal -1 -0 0
    outer loop
      vertex 0 -26 0
      vertex 0 -21.2411 4.51458
      vertex 0 -18.7589 4.51458
    endloop
  endfacet
  facet normal -1 -0 0
    outer loop
      vertex 0 -26 0
      vertex 0 -21.7092 4.62997
      vertex 0 -21.2411 4.51458
    endloop
  endfacet
  facet normal -1 -0 0
    outer loop
      vertex 0 -26 0
      vertex 0 -22.1361 4.85403
      vertex 0 -21.7092 4.62997
    endloop
  endfacet
  facet normal -1 -0 0
    outer loop
      vertex 0 -26 0
      vertex 0 -22.497 5.17375
      vertex 0 -22.1361 4.85403
    endloop
  endfacet
  facet normal -1 -0 0
    outer loop
      vertex 0 -26 0
      vertex 0 -22.7709 5.57055
      vertex 0 -22.497 5.17375
    endloop
  endfacet
  facet normal -1 -0 0
    outer loop
      vertex 0 -26 0
      vertex 0 -22.9419 6.02137
      vertex 0 -22.7709 5.57055
    endloop
  endfacet
  facet normal -1 -0 0
    outer loop
      vertex 0 -26 0
      vertex 0 -23 6.5
      vertex 0 -22.9419 6.02137
    endloop
  endfacet
  facet normal -1 0 0
    outer loop
      vertex 0 -26 0
      vertex 0 -26 13
      vertex 0 -23 6.5
    endloop
  endfacet
  facet normal 0 0 -1
    outer loop
      vertex 0 -26 0
      vertex 0 19 0
      vertex 5 7 0
    endloop
  endfacet
  facet normal 0 0 -1
    outer loop
      vertex 0 -26 0
      vertex 5 -14 0
      vertex 5 -26 0
    endloop
  endfacet
  facet normal 0 -1 -0
    outer loop
      vertex 0 -26 0
      vertex 5 -26 0
      vertex 5 -26 13
    endloop
  endfacet
  facet normal 0 -1 0
    outer loop
      vertex 0 -26 0
      vertex 5 -26 13
      vertex 0 -26 13
    endloop
  endfacet
  facet normal -0 0 -1
    outer loop
      vertex 0 -26 0
      vertex 5 7 0
      vertex 5 -14 0
    endloop
  endfacet
  facet normal -1 0 0
    outer loop
      vertex 0 -26 13
      vertex 0 -11 10.094
      vertex 0 -18.1716 8.5
    endloop
  endfacet
  facet normal -1 0 0
    outer loop
      vertex 0 -26 13
      vertex 0 -18.1716 8.5
      vertex 0 -21.8284 8.5
    endloop
  endfacet
  facet normal -1 0 0
    outer loop
      vertex 0 -26 13
      vertex 0 -21.8284 8.5
      vertex 0 -22.497 7.82625
    endloop
  endfacet
  facet normal -1 0 0
    outer loop
      vertex 0 -26 13
      vertex 0 -22.497 7.82625
      vertex 0 -22.7709 7.42945
    endloop
  endfacet
  facet normal -1 0 0
    outer loop
      vertex 0 -26 13
      vertex 0 -22.7709 7.42945
      vertex 0 -22.9419 6.97863
    endloop
  endfacet
  facet normal -1 0 0
    outer loop
      vertex 0 -26 13
      vertex 0 -22.9419 6.97863
      vertex 0 -23 6.5
    endloop
  endfacet
  facet normal -1 0 0
    outer loop
      vertex 0 -26 13
      vertex 0 19 13
      vertex 0 -11 10.094
    endloop
  endfacet
  facet normal 0 0 1
    outer loop
      vertex 0 -26 13
      vertex 5 -14 13
      vertex 0 19 13
    endloop
  endfacet
  facet normal 0 0 1
    outer loop
      vertex 0 -26 13
      vertex 5 -26 13
      vertex 5 -14 13
    endloop
  endfacet
  facet normal 0 0.992709 -0.120536
    outer loop
      vertex 0 10 6.5
      vertex 0 10.0581 6.97863
      vertex 5 10 6.5
    endloop
  endfacet
  facet normal 0 0.992709 0.120536
    outer loop
      vertex 0 10 6.5
      vertex 5 10 6.5
      vertex 5 10.0581 6.02137
    endloop
  endfacet
  facet normal 0 0.992709 0.120536
    outer loop
      vertex 0 10 6.5
      vertex 5 10.0581 6.02137
      vertex 0 10.0581 6.02137
    endloop
  endfacet
  facet normal 0 0.935016 0.354605
    outer loop
      vertex 0 10.0581 6.02137
      vertex 5 10.0581 6.02137
      vertex 5 10.2291 5.57055
    endloop
  endfacet
  facet normal 0 0.935016 0.354605
    outer loop
      vertex 0 10.0581 6.02137
      vertex 5 10.2291 5.57055
      vertex 0 10.2291 5.57055
    endloop
  endfacet
  facet normal 0 0.935016 -0.354605
    outer loop
      vertex 0 10.0581 6.97863
      vertex 0 10.2291 7.42945
      vertex 5 10.0581 6.97863
    endloop
  endfacet
  facet normal 0 0.992709 -0.120536
    outer loop
      vertex 0 10.0581 6.97863
      vertex 5 10.0581 6.97863
      vertex 5 10 6.5
    endloop
  endfacet
  facet normal 0 0.822984 0.568065
    outer loop
      vertex 0 10.2291 5.57055
      vertex 5 10.2291 5.57055
      vertex 5 10.503 5.17375
    endloop
  endfacet
  facet normal 0 0.822984 0.568065
    outer loop
      vertex 0 10.2291 5.57055
      vertex 5 10.503 5.17375
      vertex 0 10.503 5.17375
    endloop
  endfacet
  facet normal 0 0.822984 -0.568065
    outer loop
      vertex 0 10.2291 7.42945
      vertex 0 10.503 7.82625
      vertex 5 10.2291 7.42945
    endloop
  endfacet
  facet normal 0 0.935016 -0.354605
    outer loop
      vertex 0 10.2291 7.42945
      vertex 5 10.2291 7.42945
      vertex 5 10.0581 6.97863
    endloop
  endfacet
  facet normal 0 0.663123 0.74851
    outer loop
      vertex 0 10.503 5.17375
      vertex 5 10.503 5.17375
      vertex 0 10.8639 4.85403
    endloop
  endfacet
  facet normal 0 0.70982 -0.704383
    outer loop
      vertex 0 10.503 7.82625
      vertex 0 11.1716 8.5
      vertex 5 10.503 7.82625
    endloop
  endfacet
  facet normal 0 0.822984 -0.568065
    outer loop
      vertex 0 10.503 7.82625
      vertex 5 10.503 7.82625
      vertex 5 10.2291 7.42945
    endloop
  endfacet
  facet normal -0 0.663123 0.74851
    outer loop
      vertex 0 10.8639 4.85403
      vertex 5 10.503 5.17375
      vertex 5 10.8639 4.85403
    endloop
  endfacet
  facet normal 0 0.464723 0.885456
    outer loop
      vertex 0 10.8639 4.85403
      vertex 5 10.8639 4.85403
      vertex 0 11.2908 4.62997
    endloop
  endfacet
  facet normal -0 0 -1
    outer loop
      vertex 0 11.1716 8.5
      vertex 0 14.8284 8.5
      vertex 5 14.8284 8.5
    endloop
  endfacet
  facet normal -1 0 0
    outer loop
      vertex 0 11.1716 8.5
      vertex 0 19 13
      vertex 0 14.8284 8.5
    endloop
  endfacet
  facet normal 0 0.70982 -0.704383
    outer loop
      vertex 0 11.1716 8.5
      vertex 5 11.1716 8.5
      vertex 5 10.503 7.82625
    endloop
  endfacet
  facet normal 0 0 -1
    outer loop
      vertex 0 11.1716 8.5
      vertex 5 14.8284 8.5
      vertex 5 11.1716 8.5
    endloop
  endfacet
  facet normal -0 0.464723 0.885456
    outer loop
      vertex 0 11.2908 4.62997
      vertex 5 10.8639 4.85403
      vertex 5 11.2908 4.62997
    endloop
  endfacet
  facet normal 0 0.239315 0.970942
    outer loop
      vertex 0 11.2908 4.62997
      vertex 5 11.2908 4.62997
      vertex 0 11.7589 4.51458
    endloop
  endfacet
  facet normal -1 0 0
    outer loop
      vertex 0 11.7589 4.51458
      vertex 0 14.2411 4.51458
      vertex 0 19 0
    endloop
  endfacet
  facet normal -0 0.239315 0.970942
    outer loop
      vertex 0 11.7589 4.51458
      vertex 5 11.2908 4.62997
      vertex 5 11.7589 4.51458
    endloop
  endfacet
  facet normal 0 0 1
    outer loop
      vertex 0 11.7589 4.51458
      vertex 5 11.7589 4.51458
      vertex 0 14.2411 4.51458
    endloop
  endfacet
  facet normal -1 0 0
    outer loop
      vertex 0 14.2411 4.51458
      vertex 0 14.7092 4.62997
      vertex 0 19 0
    endloop
  endfacet
  facet normal -0 0 1
    outer loop
      vertex 0 14.2411 4.51458
      vertex 5 11.7589 4.51458
      vertex 5 14.2411 4.51458
    endloop
  endfacet
  facet normal 0 -0.239315 0.970942
    outer loop
      vertex 0 14.2411 4.51458
      vertex 5 14.2411 4.51458
      vertex 0 14.7092 4.62997
    endloop
  endfacet
  facet normal -1 0 0
    outer loop
      vertex 0 14.7092 4.62997
      vertex 0 15.1361 4.85403
      vertex 0 19 0
    endloop
  endfacet
  facet normal 0 -0.239315 0.970942
    outer loop
      vertex 0 14.7092 4.62997
      vertex 5 14.2411 4.51458
      vertex 5 14.7092 4.62997
    endloop
  endfacet
  facet normal 0 -0.464723 0.885456
    outer loop
      vertex 0 14.7092 4.62997
      vertex 5 14.7092 4.62997
      vertex 0 15.1361 4.85403
    endloop
  endfacet
  facet normal 0 -0.70982 -0.704383
    outer loop
      vertex 0 14.8284 8.5
      vertex 0 15.497 7.82625
      vertex 5 14.8284 8.5
    endloop
  endfacet
  facet normal -1 0 0
    outer loop
      vertex 0 14.8284 8.5
      vertex 0 19 13
      vertex 0 15.497 7.82625
    endloop
  endfacet
  facet normal -1 0 0
    outer loop
      vertex 0 15.1361 4.85403
      vertex 0 15.497 5.17375
      vertex 0 19 0
    endloop
  endfacet
  facet normal 0 -0.464723 0.885456
    outer loop
      vertex 0 15.1361 4.85403
      vertex 5 14.7092 4.62997
      vertex 5 15.1361 4.85403
    endloop
  endfacet
  facet normal 0 -0.663123 0.74851
    outer loop
      vertex 0 15.1361 4.85403
      vertex 5 15.1361 4.85403
      vertex 0 15.497 5.17375
    endloop
  endfacet
  facet normal -1 0 0
    outer loop
      vertex 0 15.497 5.17375
      vertex 0 15.7709 5.57055
      vertex 0 19 0
    endloop
  endfacet
  facet normal 0 -0.663123 0.74851
    outer loop
      vertex 0 15.497 5.17375
      vertex 5 15.1361 4.85403
      vertex 5 15.497 5.17375
    endloop
  endfacet
  facet normal 0 -0.822984 0.568065
    outer loop
      vertex 0 15.497 5.17375
      vertex 5 15.497 5.17375
      vertex 5 15.7709 5.57055
    endloop
  endfacet
  facet normal 0 -0.822984 0.568065
    outer loop
      vertex 0 15.497 5.17375
      vertex 5 15.7709 5.57055
      vertex 0 15.7709 5.57055
    endloop
  endfacet
  facet normal 0 -0.822984 -0.568065
    outer loop
      vertex 0 15.497 7.82625
      vertex 0 15.7709 7.42945
      vertex 5 15.497 7.82625
    endloop
  endfacet
  facet normal -1 0 0
    outer loop
      vertex 0 15.497 7.82625
      vertex 0 19 13
      vertex 0 15.7709 7.42945
    endloop
  endfacet
  facet normal 0 -0.70982 -0.704383
    outer loop
      vertex 0 15.497 7.82625
      vertex 5 15.497 7.82625
      vertex 5 14.8284 8.5
    endloop
  endfacet
  facet normal -1 0 0
    outer loop
      vertex 0 15.7709 5.57055
      vertex 0 15.9419 6.02137
      vertex 0 19 0
    endloop
  endfacet
  facet normal 0 -0.935016 0.354605
    outer loop
      vertex 0 15.7709 5.57055
      vertex 5 15.7709 5.57055
      vertex 5 15.9419 6.02137
    endloop
  endfacet
  facet normal 0 -0.935016 0.354605
    outer loop
      vertex 0 15.7709 5.57055
      vertex 5 15.9419 6.02137
      vertex 0 15.9419 6.02137
    endloop
  endfacet
  facet normal 0 -0.935016 -0.354605
    outer loop
      vertex 0 15.7709 7.42945
      vertex 0 15.9419 6.97863
      vertex 5 15.7709 7.42945
    endloop
  endfacet
  facet normal -1 0 0
    outer loop
      vertex 0 15.7709 7.42945
      vertex 0 19 13
      vertex 0 15.9419 6.97863
    endloop
  endfacet
  facet normal 0 -0.822984 -0.568065
    outer loop
      vertex 0 15.7709 7.42945
      vertex 5 15.7709 7.42945
      vertex 5 15.497 7.82625
    endloop
  endfacet
  facet normal -1 0 0
    outer loop
      vertex 0 15.9419 6.02137
      vertex 0 16 6.5
      vertex 0 19 0
    endloop
  endfacet
  facet normal 0 -0.992709 0.120538
    outer loop
      vertex 0 15.9419 6.02137
      vertex 5 15.9419 6.02137
      vertex 5 16 6.5
    endloop
  endfacet
  facet normal 0 -0.992709 0.120538
    outer loop
      vertex 0 15.9419 6.02137
      vertex 5 16 6.5
      vertex 0 16 6.5
    endloop
  endfacet
  facet normal 0 -0.992709 -0.120538
    outer loop
      vertex 0 15.9419 6.97863
      vertex 0 16 6.5
      vertex 5 15.9419 6.97863
    endloop
  endfacet
  facet normal -1 0 0
    outer loop
      vertex 0 15.9419 6.97863
      vertex 0 19 13
      vertex 0 16 6.5
    endloop
  endfacet
  facet normal 0 -0.935016 -0.354605
    outer loop
      vertex 0 15.9419 6.97863
      vertex 5 15.9419 6.97863
      vertex 5 15.7709 7.42945
    endloop
  endfacet
  facet normal -1 0 0
    outer loop
      vertex 0 16 6.5
      vertex 0 19 13
      vertex 0 19 0
    endloop
  endfacet
  facet normal 0 -0.992709 -0.120538
    outer loop
      vertex 0 16 6.5
      vertex 5 16 6.5
      vertex 5 15.9419 6.97863
    endloop
  endfacet
  facet normal 0 1 0
    outer loop
      vertex 0 19 0
      vertex 0 19 13
      vertex 5 19 0
    endloop
  endfacet
  facet normal 0 0 -1
    outer loop
      vertex 0 19 0
      vertex 5 19 0
      vertex 5 7 0
    endloop
  endfacet
  facet normal 0 0 1
    outer loop
      vertex 0 19 13
      vertex 5 -14 13
      vertex 5 7 13
    endloop
  endfacet
  facet normal 0 1 -0
    outer loop
      vertex 0 19 13
      vertex 5 19 13
      vertex 5 19 0
    endloop
  endfacet
  facet normal -0 0 1
    outer loop
      vertex 0 19 13
      vertex 5 7 13
      vertex 5 19 13
    endloop
  endfacet
  facet normal -1 0 0
    outer loop
      vertex 0 4 10.094
      vertex 0 10.0581 6.97863
      vertex 0 10 6.5
    endloop
  endfacet
  facet normal -1 0 0
    outer loop
      vertex 0 4 10.094
      vertex 0 10.2291 7.42945
      vertex 0 10.0581 6.97863
    endloop
  endfacet
  facet normal -1 0 0
    outer loop
      vertex 0 4 10.094
      vertex 0 10.503 7.82625
      vertex 0 10.2291 7.42945
    endloop
  endfacet
  facet normal -1 0 0
    outer loop
      vertex 0 4 10.094
      vertex 0 11.1716 8.5
      vertex 0 10.503 7.82625
    endloop
  endfacet
  facet normal -1 0 0
    outer loop
      vertex 0 4 10.094
      vertex 0 19 13
      vertex 0 11.1716 8.5
    endloop
  endfacet
  facet normal 0 0 -1
    outer loop
      vertex 0 4 10.094
      vertex 20.32 4 10.094
      vertex 20.32 -5.925 10.094
    endloop
  endfacet
  facet normal -1 -0 0
    outer loop
      vertex 0 4 2.906
      vertex 0 10 6.5
      vertex 0 10.0581 6.02137
    endloop
  endfacet
  facet normal -1 -0 0
    outer loop
      vertex 0 4 2.906
      vertex 0 10.0581 6.02137
      vertex 0 10.2291 5.57055
    endloop
  endfacet
  facet normal -1 -0 0
    outer loop
      vertex 0 4 2.906
      vertex 0 10.2291 5.57055
      vertex 0 10.503 5.17375
    endloop
  endfacet
  facet normal -1 -0 0
    outer loop
      vertex 0 4 2.906
      vertex 0 10.503 5.17375
      vertex 0 10.8639 4.85403
    endloop
  endfacet
  facet normal -1 -0 0
    outer loop
      vertex 0 4 2.906
      vertex 0 10.8639 4.85403
      vertex 0 11.2908 4.62997
    endloop
  endfacet
  facet normal -1 -0 0
    outer loop
      vertex 0 4 2.906
      vertex 0 11.2908 4.62997
      vertex 0 11.7589 4.51458
    endloop
  endfacet
  facet normal -1 0 0
    outer loop
      vertex 0 4 2.906
      vertex 0 11.7589 4.51458
      vertex 0 19 0
    endloop
  endfacet
  facet normal -1 0 0
    outer loop
      vertex 0 4 2.906
      vertex 0 4 10.094
      vertex 0 10 6.5
    endloop
  endfacet
  facet normal -0 0 1
    outer loop
      vertex 0 4 2.906
      vertex 20.32 -5.925 2.906
      vertex 20.32 4 2.906
    endloop
  endfacet
  facet normal 0 -1 0
    outer loop
      vertex 0 4 2.906
      vertex 20.32 4 10.094
      vertex 0 4 10.094
    endloop
  endfacet
  facet normal 0 -1 -0
    outer loop
      vertex 0 4 2.906
      vertex 20.32 4 2.906
      vertex 20.32 4 10.094
    endloop
  endfacet
  facet normal -0 0 -1
    outer loop
      vertex 20.32 -10.075 10.094
      vertex 20.32 -5.925 10.094
      vertex 24.33 -5.925 10.094
    endloop
  endfacet
  facet normal 0 0 -1
    outer loop
      vertex 20.32 -10.075 10.094
      vertex 24.33 -5.925 10.094
      vertex 24.33 -10.075 10.094
    endloop
  endfacet
  facet normal 0 0 1
    outer loop
      vertex 20.32 -10.075 2.906
      vertex 24.33 -10.075 2.906
      vertex 20.32 -5.925 2.906
    endloop
  endfacet
  facet normal -1 0 0
    outer loop
      vertex 20.32 -11 2.906
      vertex 20.32 -11 4.50814
      vertex 20.32 -10.075 2.906
    endloop
  endfacet
  facet normal 0 0.866025 0.5
    outer loop
      vertex 20.32 -11 4.50814
      vertex 24.33 -10.075 2.906
      vertex 20.32 -10.075 2.906
    endloop
  endfacet
  facet normal -2.24817e-09 0.866025 0.5
    outer loop
      vertex 20.32 -11 4.50814
      vertex 24.33 -12.15 6.5
      vertex 24.33 -10.075 2.906
    endloop
  endfacet
  facet normal 0 0.866025 -0.5
    outer loop
      vertex 20.32 -11 8.49186
      vertex 20.32 -10.075 10.094
      vertex 24.33 -10.075 10.094
    endloop
  endfacet
  facet normal -1 -0 0
    outer loop
      vertex 20.32 -11 8.49186
      vertex 20.32 -11 10.094
      vertex 20.32 -10.075 10.094
    endloop
  endfacet
  facet normal -2.24817e-09 0.866025 -0.5
    outer loop
      vertex 20.32 -11 8.49186
      vertex 24.33 -10.075 10.094
      vertex 24.33 -12.15 6.5
    endloop
  endfacet
  facet normal -1 0 0
    outer loop
      vertex 20.32 -3.85 6.5
      vertex 20.32 4 10.094
      vertex 20.32 4 2.906
    endloop
  endfacet
  facet normal 0 -0.866025 -0.5
    outer loop
      vertex 20.32 -3.85 6.5
      vertex 24.33 -3.85 6.5
      vertex 24.33 -5.925 10.094
    endloop
  endfacet
  facet normal 0 -0.866025 -0.5
    outer loop
      vertex 20.32 -5.925 10.094
      vertex 20.32 -3.85 6.5
      vertex 24.33 -5.925 10.094
    endloop
  endfacet
  facet normal -1 -0 0
    outer loop
      vertex 20.32 -5.925 10.094
      vertex 20.32 4 10.094
      vertex 20.32 -3.85 6.5
    endloop
  endfacet
  facet normal -1 0 -0
    outer loop
      vertex 20.32 -5.925 2.906
      vertex 20.32 -3.85 6.5
      vertex 20.32 4 2.906
    endloop
  endfacet
  facet normal -0 0 1
    outer loop
      vertex 20.32 -5.925 2.906
      vertex 24.33 -10.075 2.906
      vertex 24.33 -5.925 2.906
    endloop
  endfacet
  facet normal 0 -0.866025 0.5
    outer loop
      vertex 20.32 -5.925 2.906
      vertex 24.33 -3.85 6.5
      vertex 20.32 -3.85 6.5
    endloop
  endfacet
  facet normal 0 -0.866025 0.5
    outer loop
      vertex 20.32 -5.925 2.906
      vertex 24.33 -5.925 2.906
      vertex 24.33 -3.85 6.5
    endloop
  endfacet
  facet normal 0.980786 0.195088 0
    outer loop
      vertex 24.1516 -1.52588e-05 0
      vertex 24.1516 -1.52588e-05 13
      vertex 24.4697 -1.599 13
    endloop
  endfacet
  facet normal 0.980786 0.195088 0
    outer loop
      vertex 24.1516 -1.52588e-05 0
      vertex 24.4697 -1.599 13
      vertex 24.4697 -1.599 0
    endloop
  endfacet
  facet normal 0.980786 -0.195086 0
    outer loop
      vertex 24.1516 -1.52588e-05 0
      vertex 24.4697 1.59898 0
      vertex 24.1516 -1.52588e-05 13
    endloop
  endfacet
  facet normal 0.980786 -0.195086 0
    outer loop
      vertex 24.1516 -1.52588e-05 13
      vertex 24.4697 1.59898 0
      vertex 24.4697 1.59898 13
    endloop
  endfacet
  facet normal -1 0 0
    outer loop
      vertex 24.33 -10.075 10.094
      vertex 24.33 -5.925 10.094
      vertex 24.33 -8.95269 8.8
    endloop
  endfacet
  facet normal -1 0 0
    outer loop
      vertex 24.33 -10.075 10.094
      vertex 24.33 -8.95269 8.8
      vertex 24.33 -9.66979 8.08171
    endloop
  endfacet
  facet normal -1 0 0
    outer loop
      vertex 24.33 -10.075 10.094
      vertex 24.33 -9.66979 8.08171
      vertex 24.33 -9.97077 7.68577
    endloop
  endfacet
  facet normal -1 0 0
    outer loop
      vertex 24.33 -10.075 2.906
      vertex 24.33 -7.87548 4.20337
      vertex 24.33 -5.925 2.906
    endloop
  endfacet
  facet normal -1 -0 0
    outer loop
      vertex 24.33 -10.075 2.906
      vertex 24.33 -8.3721 4.2303
      vertex 24.33 -7.87548 4.20337
    endloop
  endfacet
  facet normal -1 -0 0
    outer loop
      vertex 24.33 -10.075 2.906
      vertex 24.33 -8.85132 4.36335
      vertex 24.33 -8.3721 4.2303
    endloop
  endfacet
  facet normal -1 0 0
    outer loop
      vertex 24.33 -10.075 2.906
      vertex 24.33 -9.29073 4.59632
      vertex 24.33 -8.85132 4.36335
    endloop
  endfacet
  facet normal -1 0 0
    outer loop
      vertex 24.33 -10.075 2.906
      vertex 24.33 -9.66979 4.91829
      vertex 24.33 -9.29073 4.59632
    endloop
  endfacet
  facet normal -1 0 0
    outer loop
      vertex 24.33 -10.075 2.906
      vertex 24.33 -9.97077 5.31423
      vertex 24.33 -9.66979 4.91829
    endloop
  endfacet
  facet normal 0 0.907576 0.419889
    outer loop
      vertex 24.33 -10.1796 5.76561
      vertex 28.33 -10.1796 5.76561
      vertex 28.33 -9.97077 5.31423
    endloop
  endfacet
  facet normal 0 0.907576 0.419889
    outer loop
      vertex 24.33 -10.1796 5.76561
      vertex 28.33 -9.97077 5.31423
      vertex 24.33 -9.97077 5.31423
    endloop
  endfacet
  facet normal 0 0.907576 -0.419889
    outer loop
      vertex 24.33 -10.1796 7.23439
      vertex 24.33 -9.97077 7.68577
      vertex 28.33 -10.1796 7.23439
    endloop
  endfacet
  facet normal 0 0.97662 -0.214971
    outer loop
      vertex 24.33 -10.1796 7.23439
      vertex 28.33 -10.1796 7.23439
      vertex 28.33 -10.2865 6.74867
    endloop
  endfacet
  facet normal 0 1 0
    outer loop
      vertex 24.33 -10.2865 6.25133
      vertex 24.33 -10.2865 6.74867
      vertex 28.33 -10.2865 6.25133
    endloop
  endfacet
  facet normal 0 0.97662 0.214971
    outer loop
      vertex 24.33 -10.2865 6.25133
      vertex 28.33 -10.1796 5.76561
      vertex 24.33 -10.1796 5.76561
    endloop
  endfacet
  facet normal 0 0.97662 0.214971
    outer loop
      vertex 24.33 -10.2865 6.25133
      vertex 28.33 -10.2865 6.25133
      vertex 28.33 -10.1796 5.76561
    endloop
  endfacet
  facet normal 0 0.97662 -0.214971
    outer loop
      vertex 24.33 -10.2865 6.74867
      vertex 24.33 -10.1796 7.23439
      vertex 28.33 -10.2865 6.74867
    endloop
  endfacet
  facet normal 0 1 -0
    outer loop
      vertex 24.33 -10.2865 6.74867
      vertex 28.33 -10.2865 6.74867
      vertex 28.33 -10.2865 6.25133
    endloop
  endfacet
  facet normal -1 -0 0
    outer loop
      vertex 24.33 -12.15 6.5
      vertex 24.33 -10.075 10.094
      vertex 24.33 -9.97077 7.68577
    endloop
  endfacet
  facet normal -1 0 0
    outer loop
      vertex 24.33 -12.15 6.5
      vertex 24.33 -10.1796 5.76561
      vertex 24.33 -9.97077 5.31423
    endloop
  endfacet
  facet normal -1 0 0
    outer loop
      vertex 24.33 -12.15 6.5
      vertex 24.33 -10.1796 7.23439
      vertex 24.33 -10.2865 6.74867
    endloop
  endfacet
  facet normal -1 0 0
    outer loop
      vertex 24.33 -12.15 6.5
      vertex 24.33 -10.2865 6.25133
      vertex 24.33 -10.1796 5.76561
    endloop
  endfacet
  facet normal -1 0 0
    outer loop
      vertex 24.33 -12.15 6.5
      vertex 24.33 -10.2865 6.74867
      vertex 24.33 -10.2865 6.25133
    endloop
  endfacet
  facet normal -1 0 0
    outer loop
      vertex 24.33 -12.15 6.5
      vertex 24.33 -9.97077 5.31423
      vertex 24.33 -10.075 2.906
    endloop
  endfacet
  facet normal -1 0 0
    outer loop
      vertex 24.33 -12.15 6.5
      vertex 24.33 -9.97077 7.68577
      vertex 24.33 -10.1796 7.23439
    endloop
  endfacet
  facet normal 0 -0.994138 -0.108118
    outer loop
      vertex 24.33 -5.7 6.5
      vertex 28.33 -5.7 6.5
      vertex 28.33 -5.75377 6.99443
    endloop
  endfacet
  facet normal -1 -0 0
    outer loop
      vertex 24.33 -5.75377 6.00557
      vertex 24.33 -5.7 6.5
      vertex 24.33 -3.85 6.5
    endloop
  endfacet
  facet normal 0 -0.994138 0.108118
    outer loop
      vertex 24.33 -5.75377 6.00557
      vertex 28.33 -5.7 6.5
      vertex 24.33 -5.7 6.5
    endloop
  endfacet
  facet normal 0 -0.994138 0.108118
    outer loop
      vertex 24.33 -5.75377 6.00557
      vertex 28.33 -5.75377 6.00557
      vertex 28.33 -5.7 6.5
    endloop
  endfacet
  facet normal -1 0 0
    outer loop
      vertex 24.33 -5.75377 6.99443
      vertex 24.33 -3.85 6.5
      vertex 24.33 -5.7 6.5
    endloop
  endfacet
  facet normal 0 -0.994138 -0.108118
    outer loop
      vertex 24.33 -5.75377 6.99443
      vertex 24.33 -5.7 6.5
      vertex 28.33 -5.75377 6.99443
    endloop
  endfacet
  facet normal 0 -0.947653 -0.319302
    outer loop
      vertex 24.33 -5.75377 6.99443
      vertex 28.33 -5.75377 6.99443
      vertex 28.33 -5.91258 7.46574
    endloop
  endfacet
  facet normal -1 0 0
    outer loop
      vertex 24.33 -5.91258 5.53426
      vertex 24.33 -5.75377 6.00557
      vertex 24.33 -3.85 6.5
    endloop
  endfacet
  facet normal 0 -0.947653 0.319302
    outer loop
      vertex 24.33 -5.91258 5.53426
      vertex 28.33 -5.75377 6.00557
      vertex 24.33 -5.75377 6.00557
    endloop
  endfacet
  facet normal 0 -0.947653 0.319302
    outer loop
      vertex 24.33 -5.91258 5.53426
      vertex 28.33 -5.91258 5.53426
      vertex 28.33 -5.75377 6.00557
    endloop
  endfacet
  facet normal -1 0 0
    outer loop
      vertex 24.33 -5.91258 7.46574
      vertex 24.33 -3.85 6.5
      vertex 24.33 -5.75377 6.99443
    endloop
  endfacet
  facet normal 0 -0.947653 -0.319302
    outer loop
      vertex 24.33 -5.91258 7.46574
      vertex 24.33 -5.75377 6.99443
      vertex 28.33 -5.91258 7.46574
    endloop
  endfacet
  facet normal 0 -0.856857 -0.515554
    outer loop
      vertex 24.33 -5.91258 7.46574
      vertex 28.33 -5.91258 7.46574
      vertex 28.33 -6.16899 7.8919
    endloop
  endfacet
  facet normal -1 0 0
    outer loop
      vertex 24.33 -5.925 10.094
      vertex 24.33 -3.85 6.5
      vertex 24.33 -5.91258 7.46574
    endloop
  endfacet
  facet normal -1 0 0
    outer loop
      vertex 24.33 -5.925 2.906
      vertex 24.33 -5.91258 5.53426
      vertex 24.33 -3.85 6.5
    endloop
  endfacet
  facet normal -1 0 0
    outer loop
      vertex 24.33 -6.16899 5.1081
      vertex 24.33 -5.91258 5.53426
      vertex 24.33 -5.925 2.906
    endloop
  endfacet
  facet normal 0 -0.856857 0.515554
    outer loop
      vertex 24.33 -6.16899 5.1081
      vertex 28.33 -5.91258 5.53426
      vertex 24.33 -5.91258 5.53426
    endloop
  endfacet
  facet normal 0 -0.856857 0.515554
    outer loop
      vertex 24.33 -6.16899 5.1081
      vertex 28.33 -6.16899 5.1081
      vertex 28.33 -5.91258 5.53426
    endloop
  endfacet
  facet normal 0 -0.856857 -0.515554
    outer loop
      vertex 24.33 -6.16899 7.8919
      vertex 24.33 -5.91258 7.46574
      vertex 28.33 -6.16899 7.8919
    endloop
  endfacet
  facet normal -1 0 0
    outer loop
      vertex 24.33 -6.16899 7.8919
      vertex 24.33 -5.925 10.094
      vertex 24.33 -5.91258 7.46574
    endloop
  endfacet
  facet normal 0 -0.725996 -0.687699
    outer loop
      vertex 24.33 -6.16899 7.8919
      vertex 28.33 -6.16899 7.8919
      vertex 28.33 -6.51101 8.25297
    endloop
  endfacet
  facet normal -1 0 0
    outer loop
      vertex 24.33 -6.51101 4.74703
      vertex 24.33 -6.16899 5.1081
      vertex 24.33 -5.925 2.906
    endloop
  endfacet
  facet normal 0 -0.725996 0.687699
    outer loop
      vertex 24.33 -6.51101 4.74703
      vertex 28.33 -6.16899 5.1081
      vertex 24.33 -6.16899 5.1081
    endloop
  endfacet
  facet normal 0 -0.725996 0.687699
    outer loop
      vertex 24.33 -6.51101 4.74703
      vertex 28.33 -6.51101 4.74703
      vertex 28.33 -6.16899 5.1081
    endloop
  endfacet
  facet normal 0 -0.561186 0.82769
    outer loop
      vertex 24.33 -6.51101 4.74703
      vertex 28.33 -6.92266 4.46792
      vertex 28.33 -6.51101 4.74703
    endloop
  endfacet
  facet normal -1 0 0
    outer loop
      vertex 24.33 -6.51101 8.25297
      vertex 24.33 -5.925 10.094
      vertex 24.33 -6.16899 7.8919
    endloop
  endfacet
  facet normal 0 -0.725996 -0.687699
    outer loop
      vertex 24.33 -6.51101 8.25297
      vertex 24.33 -6.16899 7.8919
      vertex 28.33 -6.51101 8.25297
    endloop
  endfacet
  facet normal 0 -0.714075 -0.700069
    outer loop
      vertex 24.33 -6.51101 8.25297
      vertex 28.33 -6.51101 8.25297
      vertex 28.33 -7.04731 8.8
    endloop
  endfacet
  facet normal -1 0 0
    outer loop
      vertex 24.33 -6.92266 4.46792
      vertex 24.33 -6.51101 4.74703
      vertex 24.33 -5.925 2.906
    endloop
  endfacet
  facet normal 0 -0.561186 0.82769
    outer loop
      vertex 24.33 -6.92266 4.46792
      vertex 28.33 -6.92266 4.46792
      vertex 24.33 -6.51101 4.74703
    endloop
  endfacet
  facet normal 0 -0.370139 0.928977
    outer loop
      vertex 24.33 -6.92266 4.46792
      vertex 28.33 -7.38469 4.28384
      vertex 28.33 -6.92266 4.46792
    endloop
  endfacet
  facet normal -1 0 0
    outer loop
      vertex 24.33 -7.04731 8.8
      vertex 24.33 -5.925 10.094
      vertex 24.33 -6.51101 8.25297
    endloop
  endfacet
  facet normal 0 -0.714075 -0.700069
    outer loop
      vertex 24.33 -7.04731 8.8
      vertex 24.33 -6.51101 8.25297
      vertex 28.33 -7.04731 8.8
    endloop
  endfacet
  facet normal -1 0 0
    outer loop
      vertex 24.33 -7.38469 4.28384
      vertex 24.33 -6.92266 4.46792
      vertex 24.33 -5.925 2.906
    endloop
  endfacet
  facet normal 0 -0.370139 0.928977
    outer loop
      vertex 24.33 -7.38469 4.28384
      vertex 28.33 -7.38469 4.28384
      vertex 24.33 -6.92266 4.46792
    endloop
  endfacet
  facet normal 0 -0.161781 0.986827
    outer loop
      vertex 24.33 -7.38469 4.28384
      vertex 28.33 -7.87548 4.20337
      vertex 28.33 -7.38469 4.28384
    endloop
  endfacet
  facet normal -1 0 0
    outer loop
      vertex 24.33 -7.87548 4.20337
      vertex 24.33 -7.38469 4.28384
      vertex 24.33 -5.925 2.906
    endloop
  endfacet
  facet normal 0 -0.161781 0.986827
    outer loop
      vertex 24.33 -7.87548 4.20337
      vertex 28.33 -7.87548 4.20337
      vertex 24.33 -7.38469 4.28384
    endloop
  endfacet
  facet normal -0 0.0541394 0.998533
    outer loop
      vertex 24.33 -7.87548 4.20337
      vertex 28.33 -8.3721 4.2303
      vertex 28.33 -7.87548 4.20337
    endloop
  endfacet
  facet normal 0 0.0541394 0.998533
    outer loop
      vertex 24.33 -8.3721 4.2303
      vertex 28.33 -8.3721 4.2303
      vertex 24.33 -7.87548 4.20337
    endloop
  endfacet
  facet normal -0 0.267527 0.96355
    outer loop
      vertex 24.33 -8.3721 4.2303
      vertex 28.33 -8.85132 4.36335
      vertex 28.33 -8.3721 4.2303
    endloop
  endfacet
  facet normal 0 0.267527 0.96355
    outer loop
      vertex 24.33 -8.85132 4.36335
      vertex 28.33 -8.85132 4.36335
      vertex 24.33 -8.3721 4.2303
    endloop
  endfacet
  facet normal -0 0.468409 0.883512
    outer loop
      vertex 24.33 -8.85132 4.36335
      vertex 28.33 -9.29073 4.59632
      vertex 28.33 -8.85132 4.36335
    endloop
  endfacet
  facet normal -1 0 0
    outer loop
      vertex 24.33 -8.95269 8.8
      vertex 24.33 -5.925 10.094
      vertex 24.33 -7.04731 8.8
    endloop
  endfacet
  facet normal -0 0 -1
    outer loop
      vertex 24.33 -8.95269 8.8
      vertex 24.33 -7.04731 8.8
      vertex 28.33 -7.04731 8.8
    endloop
  endfacet
  facet normal 0 0 -1
    outer loop
      vertex 24.33 -8.95269 8.8
      vertex 28.33 -7.04731 8.8
      vertex 28.33 -8.95269 8.8
    endloop
  endfacet
  facet normal 0 0.707694 -0.706519
    outer loop
      vertex 24.33 -8.95269 8.8
      vertex 28.33 -8.95269 8.8
      vertex 28.33 -9.66979 8.08171
    endloop
  endfacet
  facet normal 0 0.468409 0.883512
    outer loop
      vertex 24.33 -9.29073 4.59632
      vertex 28.33 -9.29073 4.59632
      vertex 24.33 -8.85132 4.36335
    endloop
  endfacet
  facet normal -0 0.647387 0.762162
    outer loop
      vertex 24.33 -9.29073 4.59632
      vertex 28.33 -9.66979 4.91829
      vertex 28.33 -9.29073 4.59632
    endloop
  endfacet
  facet normal 0 0.647387 0.762162
    outer loop
      vertex 24.33 -9.66979 4.91829
      vertex 28.33 -9.66979 4.91829
      vertex 24.33 -9.29073 4.59632
    endloop
  endfacet
  facet normal 0 0.707694 -0.706519
    outer loop
      vertex 24.33 -9.66979 8.08171
      vertex 24.33 -8.95269 8.8
      vertex 28.33 -9.66979 8.08171
    endloop
  endfacet
  facet normal 0 0.796093 -0.605175
    outer loop
      vertex 24.33 -9.66979 8.08171
      vertex 28.33 -9.66979 8.08171
      vertex 28.33 -9.97077 7.68577
    endloop
  endfacet
  facet normal 0 0.796093 0.605175
    outer loop
      vertex 24.33 -9.97077 5.31423
      vertex 28.33 -9.66979 4.91829
      vertex 24.33 -9.66979 4.91829
    endloop
  endfacet
  facet normal 0 0.796093 0.605175
    outer loop
      vertex 24.33 -9.97077 5.31423
      vertex 28.33 -9.97077 5.31423
      vertex 28.33 -9.66979 4.91829
    endloop
  endfacet
  facet normal 0 0.796093 -0.605175
    outer loop
      vertex 24.33 -9.97077 7.68577
      vertex 24.33 -9.66979 8.08171
      vertex 28.33 -9.97077 7.68577
    endloop
  endfacet
  facet normal 0 0.907576 -0.419889
    outer loop
      vertex 24.33 -9.97077 7.68577
      vertex 28.33 -9.97077 7.68577
      vertex 28.33 -10.1796 7.23439
    endloop
  endfacet
  facet normal 0.831468 0.555572 0
    outer loop
      vertex 24.4697 -1.599 0
      vertex 24.4697 -1.599 13
      vertex 25.3754 -2.95456 13
    endloop
  endfacet
  facet normal 0.831468 0.555572 0
    outer loop
      vertex 24.4697 -1.599 0
      vertex 25.3754 -2.95456 13
      vertex 25.3754 -2.95456 0
    endloop
  endfacet
  facet normal 0.831468 -0.555572 0
    outer loop
      vertex 24.4697 1.59898 0
      vertex 25.3754 2.95454 0
      vertex 24.4697 1.59898 13
    endloop
  endfacet
  facet normal 0.831468 -0.555572 0
    outer loop
      vertex 24.4697 1.59898 13
      vertex 25.3754 2.95454 0
      vertex 25.3754 2.95454 13
    endloop
  endfacet
  facet normal 0.55556 0.831477 0
    outer loop
      vertex 25.3754 -2.95456 0
      vertex 25.3754 -2.95456 13
      vertex 26.731 -3.86029 0
    endloop
  endfacet
  facet normal 0 0 -1
    outer loop
      vertex 25.3754 -2.95456 0
      vertex 26.731 -3.86029 0
      vertex 28.33 -14 0
    endloop
  endfacet
  facet normal 0.55556 0.831477 -0
    outer loop
      vertex 25.3754 -2.95456 13
      vertex 26.731 -3.86029 13
      vertex 26.731 -3.86029 0
    endloop
  endfacet
  facet normal 0 0 1
    outer loop
      vertex 25.3754 -2.95456 13
      vertex 28.33 -14 13
      vertex 26.731 -3.86029 13
    endloop
  endfacet
  facet normal 0.555566 -0.831472 0
    outer loop
      vertex 25.3754 2.95454 0
      vertex 26.731 3.86029 0
      vertex 26.731 3.86029 13
    endloop
  endfacet
  facet normal 0.555566 -0.831472 0
    outer loop
      vertex 25.3754 2.95454 0
      vertex 26.731 3.86029 13
      vertex 25.3754 2.95454 13
    endloop
  endfacet
  facet normal 0 0 -1
    outer loop
      vertex 25.3754 2.95454 0
      vertex 28.33 7 0
      vertex 26.731 3.86029 0
    endloop
  endfacet
  facet normal 0 0 1
    outer loop
      vertex 25.3754 2.95454 13
      vertex 26.731 3.86029 13
      vertex 28.33 7 13
    endloop
  endfacet
  facet normal 0.195097 0.980784 0
    outer loop
      vertex 26.731 -3.86029 0
      vertex 26.731 -3.86029 13
      vertex 28.33 -4.17836 0
    endloop
  endfacet
  facet normal 0 0 -1
    outer loop
      vertex 26.731 -3.86029 0
      vertex 28.33 -4.17836 0
      vertex 28.33 -14 0
    endloop
  endfacet
  facet normal 0 0 1
    outer loop
      vertex 26.731 -3.86029 13
      vertex 28.33 -14 13
      vertex 28.33 -4.17836 13
    endloop
  endfacet
  facet normal 0.195097 0.980784 -0
    outer loop
      vertex 26.731 -3.86029 13
      vertex 28.33 -4.17836 13
      vertex 28.33 -4.17836 0
    endloop
  endfacet
  facet normal 0.195097 -0.980784 0
    outer loop
      vertex 26.731 3.86029 0
      vertex 28.33 4.17836 0
      vertex 28.33 4.17836 13
    endloop
  endfacet
  facet normal 0.195097 -0.980784 0
    outer loop
      vertex 26.731 3.86029 0
      vertex 28.33 4.17836 13
      vertex 26.731 3.86029 13
    endloop
  endfacet
  facet normal 0 0 -1
    outer loop
      vertex 26.731 3.86029 0
      vertex 28.33 7 0
      vertex 28.33 4.17836 0
    endloop
  endfacet
  facet normal 0 0 1
    outer loop
      vertex 26.731 3.86029 13
      vertex 28.33 4.17836 13
      vertex 28.33 7 13
    endloop
  endfacet
  facet normal 1 0 0
    outer loop
      vertex 28.33 -14 0
      vertex 28.33 -10.1796 5.76561
      vertex 28.33 -10.2865 6.25133
    endloop
  endfacet
  facet normal 1 0 0
    outer loop
      vertex 28.33 -14 0
      vertex 28.33 -10.2865 6.25133
      vertex 28.33 -14 13
    endloop
  endfacet
  facet normal 1 0 0
    outer loop
      vertex 28.33 -14 0
      vertex 28.33 -4.17836 0
      vertex 28.33 -8.3721 4.2303
    endloop
  endfacet
  facet normal 1 0 0
    outer loop
      vertex 28.33 -14 0
      vertex 28.33 -8.3721 4.2303
      vertex 28.33 -8.85132 4.36335
    endloop
  endfacet
  facet normal 1 0 0
    outer loop
      vertex 28.33 -14 0
      vertex 28.33 -8.85132 4.36335
      vertex 28.33 -9.29073 4.59632
    endloop
  endfacet
  facet normal 1 0 0
    outer loop
      vertex 28.33 -14 0
      vertex 28.33 -9.29073 4.59632
      vertex 28.33 -9.66979 4.91829
    endloop
  endfacet
  facet normal 1 0 0
    outer loop
      vertex 28.33 -14 0
      vertex 28.33 -9.66979 4.91829
      vertex 28.33 -9.97077 5.31423
    endloop
  endfacet
  facet normal 1 0 0
    outer loop
      vertex 28.33 -14 0
      vertex 28.33 -9.97077 5.31423
      vertex 28.33 -10.1796 5.76561
    endloop
  endfacet
  facet normal 1 0 0
    outer loop
      vertex 28.33 -14 13
      vertex 28.33 -10.1796 7.23439
      vertex 28.33 -9.97077 7.68577
    endloop
  endfacet
  facet normal 1 0 0
    outer loop
      vertex 28.33 -14 13
      vertex 28.33 -10.2865 6.25133
      vertex 28.33 -10.2865 6.74867
    endloop
  endfacet
  facet normal 1 0 0
    outer loop
      vertex 28.33 -14 13
      vertex 28.33 -10.2865 6.74867
      vertex 28.33 -10.1796 7.23439
    endloop
  endfacet
  facet normal 1 -0 0
    outer loop
      vertex 28.33 -14 13
      vertex 28.33 -8.95269 8.8
      vertex 28.33 -4.17836 13
    endloop
  endfacet
  facet normal 1 0 0
    outer loop
      vertex 28.33 -14 13
      vertex 28.33 -9.66979 8.08171
      vertex 28.33 -8.95269 8.8
    endloop
  endfacet
  facet normal 1 0 0
    outer loop
      vertex 28.33 -14 13
      vertex 28.33 -9.97077 7.68577
      vertex 28.33 -9.66979 8.08171
    endloop
  endfacet
  facet normal 1 0 0
    outer loop
      vertex 28.33 -5.7 6.5
      vertex 28.33 -4.17836 0
      vertex 28.33 -4.17836 13
    endloop
  endfacet
  facet normal 1 -0 0
    outer loop
      vertex 28.33 -5.75377 6.00557
      vertex 28.33 -4.17836 0
      vertex 28.33 -5.7 6.5
    endloop
  endfacet
  facet normal 1 0 0
    outer loop
      vertex 28.33 -5.75377 6.99443
      vertex 28.33 -5.7 6.5
      vertex 28.33 -4.17836 13
    endloop
  endfacet
  facet normal 1 -0 0
    outer loop
      vertex 28.33 -5.91258 5.53426
      vertex 28.33 -4.17836 0
      vertex 28.33 -5.75377 6.00557
    endloop
  endfacet
  facet normal 1 0 0
    outer loop
      vertex 28.33 -5.91258 7.46574
      vertex 28.33 -5.75377 6.99443
      vertex 28.33 -4.17836 13
    endloop
  endfacet
  facet normal 1 -0 0
    outer loop
      vertex 28.33 -6.16899 5.1081
      vertex 28.33 -4.17836 0
      vertex 28.33 -5.91258 5.53426
    endloop
  endfacet
  facet normal 1 0 0
    outer loop
      vertex 28.33 -6.16899 7.8919
      vertex 28.33 -5.91258 7.46574
      vertex 28.33 -4.17836 13
    endloop
  endfacet
  facet normal 1 -0 0
    outer loop
      vertex 28.33 -6.51101 4.74703
      vertex 28.33 -4.17836 0
      vertex 28.33 -6.16899 5.1081
    endloop
  endfacet
  facet normal 1 0 0
    outer loop
      vertex 28.33 -6.51101 8.25297
      vertex 28.33 -6.16899 7.8919
      vertex 28.33 -4.17836 13
    endloop
  endfacet
  facet normal 1 -0 0
    outer loop
      vertex 28.33 -6.92266 4.46792
      vertex 28.33 -4.17836 0
      vertex 28.33 -6.51101 4.74703
    endloop
  endfacet
  facet normal 1 0 0
    outer loop
      vertex 28.33 -7.04731 8.8
      vertex 28.33 -6.51101 8.25297
      vertex 28.33 -4.17836 13
    endloop
  endfacet
  facet normal 1 -0 0
    outer loop
      vertex 28.33 -7.38469 4.28384
      vertex 28.33 -4.17836 0
      vertex 28.33 -6.92266 4.46792
    endloop
  endfacet
  facet normal 1 -0 0
    outer loop
      vertex 28.33 -7.87548 4.20337
      vertex 28.33 -4.17836 0
      vertex 28.33 -7.38469 4.28384
    endloop
  endfacet
  facet normal 1 0 0
    outer loop
      vertex 28.33 -8.3721 4.2303
      vertex 28.33 -4.17836 0
      vertex 28.33 -7.87548 4.20337
    endloop
  endfacet
  facet normal 1 0 0
    outer loop
      vertex 28.33 -8.95269 8.8
      vertex 28.33 -7.04731 8.8
      vertex 28.33 -4.17836 13
    endloop
  endfacet
  facet normal 0 0 -1
    outer loop
      vertex 28.33 4.17836 0
      vertex 28.33 7 0
      vertex 28.9401 6.97336 0
    endloop
  endfacet
  facet normal -0 0 -1
    outer loop
      vertex 28.33 4.17836 0
      vertex 28.9401 6.97336 0
      vertex 29.5455 6.89365 0
    endloop
  endfacet
  facet normal 0 0 -1
    outer loop
      vertex 28.33 4.17836 0
      vertex 29.5455 6.89365 0
      vertex 29.929 3.86029 0
    endloop
  endfacet
  facet normal -0.195096 -0.980784 -0
    outer loop
      vertex 28.33 4.17836 0
      vertex 29.929 3.86029 0
      vertex 29.929 3.86029 13
    endloop
  endfacet
  facet normal -0.195096 -0.980784 0
    outer loop
      vertex 28.33 4.17836 0
      vertex 29.929 3.86029 13
      vertex 28.33 4.17836 13
    endloop
  endfacet
  facet normal 0 0 1
    outer loop
      vertex 28.33 4.17836 13
      vertex 28.9401 6.97336 13
      vertex 28.33 7 13
    endloop
  endfacet
  facet normal 0 0 1
    outer loop
      vertex 28.33 4.17836 13
      vertex 29.5455 6.89365 13
      vertex 28.9401 6.97336 13
    endloop
  endfacet
  facet normal 0 0 1
    outer loop
      vertex 28.33 4.17836 13
      vertex 29.929 3.86029 13
      vertex 29.5455 6.89365 13
    endloop
  endfacet
  facet normal 0.043627 0.999048 0
    outer loop
      vertex 28.33 7 0
      vertex 28.33 7 13
      vertex 28.9401 6.97336 0
    endloop
  endfacet
  facet normal 0.043627 0.999048 -0
    outer loop
      vertex 28.33 7 13
      vertex 28.9401 6.97336 13
      vertex 28.9401 6.97336 0
    endloop
  endfacet
  facet normal 0.13053 0.991444 0
    outer loop
      vertex 28.9401 6.97336 0
      vertex 28.9401 6.97336 13
      vertex 29.5455 6.89365 0
    endloop
  endfacet
  facet normal 0.13053 0.991444 -0
    outer loop
      vertex 28.9401 6.97336 13
      vertex 29.5455 6.89365 13
      vertex 29.5455 6.89365 0
    endloop
  endfacet
  facet normal 0.216438 0.976296 0
    outer loop
      vertex 29.5455 6.89365 0
      vertex 29.5455 6.89365 13
      vertex 30.1417 6.76147 0
    endloop
  endfacet
  facet normal 0 0 -1
    outer loop
      vertex 29.5455 6.89365 0
      vertex 30.1417 6.76147 0
      vertex 29.929 3.86029 0
    endloop
  endfacet
  facet normal 0 0 1
    outer loop
      vertex 29.5455 6.89365 13
      vertex 29.929 3.86029 13
      vertex 30.1417 6.76147 13
    endloop
  endfacet
  facet normal 0.216438 0.976296 -0
    outer loop
      vertex 29.5455 6.89365 13
      vertex 30.1417 6.76147 13
      vertex 30.1417 6.76147 0
    endloop
  endfacet
  facet normal 0 0.907576 0.419889
    outer loop
      vertex 29.83 -10.1796 5.76561
      vertex 35.33 -10.1796 5.76561
      vertex 35.33 -9.97077 5.31423
    endloop
  endfacet
  facet normal 0 0.907576 0.419889
    outer loop
      vertex 29.83 -10.1796 5.76561
      vertex 35.33 -9.97077 5.31423
      vertex 29.83 -9.97077 5.31423
    endloop
  endfacet
  facet normal 0 0.907576 -0.419889
    outer loop
      vertex 29.83 -10.1796 7.23439
      vertex 29.83 -9.97077 7.68577
      vertex 35.33 -10.1796 7.23439
    endloop
  endfacet
  facet normal 0 0.97662 -0.214971
    outer loop
      vertex 29.83 -10.1796 7.23439
      vertex 35.33 -10.1796 7.23439
      vertex 35.33 -10.2865 6.74867
    endloop
  endfacet
  facet normal 0 1 0
    outer loop
      vertex 29.83 -10.2865 6.25133
      vertex 29.83 -10.2865 6.74867
      vertex 35.33 -10.2865 6.25133
    endloop
  endfacet
  facet normal 0 0.97662 0.214971
    outer loop
      vertex 29.83 -10.2865 6.25133
      vertex 35.33 -10.1796 5.76561
      vertex 29.83 -10.1796 5.76561
    endloop
  endfacet
  facet normal 0 0.97662 0.214971
    outer loop
      vertex 29.83 -10.2865 6.25133
      vertex 35.33 -10.2865 6.25133
      vertex 35.33 -10.1796 5.76561
    endloop
  endfacet
  facet normal 0 0.97662 -0.214971
    outer loop
      vertex 29.83 -10.2865 6.74867
      vertex 29.83 -10.1796 7.23439
      vertex 35.33 -10.2865 6.74867
    endloop
  endfacet
  facet normal 0 1 -0
    outer loop
      vertex 29.83 -10.2865 6.74867
      vertex 35.33 -10.2865 6.74867
      vertex 35.33 -10.2865 6.25133
    endloop
  endfacet
  facet normal -1 -0 0
    outer loop
      vertex 29.83 -14 0
      vertex 29.83 -10.1796 5.76561
      vertex 29.83 -9.97077 5.31423
    endloop
  endfacet
  facet normal -1 -0 0
    outer loop
      vertex 29.83 -14 0
      vertex 29.83 -10.2865 6.25133
      vertex 29.83 -10.1796 5.76561
    endloop
  endfacet
  facet normal -1 -0 0
    outer loop
      vertex 29.83 -14 0
      vertex 29.83 -10.2865 6.74867
      vertex 29.83 -10.2865 6.25133
    endloop
  endfacet
  facet normal -1 0 0
    outer loop
      vertex 29.83 -14 0
      vertex 29.83 -14 13
      vertex 29.83 -10.2865 6.74867
    endloop
  endfacet
  facet normal 0 0 -1
    outer loop
      vertex 29.83 -14 0
      vertex 29.83 -3.87999 0
      vertex 29.929 -3.86029 0
    endloop
  endfacet
  facet normal -1 0 0
    outer loop
      vertex 29.83 -14 0
      vertex 29.83 -8.3721 4.2303
      vertex 29.83 -3.87999 0
    endloop
  endfacet
  facet normal -1 -0 0
    outer loop
      vertex 29.83 -14 0
      vertex 29.83 -8.85132 4.36335
      vertex 29.83 -8.3721 4.2303
    endloop
  endfacet
  facet normal -1 -0 0
    outer loop
      vertex 29.83 -14 0
      vertex 29.83 -9.29073 4.59632
      vertex 29.83 -8.85132 4.36335
    endloop
  endfacet
  facet normal -1 -0 0
    outer loop
      vertex 29.83 -14 0
      vertex 29.83 -9.66979 4.91829
      vertex 29.83 -9.29073 4.59632
    endloop
  endfacet
  facet normal -1 -0 0
    outer loop
      vertex 29.83 -14 0
      vertex 29.83 -9.97077 5.31423
      vertex 29.83 -9.66979 4.91829
    endloop
  endfacet
  facet normal 0 0 -1
    outer loop
      vertex 29.83 -14 0
      vertex 29.929 -3.86029 0
      vertex 35.33 -14 0
    endloop
  endfacet
  facet normal 0 -1 -0
    outer loop
      vertex 29.83 -14 0
      vertex 35.33 -14 0
      vertex 35.33 -14 13
    endloop
  endfacet
  facet normal 0 -1 0
    outer loop
      vertex 29.83 -14 0
      vertex 35.33 -14 13
      vertex 29.83 -14 13
    endloop
  endfacet
  facet normal -1 0 0
    outer loop
      vertex 29.83 -14 13
      vertex 29.83 -10.1796 7.23439
      vertex 29.83 -10.2865 6.74867
    endloop
  endfacet
  facet normal -1 0 0
    outer loop
      vertex 29.83 -14 13
      vertex 29.83 -3.87999 13
      vertex 29.83 -8.95269 8.8
    endloop
  endfacet
  facet normal -1 0 0
    outer loop
      vertex 29.83 -14 13
      vertex 29.83 -8.95269 8.8
      vertex 29.83 -9.66979 8.08171
    endloop
  endfacet
  facet normal -1 0 0
    outer loop
      vertex 29.83 -14 13
      vertex 29.83 -9.66979 8.08171
      vertex 29.83 -9.97077 7.68577
    endloop
  endfacet
  facet normal -1 0 0
    outer loop
      vertex 29.83 -14 13
      vertex 29.83 -9.97077 7.68577
      vertex 29.83 -10.1796 7.23439
    endloop
  endfacet
  facet normal 0 0 1
    outer loop
      vertex 29.83 -14 13
      vertex 29.929 -3.86029 13
      vertex 29.83 -3.87999 13
    endloop
  endfacet
  facet normal 0 0 1
    outer loop
      vertex 29.83 -14 13
      vertex 35.33 -14 13
      vertex 29.929 -3.86029 13
    endloop
  endfacet
  facet normal -0.195157 0.980772 0
    outer loop
      vertex 29.83 -3.87999 0
      vertex 29.83 -3.87999 13
      vertex 29.929 -3.86029 0
    endloop
  endfacet
  facet normal -0.195157 0.980772 0
    outer loop
      vertex 29.83 -3.87999 13
      vertex 29.929 -3.86029 13
      vertex 29.929 -3.86029 0
    endloop
  endfacet
  facet normal -1 0 0
    outer loop
      vertex 29.83 -5.7 6.5
      vertex 29.83 -3.87999 13
      vertex 29.83 -3.87999 0
    endloop
  endfacet
  facet normal 0 -0.994138 -0.108118
    outer loop
      vertex 29.83 -5.7 6.5
      vertex 35.33 -5.7 6.5
      vertex 35.33 -5.75377 6.99443
    endloop
  endfacet
  facet normal -1 0 0
    outer loop
      vertex 29.83 -5.75377 6.00557
      vertex 29.83 -5.7 6.5
      vertex 29.83 -3.87999 0
    endloop
  endfacet
  facet normal 0 -0.994138 0.108118
    outer loop
      vertex 29.83 -5.75377 6.00557
      vertex 35.33 -5.7 6.5
      vertex 29.83 -5.7 6.5
    endloop
  endfacet
  facet normal 0 -0.994138 0.108118
    outer loop
      vertex 29.83 -5.75377 6.00557
      vertex 35.33 -5.75377 6.00557
      vertex 35.33 -5.7 6.5
    endloop
  endfacet
  facet normal -1 0 0
    outer loop
      vertex 29.83 -5.75377 6.99443
      vertex 29.83 -3.87999 13
      vertex 29.83 -5.7 6.5
    endloop
  endfacet
  facet normal 0 -0.994138 -0.108118
    outer loop
      vertex 29.83 -5.75377 6.99443
      vertex 29.83 -5.7 6.5
      vertex 35.33 -5.75377 6.99443
    endloop
  endfacet
  facet normal 0 -0.947653 -0.319302
    outer loop
      vertex 29.83 -5.75377 6.99443
      vertex 35.33 -5.75377 6.99443
      vertex 35.33 -5.91258 7.46574
    endloop
  endfacet
  facet normal -1 0 0
    outer loop
      vertex 29.83 -5.91258 5.53426
      vertex 29.83 -5.75377 6.00557
      vertex 29.83 -3.87999 0
    endloop
  endfacet
  facet normal 0 -0.947653 0.319302
    outer loop
      vertex 29.83 -5.91258 5.53426
      vertex 35.33 -5.75377 6.00557
      vertex 29.83 -5.75377 6.00557
    endloop
  endfacet
  facet normal 0 -0.947653 0.319302
    outer loop
      vertex 29.83 -5.91258 5.53426
      vertex 35.33 -5.91258 5.53426
      vertex 35.33 -5.75377 6.00557
    endloop
  endfacet
  facet normal -1 0 0
    outer loop
      vertex 29.83 -5.91258 7.46574
      vertex 29.83 -3.87999 13
      vertex 29.83 -5.75377 6.99443
    endloop
  endfacet
  facet normal 0 -0.947653 -0.319302
    outer loop
      vertex 29.83 -5.91258 7.46574
      vertex 29.83 -5.75377 6.99443
      vertex 35.33 -5.91258 7.46574
    endloop
  endfacet
  facet normal 0 -0.856857 -0.515554
    outer loop
      vertex 29.83 -5.91258 7.46574
      vertex 35.33 -5.91258 7.46574
      vertex 35.33 -6.16899 7.8919
    endloop
  endfacet
  facet normal -1 0 0
    outer loop
      vertex 29.83 -6.16899 5.1081
      vertex 29.83 -5.91258 5.53426
      vertex 29.83 -3.87999 0
    endloop
  endfacet
  facet normal 0 -0.856857 0.515554
    outer loop
      vertex 29.83 -6.16899 5.1081
      vertex 35.33 -5.91258 5.53426
      vertex 29.83 -5.91258 5.53426
    endloop
  endfacet
  facet normal 0 -0.856857 0.515554
    outer loop
      vertex 29.83 -6.16899 5.1081
      vertex 35.33 -6.16899 5.1081
      vertex 35.33 -5.91258 5.53426
    endloop
  endfacet
  facet normal -1 0 0
    outer loop
      vertex 29.83 -6.16899 7.8919
      vertex 29.83 -3.87999 13
      vertex 29.83 -5.91258 7.46574
    endloop
  endfacet
  facet normal 0 -0.856857 -0.515554
    outer loop
      vertex 29.83 -6.16899 7.8919
      vertex 29.83 -5.91258 7.46574
      vertex 35.33 -6.16899 7.8919
    endloop
  endfacet
  facet normal 0 -0.725996 -0.687699
    outer loop
      vertex 29.83 -6.16899 7.8919
      vertex 35.33 -6.16899 7.8919
      vertex 35.33 -6.51101 8.25297
    endloop
  endfacet
  facet normal -1 0 0
    outer loop
      vertex 29.83 -6.51101 4.74703
      vertex 29.83 -6.16899 5.1081
      vertex 29.83 -3.87999 0
    endloop
  endfacet
  facet normal 0 -0.725996 0.687699
    outer loop
      vertex 29.83 -6.51101 4.74703
      vertex 35.33 -6.16899 5.1081
      vertex 29.83 -6.16899 5.1081
    endloop
  endfacet
  facet normal 0 -0.725996 0.687699
    outer loop
      vertex 29.83 -6.51101 4.74703
      vertex 35.33 -6.51101 4.74703
      vertex 35.33 -6.16899 5.1081
    endloop
  endfacet
  facet normal 0 -0.561186 0.82769
    outer loop
      vertex 29.83 -6.51101 4.74703
      vertex 35.33 -6.92266 4.46792
      vertex 35.33 -6.51101 4.74703
    endloop
  endfacet
  facet normal -1 0 0
    outer loop
      vertex 29.83 -6.51101 8.25297
      vertex 29.83 -3.87999 13
      vertex 29.83 -6.16899 7.8919
    endloop
  endfacet
  facet normal 0 -0.725996 -0.687699
    outer loop
      vertex 29.83 -6.51101 8.25297
      vertex 29.83 -6.16899 7.8919
      vertex 35.33 -6.51101 8.25297
    endloop
  endfacet
  facet normal 0 -0.714075 -0.700069
    outer loop
      vertex 29.83 -6.51101 8.25297
      vertex 35.33 -6.51101 8.25297
      vertex 35.33 -7.04731 8.8
    endloop
  endfacet
  facet normal -1 0 0
    outer loop
      vertex 29.83 -6.92266 4.46792
      vertex 29.83 -6.51101 4.74703
      vertex 29.83 -3.87999 0
    endloop
  endfacet
  facet normal 0 -0.561186 0.82769
    outer loop
      vertex 29.83 -6.92266 4.46792
      vertex 35.33 -6.92266 4.46792
      vertex 29.83 -6.51101 4.74703
    endloop
  endfacet
  facet normal 0 -0.370139 0.928977
    outer loop
      vertex 29.83 -6.92266 4.46792
      vertex 35.33 -7.38469 4.28384
      vertex 35.33 -6.92266 4.46792
    endloop
  endfacet
  facet normal -1 0 0
    outer loop
      vertex 29.83 -7.04731 8.8
      vertex 29.83 -3.87999 13
      vertex 29.83 -6.51101 8.25297
    endloop
  endfacet
  facet normal 0 -0.714075 -0.700069
    outer loop
      vertex 29.83 -7.04731 8.8
      vertex 29.83 -6.51101 8.25297
      vertex 35.33 -7.04731 8.8
    endloop
  endfacet
  facet normal -1 0 0
    outer loop
      vertex 29.83 -7.38469 4.28384
      vertex 29.83 -6.92266 4.46792
      vertex 29.83 -3.87999 0
    endloop
  endfacet
  facet normal 0 -0.370139 0.928977
    outer loop
      vertex 29.83 -7.38469 4.28384
      vertex 35.33 -7.38469 4.28384
      vertex 29.83 -6.92266 4.46792
    endloop
  endfacet
  facet normal 0 -0.161781 0.986827
    outer loop
      vertex 29.83 -7.38469 4.28384
      vertex 35.33 -7.87548 4.20337
      vertex 35.33 -7.38469 4.28384
    endloop
  endfacet
  facet normal -1 0 0
    outer loop
      vertex 29.83 -7.87548 4.20337
      vertex 29.83 -7.38469 4.28384
      vertex 29.83 -3.87999 0
    endloop
  endfacet
  facet normal 0 -0.161781 0.986827
    outer loop
      vertex 29.83 -7.87548 4.20337
      vertex 35.33 -7.87548 4.20337
      vertex 29.83 -7.38469 4.28384
    endloop
  endfacet
  facet normal -0 0.0541394 0.998533
    outer loop
      vertex 29.83 -7.87548 4.20337
      vertex 35.33 -8.3721 4.2303
      vertex 35.33 -7.87548 4.20337
    endloop
  endfacet
  facet normal -1 0 0
    outer loop
      vertex 29.83 -8.3721 4.2303
      vertex 29.83 -7.87548 4.20337
      vertex 29.83 -3.87999 0
    endloop
  endfacet
  facet normal 0 0.0541394 0.998533
    outer loop
      vertex 29.83 -8.3721 4.2303
      vertex 35.33 -8.3721 4.2303
      vertex 29.83 -7.87548 4.20337
    endloop
  endfacet
  facet normal -0 0.267527 0.96355
    outer loop
      vertex 29.83 -8.3721 4.2303
      vertex 35.33 -8.85132 4.36335
      vertex 35.33 -8.3721 4.2303
    endloop
  endfacet
  facet normal 0 0.267527 0.96355
    outer loop
      vertex 29.83 -8.85132 4.36335
      vertex 35.33 -8.85132 4.36335
      vertex 29.83 -8.3721 4.2303
    endloop
  endfacet
  facet normal -0 0.468409 0.883512
    outer loop
      vertex 29.83 -8.85132 4.36335
      vertex 35.33 -9.29073 4.59632
      vertex 35.33 -8.85132 4.36335
    endloop
  endfacet
  facet normal -1 0 0
    outer loop
      vertex 29.83 -8.95269 8.8
      vertex 29.83 -3.87999 13
      vertex 29.83 -7.04731 8.8
    endloop
  endfacet
  facet normal -0 0 -1
    outer loop
      vertex 29.83 -8.95269 8.8
      vertex 29.83 -7.04731 8.8
      vertex 35.33 -7.04731 8.8
    endloop
  endfacet
  facet normal 0 0 -1
    outer loop
      vertex 29.83 -8.95269 8.8
      vertex 35.33 -7.04731 8.8
      vertex 35.33 -8.95269 8.8
    endloop
  endfacet
  facet normal 0 0.707694 -0.706519
    outer loop
      vertex 29.83 -8.95269 8.8
      vertex 35.33 -8.95269 8.8
      vertex 35.33 -9.66979 8.08171
    endloop
  endfacet
  facet normal 0 0.468409 0.883512
    outer loop
      vertex 29.83 -9.29073 4.59632
      vertex 35.33 -9.29073 4.59632
      vertex 29.83 -8.85132 4.36335
    endloop
  endfacet
  facet normal -0 0.647387 0.762162
    outer loop
      vertex 29.83 -9.29073 4.59632
      vertex 35.33 -9.66979 4.91829
      vertex 35.33 -9.29073 4.59632
    endloop
  endfacet
  facet normal 0 0.647387 0.762162
    outer loop
      vertex 29.83 -9.66979 4.91829
      vertex 35.33 -9.66979 4.91829
      vertex 29.83 -9.29073 4.59632
    endloop
  endfacet
  facet normal 0 0.707694 -0.706519
    outer loop
      vertex 29.83 -9.66979 8.08171
      vertex 29.83 -8.95269 8.8
      vertex 35.33 -9.66979 8.08171
    endloop
  endfacet
  facet normal 0 0.796093 -0.605175
    outer loop
      vertex 29.83 -9.66979 8.08171
      vertex 35.33 -9.66979 8.08171
      vertex 35.33 -9.97077 7.68577
    endloop
  endfacet
  facet normal 0 0.796093 0.605175
    outer loop
      vertex 29.83 -9.97077 5.31423
      vertex 35.33 -9.66979 4.91829
      vertex 29.83 -9.66979 4.91829
    endloop
  endfacet
  facet normal 0 0.796093 0.605175
    outer loop
      vertex 29.83 -9.97077 5.31423
      vertex 35.33 -9.97077 5.31423
      vertex 35.33 -9.66979 4.91829
    endloop
  endfacet
  facet normal 0 0.796093 -0.605175
    outer loop
      vertex 29.83 -9.97077 7.68577
      vertex 29.83 -9.66979 8.08171
      vertex 35.33 -9.97077 7.68577
    endloop
  endfacet
  facet normal 0 0.907576 -0.419889
    outer loop
      vertex 29.83 -9.97077 7.68577
      vertex 35.33 -9.97077 7.68577
      vertex 35.33 -10.1796 7.23439
    endloop
  endfacet
  facet normal -0.55556 0.831477 0
    outer loop
      vertex 29.929 -3.86029 0
      vertex 29.929 -3.86029 13
      vertex 31.2845 -2.95456 0
    endloop
  endfacet
  facet normal 0 0 -1
    outer loop
      vertex 29.929 -3.86029 0
      vertex 31.2845 -2.95456 0
      vertex 35.33 -14 0
    endloop
  endfacet
  facet normal -0.55556 0.831477 0
    outer loop
      vertex 29.929 -3.86029 13
      vertex 31.2845 -2.95456 13
      vertex 31.2845 -2.95456 0
    endloop
  endfacet
  facet normal -0 0 1
    outer loop
      vertex 29.929 -3.86029 13
      vertex 35.33 -14 13
      vertex 31.2845 -2.95456 13
    endloop
  endfacet
  facet normal -0 0 -1
    outer loop
      vertex 29.929 3.86029 0
      vertex 30.1417 6.76147 0
      vertex 30.7241 6.57784 0
    endloop
  endfacet
  facet normal -0 0 -1
    outer loop
      vertex 29.929 3.86029 0
      vertex 30.7241 6.57784 0
      vertex 31.2883 6.34415 0
    endloop
  endfacet
  facet normal -0.555566 -0.831472 -0
    outer loop
      vertex 29.929 3.86029 0
      vertex 31.2845 2.95454 0
      vertex 31.2845 2.95454 13
    endloop
  endfacet
  facet normal -0.555566 -0.831472 0
    outer loop
      vertex 29.929 3.86029 0
      vertex 31.2845 2.95454 13
      vertex 29.929 3.86029 13
    endloop
  endfacet
  facet normal -0 0 -1
    outer loop
      vertex 29.929 3.86029 0
      vertex 31.2883 6.34415 0
      vertex 31.83 6.06216 0
    endloop
  endfacet
  facet normal -0 0 -1
    outer loop
      vertex 29.929 3.86029 0
      vertex 31.83 6.06216 0
      vertex 32.345 5.73405 0
    endloop
  endfacet
  facet normal 0 0 -1
    outer loop
      vertex 29.929 3.86029 0
      vertex 32.345 5.73405 0
      vertex 31.2845 2.95454 0
    endloop
  endfacet
  facet normal 0 0 1
    outer loop
      vertex 29.929 3.86029 13
      vertex 30.7241 6.57784 13
      vertex 30.1417 6.76147 13
    endloop
  endfacet
  facet normal 0 0 1
    outer loop
      vertex 29.929 3.86029 13
      vertex 31.2845 2.95454 13
      vertex 32.345 5.73405 13
    endloop
  endfacet
  facet normal 0 0 1
    outer loop
      vertex 29.929 3.86029 13
      vertex 31.2883 6.34415 13
      vertex 30.7241 6.57784 13
    endloop
  endfacet
  facet normal 0 0 1
    outer loop
      vertex 29.929 3.86029 13
      vertex 31.83 6.06216 13
      vertex 31.2883 6.34415 13
    endloop
  endfacet
  facet normal 0 0 1
    outer loop
      vertex 29.929 3.86029 13
      vertex 32.345 5.73405 13
      vertex 31.83 6.06216 13
    endloop
  endfacet
  facet normal 0.300714 0.953714 0
    outer loop
      vertex 30.1417 6.76147 0
      vertex 30.1417 6.76147 13
      vertex 30.7241 6.57784 0
    endloop
  endfacet
  facet normal 0.300714 0.953714 -0
    outer loop
      vertex 30.1417 6.76147 13
      vertex 30.7241 6.57784 13
      vertex 30.7241 6.57784 0
    endloop
  endfacet
  facet normal 0.382681 0.923881 0
    outer loop
      vertex 30.7241 6.57784 0
      vertex 30.7241 6.57784 13
      vertex 31.2883 6.34415 0
    endloop
  endfacet
  facet normal 0.382681 0.923881 -0
    outer loop
      vertex 30.7241 6.57784 13
      vertex 31.2883 6.34415 13
      vertex 31.2883 6.34415 0
    endloop
  endfacet
  facet normal -0.831472 0.555566 0
    outer loop
      vertex 31.2845 -2.95456 0
      vertex 31.2845 -2.95456 13
      vertex 32.1903 -1.599 13
    endloop
  endfacet
  facet normal 0 -0 -1
    outer loop
      vertex 31.2845 -2.95456 0
      vertex 32.1903 -1.599 0
      vertex 35.33 0 0
    endloop
  endfacet
  facet normal -0.831472 0.555566 0
    outer loop
      vertex 31.2845 -2.95456 0
      vertex 32.1903 -1.599 13
      vertex 32.1903 -1.599 0
    endloop
  endfacet
  facet normal 0 0 -1
    outer loop
      vertex 31.2845 -2.95456 0
      vertex 35.33 0 0
      vertex 35.33 -14 0
    endloop
  endfacet
  facet normal 0 0 1
    outer loop
      vertex 31.2845 -2.95456 13
      vertex 35.33 -14 13
      vertex 35.33 0 13
    endloop
  endfacet
  facet normal 0 0 1
    outer loop
      vertex 31.2845 -2.95456 13
      vertex 35.33 0 13
      vertex 32.1903 -1.599 13
    endloop
  endfacet
  facet normal -0.831472 -0.555566 0
    outer loop
      vertex 31.2845 2.95454 0
      vertex 32.1903 1.59898 0
      vertex 31.2845 2.95454 13
    endloop
  endfacet
  facet normal -0 0 -1
    outer loop
      vertex 31.2845 2.95454 0
      vertex 32.345 5.73405 0
      vertex 32.8295 5.3623 0
    endloop
  endfacet
  facet normal -0 0 -1
    outer loop
      vertex 31.2845 2.95454 0
      vertex 32.8295 5.3623 0
      vertex 33.2797 4.94974 0
    endloop
  endfacet
  facet normal -0 0 -1
    outer loop
      vertex 31.2845 2.95454 0
      vertex 33.2797 4.94974 0
      vertex 33.6923 4.49951 0
    endloop
  endfacet
  facet normal -0 0 -1
    outer loop
      vertex 31.2845 2.95454 0
      vertex 33.6923 4.49951 0
      vertex 34.0641 4.01503 0
    endloop
  endfacet
  facet normal 0 0 -1
    outer loop
      vertex 31.2845 2.95454 0
      vertex 34.0641 4.01503 0
      vertex 32.1903 1.59898 0
    endloop
  endfacet
  facet normal -0.831472 -0.555566 0
    outer loop
      vertex 31.2845 2.95454 13
      vertex 32.1903 1.59898 0
      vertex 32.1903 1.59898 13
    endloop
  endfacet
  facet normal 0 0 1
    outer loop
      vertex 31.2845 2.95454 13
      vertex 32.1903 1.59898 13
      vertex 32.8295 5.3623 13
    endloop
  endfacet
  facet normal 0 0 1
    outer loop
      vertex 31.2845 2.95454 13
      vertex 32.8295 5.3623 13
      vertex 32.345 5.73405 13
    endloop
  endfacet
  facet normal 0.461756 0.887007 0
    outer loop
      vertex 31.2883 6.34415 0
      vertex 31.2883 6.34415 13
      vertex 31.83 6.06216 0
    endloop
  endfacet
  facet normal 0.461756 0.887007 -0
    outer loop
      vertex 31.2883 6.34415 13
      vertex 31.83 6.06216 13
      vertex 31.83 6.06216 0
    endloop
  endfacet
  facet normal 0.537288 0.843399 0
    outer loop
      vertex 31.83 6.06216 0
      vertex 31.83 6.06216 13
      vertex 32.345 5.73405 0
    endloop
  endfacet
  facet normal 0.537288 0.843399 -0
    outer loop
      vertex 31.83 6.06216 13
      vertex 32.345 5.73405 13
      vertex 32.345 5.73405 0
    endloop
  endfacet
  facet normal -0.980784 0.195096 0
    outer loop
      vertex 32.1903 -1.599 0
      vertex 32.1903 -1.599 13
      vertex 32.5084 0 13
    endloop
  endfacet
  facet normal 0 -0 -1
    outer loop
      vertex 32.1903 -1.599 0
      vertex 32.5084 0 0
      vertex 35.33 0 0
    endloop
  endfacet
  facet normal -0.980784 0.195096 0
    outer loop
      vertex 32.1903 -1.599 0
      vertex 32.5084 0 13
      vertex 32.5084 0 0
    endloop
  endfacet
  facet normal 0 0 1
    outer loop
      vertex 32.1903 -1.599 13
      vertex 35.33 0 13
      vertex 32.5084 0 13
    endloop
  endfacet
  facet normal -0.980784 -0.195097 0
    outer loop
      vertex 32.1903 1.59898 0
      vertex 32.5084 0 0
      vertex 32.1903 1.59898 13
    endloop
  endfacet
  facet normal -0 0 -1
    outer loop
      vertex 32.1903 1.59898 0
      vertex 34.0641 4.01503 0
      vertex 34.3922 3.5 0
    endloop
  endfacet
  facet normal -0 0 -1
    outer loop
      vertex 32.1903 1.59898 0
      vertex 34.3922 3.5 0
      vertex 34.6741 2.95831 0
    endloop
  endfacet
  facet normal -0 0 -1
    outer loop
      vertex 32.1903 1.59898 0
      vertex 34.6741 2.95831 0
      vertex 34.9078 2.39413 0
    endloop
  endfacet
  facet normal -0 0 -1
    outer loop
      vertex 32.1903 1.59898 0
      vertex 34.9078 2.39413 0
      vertex 35.0915 1.81172 0
    endloop
  endfacet
  facet normal 0 0 -1
    outer loop
      vertex 32.1903 1.59898 0
      vertex 35.0915 1.81172 0
      vertex 35.2236 1.21553 0
    endloop
  endfacet
  facet normal 0 0 -1
    outer loop
      vertex 32.1903 1.59898 0
      vertex 35.2236 1.21553 0
      vertex 32.5084 0 0
    endloop
  endfacet
  facet normal -0.980784 -0.195097 0
    outer loop
      vertex 32.1903 1.59898 13
      vertex 32.5084 0 0
      vertex 32.5084 0 13
    endloop
  endfacet
  facet normal 0 0 1
    outer loop
      vertex 32.1903 1.59898 13
      vertex 32.5084 0 13
      vertex 32.8295 5.3623 13
    endloop
  endfacet
  facet normal 0.608767 0.793349 0
    outer loop
      vertex 32.345 5.73405 0
      vertex 32.345 5.73405 13
      vertex 32.8295 5.3623 0
    endloop
  endfacet
  facet normal 0.608767 0.793349 -0
    outer loop
      vertex 32.345 5.73405 13
      vertex 32.8295 5.3623 13
      vertex 32.8295 5.3623 0
    endloop
  endfacet
  facet normal -0 0 -1
    outer loop
      vertex 32.5084 0 0
      vertex 35.2236 1.21553 0
      vertex 35.3034 0.610077 0
    endloop
  endfacet
  facet normal 0 0 -1
    outer loop
      vertex 32.5084 0 0
      vertex 35.3034 0.610077 0
      vertex 35.33 0 0
    endloop
  endfacet
  facet normal 0 0 1
    outer loop
      vertex 32.5084 0 13
      vertex 33.2797 4.94974 13
      vertex 32.8295 5.3623 13
    endloop
  endfacet
  facet normal 0 0 1
    outer loop
      vertex 32.5084 0 13
      vertex 33.6923 4.49951 13
      vertex 33.2797 4.94974 13
    endloop
  endfacet
  facet normal 0 0 1
    outer loop
      vertex 32.5084 0 13
      vertex 34.0641 4.01503 13
      vertex 33.6923 4.49951 13
    endloop
  endfacet
  facet normal 0 0 1
    outer loop
      vertex 32.5084 0 13
      vertex 34.3922 3.5 13
      vertex 34.0641 4.01503 13
    endloop
  endfacet
  facet normal 0 0 1
    outer loop
      vertex 32.5084 0 13
      vertex 34.6741 2.95831 13
      vertex 34.3922 3.5 13
    endloop
  endfacet
  facet normal 0 0 1
    outer loop
      vertex 32.5084 0 13
      vertex 34.9078 2.39413 13
      vertex 34.6741 2.95831 13
    endloop
  endfacet
  facet normal 0 0 1
    outer loop
      vertex 32.5084 0 13
      vertex 35.0915 1.81172 13
      vertex 34.9078 2.39413 13
    endloop
  endfacet
  facet normal 0 0 1
    outer loop
      vertex 32.5084 0 13
      vertex 35.2236 1.21553 13
      vertex 35.0915 1.81172 13
    endloop
  endfacet
  facet normal 0 0 1
    outer loop
      vertex 32.5084 0 13
      vertex 35.3034 0.610077 13
      vertex 35.2236 1.21553 13
    endloop
  endfacet
  facet normal 0 0 1
    outer loop
      vertex 32.5084 0 13
      vertex 35.33 0 13
      vertex 35.3034 0.610077 13
    endloop
  endfacet
  facet normal 0.675588 0.73728 0
    outer loop
      vertex 32.8295 5.3623 0
      vertex 32.8295 5.3623 13
      vertex 33.2797 4.94974 0
    endloop
  endfacet
  facet normal 0.675588 0.73728 -0
    outer loop
      vertex 32.8295 5.3623 13
      vertex 33.2797 4.94974 13
      vertex 33.2797 4.94974 0
    endloop
  endfacet
  facet normal 0.737268 0.6756 0
    outer loop
      vertex 33.2797 4.94974 0
      vertex 33.2797 4.94974 13
      vertex 33.6923 4.49951 13
    endloop
  endfacet
  facet normal 0.737268 0.6756 0
    outer loop
      vertex 33.2797 4.94974 0
      vertex 33.6923 4.49951 13
      vertex 33.6923 4.49951 0
    endloop
  endfacet
  facet normal 0.793358 0.608755 0
    outer loop
      vertex 33.6923 4.49951 0
      vertex 33.6923 4.49951 13
      vertex 34.0641 4.01503 13
    endloop
  endfacet
  facet normal 0.793358 0.608755 0
    outer loop
      vertex 33.6923 4.49951 0
      vertex 34.0641 4.01503 13
      vertex 34.0641 4.01503 0
    endloop
  endfacet
  facet normal 0.843392 0.537299 0
    outer loop
      vertex 34.0641 4.01503 0
      vertex 34.0641 4.01503 13
      vertex 34.3922 3.5 13
    endloop
  endfacet
  facet normal 0.843392 0.537299 0
    outer loop
      vertex 34.0641 4.01503 0
      vertex 34.3922 3.5 13
      vertex 34.3922 3.5 0
    endloop
  endfacet
  facet normal 0.887012 0.461746 0
    outer loop
      vertex 34.3922 3.5 0
      vertex 34.3922 3.5 13
      vertex 34.6741 2.95831 13
    endloop
  endfacet
  facet normal 0.887012 0.461746 0
    outer loop
      vertex 34.3922 3.5 0
      vertex 34.6741 2.95831 13
      vertex 34.6741 2.95831 0
    endloop
  endfacet
  facet normal 0.923881 0.382681 0
    outer loop
      vertex 34.6741 2.95831 0
      vertex 34.6741 2.95831 13
      vertex 34.9078 2.39413 13
    endloop
  endfacet
  facet normal 0.923881 0.382681 0
    outer loop
      vertex 34.6741 2.95831 0
      vertex 34.9078 2.39413 13
      vertex 34.9078 2.39413 0
    endloop
  endfacet
  facet normal 0.953714 0.300714 0
    outer loop
      vertex 34.9078 2.39413 0
      vertex 34.9078 2.39413 13
      vertex 35.0915 1.81172 13
    endloop
  endfacet
  facet normal 0.953714 0.300714 0
    outer loop
      vertex 34.9078 2.39413 0
      vertex 35.0915 1.81172 13
      vertex 35.0915 1.81172 0
    endloop
  endfacet
  facet normal 0.976296 0.216438 0
    outer loop
      vertex 35.0915 1.81172 0
      vertex 35.0915 1.81172 13
      vertex 35.2236 1.21553 13
    endloop
  endfacet
  facet normal 0.976296 0.216438 0
    outer loop
      vertex 35.0915 1.81172 0
      vertex 35.2236 1.21553 13
      vertex 35.2236 1.21553 0
    endloop
  endfacet
  facet normal 0.991444 0.13053 0
    outer loop
      vertex 35.2236 1.21553 0
      vertex 35.2236 1.21553 13
      vertex 35.3034 0.610077 13
    endloop
  endfacet
  facet normal 0.991444 0.13053 0
    outer loop
      vertex 35.2236 1.21553 0
      vertex 35.3034 0.610077 13
      vertex 35.3034 0.610077 0
    endloop
  endfacet
  facet normal 0.999049 0.0436031 0
    outer loop
      vertex 35.3034 0.610077 0
      vertex 35.3034 0.610077 13
      vertex 35.33 0 13
    endloop
  endfacet
  facet normal 0.999049 0.0436031 0
    outer loop
      vertex 35.3034 0.610077 0
      vertex 35.33 0 13
      vertex 35.33 0 0
    endloop
  endfacet
  facet normal 1 0 0
    outer loop
      vertex 35.33 -14 0
      vertex 35.33 -10.1796 5.76561
      vertex 35.33 -10.2865 6.25133
    endloop
  endfacet
  facet normal 1 0 0
    outer loop
      vertex 35.33 -14 0
      vertex 35.33 -10.2865 6.25133
      vertex 35.33 -14 13
    endloop
  endfacet
  facet normal 1 0 0
    outer loop
      vertex 35.33 -14 0
      vertex 35.33 -7.87548 4.20337
      vertex 35.33 -8.3721 4.2303
    endloop
  endfacet
  facet normal 1 0 0
    outer loop
      vertex 35.33 -14 0
      vertex 35.33 -8.3721 4.2303
      vertex 35.33 -8.85132 4.36335
    endloop
  endfacet
  facet normal 1 0 0
    outer loop
      vertex 35.33 -14 0
      vertex 35.33 -8.85132 4.36335
      vertex 35.33 -9.29073 4.59632
    endloop
  endfacet
  facet normal 1 0 0
    outer loop
      vertex 35.33 -14 0
      vertex 35.33 -9.29073 4.59632
      vertex 35.33 -9.66979 4.91829
    endloop
  endfacet
  facet normal 1 0 0
    outer loop
      vertex 35.33 -14 0
      vertex 35.33 -9.66979 4.91829
      vertex 35.33 -9.97077 5.31423
    endloop
  endfacet
  facet normal 1 0 0
    outer loop
      vertex 35.33 -14 0
      vertex 35.33 -9.97077 5.31423
      vertex 35.33 -10.1796 5.76561
    endloop
  endfacet
  facet normal 1 0 0
    outer loop
      vertex 35.33 -14 0
      vertex 35.33 0 0
      vertex 35.33 -7.87548 4.20337
    endloop
  endfacet
  facet normal 1 0 0
    outer loop
      vertex 35.33 -14 13
      vertex 35.33 -10.1796 7.23439
      vertex 35.33 -9.97077 7.68577
    endloop
  endfacet
  facet normal 1 0 0
    outer loop
      vertex 35.33 -14 13
      vertex 35.33 -10.2865 6.25133
      vertex 35.33 -10.2865 6.74867
    endloop
  endfacet
  facet normal 1 0 0
    outer loop
      vertex 35.33 -14 13
      vertex 35.33 -10.2865 6.74867
      vertex 35.33 -10.1796 7.23439
    endloop
  endfacet
  facet normal 1 -0 0
    outer loop
      vertex 35.33 -14 13
      vertex 35.33 -7.04731 8.8
      vertex 35.33 0 13
    endloop
  endfacet
  facet normal 1 0 0
    outer loop
      vertex 35.33 -14 13
      vertex 35.33 -8.95269 8.8
      vertex 35.33 -7.04731 8.8
    endloop
  endfacet
  facet normal 1 0 0
    outer loop
      vertex 35.33 -14 13
      vertex 35.33 -9.66979 8.08171
      vertex 35.33 -8.95269 8.8
    endloop
  endfacet
  facet normal 1 0 0
    outer loop
      vertex 35.33 -14 13
      vertex 35.33 -9.97077 7.68577
      vertex 35.33 -9.66979 8.08171
    endloop
  endfacet
  facet normal 1 0 0
    outer loop
      vertex 35.33 -5.7 6.5
      vertex 35.33 0 0
      vertex 35.33 0 13
    endloop
  endfacet
  facet normal 1 -0 0
    outer loop
      vertex 35.33 -5.75377 6.00557
      vertex 35.33 0 0
      vertex 35.33 -5.7 6.5
    endloop
  endfacet
  facet normal 1 0 0
    outer loop
      vertex 35.33 -5.75377 6.99443
      vertex 35.33 -5.7 6.5
      vertex 35.33 0 13
    endloop
  endfacet
  facet normal 1 -0 0
    outer loop
      vertex 35.33 -5.91258 5.53426
      vertex 35.33 0 0
      vertex 35.33 -5.75377 6.00557
    endloop
  endfacet
  facet normal 1 0 0
    outer loop
      vertex 35.33 -5.91258 7.46574
      vertex 35.33 -5.75377 6.99443
      vertex 35.33 0 13
    endloop
  endfacet
  facet normal 1 -0 0
    outer loop
      vertex 35.33 -6.16899 5.1081
      vertex 35.33 0 0
      vertex 35.33 -5.91258 5.53426
    endloop
  endfacet
  facet normal 1 0 0
    outer loop
      vertex 35.33 -6.16899 7.8919
      vertex 35.33 -5.91258 7.46574
      vertex 35.33 0 13
    endloop
  endfacet
  facet normal 1 -0 0
    outer loop
      vertex 35.33 -6.51101 4.74703
      vertex 35.33 0 0
      vertex 35.33 -6.16899 5.1081
    endloop
  endfacet
  facet normal 1 0 0
    outer loop
      vertex 35.33 -6.51101 8.25297
      vertex 35.33 -6.16899 7.8919
      vertex 35.33 0 13
    endloop
  endfacet
  facet normal 1 -0 0
    outer loop
      vertex 35.33 -6.92266 4.46792
      vertex 35.33 0 0
      vertex 35.33 -6.51101 4.74703
    endloop
  endfacet
  facet normal 1 0 0
    outer loop
      vertex 35.33 -7.04731 8.8
      vertex 35.33 -6.51101 8.25297
      vertex 35.33 0 13
    endloop
  endfacet
  facet normal 1 -0 0
    outer loop
      vertex 35.33 -7.38469 4.28384
      vertex 35.33 0 0
      vertex 35.33 -6.92266 4.46792
    endloop
  endfacet
  facet normal 1 -0 0
    outer loop
      vertex 35.33 -7.87548 4.20337
      vertex 35.33 0 0
      vertex 35.33 -7.38469 4.28384
    endloop
  endfacet
  facet normal -0 0 -1
    outer loop
      vertex 5 -14 0
      vertex 24.4697 -1.599 0
      vertex 25.3754 -2.95456 0
    endloop
  endfacet
  facet normal 0 0 -1
    outer loop
      vertex 5 -14 0
      vertex 25.3754 -2.95456 0
      vertex 28.33 -14 0
    endloop
  endfacet
  facet normal 0 -1 -0
    outer loop
      vertex 5 -14 0
      vertex 28.33 -14 0
      vertex 28.33 -14 13
    endloop
  endfacet
  facet normal 0 -1 0
    outer loop
      vertex 5 -14 0
      vertex 28.33 -14 13
      vertex 5 -14 13
    endloop
  endfacet
  facet normal 0 0 -1
    outer loop
      vertex 5 -14 0
      vertex 5 7 0
      vertex 24.4697 -1.599 0
    endloop
  endfacet
  facet normal 0 0 1
    outer loop
      vertex 5 -14 13
      vertex 24.4697 -1.599 13
      vertex 5 7 13
    endloop
  endfacet
  facet normal 0 0 1
    outer loop
      vertex 5 -14 13
      vertex 25.3754 -2.95456 13
      vertex 24.4697 -1.599 13
    endloop
  endfacet
  facet normal 0 0 1
    outer loop
      vertex 5 -14 13
      vertex 28.33 -14 13
      vertex 25.3754 -2.95456 13
    endloop
  endfacet
  facet normal 1 0 0
    outer loop
      vertex 5 -17 6.5
      vertex 5 -14 0
      vertex 5 -14 13
    endloop
  endfacet
  facet normal 1 -0 0
    outer loop
      vertex 5 -17.0581 6.02137
      vertex 5 -14 0
      vertex 5 -17 6.5
    endloop
  endfacet
  facet normal 1 0 0
    outer loop
      vertex 5 -17.0581 6.97863
      vertex 5 -17 6.5
      vertex 5 -14 13
    endloop
  endfacet
  facet normal 1 -0 0
    outer loop
      vertex 5 -17.2291 5.57055
      vertex 5 -14 0
      vertex 5 -17.0581 6.02137
    endloop
  endfacet
  facet normal 1 0 0
    outer loop
      vertex 5 -17.2291 7.42945
      vertex 5 -17.0581 6.97863
      vertex 5 -14 13
    endloop
  endfacet
  facet normal 1 -0 0
    outer loop
      vertex 5 -17.503 5.17375
      vertex 5 -14 0
      vertex 5 -17.2291 5.57055
    endloop
  endfacet
  facet normal 1 0 0
    outer loop
      vertex 5 -17.503 7.82625
      vertex 5 -17.2291 7.42945
      vertex 5 -14 13
    endloop
  endfacet
  facet normal 1 -0 0
    outer loop
      vertex 5 -17.8639 4.85403
      vertex 5 -14 0
      vertex 5 -17.503 5.17375
    endloop
  endfacet
  facet normal 1 0 0
    outer loop
      vertex 5 -18.1716 8.5
      vertex 5 -17.503 7.82625
      vertex 5 -14 13
    endloop
  endfacet
  facet normal 1 -0 0
    outer loop
      vertex 5 -18.2908 4.62997
      vertex 5 -14 0
      vertex 5 -17.8639 4.85403
    endloop
  endfacet
  facet normal 1 -0 0
    outer loop
      vertex 5 -18.7589 4.51458
      vertex 5 -14 0
      vertex 5 -18.2908 4.62997
    endloop
  endfacet
  facet normal 1 -0 0
    outer loop
      vertex 5 -21.2411 4.51458
      vertex 5 -14 0
      vertex 5 -18.7589 4.51458
    endloop
  endfacet
  facet normal 1 0 0
    outer loop
      vertex 5 -21.8284 8.5
      vertex 5 -18.1716 8.5
      vertex 5 -14 13
    endloop
  endfacet
  facet normal 1 0 0
    outer loop
      vertex 5 -26 0
      vertex 5 -14 0
      vertex 5 -21.2411 4.51458
    endloop
  endfacet
  facet normal 1 0 0
    outer loop
      vertex 5 -26 0
      vertex 5 -21.2411 4.51458
      vertex 5 -21.7092 4.62997
    endloop
  endfacet
  facet normal 1 0 0
    outer loop
      vertex 5 -26 0
      vertex 5 -21.7092 4.62997
      vertex 5 -22.1361 4.85403
    endloop
  endfacet
  facet normal 1 0 0
    outer loop
      vertex 5 -26 0
      vertex 5 -22.1361 4.85403
      vertex 5 -22.497 5.17375
    endloop
  endfacet
  facet normal 1 0 0
    outer loop
      vertex 5 -26 0
      vertex 5 -22.497 5.17375
      vertex 5 -22.7709 5.57055
    endloop
  endfacet
  facet normal 1 0 0
    outer loop
      vertex 5 -26 0
      vertex 5 -22.7709 5.57055
      vertex 5 -22.9419 6.02137
    endloop
  endfacet
  facet normal 1 0 0
    outer loop
      vertex 5 -26 0
      vertex 5 -22.9419 6.02137
      vertex 5 -23 6.5
    endloop
  endfacet
  facet normal 1 0 0
    outer loop
      vertex 5 -26 0
      vertex 5 -23 6.5
      vertex 5 -26 13
    endloop
  endfacet
  facet normal 1 -0 0
    outer loop
      vertex 5 -26 13
      vertex 5 -21.8284 8.5
      vertex 5 -14 13
    endloop
  endfacet
  facet normal 1 0 0
    outer loop
      vertex 5 -26 13
      vertex 5 -22.497 7.82625
      vertex 5 -21.8284 8.5
    endloop
  endfacet
  facet normal 1 0 0
    outer loop
      vertex 5 -26 13
      vertex 5 -22.7709 7.42945
      vertex 5 -22.497 7.82625
    endloop
  endfacet
  facet normal 1 0 0
    outer loop
      vertex 5 -26 13
      vertex 5 -22.9419 6.97863
      vertex 5 -22.7709 7.42945
    endloop
  endfacet
  facet normal 1 0 0
    outer loop
      vertex 5 -26 13
      vertex 5 -23 6.5
      vertex 5 -22.9419 6.97863
    endloop
  endfacet
  facet normal 1 0 0
    outer loop
      vertex 5 11.1716 8.5
      vertex 5 14.8284 8.5
      vertex 5 19 13
    endloop
  endfacet
  facet normal 1 -0 0
    outer loop
      vertex 5 11.7589 4.51458
      vertex 5 19 0
      vertex 5 14.2411 4.51458
    endloop
  endfacet
  facet normal 1 -0 0
    outer loop
      vertex 5 14.2411 4.51458
      vertex 5 19 0
      vertex 5 14.7092 4.62997
    endloop
  endfacet
  facet normal 1 -0 0
    outer loop
      vertex 5 14.7092 4.62997
      vertex 5 19 0
      vertex 5 15.1361 4.85403
    endloop
  endfacet
  facet normal 1 0 0
    outer loop
      vertex 5 14.8284 8.5
      vertex 5 15.497 7.82625
      vertex 5 19 13
    endloop
  endfacet
  facet normal 1 -0 0
    outer loop
      vertex 5 15.1361 4.85403
      vertex 5 19 0
      vertex 5 15.497 5.17375
    endloop
  endfacet
  facet normal 1 -0 0
    outer loop
      vertex 5 15.497 5.17375
      vertex 5 19 0
      vertex 5 15.7709 5.57055
    endloop
  endfacet
  facet normal 1 0 0
    outer loop
      vertex 5 15.497 7.82625
      vertex 5 15.7709 7.42945
      vertex 5 19 13
    endloop
  endfacet
  facet normal 1 -0 0
    outer loop
      vertex 5 15.7709 5.57055
      vertex 5 19 0
      vertex 5 15.9419 6.02137
    endloop
  endfacet
  facet normal 1 0 0
    outer loop
      vertex 5 15.7709 7.42945
      vertex 5 15.9419 6.97863
      vertex 5 19 13
    endloop
  endfacet
  facet normal 1 -0 0
    outer loop
      vertex 5 15.9419 6.02137
      vertex 5 19 0
      vertex 5 16 6.5
    endloop
  endfacet
  facet normal 1 0 0
    outer loop
      vertex 5 15.9419 6.97863
      vertex 5 16 6.5
      vertex 5 19 13
    endloop
  endfacet
  facet normal 1 0 0
    outer loop
      vertex 5 16 6.5
      vertex 5 19 0
      vertex 5 19 13
    endloop
  endfacet
  facet normal 0 0 -1
    outer loop
      vertex 5 7 0
      vertex 24.1516 -1.52588e-05 0
      vertex 24.4697 -1.599 0
    endloop
  endfacet
  facet normal 0 0 -1
    outer loop
      vertex 5 7 0
      vertex 24.4697 1.59898 0
      vertex 24.1516 -1.52588e-05 0
    endloop
  endfacet
  facet normal 0 0 -1
    outer loop
      vertex 5 7 0
      vertex 25.3754 2.95454 0
      vertex 24.4697 1.59898 0
    endloop
  endfacet
  facet normal 0 0 -1
    outer loop
      vertex 5 7 0
      vertex 28.33 7 0
      vertex 25.3754 2.95454 0
    endloop
  endfacet
  facet normal 1 0 0
    outer loop
      vertex 5 7 0
      vertex 5 10 6.5
      vertex 5 7 13
    endloop
  endfacet
  facet normal 1 0 0
    outer loop
      vertex 5 7 0
      vertex 5 10.0581 6.02137
      vertex 5 10 6.5
    endloop
  endfacet
  facet normal 1 0 0
    outer loop
      vertex 5 7 0
      vertex 5 10.2291 5.57055
      vertex 5 10.0581 6.02137
    endloop
  endfacet
  facet normal 1 0 0
    outer loop
      vertex 5 7 0
      vertex 5 10.503 5.17375
      vertex 5 10.2291 5.57055
    endloop
  endfacet
  facet normal 1 0 0
    outer loop
      vertex 5 7 0
      vertex 5 10.8639 4.85403
      vertex 5 10.503 5.17375
    endloop
  endfacet
  facet normal 1 0 0
    outer loop
      vertex 5 7 0
      vertex 5 11.2908 4.62997
      vertex 5 10.8639 4.85403
    endloop
  endfacet
  facet normal 1 0 0
    outer loop
      vertex 5 7 0
      vertex 5 11.7589 4.51458
      vertex 5 11.2908 4.62997
    endloop
  endfacet
  facet normal 1 0 0
    outer loop
      vertex 5 7 0
      vertex 5 19 0
      vertex 5 11.7589 4.51458
    endloop
  endfacet
  facet normal 0 1 0
    outer loop
      vertex 5 7 0
      vertex 5 7 13
      vertex 28.33 7 0
    endloop
  endfacet
  facet normal 0 0 1
    outer loop
      vertex 5 7 13
      vertex 24.1516 -1.52588e-05 13
      vertex 24.4697 1.59898 13
    endloop
  endfacet
  facet normal 0 0 1
    outer loop
      vertex 5 7 13
      vertex 24.4697 -1.599 13
      vertex 24.1516 -1.52588e-05 13
    endloop
  endfacet
  facet normal 0 0 1
    outer loop
      vertex 5 7 13
      vertex 24.4697 1.59898 13
      vertex 25.3754 2.95454 13
    endloop
  endfacet
  facet normal -0 0 1
    outer loop
      vertex 5 7 13
      vertex 25.3754 2.95454 13
      vertex 28.33 7 13
    endloop
  endfacet
  facet normal 0 1 -0
    outer loop
      vertex 5 7 13
      vertex 28.33 7 13
      vertex 28.33 7 0
    endloop
  endfacet
  facet normal 1 0 0
    outer loop
      vertex 5 7 13
      vertex 5 10 6.5
      vertex 5 10.0581 6.97863
    endloop
  endfacet
  facet normal 1 0 0
    outer loop
      vertex 5 7 13
      vertex 5 10.0581 6.97863
      vertex 5 10.2291 7.42945
    endloop
  endfacet
  facet normal 1 0 0
    outer loop
      vertex 5 7 13
      vertex 5 10.2291 7.42945
      vertex 5 10.503 7.82625
    endloop
  endfacet
  facet normal 1 0 0
    outer loop
      vertex 5 7 13
      vertex 5 10.503 7.82625
      vertex 5 11.1716 8.5
    endloop
  endfacet
  facet normal 1 -0 0
    outer loop
      vertex 5 7 13
      vertex 5 11.1716 8.5
      vertex 5 19 13
    endloop
  endfacet
endsolid OpenSCAD_Model
